<svg width="564" height="252" viewBox="0 0 564 252" fill="none" xmlns="http://www.w3.org/2000/svg">
<path d="M0 20C0 8.9543 8.95431 0 20 0H544C555.046 0 564 8.95431 564 20V232C564 243.046 555.046 252 544 252H20C8.95432 252 0 243.046 0 232V20Z" fill="#8CEFE9"/>
<path d="M35.6095 168.877C35.1677 166.21 34.6684 163.549 34.1701 160.882C32.6753 152.884 31.1935 144.849 31.329 136.549C31.2277 133.527 31.2557 130.548 31.421 127.589C31.9193 118.72 33.6544 110.026 36.5121 101.745C37.6552 98.4325 38.9863 95.1993 40.5216 92.1154C50.3491 65.4964 74.18 49.3386 97.4987 39.911C100.83 38.564 104.249 37.4795 107.755 36.699C125.177 42.2837 140.672 30.7605 157.296 26.4565C171.481 23.0264 184.331 32.25 188.222 47.8252C190.834 64.3008 205.527 62.3916 215.319 77.7847C219.856 82.7654 222.128 89.1078 224.288 95.3889C225.394 98.788 226.312 102.263 227.042 105.796C228.503 112.862 229.208 120.164 229.165 127.477C229.481 130.74 229.651 133.963 229.614 137.187C229.425 153.296 220.423 166.803 208.79 181.271C206.743 184.668 204.789 187.918 202.674 191.021C192.122 206.551 179.254 218.081 159.393 222.648C156.607 223.911 153.819 224.979 151.004 225.85C148.189 226.72 145.349 227.394 142.485 227.893C119.263 229.376 107.762 224.741 84.2994 223.787C62.4757 222.798 53.8697 211.04 45.6064 195.193C43.8642 192.227 42.126 189.288 40.6553 186.168C39.1842 183.048 38.0375 179.701 37.2708 176.104C36.6201 173.762 36.0706 171.345 35.6095 168.877Z" fill="#36EEE0"/>
<path d="M68.9209 74.4099C70.9044 73.1549 72.8643 71.8547 74.8282 70.5545C80.7196 66.6536 98.1013 57.9629 100.523 57.0941C107.785 54.4928 114.902 54.3858 122.491 53.8701C125.527 53.6639 129.808 55.2058 132.793 55.3906C159.95 73.2404 175.835 54.9257 196.365 76.2581C198.546 78.4886 200.593 80.8337 202.403 83.374C208.228 96.7648 213.955 109.15 223.02 120.989C230.562 131.172 229.105 146.206 221.107 154.793C212.198 166.607 205.79 170.83 200.231 182.065C197.782 187.378 194.179 192.759 189.887 196.612C187.542 198.646 185.008 201.896 182.429 203.675C177.273 207.233 173.32 209.543 167.457 211.982C164.954 213.339 161.073 213.65 158.483 214.711C145.535 220.009 129.948 224.477 114.442 220.068C111.034 219.58 107.271 217.169 104.073 216.527C88.0842 213.341 73.6959 208.503 63.3245 194.165C61.3721 192.365 59.5747 190.495 57.9263 188.539C56.2778 186.582 54.7781 184.539 53.4106 182.417C44.3698 164.348 36.9187 150.49 29.7446 131.404C23.1539 113.617 41.3801 103.275 51.258 91.306C53.0404 88.9097 54.8031 86.5257 56.8007 84.2939C58.7983 82.0621 61.0866 80.0132 63.7037 78.1834C65.3567 76.8711 67.1038 75.6131 68.9209 74.4099Z" fill="#00122C"/>
<path d="M184.483 92.2669V97.2088H74.9424V92.2669C74.9424 90.0664 76.7264 88.2819 78.9269 88.2819H180.498C182.698 88.2819 184.483 90.0664 184.483 92.2669Z" fill="#AABFCF"/>
<path d="M184.483 97.2088V159.831C184.483 162.031 182.698 163.816 180.498 163.816H78.9269C76.7264 163.816 74.9424 162.031 74.9424 159.831V97.2088H184.483Z" fill="#384D5B"/>
<path d="M165.904 92.7454C165.904 92.0005 166.508 91.3969 167.253 91.3969C167.997 91.3969 168.601 92.0005 168.601 92.7454C168.601 93.4902 167.997 94.0938 167.253 94.0938C166.508 94.0938 165.904 93.4902 165.904 92.7454Z" fill="#DB1C49"/>
<path d="M172.415 92.7454C172.415 92.0005 173.019 91.3969 173.764 91.3969C174.508 91.3969 175.112 92.0005 175.112 92.7454C175.112 93.4902 174.508 94.0938 173.764 94.0938C173.019 94.0938 172.415 93.4902 172.415 92.7454Z" fill="#00122C"/>
<path d="M178.926 92.7454C178.926 92.0005 179.53 91.3969 180.275 91.3969C181.019 91.3969 181.623 92.0005 181.623 92.7454C181.623 93.4902 181.019 94.0938 180.275 94.0938C179.53 94.0938 178.926 93.4902 178.926 92.7454Z" fill="white"/>
<path d="M126.48 108.062H82.8269V103.83H126.48V108.062Z" fill="#DB527C"/>
<path d="M172.298 108.062H128.645V103.83H172.298V108.062Z" fill="white"/>
<path d="M110.631 114.573H82.8273V110.341H110.631V114.573Z" fill="#2AB3CD"/>
<path d="M161.935 114.573H112.578V110.341H161.935V114.573Z" fill="#AABFCF"/>
<path d="M141.389 121.039H92.0314V116.807H141.389V121.039Z" fill="white"/>
<path d="M172.298 121.039H144.493V116.807H172.298V121.039Z" fill="#4FB86B"/>
<path d="M142.757 127.505H99.1044V123.273H142.757V127.505Z" fill="#DB527C"/>
<path d="M164.289 127.505H144.494V123.273H164.289V127.505Z" fill="#2AB3CD"/>
<path d="M135.237 134.093H85.8795V129.861H135.237V134.093Z" fill="#AABFCF"/>
<path d="M180.909 134.093H137.256V129.861H180.909V134.093Z" fill="white"/>
<path d="M134.833 140.681H107.029V136.449H134.833V140.681Z" fill="white"/>
<path d="M157.051 140.681H137.257V136.449H157.051V140.681Z" fill="#4FB86B"/>
<path d="M143.014 147.269H123.219V143.037H143.014V147.269Z" fill="#DB527C"/>
<path d="M174.959 147.269H147.154V143.037H174.959V147.269Z" fill="#2AB3CD"/>
<path d="M156.659 153.857H113.007V149.625H156.659V153.857Z" fill="white"/>
</svg>
