<svg width="564" height="252" viewBox="0 0 564 252" fill="none" xmlns="http://www.w3.org/2000/svg">
<path d="M0 20C0 8.9543 8.95431 0 20 0H544C555.046 0 564 8.95431 564 20V232C564 243.046 555.046 252 544 252H20C8.95432 252 0 243.046 0 232V20Z" fill="#8CEFE9"/>
<path d="M136.379 45.2382C92.3776 42.4772 76.7699 64.1795 54.4064 86.627C32.0434 109.073 21.7059 132.768 34.7013 166.497C47.6972 200.225 78.3799 208.802 126.538 208.802C174.697 208.802 224.291 213.5 249.407 195.155C274.523 176.809 283.08 134.885 246.689 112.949C225.255 100.028 197.206 49.0547 136.379 45.2382Z" fill="#4A90E2"/>
<path d="M58.6922 186.304C56.2062 182.762 53.138 178.977 49.1427 177.077C47.847 176.461 46.1793 176.026 44.934 176.968C43.3537 178.165 43.7489 180.561 44.264 182.172C45.734 186.768 49.2502 190.204 52.6468 193.441C55.3798 196.046 58.1387 198.736 59.6932 202.241C59.7975 202.477 60.1818 202.351 60.0758 202.112C58.1177 197.697 54.3559 194.587 50.9837 191.28C49.1768 189.508 47.4788 187.62 46.2086 185.419C45.0042 183.334 43.3518 180.193 44.7011 177.839C45.8674 175.804 48.747 177.239 50.1882 178.096C52.0275 179.19 53.5148 180.712 54.9492 182.279C58.9226 186.624 62.02 191.805 63.9448 197.368C64.4185 198.737 64.7972 200.137 65.1083 201.551C65.1638 201.805 65.5467 201.674 65.4909 201.422C64.2919 195.969 61.8925 190.864 58.6922 186.304Z" fill="#AEC3FA"/>
<path d="M62.2798 198.05C62.0231 197.637 61.7628 197.224 61.5005 196.811C61.5095 196.778 61.5132 196.741 61.5012 196.7C60.971 194.88 60.3914 193.05 59.6394 191.308C59.0793 190.009 58.4573 188.572 57.5336 187.487C57.3676 187.291 57.0274 187.511 57.1964 187.71C58.1591 188.841 58.7806 190.334 59.3629 191.683C59.9233 192.981 60.3726 194.342 60.7839 195.703C60.0534 194.584 59.3026 193.476 58.5235 192.4C55.9805 188.888 53.1885 185.512 49.8766 182.696C49.6785 182.527 49.4088 182.828 49.6073 182.997C52.6838 185.613 55.285 188.712 57.6857 191.946C55.4322 190.49 52.9586 189.41 50.6522 188.041C50.4274 187.907 50.2452 188.268 50.4675 188.4C53.0093 189.909 55.7665 191.052 58.1864 192.763C58.2256 192.79 58.2665 192.799 58.3066 192.799C59.4361 194.372 60.4911 196.01 61.5398 197.636C62.8261 199.632 63.6152 201.776 64.5864 203.927C64.6926 204.162 65.0774 204.036 64.9697 203.798C64.0932 201.856 63.4084 199.869 62.2798 198.05Z" fill="#AEC3FA"/>
<path d="M69.3725 183.077C69.4005 177.478 68.8759 171.844 66.9583 166.549C66.2553 164.608 65.4224 162.264 63.689 161.002C61.8973 159.697 59.8551 161.064 58.8386 162.629C57.4869 164.712 57.5227 167.515 57.7489 169.883C58.0106 172.618 58.6224 175.323 59.3366 177.97C61.4607 185.843 64.8608 193.422 65.3852 201.653C65.4015 201.911 65.8059 201.92 65.7893 201.659C65.4166 195.808 63.6134 190.227 61.816 184.687C60.0393 179.212 58.0345 173.433 58.038 167.61C58.0398 165.096 59.2723 160.004 62.839 161.025C64.0446 161.37 64.785 162.698 65.3149 163.731C66.0128 165.092 66.5536 166.537 67.0271 167.989C68.8147 173.468 69.0542 179.305 68.9441 185.022C68.8611 189.322 68.8458 193.63 68.7736 197.937C68.7732 197.957 69.0427 197.939 69.1777 197.941C68.8557 192.995 69.3472 188.026 69.3725 183.077Z" fill="#AEC3FA"/>
<path d="M66.3535 188.196C66.396 188.165 66.4276 188.117 66.4351 188.052C66.7106 185.581 67.1477 183.135 67.5953 180.691C67.6424 180.437 67.2547 180.322 67.208 180.577C66.8112 182.741 66.4305 184.907 66.1522 187.089C66.0098 186.3 65.8642 185.511 65.7222 184.722C65.6247 184.178 65.5263 183.633 65.4279 183.089C65.434 183.062 65.4349 183.033 65.4282 183.001C65.4076 182.9 65.383 182.804 65.3591 182.707C64.8978 180.163 64.4255 177.619 63.9034 175.088C63.8234 174.701 63.7365 174.316 63.6455 173.929C63.6808 173.898 63.709 173.857 63.7172 173.801C63.9834 172.006 63.9388 170.109 64.5228 168.377C64.6066 168.129 64.218 168.017 64.1355 168.263C63.6272 169.769 63.5837 171.398 63.4145 172.979C62.7699 170.397 62.0234 167.818 61.9092 165.161C61.8986 164.902 61.4941 164.893 61.5051 165.154C61.6362 168.203 62.6198 171.105 63.2722 174.065C63.7646 176.3 64.1892 178.553 64.6008 180.808C64.429 180.496 64.2398 180.187 64.0297 179.866C63.0575 178.381 62.153 176.841 61.1509 175.378C61.0053 175.165 60.6512 175.36 60.7988 175.575C61.6651 176.842 62.3678 178.203 63.2607 179.452C64.0248 180.52 64.6526 181.554 64.9673 182.816C65.0409 183.223 65.1145 183.63 65.1889 184.037C65.7796 187.276 66.3038 190.529 66.9432 193.76C67.6031 197.093 68.1179 200.47 68.0782 203.876C68.075 204.137 68.4791 204.143 68.4822 203.883C68.5179 200.818 68.0996 197.783 67.5482 194.775C67.146 192.583 66.7504 190.39 66.3535 188.196Z" fill="#AEC3FA"/>
<path d="M81.566 176.072C81.5847 174.727 81.4312 173.383 81.1629 172.066C80.9219 170.883 80.6108 169.977 79.5988 169.264C78.8866 168.761 77.9447 168.674 77.1038 168.73C76.032 168.802 75.6509 169.065 75.0311 169.9C74.7942 170.219 74.2554 170.684 74.1282 171.033C73.8845 171.698 73.6484 172.366 73.419 173.036C72.9341 174.454 72.4972 175.889 72.0934 177.332C71.3541 179.975 70.7767 182.661 70.3145 185.366C69.6035 189.526 69.2297 193.739 69.0052 197.952L69.4087 197.974C69.2801 193.019 70.4014 185.968 71.7949 180.098C72.4596 177.298 73.3023 174.542 74.2676 171.832C74.6134 170.861 75.6196 169.401 76.6466 169.195C78.1731 168.89 80.0117 169.414 80.4994 171.071C82.3216 177.26 80.1237 183.69 77.7829 189.411C76.7949 191.826 75.8106 194.239 74.5852 196.542C73.5854 198.422 72.601 200.31 71.6351 202.207C71.3518 202.763 71.0717 203.321 70.8002 203.883C70.6867 204.117 71.0715 204.243 71.1832 204.012C72.9197 200.417 75.0217 196.987 76.5765 193.312C78.9061 187.806 81.4798 182.16 81.566 176.072Z" fill="#AEC3FA"/>
<path d="M74.222 186.717C74.598 185.229 74.8708 183.732 75.1113 182.227C75.1352 182.212 75.1575 182.19 75.1751 182.158C76.5136 179.67 78.3471 177.438 79.5056 174.854C79.6125 174.615 79.2281 174.49 79.1227 174.724C78.1005 177.004 76.5409 179.008 75.277 181.161C75.3635 180.591 75.4477 180.021 75.5336 179.448C75.926 176.828 76.5599 174.231 78.1369 172.052C78.29 171.841 77.9519 171.619 77.7997 171.829C74.8943 175.844 75.1028 181.185 74.0232 185.83C73.9336 186.216 73.8317 186.597 73.7246 186.977C73.5809 185.56 73.0614 184.204 73.0253 182.768C73.0187 182.51 72.6153 182.485 72.6218 182.745C72.6648 184.457 73.402 186.058 73.3604 187.778C73.3587 187.853 73.3921 187.906 73.4388 187.94C72.8437 189.85 72.1247 191.719 71.6537 193.668C70.9752 196.477 70.247 199.268 69.4141 202.036C69.3386 202.286 69.722 202.414 69.7967 202.165C70.5941 199.517 71.3154 196.849 71.9573 194.16C72.5607 191.63 73.5852 189.236 74.222 186.717Z" fill="#AEC3FA"/>
<path d="M216.27 211.55C215.363 211.385 214.701 210.441 214.145 209.782C213.615 209.156 213.025 208.614 212.434 208.047C211.019 206.69 209.63 205.325 207.753 204.645C204.436 203.446 200.601 203.762 197.269 204.832C200.23 201.061 204.474 197.323 209.639 198.78C211.856 199.406 213.53 201.316 214.854 203.092C216.156 204.838 217.212 206.749 218.457 208.532C218.606 208.746 218.944 208.524 218.795 208.31C216.302 204.742 214.199 199.831 209.724 198.384C207.343 197.615 204.555 198.284 202.425 199.445C200.021 200.756 198.174 202.951 196.552 205.103C196.436 205.256 196.563 205.501 196.767 205.429C200.446 204.117 205.129 203.627 208.711 205.501C210.422 206.395 211.812 208 213.196 209.318C214.111 210.188 214.83 211.699 216.184 211.946C216.441 211.992 216.526 211.597 216.27 211.55Z" fill="#AEC3FA"/>
<path d="M218.768 210.948C218.433 211.002 217.243 209.304 217.067 209.096C216.339 208.239 215.63 207.363 214.89 206.516C212.797 204.123 209.766 202.752 206.933 201.449C206.697 201.34 206.512 201.699 206.749 201.808C209.827 203.225 212.84 204.715 215.066 207.338C215.856 208.269 216.628 209.214 217.43 210.135C217.666 210.405 218.334 211.425 218.79 211.351C219.045 211.31 219.025 210.906 218.768 210.948Z" fill="#AEC3FA"/>
<path d="M218.418 203.02C216.643 201.156 214.372 199.948 212.795 197.879C211.248 195.85 209.934 193.561 208.643 191.364C207.883 190.07 207.263 188.759 206.991 187.276C206.745 185.933 206.761 184.539 206.829 183.177C207.673 183.594 208.339 184.241 209.059 184.848C209.853 185.518 210.783 186.022 211.63 186.621C213.608 188.018 215.392 189.868 216.849 191.792C218.201 193.577 219.165 195.693 220.095 197.72C220.896 199.464 221.557 201.458 222.716 203.005L222.728 203.002C222.851 202.948 222.973 202.894 223.095 202.84C221.851 201.202 221.147 199.048 220.29 197.183C219.303 195.031 218.224 192.887 216.759 191.017C215.436 189.329 213.825 187.753 212.102 186.472C211.117 185.739 210.035 185.144 209.094 184.351C208.34 183.715 207.668 183.071 206.741 182.693C206.596 182.634 206.449 182.708 206.44 182.873C206.297 185.478 206.441 187.959 207.615 190.325C208.821 192.755 210.398 195.087 211.914 197.335C212.558 198.293 213.287 199.181 214.131 199.968C215.056 200.832 216.15 201.505 217.108 202.334C218.97 203.946 220.317 205.941 221.297 208.188C221.4 208.423 221.79 208.313 221.685 208.074C220.868 206.202 219.831 204.503 218.418 203.02Z" fill="#AEC3FA"/>
<path d="M222.876 205.614C222.185 203.729 221.046 201.937 220 200.232C217.914 196.832 214.663 194.318 212.869 190.712C212.753 190.479 212.409 190.689 212.524 190.921C214.218 194.326 217.163 196.812 219.304 199.906C220.368 201.443 221.3 203.167 222.111 204.848C223.108 206.917 222.839 209.069 222.86 211.297C222.862 211.558 223.267 211.55 223.264 211.29C223.246 209.407 223.535 207.411 222.876 205.614Z" fill="#AEC3FA"/>
<path d="M227.739 192.584C227.318 190.007 226.834 187.394 225.972 184.924C225.599 183.852 225.25 182.803 225.03 181.688C224.827 180.656 224.752 179.645 224.279 178.689C224.211 178.55 224.006 178.559 223.93 178.683C222.035 181.79 221.701 185.866 221.424 189.42C221.069 193.961 221.615 198.645 223.046 202.969C223.171 202.919 223.295 202.869 223.418 202.819L223.422 202.818C222.078 198.736 221.582 194.42 221.784 190.133C221.875 188.181 222.145 186.205 222.475 184.281C222.774 182.542 223.221 180.788 224.082 179.238C224.404 180.054 224.492 180.922 224.639 181.789C224.828 182.904 225.201 183.964 225.581 185.025C226.418 187.362 226.871 189.857 227.283 192.299C227.723 194.897 227.795 197.329 227.355 199.932C226.955 202.302 226.26 204.614 225.724 206.955L225.734 206.957C225.856 207.011 225.978 207.065 226.101 207.119C226.664 204.643 227.379 202.202 227.802 199.695C228.209 197.292 228.13 194.978 227.739 192.584Z" fill="#AEC3FA"/>
<path d="M224.877 190.037C224.876 189.776 224.472 189.769 224.472 190.03C224.476 191.811 224.931 193.53 225.11 195.293C225.324 197.407 225.084 199.589 224.739 201.674C224.137 205.314 224.283 209.017 223.342 212.601C223.257 212.615 223.181 212.674 223.179 212.786L223.172 213.242C223.168 213.471 223.502 213.521 223.567 213.302C224.654 209.661 224.631 205.834 225.088 202.09C225.336 200.063 225.624 198.092 225.559 196.04C225.496 194.018 224.88 192.065 224.877 190.037Z" fill="#AEC3FA"/>
<path d="M236.292 191.467C233.83 192.325 232.038 193.996 230.743 196.254C229.846 197.818 229.344 199.552 228.679 201.216C227.871 203.238 226.85 205.17 225.775 207.06C225.895 207.119 226.015 207.178 226.135 207.236L226.137 207.238C226.922 205.857 227.664 204.455 228.336 203.015C229.078 201.429 229.602 199.768 230.269 198.153C231.316 195.617 232.989 193.351 235.533 192.2C238.493 190.861 245.051 189.731 245.866 194.13C241.663 192.377 238.068 196.22 235.707 199.33C234.063 201.497 232.371 203.53 230.52 205.529C229.785 206.323 229.111 207.313 228.268 207.991C227.517 208.595 226.07 209.505 225.061 209.353C224.803 209.314 224.783 209.718 225.038 209.756C226.377 209.958 228.317 208.698 229.124 207.706C230.771 205.68 232.693 203.894 234.341 201.867C237.056 198.529 240.762 192.056 246.008 194.631C246.173 194.712 246.336 194.606 246.317 194.42C245.818 189.62 239.535 190.337 236.292 191.467Z" fill="#AEC3FA"/>
<path d="M230.234 202.822C232.301 199.443 234.822 195.714 238.354 193.747C238.581 193.62 238.398 193.26 238.17 193.387C234.975 195.167 232.544 198.416 230.608 201.45C228.746 204.369 227.048 208 223.593 209.298C223.349 209.39 223.536 209.749 223.777 209.658C226.852 208.504 228.606 205.483 230.234 202.822Z" fill="#AEC3FA"/>
<path d="M152.975 127.889C152.984 130.039 151.249 131.79 149.098 131.799C146.948 131.808 145.196 130.072 145.187 127.922L145.176 125.22C145.167 123.07 146.903 121.319 149.053 121.31C151.204 121.301 152.954 123.037 152.963 125.187L152.975 127.889Z" fill="#7E62EF"/>
<path d="M150.252 114.546C146.961 116.821 144.999 120.593 146.688 124.329C148.377 128.066 148.858 129.713 147.248 132.648C144.983 136.777 144.037 140.627 145.769 144.117C156.116 142.644 160.667 141.46 160.667 141.46C160.667 141.46 156.549 114.082 150.252 114.546Z" fill="#320376"/>
<path d="M192.689 170.368C191.616 165.123 186.968 150.939 175.645 145.814C164.321 140.689 153.713 144.861 149.78 147.244C145.847 149.627 141.318 158.925 139.292 167.626C137.265 176.327 130.352 176.208 124.989 178.115L127.492 187.174L182.796 187.53L182.916 186.1C197.338 185.266 193.762 175.611 192.689 170.368ZM136.134 184.253C138.339 184.253 148.171 176.864 150.198 177.102C151.21 182.525 151.331 185.385 151.45 185.743C151.569 186.1 136.729 188.723 136.134 184.253Z" fill="#FF9386"/>
<path d="M155.78 149.748C155.065 153.165 152.125 174.063 157.132 187.81C161.024 188.127 166.825 187.81 166.825 187.81C165.713 180.579 163.488 160.554 168.096 149.112C163.488 149.191 155.78 149.748 155.78 149.748Z" fill="#C6C2F5"/>
<path d="M158.323 143.549C154.39 143.789 153.476 148.04 155.264 150.662C157.051 153.284 160.428 151.137 161.024 149.827C165.276 153.84 170.798 150.225 171.989 144.265C171.989 143.789 165.236 142.478 158.323 143.549Z" fill="#C6C2F5"/>
<path d="M165.721 133.353C165.721 133.353 168.281 141.069 168.524 144.329C168.745 147.318 158.854 149.312 158.152 146.179C157.421 142.451 156.334 136.112 156.334 136.112" fill="#FDC5C3"/>
<path d="M166.543 136.575L165.721 133.353L156.334 136.112C156.334 136.112 156.669 138.06 157.097 140.5C157.794 140.633 158.514 140.697 159.255 140.663C162.311 140.528 164.95 138.926 166.543 136.575Z" fill="#E8B8B7"/>
<path d="M153.158 175.731C148.629 176.128 146.881 177.479 142.828 179.625C138.776 181.77 137.902 182.247 138.855 182.645C136.472 182.803 137.861 184.074 139.53 183.517C138.419 183.994 139.968 184.512 142.192 183.677C142.749 184.551 145.61 184.155 147.437 183.121C149.265 182.088 153.635 181.213 157.608 182.565C158.085 180.101 156.575 175.811 156.575 175.811L153.158 175.731Z" fill="#FDC5C3"/>
<path d="M156.038 175.791C158.481 175.255 165.315 174.698 169.368 174.937C169.606 178.115 167.858 184.551 167.858 184.551L157.051 182.167C157.051 182.167 157.589 178.77 156.038 175.791Z" fill="#FF9386"/>
<path d="M155.834 175.847C160.659 175.15 165.539 175.163 170.402 175.026C172.744 174.96 174.991 174.688 177.312 174.423C179.519 174.171 182.132 174.649 184.253 175.291C184.503 175.367 184.609 174.977 184.36 174.901C182.402 174.309 180.109 173.919 178.058 173.964C177.042 173.985 176.024 174.194 175.021 174.343C173.627 174.551 172.206 174.565 170.799 174.61C165.765 174.773 160.723 174.735 155.726 175.457C155.469 175.494 155.579 175.884 155.834 175.847Z" fill="#320376"/>
<path d="M177.357 163.468C177.817 166.824 178.056 170.198 178.066 173.586C178.067 173.846 178.471 173.846 178.47 173.586C178.461 170.161 178.212 166.753 177.747 163.36C177.712 163.103 177.323 163.213 177.357 163.468Z" fill="#320376"/>
<path d="M156.733 182.369C158.194 182.352 159.548 182.999 160.934 183.375C162.581 183.822 164.193 184.382 165.839 184.833C169.166 185.745 172.625 186.325 176.069 186.523C181.549 186.84 188.179 186.571 192.316 182.469C192.501 182.286 192.216 182 192.031 182.184C187.706 186.471 180.598 186.477 174.923 186.043C171.529 185.783 168.125 185.091 164.861 184.136C163.394 183.707 161.931 183.258 160.467 182.821C159.234 182.453 158.041 181.949 156.733 181.965C156.473 181.968 156.472 182.372 156.733 182.369Z" fill="#320376"/>
<path d="M148.672 159.309C148.31 160.394 148.418 161.559 148.434 162.686C148.456 164.236 148.57 165.783 148.651 167.33C148.73 168.858 148.776 170.387 148.899 171.912C149.012 173.32 149.545 174.655 149.618 176.05C149.632 176.309 150.036 176.31 150.022 176.05C149.955 174.774 149.466 173.568 149.338 172.293C149.197 170.897 149.153 169.492 149.091 168.091C149.028 166.679 148.932 165.268 148.873 163.856C148.814 162.442 148.609 160.776 149.061 159.417C149.144 159.169 148.754 159.064 148.672 159.309Z" fill="#320376"/>
<path d="M154.791 145.482C154.156 147.719 153.71 150.574 156.218 151.832C157.123 152.285 158.153 152.061 159.026 151.665C159.639 151.387 160.173 150.918 160.68 150.484C161.192 150.044 161.417 150.711 161.871 151.034C165.556 153.671 170.408 150.02 171.629 146.384C171.712 146.136 171.321 146.031 171.239 146.277C169.937 150.157 164.371 153.721 161.167 149.764C161.095 149.675 160.956 149.696 160.881 149.764C159.552 150.958 157.824 152.373 156.012 151.253C154.036 150.034 154.669 147.393 155.181 145.59C155.252 145.338 154.862 145.232 154.791 145.482Z" fill="#320376"/>
<path d="M159.359 153.198C159.495 153.916 160.51 153.891 160.838 153.337C161.02 153.029 160.822 152.666 160.541 152.506C160.196 152.31 159.676 152.343 159.44 152.685C159.291 152.9 159.642 153.102 159.788 152.889C159.967 152.631 160.71 152.9 160.448 153.189C160.25 153.409 159.812 153.426 159.749 153.091C159.7 152.836 159.311 152.944 159.359 153.198Z" fill="#320376"/>
<path d="M158.823 156.189C158.72 156.904 159.549 157.105 160.03 156.707C160.275 156.504 160.403 156.113 160.196 155.837C159.981 155.55 159.564 155.596 159.262 155.691C159.015 155.769 159.121 156.16 159.37 156.081C159.521 156.033 159.717 155.977 159.864 156.064C159.989 156.138 159.821 156.363 159.754 156.412C159.607 156.52 159.169 156.6 159.213 156.296C159.25 156.041 158.86 155.932 158.823 156.189Z" fill="#320376"/>
<path d="M158.578 160.057C158.613 160.867 159.809 160.544 159.929 159.932C160.075 159.184 158.771 158.775 158.644 159.586C158.604 159.841 158.993 159.95 159.034 159.694C159.083 159.381 159.528 159.595 159.534 159.837C159.539 160.029 158.992 160.288 158.982 160.057C158.97 159.797 158.566 159.796 158.578 160.057Z" fill="#320376"/>
<path d="M150.711 182.167C150.651 182.763 150.735 183.451 150.956 184.009C151.052 184.248 151.443 184.144 151.347 183.901C151.135 183.37 151.057 182.735 151.115 182.167C151.141 181.907 150.737 181.91 150.711 182.167Z" fill="#320376"/>
<path d="M155.758 175.905C156.512 176.436 156.572 177.487 156.785 178.305C157.067 179.387 157.277 180.73 156.798 181.788C156.691 182.023 157.039 182.229 157.147 181.992C157.688 180.799 157.462 179.432 157.175 178.197C156.952 177.24 156.82 176.16 155.962 175.557C155.748 175.407 155.547 175.757 155.758 175.905Z" fill="#320376"/>
<path d="M169.458 121.968C169.262 118.003 165.158 110.452 155.505 110.921C148.635 111.478 147.828 117.992 147.828 117.992C147.592 118.724 146.367 120.275 146.367 120.275C145.997 117.226 147.892 109.135 156.57 108.881C166.342 108.596 171.042 116.225 171.245 121.717C170.475 123.001 169.458 121.968 169.458 121.968Z" fill="#7E62EF"/>
<path d="M149.274 129.651C149.525 134.788 153.894 138.748 159.028 138.496C164.164 138.246 168.125 133.879 167.874 128.741L167.393 118.906C167.142 113.77 162.773 109.809 157.638 110.061C152.501 110.312 148.542 114.68 148.793 119.816L149.274 129.651Z" fill="#FDC5C3"/>
<path d="M161.519 119.414C160.341 118.788 158.796 118.502 157.571 119.14C157.112 119.38 157.521 120.07 157.978 119.831C158.934 119.333 160.209 119.625 161.117 120.108C161.573 120.35 161.975 119.656 161.519 119.414Z" fill="#493B31"/>
<path d="M150.297 120.76C150.85 120.232 151.644 120.037 152.385 120.186C152.89 120.287 153.102 119.513 152.595 119.412C151.567 119.205 150.495 119.462 149.727 120.196C149.353 120.554 149.924 121.117 150.297 120.76Z" fill="#493B31"/>
<path d="M155.875 127.911C155.804 127.911 155.732 127.886 155.674 127.836L153.854 126.246C153.78 126.181 153.742 126.085 153.752 125.987C153.762 125.89 153.818 125.803 153.903 125.754L155.726 124.718C155.873 124.636 156.057 124.687 156.139 124.832C156.222 124.977 156.172 125.163 156.026 125.245L154.574 126.07L156.073 127.379C156.199 127.489 156.212 127.681 156.102 127.807C156.042 127.875 155.959 127.91 155.875 127.911Z" fill="#493B31"/>
<path d="M156.558 130.479C156.07 130.481 155.588 130.354 155.213 130.1C155.074 130.006 155.038 129.818 155.132 129.679C155.225 129.541 155.414 129.505 155.553 129.598C156.068 129.948 156.934 129.961 157.523 129.63C157.878 129.43 158.292 129.02 158.251 128.2C158.242 128.033 158.371 127.891 158.539 127.883C158.703 127.872 158.848 128.003 158.856 128.17C158.9 129.051 158.532 129.757 157.82 130.158C157.442 130.371 156.997 130.477 156.558 130.479Z" fill="#493B31"/>
<path d="M157.898 124.547C158.121 125.131 158.776 125.424 159.359 125.2C159.942 124.977 160.236 124.323 160.011 123.739C159.787 123.154 159.134 122.862 158.55 123.086C157.966 123.309 157.675 123.963 157.898 124.547Z" fill="#2E2C34"/>
<path d="M151.132 124.981C151.356 125.564 152.01 125.858 152.594 125.634C153.177 125.412 153.471 124.756 153.247 124.172C153.023 123.588 152.37 123.297 151.786 123.521C151.202 123.743 150.909 124.397 151.132 124.981Z" fill="#2E2C34"/>
<path d="M176.732 129.594C175.174 126.273 177.071 124.2 176.236 121.033C175.504 118.263 172.204 118.363 170.485 114.442C167.851 108.431 154.409 103.066 149.457 115.308C155.003 111.513 160.713 113.45 162.889 116.228C167.277 121.833 162.809 124.235 164.508 127.571C165.746 130.002 166.557 131.64 164.987 135.334C163.416 139.027 165.652 142.525 165.652 142.525C170.843 141.928 176.711 141.392 182.042 140.466C182.003 131.467 178.289 132.914 176.732 129.594Z" fill="#320376"/>
<path d="M145.976 130.248C145.361 134.964 152.324 134.95 155.329 134.794C155.588 134.78 155.588 134.376 155.327 134.39C152.675 134.527 145.801 134.684 146.366 130.354C146.399 130.099 146.009 129.99 145.976 130.248Z" fill="#FFFEFF"/>
<path d="M157.672 134.523C157.675 135.192 157.01 135.737 156.186 135.741C155.364 135.744 154.695 135.204 154.693 134.535C154.69 133.866 155.354 133.32 156.176 133.317C156.999 133.313 157.669 133.853 157.672 134.523Z" fill="#7E62EF"/>
<path d="M156.57 108.881C151.619 109.026 148.879 111.72 147.504 114.575C147.977 114.625 148.488 114.761 148.913 114.96C149.932 113.178 151.87 111.217 155.505 110.921C165.158 110.452 169.262 118.003 169.458 121.968C169.458 121.968 170.475 123.001 171.245 121.717C171.042 116.225 166.342 108.596 156.57 108.881Z" fill="#7E62EF"/>
<path d="M174.409 127.797C174.418 129.948 172.682 131.699 170.532 131.708C168.381 131.717 166.631 129.981 166.622 127.83L166.61 125.128C166.601 122.979 168.336 121.228 170.488 121.219C172.638 121.21 174.389 122.946 174.398 125.095L174.409 127.797Z" fill="#7E62EF"/>
<path d="M173.491 127.385C173.36 130.014 169.835 130.631 168.856 128.168C168.565 127.432 168.725 126.388 168.722 125.613C168.711 122.924 172.406 122.444 173.355 124.831C173.647 125.566 173.487 126.61 173.491 127.385C173.492 127.646 173.896 127.644 173.895 127.384C173.888 125.762 174.04 124.197 172.497 123.194C170.629 121.977 168.416 123.63 168.318 125.615C168.239 127.21 168.232 128.841 169.714 129.806C171.583 131.022 173.796 129.369 173.895 127.384C173.908 127.123 173.503 127.126 173.491 127.385Z" fill="#FFFEFF"/>
<path d="M127.969 183.995H159.038C160.469 183.995 160.787 186.856 158.403 186.856H87.1268C84.9809 182.565 75.3663 156.342 74.413 153.879C73.4597 151.416 74.3338 148.555 78.2275 148.555H105.562C108.422 148.555 111.601 149.031 113.587 153.403C115.574 157.773 127.969 183.995 127.969 183.995Z" fill="#4500AC"/>
<path d="M159.136 186.742C159.229 186.709 159.314 186.67 159.393 186.628C159.401 186.624 159.409 186.621 159.415 186.616C160.635 185.933 160.216 183.995 159.038 183.995H127.969C127.969 183.995 127.959 183.974 127.944 183.943C127.93 183.913 127.911 183.873 127.884 183.816C127.774 183.583 127.558 183.126 127.254 182.481C124.588 176.839 115.285 157.138 113.587 153.403C111.601 149.031 108.422 148.555 105.562 148.555L103.018 148.555C105.879 148.555 109.057 149.031 111.044 153.402C113.03 157.773 125.426 183.995 125.426 183.995L126.499 186.778C126.499 186.778 127.839 186.81 129.977 186.856L158.403 186.856C158.546 186.856 158.677 186.844 158.801 186.824C158.88 186.812 158.951 186.791 159.022 186.771C159.059 186.761 159.101 186.754 159.136 186.742Z" fill="#320376"/>
<path d="M195.488 189.075H83.4036V206.842C95.7084 209.462 112.292 211.355 128.623 211.561C150.98 211.844 174.162 211.59 195.488 210.553V189.075Z" fill="#D6E1F9"/>
<path d="M200.14 188.632C200.14 189.692 199.279 190.552 198.219 190.552H80.6713C79.6113 190.552 78.7517 189.692 78.7517 188.632C78.7517 187.572 79.6113 186.711 80.6713 186.711H198.219C199.279 186.711 200.14 187.572 200.14 188.632Z" fill="#A0ABF8"/>
<path d="M69.8941 123.896C72.5585 126.421 74.7343 126.421 74.7295 123.896C74.7238 121.372 74.7149 117.241 74.7097 114.717C74.7044 112.192 72.5242 110.127 69.865 110.127H60.1943C57.5348 110.127 57.5396 112.193 60.2036 114.717C62.8684 117.241 67.2297 121.372 69.8941 123.896Z" fill="#AEC3FA"/>
<path d="M133.443 99.4664C133.443 108.033 126.498 114.978 117.932 114.978H60.9896C52.4229 114.978 45.4784 108.033 45.4784 99.4664V79.0322C45.4784 70.466 52.4229 63.5211 60.9896 63.5211H117.932C126.498 63.5211 133.443 70.466 133.443 79.0322V99.4664Z" fill="#AEC3FA"/>
<path d="M90.7647 73.395V79.6H89.8785V76.8341H86.3153V79.6H85.4286V73.395H86.3153V76.0635H89.8785V73.395H90.7647Z" fill="#FFFEFF"/>
<path d="M97.1289 78.8286V79.5996H92.6262V73.3955H97.0049V74.1666H93.5124V76.072H96.6238V76.8253H93.5124V78.8286H97.1289Z" fill="#FFFEFF"/>
<path d="M98.5644 73.395H99.4506V78.8281H102.81V79.6H98.5644V73.395Z" fill="#FFFEFF"/>
<path d="M108.146 73.9718C108.607 74.3557 108.837 74.8843 108.837 75.558C108.837 76.2317 108.607 76.7607 108.146 77.1446C107.685 77.5285 107.053 77.7209 106.249 77.7209H104.716V79.5996H103.829V73.3955H106.249C107.053 73.3955 107.685 73.5875 108.146 73.9718ZM107.508 76.5905C107.803 76.3513 107.951 76.0074 107.951 75.558C107.951 75.109 107.803 74.7647 107.508 74.5255C107.212 74.2862 106.784 74.1666 106.223 74.1666H104.716V76.9498H106.223C106.784 76.9498 107.212 76.8302 107.508 76.5905Z" fill="#FFFEFF"/>
<path d="M110.078 79.4884C109.966 79.3793 109.909 79.2451 109.909 79.0851C109.909 78.9259 109.966 78.7917 110.078 78.6822C110.19 78.5731 110.329 78.5181 110.495 78.5181C110.66 78.5181 110.796 78.5731 110.902 78.6822C111.009 78.7917 111.062 78.9259 111.062 79.0851C111.062 79.2451 111.007 79.3793 110.898 79.4884C110.788 79.5979 110.654 79.6525 110.495 79.6525C110.329 79.6525 110.19 79.5979 110.078 79.4884ZM109.989 73.395H110.991L110.823 77.6408H110.149L109.989 73.395Z" fill="#FFFEFF"/>
<path d="M125.128 86.3009H85.4146V83.7185H125.128V86.3009Z" fill="#FFFEFF"/>
<path d="M119.709 92.5741H85.4146V89.9917H119.709V92.5741Z" fill="#FFFEFF"/>
<path d="M108.162 98.8481H85.4146V96.2658H108.162V98.8481Z" fill="#FFFEFF"/>
<path d="M122.205 105.122H85.4146V102.539H122.205V105.122Z" fill="#FFFEFF"/>
<path d="M77.5313 104.164C76.3484 101.226 72.2534 99.1257 70.1617 99.154H63.0964C60.7738 99.3727 56.91 101.226 55.7263 104.164C58.4934 106.903 62.3544 108.605 66.6292 108.605C70.904 108.605 74.7646 106.903 77.5313 104.164Z" fill="#7E62EF"/>
<path d="M63.7433 93.1212C63.7433 93.1212 63.0668 98.6799 62.5996 101.822C62.2586 104.118 70.4975 104.764 70.7476 102.289C70.9662 99.354 71.2176 94.3788 71.2176 94.3788" fill="#FDC5C3"/>
<path d="M63.4084 95.6757L63.7433 93.1212L71.2176 94.3788C71.2176 94.3788 71.1397 95.9072 71.0354 97.824C70.5108 97.9905 69.9633 98.1065 69.3902 98.1489C67.0269 98.3259 64.8503 97.337 63.4084 95.6757Z" fill="#ECB9B8"/>
<path d="M76.019 88.7263C76.3165 92.6993 73.3369 96.1598 69.3647 96.4573C65.393 96.7535 61.9316 93.7743 61.6346 89.8009L61.0656 82.1945C60.7682 78.2231 63.7486 74.761 67.7203 74.4656C71.6929 74.1678 75.1538 77.1474 75.4508 81.1191L76.019 88.7263Z" fill="#FDC5C3"/>
<path d="M66.1992 82.9898C67.2107 82.7757 68.0222 82.3247 68.6288 81.478C68.9307 81.0569 68.2348 80.6572 67.9365 81.0731C67.4544 81.7459 66.7779 82.0486 65.9858 82.2168C65.4798 82.3239 65.6948 83.0969 66.1992 82.9898Z" fill="#493B31"/>
<path d="M74.3601 81.4133C73.794 81.307 73.446 81.0383 73.1684 80.5355C72.9186 80.0829 72.226 80.487 72.4761 80.9405C72.8451 81.6081 73.3911 82.0445 74.1472 82.1864C74.6523 82.2813 74.8681 81.5087 74.3601 81.4133Z" fill="#493B31"/>
<path d="M70.7509 88.0887C70.679 88.0887 70.607 88.0632 70.5489 88.0115C70.4244 87.9 70.4135 87.7084 70.525 87.5835L71.4888 86.5057L70.3828 86.0471C70.228 85.9828 70.1544 85.8054 70.2187 85.651C70.2825 85.4958 70.46 85.4223 70.6147 85.4869L72.1152 86.1093C72.2062 86.1469 72.2729 86.2261 72.2947 86.3219C72.3165 86.4176 72.2906 86.5183 72.2252 86.5914L70.9772 87.9877C70.9174 88.0547 70.8342 88.0887 70.7509 88.0887Z" fill="#493B31"/>
<path d="M68.9291 91.1544C68.8341 91.1544 68.7404 91.1099 68.6814 91.0263C68.5848 90.8897 68.6171 90.7006 68.7537 90.604C69.9475 89.7598 71.0184 89.4207 71.9406 89.5953C72.1051 89.6264 72.213 89.7852 72.1819 89.9497C72.1504 90.1138 71.9924 90.2209 71.8275 90.191C71.0754 90.0479 70.158 90.3534 69.1041 91.0986C69.0507 91.1366 68.9897 91.1544 68.9291 91.1544Z" fill="#493B31"/>
<path d="M68.9032 85.5417C68.7873 85.8235 68.3116 85.9959 67.8412 85.9265C67.3724 85.8569 67.0843 85.5718 67.2011 85.2895C67.3166 85.0073 67.7919 84.8349 68.2619 84.905C68.7315 84.9741 69.0192 85.2597 68.9032 85.5417Z" fill="#2E2C34"/>
<path d="M74.1451 85.2299C74.0291 85.5109 73.5547 85.6847 73.0839 85.6147C72.6143 85.5458 72.3265 85.2594 72.4425 84.9777C72.5581 84.6959 73.0338 84.5238 73.5033 84.5941C73.9737 84.6632 74.2615 84.9481 74.1451 85.2299Z" fill="#2E2C34"/>
<path d="M63.0172 87.8914C63.3587 89.2969 62.4962 90.7134 61.0903 91.0541C59.6843 91.396 58.2679 90.534 57.9264 89.128L57.7312 88.3242C57.3897 86.9187 58.2521 85.5026 59.6585 85.1607C61.064 84.8192 62.4805 85.682 62.822 87.0876L63.0172 87.8914Z" fill="#FDC5C3"/>
<path d="M59.0661 85.4226C58.4506 83.6692 55.4496 76.5359 59.9123 76.3205C60.1891 73.52 64.0825 72.0429 68.9449 71.0888C73.8077 70.1354 76.8391 72.4127 76.4697 74.6895C76.1003 76.9672 73.1151 77.798 70.7457 77.1207C70.0688 79.5826 66.8063 78.7526 66.0987 78.2595C65.5519 80.6451 62.8434 81.2218 63.1518 82.8839C63.4597 84.5461 63.5975 86.2382 63.6594 86.5768C63.7208 86.9159 62.3055 87.5774 61.9976 86.8997C61.6897 86.2232 60.4741 85.008 59.0661 85.4226Z" fill="#320376"/>
<path d="M72.5076 124.372C75.4586 124.958 73.7677 114.946 73.7479 113.437L73.5458 113.639C79.8971 113.695 86.2491 113.712 92.6003 113.656C97.1403 113.616 101.677 113.5 106.217 113.501C109.009 113.501 111.787 113.398 114.575 113.29C117.566 113.175 120.547 113.184 123.46 112.41C129.033 110.93 131.062 105.037 131.638 99.8652C131.667 99.6062 131.262 99.6094 131.233 99.8652C130.806 103.704 129.643 107.91 126.555 110.467C124.229 112.392 120.801 112.637 117.915 112.777C115.041 112.917 112.155 113.038 109.277 113.079C100.176 113.21 91.0663 113.299 81.9629 113.278C79.1575 113.272 76.3517 113.259 73.5458 113.234C73.4367 113.234 73.3426 113.327 73.3438 113.437C73.3603 114.71 74.6766 124.392 72.6151 123.983C72.3605 123.932 72.2522 124.322 72.5076 124.372Z" fill="#FFFEFF"/>
<path d="M131.449 82.5683C131.452 87.5879 131.668 92.6358 131.325 97.6482C131.308 97.9084 131.712 97.9068 131.73 97.6482C132.072 92.6358 131.857 87.5879 131.853 82.5683C131.853 82.3076 131.449 82.3076 131.449 82.5683Z" fill="#FFFEFF"/>
<path d="M288.356 148.83C288.356 157.711 281.156 164.911 272.274 164.911H213.24C204.358 164.911 197.159 157.711 197.159 148.83V127.644C197.159 118.763 204.358 111.563 213.24 111.563H272.274C281.156 111.563 288.356 118.763 288.356 127.644V148.83Z" fill="#AEC3FA"/>
<path d="M215.364 174.156C212.601 176.773 210.345 176.774 210.35 174.156C210.356 171.54 210.365 167.257 210.371 164.641C210.376 162.023 212.637 159.882 215.393 159.882H225.419C228.176 159.882 228.172 162.023 225.409 164.641C222.647 167.258 218.126 171.54 215.364 174.156Z" fill="#AEC3FA"/>
<path d="M211.195 123.721H208.989V122.922H214.31V123.721H212.104V129.354H211.195V123.721Z" fill="#FFFEFF"/>
<path d="M220.844 122.921V129.354H219.925V126.487H216.23V129.354H215.312V122.921H216.23V125.687H219.925V122.921H220.844Z" fill="#FFFEFF"/>
<path d="M226.872 127.746H223.453L222.745 129.354H221.799L224.712 122.922H225.622L228.544 129.354H227.579L226.872 127.746ZM226.55 127.011L225.162 123.859L223.775 127.011H226.55Z" fill="#FFFEFF"/>
<path d="M235.032 122.921V129.354H234.278L230.418 124.557V129.354H229.5V122.921H230.253L234.113 127.718V122.921H235.032Z" fill="#FFFEFF"/>
<path d="M239.057 126.496L237.88 127.691V129.354H236.961V122.922H237.88V126.514L241.371 122.922H242.42L239.672 125.816L242.594 129.354H241.519L239.057 126.496Z" fill="#FFFEFF"/>
<path d="M243.904 129.202C243.453 129.052 243.1 128.858 242.842 128.619L243.182 127.902C243.427 128.123 243.742 128.302 244.124 128.439C244.507 128.577 244.901 128.646 245.305 128.646C245.838 128.646 246.236 128.555 246.5 128.375C246.763 128.195 246.895 127.954 246.895 127.654C246.895 127.434 246.823 127.255 246.679 127.116C246.535 126.979 246.357 126.873 246.146 126.8C245.934 126.726 245.636 126.643 245.25 126.551C244.766 126.435 244.375 126.319 244.078 126.202C243.781 126.086 243.527 125.907 243.316 125.664C243.104 125.422 242.998 125.097 242.998 124.686C242.998 124.343 243.089 124.033 243.27 123.758C243.45 123.482 243.725 123.262 244.092 123.096C244.46 122.93 244.916 122.848 245.461 122.848C245.841 122.848 246.215 122.897 246.582 122.995C246.95 123.093 247.265 123.234 247.529 123.418L247.226 124.153C246.956 123.982 246.668 123.851 246.362 123.762C246.055 123.673 245.755 123.629 245.461 123.629C244.94 123.629 244.55 123.724 244.29 123.914C244.029 124.104 243.899 124.349 243.899 124.649C243.899 124.869 243.973 125.049 244.119 125.187C244.267 125.324 244.449 125.432 244.667 125.508C244.884 125.585 245.179 125.666 245.553 125.752C246.037 125.868 246.426 125.985 246.72 126.101C247.014 126.217 247.267 126.395 247.479 126.634C247.689 126.873 247.795 127.194 247.795 127.599C247.795 127.936 247.703 128.244 247.519 128.522C247.336 128.801 247.057 129.022 246.683 129.184C246.309 129.346 245.85 129.428 245.305 129.428C244.821 129.428 244.354 129.352 243.904 129.202Z" fill="#FFFEFF"/>
<path d="M248.981 129.239C248.864 129.126 248.806 128.987 248.806 128.821C248.806 128.655 248.864 128.516 248.981 128.403C249.097 128.29 249.241 128.233 249.412 128.233C249.584 128.233 249.725 128.29 249.835 128.403C249.945 128.516 250.001 128.655 250.001 128.821C250.001 128.987 249.944 129.126 249.831 129.239C249.717 129.352 249.578 129.409 249.412 129.409C249.241 129.409 249.097 129.352 248.981 129.239ZM248.889 122.922H249.927L249.753 127.323H249.054L248.889 122.922Z" fill="#FFFEFF"/>
<path d="M207.863 136.301H249.036V133.624H207.863V136.301Z" fill="#FFFEFF"/>
<path d="M207.863 142.806H243.418V140.128H207.863V142.806Z" fill="#FFFEFF"/>
<path d="M207.863 149.309H231.445V146.632H207.863V149.309Z" fill="#FFFEFF"/>
<path d="M258.484 154.695C259.711 151.648 263.956 149.471 266.125 149.499H273.45C275.857 149.726 279.864 151.648 281.09 154.695C278.222 157.534 274.22 159.298 269.788 159.298C265.356 159.298 261.353 157.534 258.484 154.695Z" fill="#7E62EF"/>
<path d="M272.78 143.246C272.78 143.246 273.481 149.008 273.966 152.267C274.319 154.647 265.777 155.315 265.518 152.75C265.29 149.707 265.03 144.55 265.03 144.55" fill="#FDC5C3"/>
<path d="M273.126 145.894L272.78 143.246L265.03 144.55C265.03 144.55 265.111 146.135 265.22 148.122C265.763 148.294 266.331 148.413 266.925 148.458C269.375 148.641 271.632 147.616 273.126 145.894Z" fill="#ECB9B8"/>
<path d="M260.052 138.689C259.744 142.807 262.833 146.395 266.951 146.704C271.069 147.011 274.658 143.922 274.965 139.804L275.555 131.917C275.864 127.799 272.773 124.21 268.656 123.904C264.538 123.595 260.949 126.684 260.642 130.802L260.052 138.689Z" fill="#FDC5C3"/>
<path d="M270.29 132.01C269.884 131.229 268.983 130.688 268.093 130.791C267.585 130.85 267.579 131.653 268.093 131.593C268.724 131.52 269.307 131.857 269.598 132.415C269.836 132.874 270.528 132.469 270.29 132.01Z" fill="#493B31"/>
<path d="M262.167 131.79C262.518 131.423 263.161 131.17 263.663 131.292C264.165 131.413 264.378 130.64 263.876 130.519C263.099 130.331 262.15 130.647 261.6 131.224C261.243 131.597 261.81 132.165 262.167 131.79Z" fill="#493B31"/>
<path d="M265.514 138.016C265.431 138.016 265.348 137.982 265.288 137.915L263.994 136.467C263.928 136.394 263.903 136.294 263.924 136.198C263.946 136.103 264.013 136.023 264.104 135.986L265.659 135.34C265.814 135.276 265.992 135.349 266.055 135.504C266.12 135.659 266.046 135.836 265.892 135.9L264.731 136.382L265.741 137.511C265.852 137.636 265.841 137.828 265.716 137.94C265.658 137.991 265.586 138.016 265.514 138.016Z" fill="#493B31"/>
<path d="M265.397 142.168C264.567 142.168 264.004 141.288 263.678 139.478C263.661 139.382 263.691 139.283 263.759 139.214C263.827 139.143 263.926 139.112 264.021 139.124C264.532 139.2 265.18 139.277 266.117 139.277C266.6 139.277 267.124 139.257 267.72 139.217C267.831 139.207 267.939 139.264 267.999 139.36C268.058 139.455 268.059 139.576 268.002 139.673C267.012 141.352 266.159 142.168 265.397 142.168ZM264.357 139.781C264.61 140.919 264.982 141.561 265.396 141.561C265.663 141.561 266.233 141.327 267.178 139.856C266.085 139.909 265.253 139.89 264.357 139.781Z" fill="#493B31"/>
<path d="M267.429 135.474C267.55 135.962 268.043 136.259 268.53 136.139C269.017 136.019 269.315 135.526 269.194 135.038C269.074 134.552 268.582 134.253 268.095 134.373C267.607 134.494 267.31 134.987 267.429 135.474Z" fill="#2E2C34"/>
<path d="M261.995 135.151C262.115 135.637 262.608 135.936 263.095 135.816C263.581 135.696 263.881 135.202 263.76 134.715C263.64 134.228 263.147 133.931 262.66 134.051C262.173 134.172 261.874 134.663 261.995 135.151Z" fill="#2E2C34"/>
<path d="M273.533 137.823C273.179 139.28 274.073 140.749 275.53 141.103C276.987 141.457 278.456 140.564 278.809 139.106L279.012 138.272C279.367 136.815 278.473 135.346 277.015 134.992C275.558 134.638 274.089 135.533 273.735 136.99L273.533 137.823Z" fill="#FDC5C3"/>
<path d="M277.629 135.264C278.267 133.445 281.377 126.05 276.751 125.827C276.464 122.924 272.428 121.392 267.387 120.403C262.346 119.415 259.202 121.775 259.585 124.136C259.969 126.498 263.063 127.358 265.52 126.657C266.222 129.21 269.604 128.348 270.338 127.838C270.904 130.31 273.712 130.909 273.394 132.632C273.074 134.355 272.93 136.109 272.866 136.461C272.803 136.813 274.27 137.497 274.59 136.795C274.909 136.093 276.169 134.833 277.629 135.264Z" fill="#320376"/>
<path d="M272.085 163.718C278.021 163.483 284.383 159.707 285.647 153.572C285.699 153.318 285.31 153.209 285.257 153.465C284.03 159.422 277.851 163.086 272.085 163.314C271.825 163.324 271.824 163.729 272.085 163.718Z" fill="#FFFEFF"/>
<path d="M267.174 163.751C268.258 163.79 269.341 163.811 270.424 163.835C270.685 163.841 270.684 163.437 270.424 163.431C269.341 163.407 268.258 163.386 267.174 163.347C266.913 163.338 266.915 163.742 267.174 163.751Z" fill="#FDF5E3"/>
<path d="M215.273 172.677C217.308 170.847 219.351 169.025 221.263 167.064C222.148 166.158 222.938 164.974 224.007 164.256C224.639 163.831 225.424 163.763 226.164 163.72C227.62 163.636 229.086 163.674 230.543 163.654C233.187 163.618 235.826 163.477 238.471 163.482C241.304 163.488 244.135 163.615 246.965 163.745C252.476 163.996 258 164.256 263.501 163.69C263.758 163.663 263.76 163.258 263.501 163.286C257.873 163.865 252.221 163.58 246.583 163.323C243.619 163.188 240.655 163.073 237.687 163.078C235.04 163.083 232.394 163.231 229.747 163.26C227.942 163.279 225.428 162.88 223.803 163.907C222.795 164.544 222.039 165.663 221.239 166.507C219.269 168.584 217.114 170.479 214.987 172.392C214.793 172.566 215.079 172.851 215.273 172.677Z" fill="#FFFEFF"/>
<path d="M255.047 89.519C255.047 94.1677 251.279 97.9366 246.63 97.9366H168.255C163.606 97.9366 159.837 94.1677 159.837 89.519V81.6835C159.837 77.0348 163.606 73.2656 168.255 73.2656H246.63C251.279 73.2656 255.047 77.0348 255.047 81.6835V89.519Z" fill="#AEC3FA"/>
<path d="M172.933 77.4631C173.228 76.8654 173.711 76.8654 174.005 77.4631L174.948 79.3726C175.243 79.9703 176.024 80.5381 176.684 80.6342L178.791 80.9402C179.451 81.0363 179.6 81.4958 179.123 81.961L177.599 83.4465C177.121 83.9117 176.823 84.8299 176.935 85.4874L177.295 87.586C177.408 88.2431 177.017 88.5272 176.427 88.2168L174.542 87.2255C173.952 86.9156 172.986 86.9156 172.396 87.2259L170.511 88.2164C169.921 88.5272 169.531 88.2431 169.644 87.586L170.003 85.4874C170.116 84.8299 169.818 83.9117 169.341 83.4465L167.817 81.961C167.339 81.4958 167.488 81.0363 168.148 80.9402L170.254 80.6334C170.914 80.5372 171.696 79.9695 171.991 79.3718L172.933 77.4631Z" fill="#FFFEFF"/>
<path d="M189.772 77.1367C190.067 76.539 190.55 76.539 190.845 77.1367L191.786 79.0462C192.082 79.6439 192.862 80.2116 193.522 80.3078L195.629 80.6138C196.289 80.7099 196.438 81.1694 195.961 81.6346L194.437 83.1201C193.959 83.5853 193.661 84.5035 193.774 85.161L194.134 87.2596C194.246 87.9167 193.856 88.2008 193.266 87.89L191.381 86.8995C190.791 86.5891 189.825 86.5891 189.235 86.8991L187.35 87.8904C186.76 88.2008 186.369 87.9167 186.482 87.2596L186.842 85.161C186.955 84.5035 186.657 83.5853 186.179 83.1201L184.655 81.6346C184.178 81.1694 184.327 80.7099 184.987 80.6138L187.094 80.307C187.754 80.2108 188.535 79.6431 188.83 79.0453L189.772 77.1367Z" fill="#FFFEFF"/>
<path d="M206.61 77.426C206.905 76.8283 207.388 76.8283 207.683 77.426L208.625 79.3355C208.92 79.9332 209.701 80.501 210.361 80.5972L212.468 80.9031C213.128 80.9993 213.277 81.4587 212.799 81.9239L211.276 83.4095C210.798 83.8746 210.5 84.7928 210.613 85.4503L210.973 87.5489C211.085 88.206 210.694 88.4901 210.104 88.1793L208.219 87.1888C207.629 86.8785 206.664 86.8785 206.074 87.1888L204.19 88.1793C203.6 88.4901 203.209 88.206 203.321 87.5489L203.681 85.4503C203.793 84.7928 203.495 83.8746 203.017 83.4095L201.494 81.9239C201.016 81.4587 201.165 80.9993 201.825 80.9031L203.931 80.5967C204.591 80.5002 205.372 79.9324 205.667 79.3347L206.61 77.426Z" fill="#FFFEFF"/>
<path d="M223.449 78.1007C223.744 77.503 224.228 77.503 224.522 78.1007L225.464 80.0102C225.759 80.6079 226.54 81.1757 227.2 81.2718L229.307 81.5778C229.967 81.674 230.116 82.1334 229.638 82.5986L228.115 84.0841C227.637 84.5493 227.339 85.4675 227.451 86.125L227.811 88.2236C227.924 88.8807 227.533 89.1648 226.943 88.854L225.059 87.8635C224.469 87.5531 223.503 87.5531 222.913 87.8635L221.028 88.854C220.438 89.1648 220.047 88.8807 220.16 88.2236L220.52 86.125C220.632 85.4679 220.334 84.5493 219.856 84.0841L218.333 82.5986C217.855 82.1334 218.004 81.674 218.664 81.5778L220.771 81.271C221.431 81.1749 222.212 80.6071 222.507 80.0094L223.449 78.1007Z" fill="#FFFEFF"/>
<path d="M240.287 78.7973C240.582 78.1996 241.065 78.1996 241.36 78.7973L242.303 80.7068C242.598 81.3045 243.379 81.8723 244.039 81.9685L246.146 82.2744C246.806 82.3706 246.955 82.8301 246.478 83.2952L244.953 84.7808C244.475 85.2459 244.177 86.1641 244.29 86.8216L244.65 88.9202C244.762 89.5774 244.372 89.8615 243.782 89.5511L241.896 88.5598C241.306 88.2498 240.341 88.2498 239.75 88.5602L237.867 89.5507C237.277 89.8615 236.886 89.5774 236.999 88.9202L237.359 86.8216C237.471 86.1641 237.173 85.2459 236.696 84.7808L235.172 83.2952C234.694 82.8301 234.843 82.3706 235.503 82.2744L237.609 81.9681C238.269 81.8715 239.05 81.3037 239.346 80.706L240.287 78.7973Z" fill="#FFFEFF"/>
<path d="M201.958 96.6999C203.288 96.6846 204.615 96.5678 205.945 96.5524C206.205 96.5492 206.206 96.1451 205.945 96.1483C204.615 96.1637 203.288 96.2804 201.958 96.2958C201.698 96.2986 201.697 96.7028 201.958 96.6999Z" fill="#FFFEFF"/>
<path d="M207.796 96.5525C212.548 96.4454 217.3 96.6576 222.051 96.58C224.422 96.5416 226.774 96.3197 229.139 96.2037C231.626 96.0817 234.118 96.1237 236.605 96.188C238.981 96.249 241.355 96.3415 243.732 96.3763C245.371 96.4009 247.037 96.4798 248.65 96.131C251.29 95.5604 252.412 93.4234 252.588 90.8842C252.606 90.624 252.201 90.6256 252.183 90.8842C252.086 92.293 251.76 93.6784 250.71 94.6875C249.756 95.6056 248.319 95.853 247.053 95.9524C245.169 96.1003 243.239 95.9718 241.352 95.9233C239.112 95.8655 236.873 95.7794 234.633 95.7406C230.16 95.6626 225.727 96.1302 221.259 96.1876C216.771 96.245 212.284 96.0473 207.796 96.1484C207.536 96.1544 207.535 96.5586 207.796 96.5525Z" fill="#FFFEFF"/>
</svg>
