<svg width="564" height="252" viewBox="0 0 564 252" fill="none" xmlns="http://www.w3.org/2000/svg">
<path d="M0 20C0 8.9543 8.95431 0 20 0H544C555.046 0 564 8.95431 564 20V232C564 243.046 555.046 252 544 252H20C8.95432 252 0 243.046 0 232V20Z" fill="#8CEFE9"/>
<path d="M200.502 30.1382V145.646H83.6011V30.1382H200.502Z" fill="white"/>
<path d="M217.115 130.07L214.894 127.846L223.596 119.144L225.818 121.368L217.115 130.07Z" fill="#2371B0"/>
<path d="M223.597 130.07L214.895 121.368L217.116 119.144L225.819 127.846L223.597 130.07Z" fill="#2371B0"/>
<path d="M177.316 39.7289C185.155 39.7289 191.51 46.0831 191.51 53.9217C191.51 61.7605 185.155 68.1148 177.316 68.1148C169.478 68.1148 163.123 61.7605 163.123 53.9217C163.123 46.0831 169.478 39.7289 177.316 39.7289Z" fill="#7ED321"/>
<path d="M200.587 145.655H83.0545C82.5985 145.655 82.2289 145.284 82.2289 144.829V30.5993C82.2289 30.1433 82.5985 29.7727 83.0545 29.7727H200.587C201.042 29.7727 201.412 30.1433 201.412 30.5993V144.829C201.412 145.284 201.042 145.655 200.587 145.655ZM83.8792 144.004H199.762V31.424H83.8792V144.004Z" fill="black"/>
<path d="M194.193 139.845H160.817C160.361 139.845 159.993 139.477 159.993 139.021V36.0712C159.993 35.6162 160.361 35.2465 160.817 35.2465H194.193C194.648 35.2465 195.018 35.6162 195.018 36.0712V139.021C195.018 139.477 194.648 139.845 194.193 139.845ZM161.642 138.196H193.368V36.8969H161.642V138.196Z" fill="black"/>
<path d="M156.429 139.901H89.5759C89.1209 139.901 88.7503 139.531 88.7503 139.076V36.126C88.7503 35.67 89.1209 35.3004 89.5759 35.3004H156.429C156.884 35.3004 157.256 35.67 157.256 36.126V139.076C157.256 139.531 156.884 139.901 156.429 139.901ZM90.4016 138.251H155.604V36.9507H90.4016V138.251Z" fill="black"/>
<path d="M83.5143 22.3129C94.2224 22.3129 102.903 30.9939 102.903 41.702C102.903 52.4092 94.2224 61.0893 83.5143 61.0893C72.8071 61.0893 64.127 52.4092 64.127 41.702C64.127 30.9939 72.8071 22.3129 83.5143 22.3129Z" fill="#2371B0"/>
<path d="M73.6411 199.981H65.058C63.0826 199.981 61.4825 199.562 61.4825 201.083L63.2981 219.021C63.2981 219.628 63.7912 220.121 64.3977 220.121H74.3015C74.9079 220.121 75.401 219.628 75.401 219.021L77.2167 201.083C77.2167 199.562 75.6147 199.981 73.6411 199.981Z" fill="#7ED321"/>
<path d="M73.4507 206.895H64.8695C62.895 206.895 61.293 206.75 61.293 207.276L61.9301 213.468C61.9301 213.679 62.5208 213.846 63.2507 213.846H75.1252C75.8542 213.846 76.4449 213.679 76.4449 213.468L77.0272 207.276C77.0272 206.75 75.4261 206.895 73.4507 206.895Z" fill="white"/>
<path d="M75.1252 214.671H63.2498C61.8864 214.671 61.1045 214.233 61.1045 213.467L60.472 207.36C60.4683 206.992 60.5807 206.724 60.785 206.522C61.2911 206.024 62.1864 206.04 63.8144 206.06L73.4498 206.071L74.5048 206.06C76.1291 206.04 77.0281 206.024 77.5333 206.522C77.7386 206.724 77.8519 206.992 77.8519 207.276L77.2668 213.544C77.2696 214.233 76.4886 214.671 75.1252 214.671ZM75.6323 213.334C75.6239 213.376 75.6202 213.42 75.6202 213.467L75.6323 213.334ZM62.7418 213.286L62.7501 213.383C62.7511 213.349 62.7492 213.316 62.7418 213.286ZM62.7102 212.978C62.8439 213.002 63.026 213.021 63.2498 213.021H75.1252C75.3481 213.021 75.531 213.002 75.6657 212.978L76.1561 207.726C75.7493 207.695 75.089 207.702 74.529 207.711L64.8695 207.72L63.7912 207.711C63.2321 207.702 62.5728 207.695 62.1651 207.725L62.7102 212.978Z" fill="black"/>
<path d="M65.7657 198.908H72.9335C74.5828 198.908 75.9211 199.159 75.9211 198.255L75.4094 196.68C75.4094 196.318 74.9163 196.026 74.307 196.026H64.3912C63.7829 196.026 63.2888 196.318 63.2888 196.68L62.778 198.255C62.778 199.159 64.1163 198.908 65.7657 198.908Z" fill="white"/>
<path d="M65.7657 198.908H72.9335C74.5828 198.908 75.9211 199.159 75.9211 198.255L75.4094 196.68C75.4094 196.318 74.9163 196.026 74.307 196.026H64.3912C63.7829 196.026 63.2888 196.318 63.2888 196.68L62.778 198.255C62.778 199.159 64.1163 198.908 65.7657 198.908Z" fill="#417505"/>
<path d="M74.5299 199.767C74.3014 199.767 74.059 199.759 73.8046 199.752C73.5297 199.743 73.2371 199.734 72.9344 199.734H65.7657C65.462 199.734 65.1704 199.743 64.8955 199.752C63.7922 199.784 62.9201 199.81 62.3629 199.27C62.1762 199.089 61.9533 198.764 61.9533 198.256C61.9533 198.168 61.9663 198.081 61.9942 197.999L62.4753 196.516C62.5737 195.755 63.365 195.2 64.3921 195.2H74.307C75.3342 195.2 76.1254 195.755 76.2248 196.516L76.7059 197.999C76.7337 198.081 76.7458 198.168 76.7458 198.256C76.7458 198.764 76.5238 199.089 76.3362 199.27C75.9081 199.687 75.2924 199.767 74.5299 199.767ZM65.7657 198.083H72.9344C73.2539 198.083 73.5631 198.093 73.8529 198.101C74.2281 198.113 74.7064 198.128 75.0026 198.099L74.6256 196.935C74.554 196.878 74.45 196.85 74.307 196.85H64.3921C64.25 196.85 64.146 196.878 64.0847 196.902C64.0745 196.935 63.6974 198.099 63.6974 198.099C63.9928 198.128 64.472 198.113 64.8462 198.101C65.1369 198.093 65.4453 198.083 65.7657 198.083Z" fill="black"/>
<path d="M64.2184 203.029H74.4798C76.8415 203.029 78.7555 203.446 78.7555 201.928L78.0246 199.284C78.0246 198.676 77.3188 198.184 76.4468 198.184H62.2514C61.3794 198.184 60.6736 198.676 60.6736 199.284L59.9417 201.928C59.9417 203.446 61.8567 203.029 64.2184 203.029Z" fill="white"/>
<path d="M76.7616 203.908C76.4375 203.908 76.092 203.896 75.727 203.884C75.3332 203.869 74.9144 203.854 74.4807 203.854H64.2203C63.7866 203.854 63.3659 203.869 62.9721 203.884C61.5131 203.931 60.3587 203.973 59.6445 203.282C59.2944 202.944 59.117 202.489 59.117 201.929C59.117 201.853 59.1272 201.78 59.1467 201.708L59.8535 199.154C59.9343 198.138 60.9587 197.36 62.2514 197.36H76.4477C77.7404 197.36 78.7648 198.138 78.8456 199.154L79.5514 201.708C79.5719 201.781 79.5821 201.854 79.5821 201.929C79.5821 202.489 79.4038 202.944 79.0536 203.282C78.5169 203.801 77.7349 203.908 76.7616 203.908ZM64.2203 202.204H74.4807C74.9339 202.204 75.3722 202.219 75.7846 202.232C76.5146 202.261 77.7349 202.3 77.9067 202.095L77.2297 199.505C77.2102 199.432 77.2009 199.358 77.2009 199.284C77.1749 199.217 76.9018 199.011 76.4477 199.011H62.2514C61.7973 199.011 61.5242 199.217 61.4973 199.295C61.4973 199.37 61.489 199.433 61.4695 199.505L60.7896 201.963C61.0404 202.297 62.2059 202.259 62.9155 202.232C63.3278 202.219 63.7662 202.204 64.2203 202.204Z" fill="black"/>
<path d="M211.342 94.485C211.079 94.485 210.83 94.329 210.725 94.0699C210.63 93.8377 208.435 88.3323 210.78 83.6238C211.878 81.4172 213.781 79.7733 216.45 78.7211C216.114 77.0067 216.171 75.1939 216.861 73.6541C218.403 70.216 221.328 69.6773 225.03 68.9947C226.307 68.7598 227.627 68.5183 229.064 68.1329C233.368 66.9813 232.581 61.3394 232.572 61.2827C232.517 60.9196 232.768 60.5788 233.133 60.5249C233.499 60.472 233.836 60.7246 233.888 61.0868C234.242 63.4596 233.76 68.2545 229.407 69.4192C227.922 69.8176 226.514 70.0767 225.273 70.3061C221.695 70.9645 219.331 71.4001 218.078 74.1992C217.539 75.401 217.474 76.8618 217.723 78.2809C217.904 78.2252 218.088 78.1741 218.274 78.124C221.85 77.1702 223.716 78.4722 224.506 79.335C225.527 80.4504 225.876 82.0329 225.393 83.3647C224.979 84.5061 224.031 85.2555 222.798 85.4199C221.2 85.6391 219.606 84.8088 218.322 83.0916C217.7 82.2558 217.159 81.1887 216.785 80.0213C214.511 80.9537 212.898 82.3598 211.973 84.2172C209.894 88.3927 211.938 93.5164 211.959 93.5675C212.098 93.9083 211.934 94.2965 211.593 94.4349C211.51 94.4683 211.427 94.485 211.342 94.485ZM218.04 79.5746C218.363 80.6017 218.836 81.5518 219.391 82.2948C219.958 83.0554 221.137 84.3017 222.622 84.1002C223.358 84.0018 223.898 83.5801 224.14 82.9096C224.451 82.0533 224.204 80.9779 223.522 80.2358C222.936 79.595 221.517 78.6375 218.618 79.4111C218.422 79.4641 218.229 79.517 218.04 79.5746Z" fill="#181818"/>
<path d="M215.736 110.894C215.678 110.866 208.351 107.73 208.351 107.73C208.405 107.694 214.779 102.915 214.779 102.915C214.785 102.979 215.736 110.894 215.736 110.894ZM208.502 107.714L215.648 110.772L214.718 103.053L208.502 107.714Z" fill="#7ED321"/>
<path d="M215.53 111.946C215.436 111.932 215.34 111.904 215.249 111.864L207.985 108.756C207.615 108.599 207.358 108.258 207.311 107.858C207.262 107.46 207.43 107.066 207.75 106.826L214.074 102.085C214.396 101.845 214.814 101.797 215.187 101.95C215.557 102.109 215.814 102.452 215.863 102.85L216.806 110.697C216.855 111.096 216.688 111.491 216.365 111.733C216.124 111.912 215.82 111.987 215.53 111.946ZM210.659 107.456L214.343 109.031L213.863 105.051L210.659 107.456Z" fill="#7ED321"/>
<path d="M118.15 72.8517C118.15 72.8517 118.576 76.802 118.903 77.4563C119.283 78.216 121.708 78.5514 121.708 78.5514C121.708 78.5514 119.347 78.9583 118.989 79.6742C118.636 80.3793 118.15 84.2511 118.15 84.2511C118.15 84.2511 117.683 80.2753 117.311 79.5315C116.974 78.858 114.592 78.5514 114.592 78.5514C114.592 78.5514 117.003 78.1604 117.368 77.4285C117.712 76.7399 118.15 72.8517 118.15 72.8517Z" fill="#2371B0"/>
<path d="M124.011 17.5028C124.011 17.5028 124.207 19.3153 124.357 19.6153C124.532 19.9648 125.646 20.1179 125.646 20.1179C125.646 20.1179 124.561 20.3044 124.397 20.6331C124.235 20.9567 124.011 22.7329 124.011 22.7329C124.011 22.7329 123.797 20.9092 123.626 20.5672C123.471 20.2582 122.377 20.1179 122.377 20.1179C122.377 20.1179 123.484 19.9384 123.652 19.6021C123.81 19.2865 124.011 17.5028 124.011 17.5028Z" fill="#7ED321"/>
<path d="M39.1739 53.3607C39.1739 53.3607 39.3699 55.1746 39.5201 55.4746C39.6944 55.8227 40.8083 55.9758 40.8083 55.9758C40.8083 55.9758 39.7236 56.1628 39.5592 56.4916C39.3972 56.8151 39.1739 58.5918 39.1739 58.5918C39.1739 58.5918 38.9591 56.7676 38.7882 56.4266C38.6337 56.1176 37.5386 55.9758 37.5386 55.9758C37.5386 55.9758 38.6464 55.7968 38.8145 55.4615C38.9723 55.1459 39.1739 53.3607 39.1739 53.3607Z" fill="#2371B0"/>
<path d="M24.759 82.9918C24.759 82.9918 25.1852 86.9426 25.5121 87.5964C25.8917 88.3561 28.316 88.691 28.316 88.691C28.316 88.691 25.9553 89.0984 25.5974 89.8134C25.2446 90.5195 24.759 94.3902 24.759 94.3902C24.759 94.3902 24.2917 90.4158 23.9196 89.6717C23.5828 88.9981 21.2009 88.691 21.2009 88.691C21.2009 88.691 23.6106 88.2996 23.9761 87.5686C24.3209 86.879 24.759 82.9918 24.759 82.9918Z" fill="#7ED321"/>
<path d="M135.637 184.842C135.637 184.842 136.88 187.318 136.838 187.441C136.796 187.561 136.766 188.477 136.493 188.66C136.217 188.844 135.698 189.392 135.149 189.607C134.599 189.819 134.508 190.265 133.364 190.516C132.219 190.766 130.297 191.559 130.083 191.559C129.87 191.559 128.433 190.949 128.129 190.644C127.824 190.338 126.542 189.485 125.993 189.178C125.444 188.875 124.222 188.385 123.826 188.05C123.428 187.714 122.703 186.279 122.761 186.158C122.819 186.036 126.238 182.311 126.238 182.311L131.121 180.236L135.637 184.842Z" fill="white"/>
<path d="M136.811 182.239C137.81 182.297 138.902 181.462 138.902 180.478C138.902 179.768 138.26 179.198 137.857 178.773C137.404 178.296 136.952 177.834 136.426 177.398C135.429 176.573 134.233 175.513 132.63 175.583C131.601 175.627 130.534 176.359 129.714 176.904C127.077 178.654 124.862 180.745 122.617 182.624C121.381 181.969 120.115 181.343 118.846 180.72V182.543C119.349 182.788 119.854 183.035 120.361 183.285C121.035 183.615 122.183 184.442 122.892 184.385C123.573 184.33 124.608 183.086 125.257 182.515C126.957 181.015 128.153 180.018 129.989 178.718C130.769 178.167 131.899 177.228 132.795 177.232C133.753 177.238 134.708 178.107 135.326 178.609C135.651 178.872 135.99 179.218 136.316 179.545C136.623 179.85 137.179 180.147 137.031 180.589C136.343 180.414 135.786 180.099 135.105 179.709C134.577 179.403 133.877 178.729 133.235 178.718C132.81 178.711 131.89 179.02 131.365 179.268C130.949 179.464 130.54 179.837 130.539 180.258C130.538 180.827 131.459 181.556 131.97 182.019C133.184 183.123 134.186 184.012 135.161 185.268C135.804 186.095 136.888 187.443 135.711 188.127C134.514 186.413 133.117 184.398 131.419 182.899C131.046 182.57 130.201 181.529 129.383 181.744C129.137 181.81 128.918 182.144 128.888 182.35C128.778 183.132 129.846 183.743 130.209 184.056C131.95 185.55 133.166 187.262 134.335 189.117C133.897 189.322 133.507 189.573 133.014 189.724C131.511 188.241 129.704 186.565 128.008 184.991C127.621 184.63 126.867 183.51 126.028 183.669C125.714 183.729 125.438 184.123 125.423 184.385C125.38 185.06 126.383 185.758 126.688 186.037C127.286 186.584 127.776 187.033 128.229 187.467C129.276 188.474 130.439 189.325 131.144 190.327C128.541 190.691 127.412 188.732 125.643 187.909C124.99 187.702 122.978 186.146 122.782 187.632C122.692 188.313 123.249 188.381 123.387 188.732C122.752 188.809 122.246 189.635 121.461 189.724C120.883 189.788 120.244 189.507 119.647 189.503C119.368 189.5 119.102 189.514 118.846 189.537V191.195C119.981 191.104 121.174 191.31 122.341 191.593C124.729 192.173 126.888 193.146 129.033 194.11H133.077C130.081 192.781 127.046 191.489 123.936 190.272C124.392 190.068 124.737 189.752 125.257 189.613C127.077 190.855 128.99 192.527 131.86 191.813C134.201 191.231 136.733 190.127 137.637 188.293C138.562 186.414 136.697 184.578 135.711 183.449C134.973 182.605 134.245 181.904 133.509 181.194C133.286 180.979 132.845 180.704 132.96 180.478C134.128 180.603 135.332 182.155 136.811 182.239Z" fill="#181818"/>
<path d="M94.6224 193.145C97.7104 192.524 93.8226 152.263 97.4375 144.835C104.452 130.421 95.6001 112.421 91.5097 106.187C88.1607 101.079 82.9602 89.9887 73.5952 91.8728C64.7654 93.6488 65.087 107.964 69.4411 115.174C80.2999 133.149 69.2035 133.982 70.8859 151.26C71.635 158.949 91.5354 193.766 94.6224 193.145Z" fill="white"/>
<path d="M94.6108 193.975C94.2131 193.998 93.7813 193.834 93.2983 193.476C88.4245 189.865 70.812 159.017 70.0634 151.339C69.3803 144.326 70.7484 139.971 71.9563 136.129C73.7112 130.545 75.0973 126.133 68.7354 115.6C65.8472 110.819 64.397 102.38 66.9702 96.5327C68.2876 93.5393 70.5217 91.6484 73.4312 91.0627C82.1506 89.308 87.3614 97.8529 90.8117 103.508C91.309 104.322 91.7694 105.078 92.1998 105.733C97.5694 113.919 104.873 131.443 98.1792 145.195C96.3764 148.901 96.535 161.716 96.6754 173.022C96.8789 189.402 96.6779 193.573 94.7854 193.953C94.7275 193.965 94.6693 193.972 94.6108 193.975ZM75.1542 92.4991C74.6999 92.5253 74.2345 92.5847 73.7572 92.6811C71.3636 93.1636 69.5871 94.682 68.4811 97.1971C66.4056 101.915 67.1533 109.788 70.1476 114.746C76.8961 125.918 75.3361 130.879 73.531 136.624C72.3712 140.316 71.0565 144.5 71.7063 151.178C72.4353 158.663 90.7381 190.253 94.3856 192.249C95.2416 190.497 95.122 180.853 95.0253 173.042C94.8755 160.993 94.7214 148.53 96.6947 144.474C103.064 131.386 95.9992 114.533 90.8195 106.639C90.3808 105.969 89.9102 105.197 89.4027 104.367C86.2144 99.1424 81.9216 92.1083 75.1542 92.4991Z" fill="#181818"/>
<path d="M94.8104 194.596C97.9507 194.414 100.231 149.047 104.926 141.39C114.036 126.532 108.037 105.078 104.947 97.4755C102.419 91.2521 98.9729 78.073 89.4463 78.6232C80.4667 79.1417 78.6104 95.0977 81.8111 103.824C89.7935 125.584 78.7187 124.68 77.7556 144.151C77.3259 152.819 91.6701 194.777 94.8104 194.596Z" fill="white"/>
<path d="M94.857 195.419C94.437 195.443 94.0278 195.252 93.6055 194.834C89.1611 190.426 76.5387 152.026 76.9308 144.109C77.3203 136.243 79.3239 131.648 81.0917 127.594C83.6901 121.639 85.7414 116.935 81.0359 104.109C78.8156 98.0543 78.8033 87.8864 82.6569 82.0153C84.3644 79.4143 86.6952 77.956 89.3988 77.7999C98.2986 77.2859 102.138 87.6207 104.679 94.4602C105.046 95.4484 105.387 96.3646 105.712 97.1644C109.753 107.111 114.283 127.707 105.629 141.821C103.27 145.669 101.478 159.954 99.8959 172.555C97.6175 190.723 96.7864 195.308 94.857 195.419ZM89.4939 79.4465C87.303 79.573 85.4663 80.7433 84.0358 82.9218C80.5782 88.1914 80.4942 97.8364 82.5854 103.539C87.5184 116.987 85.2422 122.209 82.6061 128.254C80.894 132.178 78.9537 136.627 78.5803 144.192C78.1672 152.503 91.3372 190.445 94.7024 193.627C95.8296 191.706 97.1707 181.02 98.258 172.35C99.9387 158.959 101.676 145.11 104.223 140.959C112.531 127.407 108.108 107.446 104.183 97.7876C103.852 96.9722 103.505 96.0397 103.132 95.0352C100.761 88.651 97.1764 79.0029 89.4939 79.4465Z" fill="#181818"/>
<path d="M101.958 197.695C104.944 198.29 118.802 161.785 124.3 156.149C134.969 145.214 126.956 121.782 125.107 114.323C123.593 108.215 122.188 95.7422 113.129 93.9369C104.588 92.2338 100.605 105.887 102.402 114.367C106.884 135.513 96.569 132.051 92.9358 149.022C91.3182 156.578 98.9719 197.1 101.958 197.695Z" fill="white"/>
<path d="M102.092 198.525C101.992 198.531 101.894 198.524 101.796 198.504C101.243 198.394 100.877 197.921 100.65 197.574C97.434 192.684 90.5196 156.361 92.1278 148.85C93.6034 141.959 96.1484 138.364 98.3923 135.193C101.653 130.588 104.226 126.951 101.596 114.538C100.375 108.779 101.733 99.8537 106.058 95.4773C108.104 93.4038 110.602 92.587 113.291 93.1275C121.704 94.8045 123.877 104.842 125.313 111.485C125.521 112.447 125.714 113.338 125.908 114.124C126.102 114.906 126.365 115.864 126.665 116.965C129.294 126.587 134.764 146.605 124.891 156.725C122.325 159.356 117.558 169.636 113.353 178.706C106.35 193.812 103.948 198.418 102.092 198.525ZM111.362 94.6269C109.853 94.714 108.468 95.3875 107.232 96.6375C103.294 100.623 102.078 108.855 103.21 114.196C105.992 127.316 103.095 131.408 99.7404 136.147C97.5877 139.189 95.1476 142.636 93.7422 149.196C92.1464 156.647 99.369 193.65 102.093 196.791C103.721 195.555 108.218 185.857 111.856 178.011C116.325 168.373 120.946 158.405 123.71 155.573C132.924 146.128 127.621 126.726 125.072 117.4C124.767 116.284 124.503 115.313 124.306 114.522C124.108 113.721 123.911 112.813 123.699 111.834C122.354 105.613 120.32 96.212 112.968 94.7472C112.419 94.6365 111.884 94.5967 111.362 94.6269Z" fill="#181818"/>
<path d="M113.785 102.705C113.785 102.705 116.993 109.63 114.889 123.119C113.264 133.535 101.682 136.829 99.6967 153.028C97.0762 174.406 96.9414 201.165 96.9414 201.165L113.785 102.705Z" fill="white"/>
<path d="M96.989 201.989C96.4801 201.989 96.1126 201.617 96.1152 201.161C96.1164 200.893 96.2813 174.108 98.8778 152.927C100.021 143.601 104.266 138.442 108.009 133.889C110.9 130.375 113.395 127.341 114.073 122.992C116.105 109.961 113.064 103.117 113.034 103.051C112.845 102.635 113.026 102.146 113.44 101.955C113.85 101.768 114.341 101.945 114.532 102.358C114.668 102.65 117.821 109.666 115.705 123.246C114.956 128.041 112.201 131.391 109.285 134.937C105.683 139.315 101.602 144.278 100.516 153.128C97.932 174.212 97.7672 200.902 97.7668 201.169C97.7642 201.607 97.4201 201.964 96.989 201.989Z" fill="#181818"/>
<path d="M94.3973 201.102C95.0006 203.947 84.9489 148.511 86.851 140.434C90.6053 124.484 76.2883 119.855 76.3746 113.649C76.5111 103.93 67.926 93.6086 59.5581 96.3756C51.6704 98.9847 51.1527 114.037 53.278 119.251C56.8061 127.912 66.8989 127.967 68.7117 147.987C70.1776 164.174 94.245 200.383 94.3973 201.102Z" fill="white"/>
<path d="M94.4927 202.029C94.1172 202.051 93.7519 201.75 93.6211 201.386C93.4974 201.144 92.8246 200.062 92.0512 198.815C86.3854 189.688 69.1439 161.914 67.8899 148.06C66.7367 135.323 62.178 130.887 58.1565 126.972C55.9202 124.797 53.8089 122.742 52.5136 119.563C50.8619 115.511 50.8438 107.046 53.4581 101.379C54.8494 98.362 56.8142 96.4141 59.2989 95.5915C62.5552 94.5188 66.107 95.2141 69.302 97.5572C74.1113 101.083 77.285 107.553 77.1995 113.66C77.1726 115.563 78.926 117.51 80.9576 119.764C84.842 124.074 90.1597 129.977 87.6536 140.624C86.9424 143.645 87.6003 156.1 94.7743 198.287C94.9773 199.484 95.1126 200.28 95.1733 200.816C95.1878 200.858 95.1964 200.893 95.2041 200.93C95.2705 201.886 95.0819 201.923 94.5768 202.019C94.5491 202.024 94.5205 202.027 94.4927 202.029ZM61.927 96.7532C61.2464 96.7925 60.5422 96.9207 59.8183 97.1606C57.7845 97.8325 56.1496 99.4841 54.9575 102.069C52.3945 107.625 52.6982 115.638 54.0423 118.938C55.2074 121.798 57.1069 123.648 59.3078 125.789C63.5344 129.904 68.3256 134.566 69.5335 147.912C70.7142 160.949 86.7731 187.171 92.8868 197.03C87.2788 163.887 84.9776 144.786 86.0465 140.245C88.3548 130.44 83.5738 125.133 79.7321 120.868C77.4679 118.356 75.5138 116.188 75.5488 113.637C75.626 108.128 72.6561 102.062 68.3266 98.887C66.7812 97.7539 64.5369 96.6025 61.927 96.7532Z" fill="#181818"/>
<path d="M94.928 198.292C95.1395 195.801 85.5462 187.866 84.8657 177.709C84.1439 166.95 83.6084 161.993 77.9363 153.886C72.3576 145.912 66.4116 144.143 60.5957 146.867C55.1954 149.395 56.3977 157.149 61.0413 159.351C66.6565 162.013 70.4988 162.405 73.3763 176.537C75.2279 185.629 94.7375 200.535 94.928 198.292Z" fill="white"/>
<path d="M94.7132 199.34C91.688 199.516 74.3484 185.444 72.5681 176.701C70.0453 164.314 66.9424 162.92 62.2445 160.809C61.7403 160.582 61.2227 160.35 60.688 160.097C57.9966 158.821 56.1937 155.807 56.2026 152.595C56.2091 149.679 57.684 147.319 60.2465 146.119C64.8034 143.986 71.6911 143.52 78.6132 153.413C84.3988 161.682 84.9635 166.821 85.6894 177.652C86.1139 183.972 90.2335 189.554 92.9596 193.249C94.7014 195.608 95.8519 197.167 95.7506 198.36C95.7035 198.913 95.2862 199.307 94.7132 199.34ZM65.0632 146.52C63.7105 146.599 62.3371 146.963 60.9458 147.614C58.9857 148.531 57.8581 150.349 57.8531 152.599C57.8465 155.143 59.3036 157.613 61.3954 158.605C61.9186 158.854 62.4266 159.081 62.9195 159.303C67.898 161.539 71.4947 163.155 74.1863 176.372C75.7382 183.994 89.8768 195.346 93.7979 197.376C93.3406 196.546 92.4475 195.337 91.631 194.229C88.791 190.38 84.4987 184.564 84.0427 177.763C83.3194 166.977 82.8057 162.285 77.2613 154.359C73.4378 148.895 69.3486 146.273 65.0632 146.52Z" fill="#181818"/>
<path d="M195.923 177.686C195.997 174.408 192.401 173.478 191.583 171.267C190.765 169.055 194.32 166.265 195.415 164.101C196.509 161.937 195.329 155.115 190.803 153.951C186.279 152.785 180.168 160.467 178.932 163.123C177.696 165.781 181.083 174.618 181.359 176.489C181.634 178.357 181.135 180.549 183.629 182.417C186.126 184.288 188.616 185.468 189.894 184.979C191.173 184.49 195.85 180.965 195.923 177.686Z" fill="white"/>
<path d="M195.737 163.186L195.661 161.867C195.316 159.787 194.845 158.236 194.096 156.725C193.42 155.36 192.482 153.906 191.034 153.319C188.898 152.453 186.705 154.005 185.398 154.966C184.184 155.858 183.265 156.65 182.141 157.746C180.132 159.705 177.869 161.982 177.777 165.215C177.724 167.126 178.422 168.848 178.952 170.274C179.48 171.697 180.3 173.322 180.543 174.922C180.774 176.442 180.321 177.746 180.461 179.224C180.668 181.413 182.126 182.516 183.461 183.459C183.882 183.758 186.418 185.624 186.581 184.051C186.648 183.404 185.972 183.091 185.633 182.894C184.352 182.149 182.857 181.266 182.318 179.889C181.837 178.659 182.293 176.989 182.236 175.596C182.179 174.273 181.8 173.314 181.376 172.173C181.009 171.183 180.653 170.185 180.259 169.04C179.899 168.001 179.421 166.688 179.396 165.563C179.33 162.583 181.692 160.491 183.308 158.889C184.221 157.985 184.991 157.266 186.194 156.353C187.041 155.712 188.573 154.553 190.014 154.755C191.399 154.948 192.389 156.865 192.969 158.222C193.647 159.8 194.302 161.831 194.053 163.616C193.853 165.044 192.816 166.162 192.055 167.202C191.36 168.156 190.386 169.436 190.334 170.774C190.255 172.781 191.619 173.865 192.602 174.777C193.247 175.372 194.155 176.057 194.426 176.765C195.011 178.287 194.397 180.05 193.785 180.935C192.797 182.362 190.997 182.952 189.556 184.044C189.97 182.888 190.3 182.203 190.322 181.079C190.398 177.056 187.609 174.405 186.585 171.706C185.866 169.814 185.772 167.086 186.494 165.374C186.864 164.498 187.363 163.851 188.171 162.907C188.637 162.361 190.056 161.355 189.853 160.55C189.777 160.251 189.596 160.037 189.214 159.982C188.381 159.861 187.256 161.447 186.794 161.996C186.132 162.784 185.404 163.803 185.021 164.687C184.172 166.654 184.217 169.914 185.011 172.128C185.883 174.567 187.928 176.569 188.52 179.475C189.245 183.022 186.97 184.742 186.051 187.279C185.413 189.04 185.527 191.25 186.487 192.929C188.096 195.738 190.58 196.999 191.694 200.068C192.563 202.466 192.949 205.116 193.259 208.08C193.396 209.391 193.568 210.24 194.317 210.166C195.166 210.084 195.038 209.043 194.897 207.82C194.548 204.799 194.02 201.764 193.206 199.54C192.582 197.832 191.796 196.699 190.771 195.547C189.764 194.412 188.632 193.419 187.868 192.023C186.663 189.825 187.582 187.23 188.66 185.694C189.066 185.708 189.18 185.971 189.715 185.854C190.037 185.783 190.745 185.283 191.209 184.997C193.7 183.467 196.473 181.674 196.251 177.818C196.123 175.6 195.031 174.827 193.809 173.715C193.113 173.081 192.07 172.092 192.003 171.063C191.947 170.209 192.448 169.615 192.874 168.973C194.047 167.214 195.591 165.509 195.737 163.186Z" fill="#181818"/>
<path d="M202.303 179.623C201.565 178.913 199.59 175.15 199.371 171.8C199.154 168.451 201.902 167.256 203.654 164.83C205.405 162.404 204.173 158.669 204.971 156.154C205.77 153.642 210.561 152.15 212.653 152.68C214.746 153.211 215.432 156.635 215.611 160.005C215.791 163.376 213.666 164.653 212.053 167.1C210.439 169.547 215.787 174.755 214.772 177.911C213.756 181.067 206.096 181.31 204.831 181.407C203.568 181.504 203.042 180.333 202.303 179.623Z" fill="white"/>
<path d="M206.348 180.113C207.537 178.971 208.792 177.656 208.828 175.341C208.849 173.906 208.487 172.426 208.134 170.972C207.821 169.679 207.181 167.984 207.338 166.719C207.451 165.809 208.21 165.134 208.756 164.543C209.273 163.983 210.003 163.221 210.289 162.471C210.631 161.573 211.089 157.595 209.522 157.777C208.366 157.909 209.132 160.688 208.813 161.729C208.574 162.508 207.722 163.195 207.121 163.922C206.526 164.641 205.783 165.573 205.687 166.759C205.573 168.169 206.136 169.704 206.49 171.122C206.95 172.958 207.542 175.175 206.926 176.773C205.816 179.659 201.51 180.062 201.392 183.982C201.318 186.416 202.415 188.176 203.172 189.996C203.917 191.794 204.761 193.702 205.159 195.777C205.719 198.7 206.007 203.266 206.145 206.191C206.197 207.275 206.02 209.153 207.086 209.114C208.048 209.076 207.892 207.79 207.813 206.426C207.602 202.783 207.439 199.188 206.884 196.063C206.518 194.013 205.842 192.089 205.121 190.378C204.373 188.596 203.391 187 203.106 185.041C202.865 183.387 203.4 182.503 204.288 181.664C204.79 181.834 205.419 181.814 206.003 181.785C208.678 181.659 212.243 181.168 213.948 180.003C214.787 179.431 215.465 178.544 215.439 177.219C215.385 174.478 213.115 172.233 212.724 169.329C212.265 165.91 215.512 164.285 216.422 161.787C217.484 158.867 215.803 154.649 214.263 153.037C213.444 152.182 212.454 151.685 211.049 151.79C209.51 151.906 207.982 152.675 206.852 153.522C205.749 154.346 204.642 155.433 204.106 156.544C203.07 158.692 203.987 161.849 203.106 164.043C202.234 166.213 199.955 167.733 198.925 169.906C197.471 172.977 199.645 176.597 201.148 178.815C201.502 179.338 202.013 180.34 202.771 180.209C203.997 179.998 203.118 178.73 202.587 177.962C202.284 177.522 201.79 176.767 201.497 176.26C200.811 175.073 199.862 173.298 200.077 171.713C200.23 170.578 201.063 169.484 201.825 168.581C203.338 166.781 204.874 165.179 205.149 162.217C205.311 160.486 204.967 158.557 205.632 157.228C206.149 156.197 207.044 155.426 208.129 154.66C209.046 154.011 210.594 153.132 211.918 153.45C213.678 153.871 214.945 157.206 215.077 159.494C215.248 162.46 212.758 163.791 211.652 166.03C211.216 166.912 210.896 168.013 211.076 169.425C211.262 170.874 211.958 172.312 212.529 173.584C212.978 174.586 214.098 176.368 213.707 177.759C213.425 178.759 211.855 179.248 210.668 179.533C209.242 179.874 207.733 179.956 206.348 180.113Z" fill="#181818"/>
<path d="M203.981 135.566C208.777 139.718 203.481 147.234 200.487 151.423C197.495 155.611 202.507 160.972 206.756 164.509C211.004 168.046 207.238 173.69 204.755 176.64C202.273 179.591 198.22 182.589 194.422 182.857C190.623 183.129 187.704 177.508 186.879 175.357C186.054 173.207 188.613 170.616 188.884 167.14C189.155 163.664 184.632 163.197 183.026 158.274C181.421 153.349 186.183 148.584 187.67 145.163C189.159 141.742 186.605 137.26 186.402 134.654C186.2 132.047 190.286 129.129 193.616 128.836C196.948 128.541 199.186 131.416 203.981 135.566Z" fill="white"/>
<path d="M194.322 183.657C193.865 186.146 192.877 188.645 193.227 191.436C193.583 194.264 194.754 196.28 195.939 198.332C197.072 200.296 198.008 202.368 198.549 205.345C198.792 206.687 199.025 208.295 199.18 209.608C199.306 210.653 199.114 213.464 200.39 213.341C201.368 213.246 201.081 211.835 200.941 210.498C200.596 207.207 200.069 203.682 199.132 201.125C198.475 199.33 197.503 197.799 196.646 196.253C195.741 194.619 194.872 193.059 194.787 190.74C194.711 188.739 195.296 186.547 195.706 184.734C196.583 180.861 197.596 177.523 198.48 173.607C198.896 171.769 199.541 169.595 199.289 167.553C198.921 164.587 196.769 162.186 195.177 160.296C193.926 158.813 192.452 156.998 192.299 154.344C192.26 153.678 192.366 153.041 192.576 152.455C193.246 150.564 194.57 148.985 195.522 147.214C195.997 146.334 196.336 145.319 196.619 144.23C196.929 143.033 197.235 141.588 196.94 140.246C196.756 139.42 196.372 138.676 195.865 137.882C195.585 137.438 194.853 136.133 193.978 136.668C193.227 137.125 193.988 138.102 194.308 138.577C195.269 140.004 195.663 141.32 195.142 143.489C194.955 144.265 194.682 145.203 194.397 145.846C193.292 148.342 191.252 150.156 190.774 152.78C190.345 155.131 191.357 157.872 192.253 159.307C193.855 161.873 197.151 164.139 197.637 167.592C197.826 168.943 197.487 170.252 197.255 171.474C196.58 174.999 195.553 178.579 194.771 181.923C193.467 181.399 192.071 180.448 190.771 179.453C189.658 178.6 188.024 177.268 187.855 175.708C187.689 174.163 188.519 172.965 189.064 171.837C189.722 170.476 190.703 168.988 190.326 166.968C189.769 163.967 186.35 163.397 184.982 161.27C183.833 159.483 183.363 155.888 184.043 153.609C184.476 152.162 185.474 151.024 186.251 149.844C187.83 147.441 189.116 144.705 188.244 140.47C188.064 139.592 187.811 138.786 187.605 137.975C187.406 137.191 187.073 136.121 187.165 135.133C187.271 133.978 187.871 133.079 188.383 132.362C189.108 131.345 190.164 130.246 191.606 129.97C193.597 129.592 195.467 130.332 196.787 130.939C199.639 132.252 201.831 134.296 203.368 137.064C204.152 138.474 204.945 140.652 204.725 142.439C204.587 143.57 203.97 144.516 203.411 145.436C202.846 146.364 202.271 147.297 201.748 148.122C200.646 149.864 199.277 151.974 199.233 154.22C199.177 157.187 200.588 159.081 201.931 160.841C203.291 162.625 205.037 164.154 206.027 165.897C207.094 167.777 207.3 171.573 206.406 173.425C205.696 174.893 203.689 176.688 202.31 177.905C201.724 178.423 201.01 179.024 200.157 179.736C199.562 180.235 198.122 180.961 198.516 181.872C199.054 183.116 200.799 181.338 201.274 180.941C202.175 180.185 202.959 179.474 203.685 178.817C205.211 177.438 207.086 175.864 207.929 174.053C208.934 171.894 208.787 167.968 207.661 165.582C206.793 163.744 205.158 162.23 203.849 160.621C202.585 159.073 200.984 157.062 200.862 154.731C200.738 152.335 202.173 150.434 203.372 148.58C204.621 146.645 206.321 144.628 206.419 142.177C206.503 140.045 205.727 138.069 204.94 136.587C202.718 132.405 198.346 128.613 193.053 128.289C191 128.164 189.171 129.048 187.985 130.235C186.779 131.443 185.442 133.419 185.478 135.505C185.527 138.394 187 140.429 186.939 143.635C186.863 147.62 183.494 149.787 182.474 153.148C181.51 156.332 182.343 160.542 184.012 162.595C184.683 163.421 185.623 164.075 186.562 164.76C187.389 165.364 188.577 166.31 188.758 167.499C188.939 168.68 188.036 170.143 187.536 171.152C186.825 172.59 185.749 174.589 186.427 176.729C186.992 178.512 188.517 179.743 189.856 180.774C191.306 181.888 192.682 182.775 194.322 183.657Z" fill="#181818"/>
<path d="M210.244 200.942L206.723 215.965C206.723 217.484 205.491 218.716 203.972 218.716H186.143C184.624 218.716 183.392 217.484 183.392 215.965L179.926 200.942C179.926 199.422 181.527 198.191 183.501 198.191H206.669C208.644 198.191 210.244 199.422 210.244 200.942Z" fill="white"/>
<path d="M203.973 219.542H186.143C184.204 219.542 182.623 217.992 182.57 216.065L179.122 201.128C179.109 201.067 179.102 201.005 179.102 200.942C179.102 198.97 181.074 197.366 183.501 197.366H206.668C209.095 197.366 211.07 198.97 211.07 200.942C211.07 201.005 211.062 201.069 211.048 201.131L207.546 216.067C207.492 217.992 205.91 219.542 203.973 219.542ZM180.756 200.86L184.198 215.779C184.212 215.842 184.218 215.903 184.218 215.966C184.218 217.028 185.083 217.892 186.143 217.892H203.973C205.033 217.892 205.898 217.028 205.898 215.966C205.898 215.902 205.904 215.84 205.918 215.778L209.416 200.858C209.351 199.852 208.119 199.017 206.668 199.017H183.501C182.051 199.017 180.819 199.852 180.756 200.86Z" fill="#181818"/>
<path d="M212.197 195.026L213.106 201.355C213.106 201.963 212.612 202.455 212.004 202.455H177.505C176.897 202.455 176.405 201.963 176.405 201.355L177.312 195.026C177.312 194.421 177.78 193.928 178.358 193.928H211.151C211.728 193.928 212.197 194.421 212.197 195.026Z" fill="white"/>
<path d="M212.005 203.282H177.506C176.444 203.282 175.58 202.418 175.58 201.356L176.498 194.909C176.488 193.966 177.328 193.103 178.359 193.103H211.152C212.161 193.103 212.989 193.93 213.023 194.961L213.922 201.239C213.93 202.418 213.067 203.282 212.005 203.282ZM178.359 194.753C178.24 194.753 178.139 194.879 178.139 195.027L177.22 201.474C177.229 201.507 177.353 201.631 177.506 201.631H212.005C212.157 201.631 212.28 201.507 212.28 201.356L211.382 195.144C211.374 195.105 211.373 195.067 211.373 195.027C211.373 194.879 211.271 194.753 211.152 194.753H178.359Z" fill="#181818"/>
<path d="M111.995 196.552H88.8274C86.8511 196.552 85.2519 197.785 85.2519 199.303L88.7188 214.326C88.7188 215.845 89.9493 217.077 91.4687 217.077H109.298C110.817 217.077 112.049 215.845 112.049 214.326L115.571 199.303C115.571 197.785 113.969 196.552 111.995 196.552Z" fill="white"/>
<path d="M109.298 217.902H91.4687C89.5295 217.902 87.947 216.352 87.8941 214.425L84.4476 199.489C84.4337 199.428 84.4272 199.365 84.4272 199.303C84.4272 197.331 86.4007 195.727 88.8265 195.727H111.995C114.421 195.727 116.395 197.331 116.395 199.303C116.395 199.366 116.388 199.429 116.374 199.491L112.874 214.427C112.82 216.353 111.236 217.902 109.298 217.902ZM86.0794 199.221L89.5221 214.14C89.536 214.202 89.5425 214.263 89.5425 214.326C89.5425 215.388 90.4071 216.253 91.4687 216.253H109.298C110.36 216.253 111.224 215.388 111.224 214.326C111.224 214.262 111.232 214.2 111.246 214.138L114.741 199.219C114.677 198.212 113.446 197.378 111.995 197.378H88.8265C87.3758 197.378 86.1434 198.213 86.0794 199.221Z" fill="#181818"/>
<path d="M116.288 192.288H83.4966C82.919 192.288 82.4509 192.781 82.4509 193.389L81.5417 199.717C81.5417 200.326 82.0348 200.819 82.6431 200.819H117.142C117.75 200.819 118.242 200.326 118.242 199.717L117.334 193.389C117.334 192.781 116.867 192.288 116.288 192.288Z" fill="white"/>
<path d="M117.143 201.642H82.6441C81.5807 201.642 80.7179 200.779 80.7179 199.717L81.6336 193.271C81.6262 192.326 82.4648 191.463 83.4966 191.463H116.289C117.321 191.463 118.16 192.327 118.16 193.389L119.061 199.599C119.068 200.778 118.205 201.642 117.143 201.642ZM83.4966 193.112C83.3777 193.112 83.2765 193.24 83.2765 193.389L82.3599 199.833C82.3673 199.869 82.4908 199.992 82.6441 199.992H117.143C117.294 199.992 117.418 199.869 117.418 199.717L116.518 193.505C116.509 193.239 116.408 193.112 116.289 193.112H83.4966Z" fill="black"/>
<path d="M196.824 188.903C192.946 182.076 187.636 181.639 187.636 181.639C187.636 181.639 168.79 183.262 168.322 183.014C167.855 182.765 152.074 151.174 150.108 148.294C148.144 145.412 146.003 142.599 143.506 141.415C141.008 140.233 138.159 139.658 136.188 139.6C134.216 139.543 130.136 139.719 130.794 137.674C131.454 135.628 132.886 131.291 132.886 131.291C132.886 131.291 135.415 131.769 137.233 131.51C139.05 131.254 141.14 130.355 141.14 130.355C141.14 130.355 140.662 131.911 140.259 133.711C139.856 135.512 138.971 138.247 139.929 138.334C140.888 138.421 144.441 134.097 144.441 134.097C144.441 134.097 145.862 136.408 146.313 136.133C146.762 135.858 147.119 133.29 148.348 126.338C149.898 117.573 148.794 113.695 148.204 113.411C148.064 113.517 147.963 113.572 147.963 113.572C148.018 113.418 148.103 113.361 148.204 113.411C148.757 112.992 149.902 111.786 147.743 110.108C145.036 108.004 140.949 106.296 138.388 105.594C135.828 104.894 130.465 103.944 130.465 103.944C130.465 103.944 130.225 98.1211 126.063 95.5811C121.901 93.0392 119.01 92.6863 116.599 97.1218C114.19 101.556 112.661 115.576 107.19 118.745C101.718 121.913 95.4463 123.365 94.4238 126.338C93.4013 129.311 95.1937 134.647 95.1937 134.647C95.1937 134.647 89.0271 136.404 89.2518 141.251C89.7097 151.13 102.403 153.907 102.403 153.907C102.403 153.907 96.9416 165.198 94.9746 172.56C93.0075 179.92 93.2054 183.592 96.7902 185.325C100.374 187.058 104.769 188.572 104.769 188.572C104.769 188.572 100.351 195.316 99.2113 199.302C98.0727 203.288 95.9562 207.764 99.4314 212.891C102.907 218.022 111.084 221.133 117.699 220.21C124.315 219.287 130.535 215.322 130.246 215.807C129.955 216.295 131.824 219.053 133.767 222.797C135.71 226.539 136.354 228.137 138.334 227.914C140.314 227.691 143.084 226.435 144.001 225.164C144.919 223.893 145.762 221.641 145.762 221.641L146.862 220.927C146.862 220.927 152.698 223.835 154.621 223.402C156.542 222.972 159.793 221.093 159.793 221.093L163.204 223.459C163.204 223.459 181.567 222.175 183.344 221.751C185.12 221.326 191.22 219.537 191.047 214.158C190.875 208.781 185.22 207.262 183.674 207.444C182.127 207.627 175.2 208.875 175.2 208.875C175.2 208.875 192.899 203.373 194.073 202.163C195.248 200.952 200.703 195.729 196.824 188.903ZM112.858 177.457L108.015 175.752L113.792 160.123L120.395 168.379L112.858 177.457ZM143.506 176.026L139.434 168.489L140.865 163.205L143.341 162.876C143.341 162.876 147.45 170.942 148.018 171.075C148.586 171.207 143.506 176.026 143.506 176.026Z" fill="white"/>
<path d="M140.319 130.294L139.929 138.334L142.794 136.508L144.796 134.671L145.892 135.87L147.3 133.681L148.342 124.766L148.863 114.759L148.16 112.933L148.863 111.393C148.863 111.393 145.892 109.179 145.788 109.024C145.743 108.957 141.158 106.578 141.158 106.578L133.641 104.487L130.465 103.944L128.272 97.0336L123.004 93.7144L118.94 95.0007L115.449 99.9405L112.58 109.392L109.412 117.242L103.465 121.001L95.5504 125.13L94.4879 128.909C94.4879 128.909 94.5622 132.136 94.5622 132.326C94.5622 132.518 95.5504 134.67 95.5504 134.67L91.2003 136.508L89.576 140.239V144.829L92.2822 149.164L100.132 154.311L102.093 153.52L104.039 147.806L108.862 140.556L113.677 138.088H118.558L122.729 137.962L124.88 134.67L124.437 132.96L127.033 135.302L128.678 136.125L130.006 121.882L141.557 116.25L144.945 114.668L145.831 117.799L145.704 119.097C145.704 119.097 145.819 127.437 140.319 130.294Z" fill="#2371B0"/>
<path d="M122.617 182.624C119.609 181.028 116.428 179.607 113.429 178.001C115.487 175.082 117.668 172.646 120.03 169.971C120.352 169.604 120.763 168.958 121.075 168.87C121.57 168.732 122.445 168.87 123.166 168.87H137.965C140.826 172.393 142.962 176.998 144.898 181.69C145.165 182.337 145.456 183.292 146.108 183.34C147.241 183.424 146.935 182.226 146.602 181.415C144.783 176.953 142.94 173.094 140.388 169.42C140.266 169.247 139.781 168.752 139.781 168.594C139.781 168.628 140.018 168.246 140.056 168.156C140.59 166.872 140.798 165.423 141.212 164.249C141.598 164.065 141.998 163.898 142.368 163.698C145.228 167.918 148.165 172.35 151.06 176.574C151.453 177.145 151.873 178.154 152.656 178.059C154.138 177.875 152.643 175.976 152.271 175.418C149.445 171.179 146.445 166.926 143.799 162.874C144.348 162.312 144.946 161.991 145.448 161.389C146.636 159.963 146.906 157.707 146.659 155.556C146.414 153.426 145.119 151.933 144.183 150.769C144.367 150.119 145.501 149.637 145.229 148.623C145.149 148.329 144.804 148.114 144.402 148.128C143.683 148.156 142.328 150.371 142.368 150.988C142.413 151.703 143.284 152.259 143.632 152.695C144.027 153.186 144.586 153.996 144.788 154.51C145.491 156.304 145.183 159.062 144.183 160.287C143.684 160.899 142.968 161.452 142.257 161.883C141.704 162.218 140.331 162.651 139.946 163.094C139.558 163.541 139.409 164.532 139.231 165.128C139.027 165.815 138.935 166.55 138.571 167.221C132.656 167.233 126.293 167.182 120.8 167.275C118.752 164.702 116.814 162.017 114.859 159.351C115.063 158.774 115.315 158.173 115.574 157.427C115.837 156.668 116.656 154.601 115.078 154.895C114.432 155.016 114.159 156.539 113.923 157.208C111.831 163.141 109.589 169.498 107.597 175.141C107.127 174.987 106.638 174.664 106.056 174.372C105.328 174.005 103.78 173.241 103.8 174.592C103.812 175.381 105.289 175.859 105.836 176.132C110.794 178.625 115.463 180.882 120.36 183.286C121.034 183.616 122.182 184.442 122.891 184.384L122.617 182.624ZM123.387 188.732C122.753 188.809 122.245 189.635 121.46 189.723C120.882 189.788 120.244 189.507 119.647 189.503C117.632 189.487 116.203 190.26 114.803 190.823C110.691 189.359 106.47 188.011 102.425 186.585C100.492 185.907 98.2919 185.281 96.5933 184.109C95.047 183.044 93.7812 180.978 94.2827 178.223C94.6012 176.465 95.4324 174.621 96.0426 172.777C97.8823 167.219 99.658 161.998 101.654 156.6C102.923 153.171 104.148 149.624 105.671 146.148C106.666 143.872 108.471 141.479 110.622 140.207C111.3 139.804 112.621 139.139 113.318 139.27C113.657 139.334 114.269 139.943 114.693 140.26C116.078 141.3 117.685 142.379 118.71 143.507C120.254 145.207 121.759 146.748 124.156 147.742C126.288 148.627 129.316 149.471 132.134 149.448C134.868 149.426 138.114 148.58 139.562 147.193C140.661 146.141 141.314 143.935 140.772 141.746C145.483 143.088 147.748 146.617 149.959 150.438C152.237 154.371 154.02 157.788 156.286 162.047C157.121 163.618 158.468 166.088 159.367 167.879C159.703 168.546 159.951 169.57 160.799 169.475C161.63 169.383 161.525 168.645 161.183 167.933C159.748 164.954 158.065 161.891 156.617 159.132C154.807 155.679 152.963 152.557 151.17 149.338C149.25 145.893 147.379 143.101 143.962 141.306C142.423 140.496 140.491 139.664 138.351 139.325C137.416 139.176 136.231 139.089 134.885 138.996C133.742 138.917 132.273 138.87 131.914 138.114C131.492 137.228 132.054 135.656 132.298 134.869C132.629 133.808 132.98 132.944 133.399 132.117C135.303 132.85 138.097 132.496 139.892 131.898C139.783 133.118 139.545 134.152 139.286 135.363C138.954 136.928 138.323 139.973 140.716 139.16C142.203 138.655 143.528 136.889 144.512 135.97C144.856 136.39 145.021 136.872 145.723 136.851C146.449 136.824 147.033 135.931 147.428 135.308C147.868 134.619 148.326 133.85 148.529 133.108C148.837 131.986 148.886 130.634 149.025 129.312C149.158 128.033 149.246 126.672 149.354 125.295C149.663 121.436 150.375 116.246 148.749 113.522C149.181 113.117 149.748 112.885 149.849 112.256C150.069 110.901 148.595 109.696 147.868 109.121C145.442 107.197 142.251 106.046 139.011 105.16C138.307 104.967 137.572 104.934 136.81 104.774C135.947 104.593 135.007 104.131 134.005 103.894C132.947 103.645 131.848 103.518 130.813 103.399C130.447 100.802 130.154 98.3236 128.833 96.5767C128.101 95.609 127.005 94.7889 125.862 94.1546C124.674 93.498 123.192 92.9649 121.46 93.1107C119.123 93.3067 117.609 95.1781 116.509 96.9064C115.327 98.7657 114.233 100.677 113.593 102.794C112.915 105.033 112.412 107.464 111.778 109.725C111.128 112.044 110.501 114.381 109.247 115.998C107.523 118.22 104.25 120.002 101.489 121.39C100.479 121.898 99.5652 122.537 98.6281 122.931C96.1735 123.961 94.5353 124.242 93.7867 126.891C93.0846 129.38 93.3958 132.532 94.4471 134.374C92.663 135.132 90.983 135.836 89.9363 137.236C87.2579 140.81 89.106 146.443 91.0907 148.954C93.483 151.98 96.8013 153.879 100.499 155.115C98.186 161.428 95.7185 168.216 93.6214 174.867C93.054 176.671 92.4113 178.447 92.6305 180.423C93.2936 186.368 99.3683 186.985 104.131 188.952C101.544 192.543 99.3079 196.563 97.7486 201.277C96.9481 203.693 96.3008 206.697 96.8125 209.253C97.8248 214.307 101.308 217.463 105.891 218.936C110.357 220.374 117.122 221.173 122.451 220.091C125.07 219.56 127.457 218.745 129.714 217.946C130.722 220.011 131.741 222.077 132.904 224.272C133.98 226.305 135.281 228.641 137.691 229.058C139.529 229.377 140.945 228.174 142.147 227.353C143.186 226.646 144.199 225.905 144.898 225.099C145.954 223.88 146.586 222.435 147.704 221.192C148.904 221.73 149.208 220.41 149.685 220.312C150.113 220.223 150.512 220.659 151.06 220.642C151.33 220.479 151.429 220.259 151.721 220.091C152.139 219.854 152.686 219.756 152.985 219.377C143.132 217.138 132.116 214.728 121.956 212.39C120.932 212.154 119.208 211.492 119.315 212.884C119.381 213.735 120.73 213.754 121.515 213.93C124.218 214.53 126.968 215.191 129.493 215.8C129.202 216.342 128.795 216.535 128.228 216.735C126.527 217.331 124.862 217.858 123.056 218.276C120.522 218.86 117.784 219.05 114.859 218.88C106.699 218.408 99.476 215.99 98.3541 208.594C97.9752 206.102 98.7637 203.328 99.5633 201.057C101.128 196.611 103.251 192.765 105.891 189.503C108.122 190.351 110.563 190.992 112.769 191.868C111.047 192.626 108.911 193.81 107.102 194.782C106.478 195.118 105.478 195.307 105.616 196.213C105.671 196.585 105.858 196.668 106.111 196.765C106.896 197.062 108.836 195.637 109.852 195.115C111.18 194.432 112.425 193.792 113.593 193.242C114.816 192.668 116.063 191.972 117.444 191.483C118.97 190.943 120.682 191.19 122.341 191.593C125.246 192.301 127.814 193.587 130.429 194.728C142.609 200.046 154.904 205.99 167.069 211.563C167.719 211.861 168.641 212.373 169.106 212.39C169.72 212.409 170.571 212.022 171.251 211.839C173.398 211.266 175.681 210.629 177.799 210.188C179.248 213.25 180.692 216.612 180.33 221.302C176.272 221.531 171.585 221.632 167.291 221.632C165.789 221.632 164.231 221.781 162.834 221.632C161.814 221.523 160.746 221.156 159.726 220.894C159.508 221.141 159.234 221.278 158.908 221.415C159.013 221.371 159.118 221.328 159.222 221.285C158.73 221.511 158.314 221.865 157.846 222.133C159.704 222.567 161.603 223.282 163.603 223.282C168.416 223.282 173.231 223.227 177.964 223.063C181.621 222.936 184.995 222.485 187.536 220.972C188.667 220.298 189.683 219.303 190.507 218.112C191.335 216.916 192.043 215.388 191.827 213.601C191.585 211.568 189.769 210.105 188.306 209.143C186.695 208.084 184.613 207.154 182.09 207.66C185.872 206.399 189.518 205.293 192.653 203.753C195.702 202.252 197.793 199.04 198.374 195.002C199.052 190.306 197.147 186.728 194.854 184.384C193.071 182.564 190.49 181.491 187.482 180.864C186.585 180.679 184.912 180.304 184.897 181.36C184.88 182.431 187.019 182.42 188.032 182.68C189.429 183.04 190.438 183.41 191.332 183.836C193.341 184.784 194.782 186.578 195.735 188.401C196.783 190.412 197.174 193.246 196.56 195.829C196.028 198.055 194.693 200.351 193.259 201.495C191.72 202.722 189.209 203.481 187.096 204.248C180.945 206.472 174.381 208.347 168.061 210.188C162.834 207.768 157.568 205.385 152.381 202.926C160.41 199.283 168.654 195.531 176.698 191.868C177.405 191.547 179.835 190.88 179.779 189.888C179.699 188.442 177.898 189.565 177.304 189.832C168.336 193.852 159.095 198.072 150.4 202.046C141.614 198.086 133.098 193.856 123.936 190.272C124.393 190.067 124.736 189.751 125.256 189.612L123.387 188.732ZM109.081 175.912C110.79 171.036 112.498 166.161 114.199 161.278C115.951 163.543 117.621 165.888 119.37 168.156C116.923 171.226 114.133 173.959 111.943 177.288C110.946 176.871 110.079 176.328 109.081 175.912ZM147.704 125.405C147.606 126.648 147.489 127.916 147.374 129.147C147.156 131.474 146.993 133.38 145.888 134.704C145.579 134.125 145.656 133.366 144.953 133.274C143.974 133.145 143.418 134.798 142.863 135.418C142.044 136.336 141.222 136.84 140.607 137.29C140.884 135.146 141.538 133.38 141.597 131.017C143.302 129.825 144.754 127.99 145.393 125.351C145.582 124.575 146.35 122.165 145.008 122.16C144.445 122.158 144.205 122.737 144.074 123.535C143.709 125.743 143.219 126.986 142.093 128.321C140.78 129.878 138.677 131.075 135.655 130.907C134.81 130.861 133.892 130.525 133.235 130.248C132.515 129.943 130.429 128.596 130.429 130.193C130.429 130.98 131.17 131.019 131.859 131.459C131.093 133.539 128.685 138.272 131.419 139.932C133.121 140.964 136.051 140.466 138.351 140.976C139.752 141.962 139.535 145.087 138.241 146.148C136.934 147.219 133.985 147.891 131.64 147.798C129.209 147.7 126.724 147.031 124.926 146.312C122.922 145.512 121.55 144.14 120.25 142.792C118.836 141.323 117.206 140.135 115.848 138.996C118.19 138.664 121.376 139.307 123.276 138.446C124.505 137.889 124.759 136.578 125.256 135.254C125.574 135.19 125.757 135.59 126.027 135.805C126.298 136.019 126.617 136.256 126.907 136.465C127.494 136.887 129.178 138.278 129.658 137.07C129.84 136.609 129.623 135.557 129.603 134.979C129.452 130.636 130.617 125.969 130.978 122.38C135.289 120.198 139.789 118.207 144.127 116.054C144.466 116.612 144.781 117.196 144.953 117.923C143.031 117.725 141.29 118.424 140.221 119.573C139.273 120.598 138.429 123.272 138.461 125.075C138.475 125.92 138.803 126.501 139.177 127.167C139.018 127.631 138.319 127.737 138.351 128.488C138.372 128.99 138.743 129.253 139.122 129.257C139.668 129.263 141.015 127.985 141.047 127.442C141.092 126.68 140.206 126.07 140.112 125.24C139.972 124.009 140.804 121.408 141.377 120.729C141.887 120.125 143.18 119.483 144.127 119.464C144.961 119.447 146.702 120.524 146.934 119.245C147.044 118.637 146.448 117.066 146.219 116.493C146.053 116.079 145.74 115.552 145.559 115.338C146.078 114.94 146.735 114.681 147.319 114.348C147.366 114.337 147.371 114.368 147.374 114.403C148.699 117.279 148.018 121.397 147.704 125.405ZM121.571 128.376C121.884 130.469 122.855 132.306 123.935 133.713C123.594 134.702 123.483 136.598 122.505 137.016C121.718 137.353 120.684 137.072 119.534 137.236C118.72 135.409 118.442 133.261 118.6 131.017C118.754 128.811 119.577 126.77 120.14 125.13C120.272 125.638 121.345 126.76 121.515 127.333C121.611 127.65 121.521 128.042 121.571 128.376ZM133.345 105.434C132.839 105.826 131.49 105.804 131.419 106.701C131.294 108.299 133.274 107.183 134.059 106.921C134.943 106.629 135.9 106.323 137.085 106.425C139.105 106.598 141.613 107.688 143.358 108.406C145.37 109.235 147.134 110.31 148.144 111.817C146.86 112.877 145.225 113.603 143.632 114.403C139.742 116.359 135.898 118.215 131.75 120.125C131.058 120.442 129.742 120.913 129.493 121.39C129.176 121.996 129.174 123.33 129.054 124.197C128.559 127.74 127.946 131.145 127.953 135.034C127.695 135.071 127.504 134.823 127.348 134.704C125.05 132.946 122.919 130.326 123.111 125.956C123.203 123.887 123.514 121.491 123.935 119.518C124.112 118.701 124.852 116.942 123.496 116.988C122.528 117.022 122.284 119.364 122.121 120.179C121.837 121.596 121.737 122.829 121.626 124.251C119.243 121.222 119.74 115.262 121.186 111.762C121.837 110.185 123.157 108.573 124.541 107.47C126.719 105.737 129.652 104.351 133.345 105.434ZM93.6214 149.338C91.6284 147.345 89.9827 144.757 90.266 141.085C90.5075 137.948 92.6472 136.831 95.2169 135.805C95.737 135.596 96.3481 135.358 96.428 134.979C96.5385 134.448 96.0546 133.902 95.8225 133.439C94.8761 131.557 94.5752 127.085 96.3184 125.682C96.9063 125.207 97.8025 124.99 98.7386 124.636C99.5475 124.33 100.369 123.808 100.994 123.48C105.638 121.05 110.086 119.117 112.108 114.074C113.393 110.867 114.031 107.09 115.133 103.399C115.647 101.681 116.426 100.3 117.334 98.7229C118.244 97.1404 119.47 94.983 121.46 94.7611C123.967 94.4815 126.614 96.2191 127.622 97.732C128.622 99.2309 128.9 101.417 129.163 103.399C123.026 105.164 119.207 109.179 118.435 116.163C118.232 117.991 118.211 120.008 118.655 121.61C118.783 122.075 119.14 122.608 119.15 123.04C119.158 123.428 118.805 124.134 118.6 124.692C118.022 126.255 117.403 127.801 117.114 129.696C116.704 132.392 116.952 135.058 117.774 137.29C114.879 137.492 112.462 137.406 110.568 138.333C105.094 141.021 103.376 147.598 101.048 153.52C98.4665 152.67 95.672 151.389 93.6214 149.338ZM145.559 220.698C145.687 220.716 145.785 220.764 145.888 220.807C145.812 220.987 145.744 221.177 145.559 221.248V220.698ZM131.254 216.462C131.38 216.492 131.477 216.322 131.64 216.351C135.427 217.01 140.01 218.158 143.689 218.991C143.836 220.546 144.251 222.298 143.689 223.668C143.308 224.591 142.194 225.357 141.377 225.924C140.534 226.508 139.415 227.417 138.351 227.463C137.593 227.496 136.873 227.018 136.425 226.639C135.793 226.102 135.328 225.174 134.83 224.328C133.861 222.68 133.003 220.94 132.134 219.213C131.711 218.371 131.049 217.451 131.254 216.462ZM184.456 209.197C185.682 209.331 186.852 210.029 187.756 210.685C188.822 211.453 190.188 212.612 190.232 214.205C190.28 215.906 188.975 217.696 187.922 218.66C186.368 220.084 184.184 220.612 181.98 221.082C182.27 216.189 180.869 212.987 179.449 209.804C181.161 209.67 182.541 208.991 184.456 209.197Z" fill="#181818"/>
<path d="M133.124 127.827C133.728 127.656 134.098 128.153 134.774 128.488C135.479 128.836 136.693 128.797 136.702 129.697C136.712 131.05 134.74 130.337 133.95 129.919C133.499 129.681 132.627 129.335 132.575 128.654C132.535 128.141 132.844 127.906 133.124 127.827Z" fill="#181818"/>
<path d="M113.402 161.656C112.906 161.635 112.554 161.247 112.576 160.791C112.59 160.505 111.813 159.216 109.188 157.598C106.43 155.897 102.916 154.751 101.947 155.244C101.539 155.453 101.043 155.291 100.837 154.885C100.629 154.478 100.79 153.981 101.196 153.774C103.405 152.648 108.458 155.209 110.054 156.193C111.338 156.985 114.313 159.026 114.224 160.87C114.203 161.312 113.839 161.656 113.402 161.656Z" fill="#181818"/>
<path d="M145.424 155.353C145.2 155.353 144.978 155.263 144.815 155.086C144.507 154.752 144.53 154.229 144.865 153.92C146.142 152.745 149.345 150.05 151.42 150.467C151.866 150.555 152.157 150.99 152.069 151.437C151.981 151.886 151.55 152.175 151.1 152.086C150.405 151.956 148.343 152.967 145.983 155.136C145.824 155.281 145.624 155.353 145.424 155.353Z" fill="#181818"/>
<path d="M152.324 189.423C152.324 189.423 184.607 177.589 191.226 182.599C197.846 187.61 199.279 195.827 194.969 200.923C190.659 206.018 168.336 211.048 168.336 211.048L153.315 204.555C153.315 204.555 157.561 207.897 156.295 212.883C155.029 217.87 150.784 219.853 150.784 219.853L131.029 215.946C131.029 215.946 124.09 219.357 120.301 219.962C116.51 220.566 104.789 219.393 101.207 215.723C97.6251 212.056 96.1735 206.35 97.7403 202.518C99.3061 198.688 104.784 188.763 104.784 188.763L114.687 192.008C114.687 192.008 116.582 190.62 119.585 190.634" fill="#181818"/>
<path d="M178.975 209.571C178.975 209.571 180.342 212.44 180.956 215.293C181.571 218.148 181.506 221.951 181.506 221.951L163.678 223.162L160.297 222.245C160.297 222.245 164.567 220.509 165.787 216.74C167.266 212.172 165.358 210.102 165.358 210.102L169.348 212.047L178.975 209.571Z" fill="#181818"/>
<path d="M134.274 120.325C134.956 120.325 135.511 120.878 135.511 121.563V123.214C135.511 123.897 134.956 124.452 134.274 124.452C133.589 124.452 133.035 123.897 133.035 123.214V121.563C133.035 120.878 133.589 120.325 134.274 120.325Z" fill="#181818"/>
<path d="M141.557 121.001C142.239 121.001 142.793 121.554 142.793 122.239V123.89C142.793 124.574 142.239 125.128 141.557 125.128C140.873 125.128 140.319 124.574 140.319 123.89V122.239C140.319 121.554 140.873 121.001 141.557 121.001Z" fill="#181818"/>
<path d="M154.236 223.916C152.372 223.916 147.606 222.697 145.797 221.603C145.263 221.279 145.083 220.844 145.026 220.536C144.851 219.57 145.61 218.599 146.491 217.473C147.205 216.562 148.015 215.53 148.157 214.668C148.29 213.882 148.365 213.012 148.444 212.129C148.716 209.084 149.025 205.634 151.66 204.568C152.725 204.14 154.646 204.413 155.825 205.387C158.562 205.636 160.866 206.783 162.336 208.636C163.712 210.375 164.259 212.615 163.875 214.939C163.08 219.722 158.574 223.916 154.236 223.916ZM152.815 206.018C152.6 206.018 152.411 206.046 152.278 206.099C150.579 206.785 150.329 209.577 150.089 212.275C150.007 213.203 149.924 214.114 149.786 214.94C149.573 216.216 148.626 217.425 147.791 218.491C147.336 219.074 146.648 219.951 146.652 220.252C148.209 221.132 152.634 222.266 154.236 222.266C157.767 222.266 161.583 218.645 162.244 214.668C162.553 212.809 162.126 211.031 161.041 209.662C159.814 208.112 157.818 207.171 155.424 207.011C155.224 206.998 155.034 206.912 154.893 206.769C154.394 206.267 153.471 206.018 152.815 206.018Z" fill="#181818"/>
<path d="M147.746 221.735C145.895 221.735 144.23 220.956 143.055 219.539C141.529 217.7 140.963 214.996 141.505 212.12C142.471 206.986 146.728 202.81 150.998 202.81C152.849 202.81 154.516 203.589 155.69 205.006C157.216 206.846 157.78 209.551 157.239 212.425C156.273 217.558 152.015 221.735 147.746 221.735ZM150.998 204.459C147.485 204.459 143.953 208.033 143.127 212.424C142.677 214.815 143.114 217.025 144.325 218.486C145.194 219.531 146.376 220.085 147.746 220.085C151.259 220.085 154.791 216.512 155.617 212.12C156.066 209.73 155.63 207.521 154.42 206.06C153.552 205.014 152.368 204.459 150.998 204.459Z" fill="#181818"/>
<path d="M160.626 222.31C160.171 222.31 159.8 221.941 159.8 221.484C159.8 221.029 160.171 220.661 160.626 220.661C162.898 220.661 165.236 218.121 165.733 215.114C166.01 213.436 165.672 211.842 164.828 210.85C164.269 210.189 163.526 209.839 162.683 209.839C162.227 209.839 161.858 209.471 161.858 209.015C161.858 208.559 162.227 208.19 162.683 208.19C164.008 208.19 165.218 208.755 166.09 209.782C167.256 211.158 167.721 213.199 167.362 215.384C166.72 219.269 163.761 222.31 160.626 222.31Z" fill="black"/>
<path d="M124.385 193.767H177.462C178.981 193.767 180.213 194.997 180.213 196.518V198.391C180.213 199.909 178.981 201.141 177.462 201.141L141.148 201.023L124.385 193.767Z" fill="white"/>
<path d="M124.385 193.767H177.462C178.981 193.767 180.213 194.997 180.213 196.518V198.391C180.213 199.909 178.981 201.141 177.462 201.141L141.148 201.023L124.385 193.767Z" fill="white"/>
<path d="M177.462 201.966L141.144 201.845C141.032 201.845 140.922 201.823 140.819 201.777L124.057 194.524C123.698 194.369 123.497 193.983 123.577 193.599C123.655 193.215 123.993 192.941 124.385 192.941H177.462C179.433 192.941 181.038 194.545 181.038 196.517V198.388C181.038 200.361 179.433 201.966 177.462 201.966ZM141.32 200.196L177.465 200.316C178.522 200.316 179.386 199.45 179.386 198.388V196.517C179.386 195.456 178.522 194.592 177.462 194.592H128.37L141.32 200.196Z" fill="#181818"/>
<path d="M177.462 201.966L141.144 201.845C141.032 201.845 140.922 201.823 140.819 201.777L124.057 194.524C123.698 194.369 123.497 193.983 123.577 193.599C123.655 193.215 123.993 192.941 124.385 192.941H177.462C179.433 192.941 181.038 194.545 181.038 196.517V198.388C181.038 200.361 179.433 201.966 177.462 201.966ZM141.32 200.196L177.465 200.316C178.522 200.316 179.386 199.45 179.386 198.388V196.517C179.386 195.456 178.522 194.592 177.462 194.592H128.37L141.32 200.196Z" fill="black"/>
<path d="M192.612 165.004L153.547 165.064C152.138 165.065 150.589 166.112 150.087 167.401L139.887 193.586C139.385 194.875 141.136 197.375 142.546 197.374L181.6 197.315C183.011 197.313 184.56 196.265 185.062 194.975L195.259 168.782C195.761 167.493 194.022 165.002 192.612 165.004Z" fill="white"/>
<path d="M142.544 198.198C141.597 198.198 140.567 197.522 139.79 196.387C139.038 195.293 138.79 194.134 139.118 193.286L149.32 167.101C149.94 165.5 151.798 164.242 153.547 164.24L192.61 164.179C193.561 164.179 194.586 164.853 195.36 165.982C196.107 167.075 196.359 168.234 196.027 169.081L185.832 195.274C185.206 196.878 183.349 198.138 181.603 198.14L142.548 198.198H142.544ZM192.614 165.829L153.551 165.889C152.49 165.891 151.231 166.738 150.858 167.7L140.658 193.885C140.556 194.147 140.695 194.787 141.152 195.454C141.638 196.165 142.233 196.548 142.544 196.548L181.6 196.49C182.68 196.487 183.912 195.657 184.295 194.676L194.489 168.483C194.592 168.22 194.453 167.581 193.998 166.915C193.515 166.21 192.925 165.829 192.614 165.829Z" fill="#181818"/>
<path d="M170.561 178.228C168.575 178.221 166.438 179.789 165.787 181.727C165.137 183.665 166.221 185.24 168.206 185.245C170.193 185.251 172.33 183.684 172.98 181.747C173.631 179.809 172.547 178.234 170.561 178.228Z" fill="#181818"/>
<path d="M204.621 57.5031C203.815 58.3185 202.793 58.9584 201.712 59.1924C201.631 59.2091 201.55 59.2249 201.469 59.2416C202.802 59.7468 204.106 60.252 205.379 60.7536C213.753 64.069 220.353 67.1682 224.999 69.9664C230.261 73.137 231.278 74.9015 231.467 75.3761C230.987 75.7977 228.436 77.423 217.799 77.423C208.846 77.423 196.543 76.2686 182.218 74.0796C167.385 71.8136 150.651 68.473 133.824 64.4201C108.953 58.429 85.6828 51.3401 68.2983 44.4612C59.925 41.1476 53.3237 38.0475 48.6783 35.2493C43.4163 32.0787 42.4003 30.3142 42.2108 29.8396C42.6919 29.418 45.2421 27.7927 55.8786 27.7927C64.8323 27.7927 77.1368 28.9471 91.4603 31.1361C104.73 33.1634 119.519 36.0499 134.536 39.539C134.849 38.6614 135.19 37.7996 135.561 36.9516C102.534 29.2545 73.2111 25.0419 55.8768 25.0419C46.1467 25.0419 40.1927 26.369 39.4887 29.1579C37.4679 37.1578 79.414 54.143 133.179 67.0939C168.206 75.5321 199.608 80.1738 217.799 80.1738C227.531 80.1738 233.485 78.8467 234.189 76.0578C235.269 71.7792 223.775 64.93 204.621 57.5031Z" fill="#7ED321"/>
<path d="M70.8178 38.8908C71.0909 39.8826 70.4975 40.7658 69.5882 41.1085C77.395 40.5114 87.2932 40.4129 98.5649 40.8262C109.253 41.22 121.029 42.0735 133.139 43.3226C133.203 43.0152 133.269 42.757 133.358 42.5081C133.572 41.9128 133.791 41.3537 134.046 40.8243C108.53 38.1571 85.9456 37.4048 70.6228 38.4487C70.7083 38.5862 70.7751 38.7366 70.8178 38.8908Z" fill="#2371B0"/>
<path d="M206.748 53.2171C206.084 54.0631 205.202 54.7689 204.22 55.1024C204.146 55.1265 204.073 55.1516 204 55.1748C205.296 55.5008 206.564 55.8305 207.802 56.1639C215.953 58.3491 222.433 60.526 227.057 62.6323C232.296 65.0191 233.432 66.5506 233.66 66.9722C233.257 67.4152 231.058 69.2048 221.156 70.3471C212.82 71.3093 201.241 71.5545 187.671 71.0548C173.619 70.5403 157.68 69.228 141.579 67.262C117.782 64.356 95.3562 60.2576 78.4324 55.719C70.282 53.5338 63.8033 51.3587 59.1783 49.2506C53.9386 46.8638 52.8027 45.3333 52.5761 44.9098C52.8445 44.6154 53.9144 43.7182 57.5364 42.8174C57.1658 42.7115 56.8055 42.5787 56.4693 42.4375C55.5991 42.0744 54.767 41.6556 53.9283 41.2302C51.5165 42.1515 50.142 43.265 49.9692 44.5689C48.9458 52.2345 89.8221 63.5406 141.266 69.8205C174.782 73.9143 204.515 74.8625 221.452 72.9085C230.511 71.8619 235.91 69.9877 236.267 67.3158C236.814 63.2165 225.377 58.0742 206.748 53.2171Z" fill="#2371B0"/>
<path d="M67.4248 41.6162C68.0222 41.8672 68.6204 42.1199 69.2178 42.3726C69.9406 42.7385 70.6722 43.0858 71.411 43.4171C76.0183 45.2463 80.8634 46.3791 85.7632 47.0949C86.8042 47.2239 87.8478 47.3379 88.8931 47.4351C93.1444 47.8363 97.4098 48.0201 101.674 48.1871C102.47 46.0698 102.904 43.7759 102.904 41.3812C102.904 30.6722 94.2233 21.9921 83.5143 21.9921C72.808 21.9921 64.1279 30.6722 64.1279 41.3812C64.3771 41.998 66.3256 41.3202 67.4248 41.6162Z" fill="#2371B0"/>
</svg>
