<svg width="564" height="252" viewBox="0 0 564 252" fill="none" xmlns="http://www.w3.org/2000/svg">
<path d="M0 20C0 8.9543 8.95431 0 20 0H544C555.046 0 564 8.95431 564 20V232C564 243.046 555.046 252 544 252H20C8.95432 252 0 243.046 0 232V20Z" fill="#8CEFE9"/>
<path d="M85.2652 82.9433C86.9526 82.9433 88.3207 81.5793 88.3207 79.8968C88.3207 78.2143 86.9526 76.85 85.2652 76.85C83.5777 76.85 82.2097 78.2143 82.2097 79.8968C82.2097 81.5793 83.5777 82.9433 85.2652 82.9433Z" fill="white"/>
<path d="M85.2651 96.3736C86.9525 96.3736 88.3206 95.0096 88.3206 93.3271C88.3206 91.6446 86.9525 90.2806 85.2651 90.2806C83.5776 90.2806 82.2096 91.6446 82.2096 93.3271C82.2096 95.0096 83.5776 96.3736 85.2651 96.3736Z" fill="white"/>
<path d="M85.2651 109.818C86.9525 109.818 88.3206 108.454 88.3206 106.772C88.3206 105.089 86.9525 103.725 85.2651 103.725C83.5776 103.725 82.2096 105.089 82.2096 106.772C82.2096 108.454 83.5776 109.818 85.2651 109.818Z" fill="white"/>
<path d="M100.012 82.9433C101.7 82.9433 103.067 81.5793 103.067 79.8968C103.067 78.2143 101.7 76.85 100.012 76.85C98.3246 76.85 96.9565 78.2143 96.9565 79.8968C96.9565 81.5793 98.3246 82.9433 100.012 82.9433Z" fill="white"/>
<path d="M100.012 96.3736C101.7 96.3736 103.067 95.0096 103.067 93.3271C103.067 91.6446 101.7 90.2806 100.012 90.2806C98.3246 90.2806 96.9565 91.6446 96.9565 93.3271C96.9565 95.0096 98.3246 96.3736 100.012 96.3736Z" fill="white"/>
<path d="M100.012 109.818C101.7 109.818 103.067 108.454 103.067 106.772C103.067 105.089 101.7 103.725 100.012 103.725C98.3246 103.725 96.9565 105.089 96.9565 106.772C96.9565 108.454 98.3246 109.818 100.012 109.818Z" fill="white"/>
<path d="M114.76 82.9433C116.447 82.9433 117.815 81.5793 117.815 79.8968C117.815 78.2143 116.447 76.85 114.76 76.85C113.072 76.85 111.704 78.2143 111.704 79.8968C111.704 81.5793 113.072 82.9433 114.76 82.9433Z" fill="white"/>
<path d="M114.76 96.3736C116.447 96.3736 117.815 95.0096 117.815 93.3271C117.815 91.6446 116.447 90.2806 114.76 90.2806C113.072 90.2806 111.704 91.6446 111.704 93.3271C111.704 95.0096 113.072 96.3736 114.76 96.3736Z" fill="white"/>
<path d="M114.76 109.818C116.447 109.818 117.815 108.454 117.815 106.772C117.815 105.089 116.447 103.725 114.76 103.725C113.072 103.725 111.704 105.089 111.704 106.772C111.704 108.454 113.072 109.818 114.76 109.818Z" fill="white"/>
<path d="M255.779 185.875V162.268C283.502 162.268 305.98 184.747 305.98 212.47H282.373C282.373 197.783 270.466 185.875 255.779 185.875Z" fill="#224A85"/>
<path d="M108.76 50.3948C99.681 50.3948 92.3198 57.7584 92.3198 66.8411V212.434H262.598H262.597V71.5931C262.597 59.8865 253.11 50.3948 241.406 50.3948H108.76Z" fill="#C6DBFF"/>
<path d="M262.598 72.0701V56.297C262.598 53.0376 259.957 50.3948 256.699 50.3948H98.2197C94.9617 50.3948 92.3201 53.0376 92.3201 56.297V72.0701H262.598Z" fill="#FF4163"/>
<path d="M107.081 61.2307C107.081 62.2581 106.25 63.0895 105.223 63.0895C104.196 63.0895 103.364 62.2581 103.364 61.2307C103.364 60.205 104.196 59.3737 105.223 59.3737C106.248 59.3737 107.081 60.205 107.081 61.2307Z" fill="white"/>
<path d="M115.673 60.9957C115.673 62.0231 114.842 62.8545 113.815 62.8545C112.788 62.8545 111.956 62.0231 111.956 60.9957C111.956 59.97 112.788 59.1386 113.815 59.1386C114.842 59.1386 115.673 59.97 115.673 60.9957Z" fill="white"/>
<path d="M123.753 61.2307C123.753 62.2581 122.92 63.0895 121.895 63.0895C120.868 63.0895 120.036 62.2581 120.036 61.2307C120.036 60.205 120.868 59.3737 121.895 59.3737C122.92 59.3737 123.753 60.205 123.753 61.2307Z" fill="white"/>
<path d="M233.117 208.244H106.711C106.522 208.244 106.369 208.091 106.369 207.902V178.224C106.369 178.035 106.522 177.882 106.711 177.882H233.117C233.306 177.882 233.459 178.035 233.459 178.224V207.902C233.459 208.091 233.306 208.244 233.117 208.244Z" fill="white"/>
<path d="M175.079 197.366H143.355V199.12H175.079V197.366Z" fill="#FF4163"/>
<path d="M111.741 183.098L111.022 202.841L141.604 203.954L142.323 184.21L111.741 183.098Z" fill="#C6DBFF"/>
<path d="M111.725 197.71L111.701 202.866H123.56L116.331 191.057L111.725 197.71ZM111.717 190.626L111.272 202.85L123.544 203.296L123.989 191.073L111.717 190.626Z" fill="#C6DBFF"/>
<path d="M117.06 194.524L117.475 195.209L118.204 194.155L116.331 191.057L114.209 194.124L114.864 195.209L115.367 194.483L116.169 195.811L117.06 194.524Z" fill="white"/>
<path d="M121.952 200.298L123.548 202.866H130.279L125.456 195.075L121.952 200.298ZM121.963 194.772L121.669 202.855L130.268 203.168L130.562 195.085L121.963 194.772Z" fill="#C6DBFF"/>
<path d="M132.802 193.836C134.617 193.836 136.088 192.364 136.088 190.548C136.088 188.732 134.617 187.26 132.802 187.26C130.986 187.26 129.514 188.732 129.514 190.548C129.514 192.364 130.986 193.836 132.802 193.836Z" fill="white"/>
<path d="M126.227 198.542L126.641 199.227L127.37 198.172L125.456 195.075L123.374 198.142L124.03 199.227L124.533 198.501L125.335 199.829L126.227 198.542Z" fill="white"/>
<path d="M143.466 181.478L143.292 186.261L226.685 189.295L226.859 184.512L143.466 181.478Z" fill="#C6DBFF"/>
<path d="M143.466 185.763L143.292 190.545L226.685 193.579L226.859 188.797L143.466 185.763Z" fill="#C6DBFF"/>
<path d="M143.465 190.049L143.292 194.831L226.685 197.864L226.859 193.082L143.465 190.049Z" fill="#C6DBFF"/>
<path d="M55.9072 208.164H58.7769V202.619H53.8073L55.9072 208.164Z" fill="#FFC0CC"/>
<path d="M49.6362 159.069L57.3412 174.381C58.8143 177.309 59.5723 180.547 59.5502 183.826L59.4036 205.2C57.8724 205.2 54.4562 205.164 54.4562 205.164C54.4562 205.164 50.0111 191.994 53.0288 185.58C53.4582 184.67 53.1242 183.894 52.2539 182.133C51.3955 180.398 47.4359 175.757 46.1551 173.277C45.9387 172.857 42.7095 168.574 42.8628 168.365C42.8852 168.334 49.6362 159.069 49.6362 159.069Z" fill="#22AEFB"/>
<path d="M50.3855 160.558L48.0232 165.01L47.5633 175.084L42.861 168.366L49.6362 159.069L50.3855 160.558Z" fill="#278AC8"/>
<path d="M54.9772 210.788H66.9997C66.8737 209.989 66.3146 209.311 65.5312 209.047L59.7254 207.08L59.5672 206.055H54.4338L54.1715 210.79L54.1223 212.027H67.0285L54.9772 210.788Z" fill="#224A85"/>
<path d="M52.2542 200.898L52.2572 200.926V200.898H52.2542Z" fill="#2200B0"/>
<path d="M67.0014 210.788H54.17L54.1223 212.025H67.0302V211.135C67.0285 211.016 67.02 210.902 67.0014 210.788Z" fill="#79DCFA"/>
<path d="M26.6714 206.398L29.7435 207.57L31.2576 202.234L26.6714 200.932V206.398Z" fill="#FFC0CC"/>
<path d="M49.6362 159.069L49.8832 159.56L46.9912 165.008L39.7137 182.228C39.2349 183.363 38.5589 184.402 37.7174 185.302L30.711 204.8C29.3793 204.657 27.9845 204.407 26.6697 204.411C26.6543 198.966 26.7087 193.191 29.8747 188.506C31.1575 186.627 32.804 184.891 33.3677 182.622C33.855 180.659 33.5585 173.053 33.8497 171.254C34.2721 168.644 34.6945 166.034 35.1168 163.424L34.6793 161.689C34.2925 160.158 34.4172 158.541 35.0336 157.086L35.7132 155.481L49.6362 159.069Z" fill="#22AEFB"/>
<path d="M36.0162 209.045L30.9405 207.326L31.2896 205.997L26.1534 205.334L25 210.786H37.4861C37.3602 209.987 36.8014 209.31 36.0162 209.045Z" fill="#224A85"/>
<path d="M25.0002 210.788L25.0069 212.025H37.5148V211.136C37.5148 211.018 37.5064 210.904 37.4875 210.79H25.0002V210.788Z" fill="#79DCFA"/>
<path d="M62.2602 136.818C62.3388 136.882 62.4213 136.944 62.5051 137.007C63.291 137.605 63.7763 138.511 64.4849 139.194C64.5355 139.244 64.5966 139.295 64.6652 139.291C64.7529 139.284 64.8085 139.195 64.8475 139.115C65.0813 138.647 65.2937 138.237 65.6734 137.869C66.1723 137.385 66.6912 136.922 67.2276 136.479C67.6663 136.116 68.2168 135.748 68.7619 135.911C68.1343 135.557 67.734 134.793 67.2024 134.324C66.5953 133.788 65.8439 133.513 65.12 133.126C64.9748 133.048 64.8225 132.969 64.6581 132.971C64.4884 132.972 64.333 133.062 64.1853 133.149C63.7005 133.435 63.2161 133.72 62.7299 134.006C62.4647 134.162 62.1946 134.323 61.9948 134.558C61.0621 135.658 61.4837 136.201 62.2602 136.818Z" fill="#FFC0CC"/>
<path d="M56.9584 135.787C56.2304 135.827 55.5427 136.131 55.0258 136.644L45.787 146.341C45.706 146.425 45.6199 146.503 45.5301 146.576C44.7893 147.163 44.059 147.763 43.3404 148.378C42.7235 148.905 42.1594 149.777 41.4571 150.134C40.4172 150.664 39.1386 150.792 38.3137 151.62C38.1009 151.832 37.9294 152.085 37.7005 152.28C37.2843 152.633 36.7274 152.761 36.2064 152.933C35.6873 153.103 35.144 153.367 34.9058 153.861C34.3182 155.078 36.9654 156.124 37.7237 156.609C38.5894 157.162 43.7806 160.739 44.508 161.115C45.6216 161.69 46.6359 162.678 47.9846 162.524C50.5387 162.232 50.815 159.633 51.7275 157.675C52.3595 156.318 53.0101 154.935 54.0377 153.845C55.4365 152.363 57.6002 151.914 59.5388 151.824C60.6512 151.774 63.7582 151.294 65.037 147.343C65.2066 146.812 65.3098 145.647 65.2583 145.088L64.8907 141.105L65.7655 139.427L61.6025 135.534L56.9584 135.787Z" fill="url(#paint0_radial_36_2063)"/>
<path d="M61.6888 142.911L66.7526 150.533C66.9501 150.837 67.2686 151.041 67.627 151.095L78.6511 152.758C79.1726 152.846 79.6916 152.584 79.93 152.111L81.936 148.128L81.9817 145.505C81.9947 144.76 82.5943 144.16 83.339 144.15L83.2031 151.936L81.3139 154.594C81.1147 154.875 80.798 155.052 80.4534 155.073L66.8306 155.916C66.1788 155.955 65.5455 155.687 65.1213 155.191L56.4228 145.498L61.6888 142.911Z" fill="#FFC0CC"/>
<path d="M74.5418 129.262L74.4382 131.239C74.4382 131.239 74.265 133.598 75.2741 134.625L74.5106 134.776L74.4796 135.528C74.3992 137.417 72.7945 138.879 70.9052 138.78L68.6701 138.663C67.5715 138.606 66.6301 137.855 66.3294 136.795L64.7472 131.219L65.659 128.078C65.6589 128.08 72.1865 126.237 74.5418 129.262Z" fill="#FFC0CC"/>
<path d="M68.3041 131.904C68.3041 131.904 75.5535 134.095 77.2157 129.331C78.1685 126.6 75.4352 124.265 73.0427 123.774C71.0757 123.37 68.9887 123.687 67.1681 124.535C63.931 126.043 61.6649 129.103 58.2305 130.197C55.7749 130.978 53.1102 130.882 50.6443 131.629C46.8962 132.765 43.0838 136.169 41.4815 139.742C41.1337 140.518 40.8625 141.368 40.994 142.208C41.1536 143.21 41.8531 144.024 42.4557 144.842C43.0587 145.658 43.6101 146.644 43.4038 147.639C43.2606 148.329 42.7752 148.892 42.2875 149.401C41.578 150.142 40.4785 152.014 40.9505 153.126C41.5943 154.645 43.185 153.124 44.1203 152.476C48.4368 149.485 51.2518 145.088 55.2736 141.822C56.7091 140.655 58.3277 139.742 59.9382 138.831C61.7489 137.809 63.7699 136.91 65.4681 135.711C65.8122 135.468 67.8426 133.412 67.6348 133.144C67.6265 133.134 66.4252 131.585 67.3314 131.132C68.2422 130.671 68.3041 131.904 68.3041 131.904Z" fill="#224A85"/>
<path d="M97.0671 207.853L99.9536 207.849C100.536 207.849 101.01 207.374 101.01 206.788L101.007 203.106C101.007 202.52 100.532 202.048 99.9466 202.048H97.6887C97.3149 202.048 96.9912 201.807 96.862 201.459C96.7832 201.247 96.6968 201.038 96.6031 200.833C96.4483 200.491 96.5025 200.093 96.7683 199.83L98.3647 198.229C98.7778 197.816 98.7778 197.147 98.3647 196.733L95.7584 194.13C95.345 193.717 94.6763 193.717 94.2626 194.13L92.6525 195.741C92.3974 195.996 92.0199 196.068 91.6888 195.924C91.459 195.827 91.2109 195.726 90.9988 195.644C90.6646 195.515 90.445 195.19 90.445 194.831V192.547C90.445 191.962 89.9708 191.49 89.3885 191.49H85.7076C85.1214 191.49 84.6505 191.965 84.6505 192.547V194.81C84.6505 195.184 84.4096 195.503 84.0577 195.637C83.8345 195.719 83.619 195.813 83.4032 195.91C83.062 196.068 82.6628 196.011 82.4002 195.748L80.7971 194.155C80.3834 193.742 79.7115 193.745 79.3016 194.159L76.706 196.769C76.293 197.183 76.2962 197.856 76.7098 198.265L78.3237 199.873C78.5788 200.125 78.6509 200.506 78.5107 200.837C78.4135 201.067 78.3129 201.315 78.2303 201.527C78.1008 201.861 77.7777 202.081 77.4178 202.081L75.1352 202.088C74.5529 202.088 74.0781 202.567 74.0781 203.149L74.0854 206.832C74.0854 207.417 74.5633 207.889 75.146 207.889L77.4071 207.881C77.7809 207.881 78.1046 208.122 78.2376 208.471C78.3167 208.683 78.4028 208.892 78.4965 209.093C78.6509 209.435 78.5968 209.834 78.3347 210.1L76.7386 211.701C76.325 212.114 76.3288 212.787 76.7421 213.197L79.3517 215.796C79.7653 216.21 80.4376 216.206 80.8471 215.793L82.454 214.178C82.7059 213.923 83.087 213.851 83.4177 213.991C83.6478 214.088 83.8956 214.189 84.1077 214.272C84.4419 214.401 84.6615 214.725 84.6615 215.084L84.6647 217.368C84.6647 217.954 85.1395 218.425 85.7253 218.425L89.4062 218.418C89.9924 218.418 90.463 217.943 90.463 217.357L90.4598 215.095C90.4598 214.721 90.7007 214.398 91.0492 214.268C91.2612 214.189 91.4698 214.103 91.6746 214.009C92.0161 213.854 92.4155 213.908 92.6776 214.175L94.2775 215.771C94.6905 216.185 95.3631 216.185 95.7729 215.768L98.3717 213.161C98.7851 212.747 98.7851 212.078 98.3682 211.665L96.7541 210.057C96.499 209.806 96.4271 209.424 96.567 209.093C96.8152 208.546 97.056 207.892 97.0671 207.853ZM82.4144 204.019C83.0259 200.761 86.3976 198.923 89.4315 200.093C91.7357 200.98 93.1377 203.472 92.6813 205.9C92.0699 209.158 88.6982 210.996 85.6642 209.827C83.3598 208.939 81.958 206.447 82.4144 204.019Z" fill="#FF4163"/>
<path d="M66.9651 211.721H43.358C43.358 183.998 65.8367 161.52 93.5596 161.52V185.127C78.8723 185.127 66.9651 197.034 66.9651 211.721Z" fill="#FF4163"/>
<path d="M268.299 212.02H257.511C257.266 212.02 257.067 211.821 257.067 211.576V200.784C257.067 200.538 257.266 200.339 257.511 200.339H268.299C268.545 200.339 268.743 200.538 268.743 200.784V211.576C268.743 211.821 268.546 212.02 268.299 212.02Z" fill="#22AEFB"/>
<path d="M259.848 206.529V206.546L261.43 207.064V207.943L258.898 206.91V206.149L261.43 205.117V205.994L259.848 206.529Z" fill="white"/>
<path d="M262.65 208.446H261.673L263.096 203.914H264.074L262.65 208.446Z" fill="white"/>
<path d="M265.964 206.539V206.522L264.397 206.001V205.123L266.916 206.156V206.917L264.397 207.95V207.073L265.964 206.539Z" fill="white"/>
<path d="M143.017 170.74H83.3683C83.0433 170.74 82.7789 170.476 82.7789 170.15V135.562C82.7789 135.237 83.0433 134.973 83.3683 134.973H143.015C143.34 134.973 143.604 135.237 143.604 135.562V170.15C143.606 170.476 143.342 170.74 143.017 170.74Z" fill="white"/>
<path d="M137.441 149.537C135.576 150.614 134.743 152.805 133.675 154.674C132.606 156.543 130.707 158.389 128.607 157.916C126.994 157.551 125.988 155.95 125.39 154.408C124.794 152.866 124.38 151.172 123.227 149.987C122.785 149.533 122.188 149.159 121.559 149.232C121.197 149.274 120.866 149.464 120.573 149.68C118.908 150.91 118.184 153.024 116.893 154.643C115.552 156.324 113.635 157.428 111.749 158.463C109.585 159.648 107.182 160.833 104.755 160.381C102.784 160.013 101.178 158.628 99.7154 157.258C98.4925 156.111 97.031 154.849 95.3738 155.1C94.2007 155.277 93.2876 156.181 92.4801 157.052C90.1914 159.524 88.0385 163.008 86.0389 165.721V165.722H140.464C141.193 164.688 141.108 161.667 140.992 160.407C140.713 157.372 140.435 154.339 140.158 151.305C140.091 150.574 139.96 149.734 139.331 149.354C139.121 149.227 138.886 149.173 138.644 149.173C138.233 149.173 137.803 149.328 137.441 149.537Z" fill="#C6DBFF"/>
<path d="M100.963 143.66H88.7354V145.839H100.963V143.66Z" fill="#22AEFB"/>
<path d="M88.7675 138.086L88.6557 141.151L113.16 142.042L113.271 138.978L88.7675 138.086Z" fill="url(#paint1_linear_36_2063)"/>
<path d="M151.692 208.153L148.635 209.512L143.749 210.763C143.118 210.904 142.671 211.465 142.671 212.112L156.929 212.051L156.581 209.55L154.543 208.153H151.692Z" fill="#FFC0CC"/>
<path d="M150.286 210.613L148.637 209.511L143.851 210.32C143.221 210.462 142.672 211.463 142.672 212.11L156.932 212.049L156.582 209.548L155.419 210.567L153.385 210.55C152.447 210.729 151.127 211.071 150.286 210.613Z" fill="#224A85"/>
<path d="M155.993 209.55L151.693 208.461V202.53H155.993V209.55Z" fill="#FFC0CC"/>
<path d="M186.341 191.797C186.341 191.797 159.101 181.946 155.928 183.165C155.928 183.165 151.866 183.162 151.003 189.632L151.16 203.599H156.499L157.907 192.937C158.127 192.257 158.914 191.947 159.538 192.294L176.001 201.469L186.341 191.797Z" fill="#224A85"/>
<path d="M171.773 194.294L155.303 204.445C154.325 205.049 153.73 206.115 153.73 207.263V208.238C153.73 210.376 155.462 212.109 157.6 212.109L179.978 211.003V204.483C179.978 204.483 186.836 201.811 186.496 196.099L171.773 194.294Z" fill="#224A85"/>
<path d="M181.18 203.903L192.433 212.11L179.978 211.004V204.484L181.18 203.903Z" fill="#FFC0CC"/>
<path d="M181.18 203.903L179.978 204.484V207.278C180.729 206.915 181.613 206.951 182.333 207.372L187.872 211.595C188.311 211.929 188.848 212.112 189.4 212.112H192.433L181.18 203.903Z" fill="#224A85"/>
<path d="M170.085 156.625C170.085 156.625 172.745 161.72 170.696 164.747L177.943 164.076L175.046 154.857L170.085 156.625Z" fill="#FFC0CC"/>
<path d="M181.071 166.396C179.561 171.061 188.01 196.158 188.01 196.158C184.401 200.932 175.696 194.236 170.084 195.459C170.084 195.459 170.145 184.922 168.019 180.206L165.159 175.544C164.512 174.489 164.566 173.148 165.295 172.148L170.696 164.747L178.43 161.81C179.079 161.563 179.811 161.755 180.257 162.287C181.211 163.43 181.53 164.98 181.071 166.396Z" fill="white"/>
<path d="M174.539 154.088C174.324 153.534 173.952 153.058 173.588 152.588C172.477 151.162 171.297 149.682 169.641 148.959C168.913 148.642 168.115 148.482 167.429 148.081C167.307 148.196 167.187 148.31 167.065 148.425L166.324 148.722C165.593 149.02 165.013 149.692 164.883 150.471C164.752 151.249 165.104 152.101 165.776 152.512C166.185 152.761 166.669 152.843 167.125 152.984C168.104 153.285 168.988 153.875 169.642 154.664C169.876 154.946 170.083 155.256 170.355 155.503C171.19 156.264 172.437 156.296 173.568 156.285C173.781 156.283 174.005 156.277 174.189 156.172C174.329 156.092 174.433 155.958 174.511 155.816C174.798 155.293 174.754 154.641 174.539 154.088Z" fill="#224A85"/>
<path d="M173.889 152.193C173.074 151.278 172.258 150.359 171.34 149.549C171.068 149.307 170.778 149.071 170.43 148.962C170.092 148.855 169.727 148.877 169.374 148.911C168.503 148.996 167.635 149.151 166.788 149.372L166.695 149.586C166.586 150.25 166.547 150.918 166.554 151.589C166.56 152.3 165.892 154.133 165.97 154.845C165.981 154.95 166.916 154.86 166.928 154.965C166.971 155.341 167.02 155.716 167.07 156.09C167.161 156.788 167.058 156.575 167.345 157.22C167.631 157.863 168.142 158.441 168.819 158.639C169.581 158.86 170.395 158.568 171.098 158.196C172.086 157.676 172.988 156.997 173.762 156.193C174.414 155.516 175.006 154.622 174.818 153.701C174.696 153.114 174.285 152.638 173.889 152.193Z" fill="#FFC0CC"/>
<path d="M183.496 164.082C182.906 160.663 180.986 157.609 180.177 154.234C179.549 151.614 179.463 148.577 177.451 146.787C175.79 145.31 173.308 145.208 171.126 145.63C170.06 145.836 168.997 146.156 168.095 146.763C167.545 147.132 167.05 147.662 166.688 148.215C166.487 148.521 166.256 148.812 166.451 149.122C166.625 149.402 167.209 149.56 167.508 149.608C167.934 149.674 168.366 149.613 168.796 149.644C169.814 149.717 170.029 150.41 170.343 151.254C170.71 152.244 171.019 153.256 171.266 154.284C171.361 154.685 171.452 155.098 171.61 155.477C171.689 155.669 171.787 155.852 171.91 156.019C172.362 156.64 173.099 156.968 173.78 157.322C174.33 157.608 175.031 157.998 175.3 158.593C175.614 159.282 175.5 160.126 175.858 160.839C176.433 161.99 177.698 162.585 178.702 163.391C180.195 164.591 181.16 166.349 181.727 168.179C182.292 170.01 184.32 171.997 184.926 173.36C185.618 170.151 184.053 167.318 183.496 164.082Z" fill="#224A85"/>
<path d="M145.774 171.247L158.443 181.059C158.979 181.473 159.692 181.576 160.32 181.327L176.011 175.144C177.607 174.515 178.268 172.611 177.404 171.126C176.691 169.9 175.173 169.401 173.87 169.964L159.217 176.313L147.431 169.239L146.372 167.751L143.965 166.127L143.614 166.038V167.153L143.804 167.21L144.047 167.886L141.424 167.426L137.882 166.777C137.742 166.894 137.773 167.36 137.882 167.508L140.828 168.428L140.801 168.751L137.34 167.859C137.19 167.975 137.228 168.464 137.34 168.617L140.814 169.671L140.733 170.073L137.584 169.319C137.483 169.399 137.507 169.73 137.584 169.833L140.598 170.794C140.634 170.847 140.632 171.009 140.584 171.052L137.866 170.576C137.449 170.871 137.822 171.201 137.88 171.268L142.948 171.985C143.505 172.064 144.073 171.987 144.589 171.762L145.774 171.247Z" fill="#FFC0CC"/>
<path d="M178.222 170.561C177.456 169.244 175.828 168.709 174.429 169.314L166.38 172.087C165.624 173.74 169.395 176.213 169.087 178.836L176.725 174.871C178.438 174.197 179.149 172.152 178.222 170.561Z" fill="white"/>
<path d="M207.105 171.958C207.105 174.416 205.276 176.408 203.019 176.408C200.762 176.408 198.933 174.416 198.933 171.958C198.933 169.5 200.762 167.507 203.019 167.507C205.276 167.507 207.105 169.5 207.105 171.958Z" fill="#22AEFB"/>
<path d="M204.501 174.511L203.091 173.728C203.064 173.713 203.031 173.713 203.004 173.73L201.614 174.552C201.546 174.592 201.464 174.529 201.476 174.446L201.723 172.745C201.729 172.711 201.718 172.678 201.696 172.654L200.55 171.467C200.494 171.409 200.523 171.305 200.599 171.292L202.161 171.021C202.192 171.016 202.217 170.995 202.231 170.964L202.912 169.409C202.946 169.333 203.045 169.331 203.081 169.407L203.799 170.943C203.813 170.973 203.84 170.994 203.871 170.999L205.44 171.225C205.516 171.236 205.549 171.338 205.494 171.4L204.375 172.618C204.353 172.643 204.343 172.676 204.35 172.709L204.638 174.403C204.651 174.485 204.571 174.55 204.501 174.511Z" fill="white"/>
<path d="M203.084 54.7996L221.814 68.9539L226.678 70.9905H229.66C230.041 70.9905 230.349 71.2557 230.349 71.5826C230.349 71.9096 230.041 72.1745 229.66 72.1745H221.155C220.424 72.1745 219.747 71.8478 219.366 71.3115L218.968 70.7546L204.104 61.7552L198.408 58.9098L203.084 54.7996Z" fill="#FFC0CC"/>
<path d="M155.508 55.7267L150.629 60.0523L150.581 77.5567L150.886 81.3177C150.91 81.609 151.061 81.8781 151.303 82.0528C151.499 82.1968 151.742 82.2671 151.985 82.2525L154.302 82.1131L154.488 84.3911C154.515 84.7245 154.811 84.978 155.152 84.9575C155.496 84.9368 155.751 84.6433 155.716 84.3055L155.333 80.5191L155.758 80.4487C156.147 80.3833 156.395 80.0084 156.296 79.631L156.105 78.9023C156.064 78.5429 155.877 78.2139 155.584 77.9905L154.799 77.393L153.815 76.0994L154.804 63.8616L159.589 60.1164L155.508 55.7267Z" fill="#FFC0CC"/>
<path d="M182.746 43.9145L190.794 46.3821C191.831 46.7001 192.8 47.1614 193.665 47.7503L203.494 54.4409L197.926 59.3349C197.926 59.3349 192.228 56.4645 191.993 56.9186C191.383 58.0953 190.967 67.3879 190.967 67.3879L191.701 72.1571H167.929L168.418 67.1765L166.115 57.7554L159.161 60.6195L154.738 55.688L164.649 47.6042C165.337 47.0431 166.131 46.5858 166.994 46.2518L173.044 43.9145H182.746Z" fill="#224A85"/>
<path d="M177.961 51.2157C180.138 51.2157 181.906 49.6965 181.906 47.821V42.9948H174.016V47.8225C174.015 49.6965 175.782 51.2157 177.961 51.2157Z" fill="#FFC0CC"/>
<path d="M169.281 39.4679C169.159 39.0588 168.834 38.2566 168.751 37.8419C168.582 37.0033 168.796 35.946 169.129 35.19C169.405 34.561 169.239 34.6657 169.641 34.1083C170.348 33.1291 171.936 32.3291 173.168 32.0243C173.692 31.8955 174.251 31.8635 174.798 31.8544C174.926 31.8515 176.49 32.2127 176.311 32.3956C176.739 31.9605 177.519 32.0087 178.137 32.2611C179.134 32.6677 179.894 33.4802 180.613 34.2649C180.955 34.6387 181.299 35.0136 181.642 35.3872C181.952 35.7255 182.28 36.1058 182.286 36.5356C182.288 36.7236 182.226 36.9031 182.22 37.0916C182.204 37.5796 182.553 38.0272 182.784 38.4834C183.116 39.1406 183.196 39.8856 183.043 40.5643C182.897 41.2053 182.378 41.5599 182.171 42.1146L182.345 41.9897C181.121 43.5056 178.987 44.0504 176.99 44.5134C176.044 44.7339 175.098 44.9523 174.151 45.1729C173.643 45.2913 173.075 45.4006 172.593 45.1481C172.101 44.8896 171.873 44.3461 171.514 43.9334C171.037 43.3867 170.313 43.0584 169.873 42.4845C169.206 41.6128 169.586 40.4826 169.281 39.4679Z" fill="#224A85"/>
<path d="M179.812 48.754C182.336 47.9641 183.541 45.335 182.502 42.8798L179.877 36.6766L170.737 39.5375L173.362 45.7407C174.399 48.195 177.288 49.544 179.812 48.754Z" fill="#FFC0CC"/>
<path d="M169.692 40.0969C169.736 39.0437 170.38 38.1197 171.222 37.4843C172.064 36.8475 173.093 36.462 174.12 36.114C174.643 35.9362 175.175 35.7661 175.735 35.6984C176.415 35.6174 177.115 35.691 177.807 35.7647C178.297 35.8162 178.786 35.8689 179.276 35.92C179.735 35.9686 180.215 36.0242 180.613 36.2735C181.32 36.7163 181.518 37.6023 181.551 38.3758L181.443 38.5492C180.147 38.7754 178.823 38.0692 177.595 37.47C177.527 37.4369 177.452 37.4019 177.379 37.4089C177.285 37.4174 177.219 37.489 177.16 37.5532C176.149 38.6605 174.71 39.3282 173.295 39.9457C172.234 40.41 170.989 40.8612 169.863 40.3626C169.812 40.3399 169.756 40.313 169.726 40.266C169.691 40.2154 169.691 40.1536 169.692 40.0969Z" fill="#224A85"/>
<path d="M182.801 43.5435C182.589 42.5934 182.207 41.665 181.671 40.8127C181.523 41.3963 181.638 42.0292 181.584 42.6331C181.528 43.2373 181.214 43.8837 180.59 44.005C179.849 44.1471 179.138 43.4957 178.371 43.3623C177.905 43.2808 177.434 43.3983 177.05 43.6208C176.665 43.8418 176.357 44.1622 176.087 44.5003C175.741 44.933 175.371 45.4483 174.78 45.489C174.394 45.5165 174.006 45.3225 173.705 45.0682C173.403 44.8137 173.166 44.4983 172.902 44.2092C172.841 44.142 172.782 44.0954 172.694 44.0982C172.611 45.2201 173.42 46.669 174.19 47.5396C175.056 48.5181 176.289 49.2275 177.587 49.4025C178.587 49.5373 179.587 49.358 180.489 49.0124C181.124 48.7697 181.728 48.4345 182.16 47.9398C182.796 47.2141 182.996 46.2105 182.994 45.2331C182.991 44.6686 182.925 44.1021 182.801 43.5435Z" fill="#224A85"/>
<path d="M246.176 58.7881L141.896 101.631C141.521 101.786 141.342 102.215 141.496 102.59L159.494 146.398C159.648 146.773 160.077 146.952 160.452 146.798L264.733 103.955C265.108 103.8 265.286 103.371 265.132 102.996L247.134 59.1884C246.978 58.8139 246.55 58.6346 246.176 58.7881Z" fill="white"/>
<path d="M149.872 105.604L162.097 138.737L165.249 137.574L153.024 104.441L149.872 105.604Z" fill="url(#paint2_radial_36_2063)"/>
<path d="M154.809 103.575L167.034 136.709L170.186 135.546L157.961 102.412L154.809 103.575Z" fill="url(#paint3_radial_36_2063)"/>
<path d="M159.746 101.547L171.971 134.68L175.124 133.517L162.899 100.383L159.746 101.547Z" fill="url(#paint4_radial_36_2063)"/>
<path d="M164.683 99.5184L176.908 132.652L180.061 131.489L167.836 98.3553L164.683 99.5184Z" fill="url(#paint5_radial_36_2063)"/>
<path d="M169.621 97.4901L181.845 130.624L184.998 129.46L172.774 96.3267L169.621 97.4901Z" fill="url(#paint6_radial_36_2063)"/>
<path d="M174.556 95.4623L186.781 128.596L189.934 127.433L177.709 94.299L174.556 95.4623Z" fill="url(#paint7_radial_36_2063)"/>
<path d="M190.064 95.6417C191.274 98.5869 194.642 99.9958 197.588 98.7854C200.533 97.5756 201.94 94.207 200.729 91.2602C199.518 88.3128 196.15 86.9061 193.205 88.1159C190.26 89.3256 188.853 92.6944 190.064 95.6417ZM187.727 89.9135L191.863 101.122L203.066 96.9879L198.931 85.7798L187.727 89.9135Z" fill="url(#paint8_radial_36_2063)"/>
<path d="M201.169 83.9983L202.293 87.0451L246.062 70.8966L244.937 67.8498L201.169 83.9983Z" fill="url(#paint9_radial_36_2063)"/>
<path d="M202.887 88.1807L204.011 91.2281L247.78 75.0795L246.655 72.0322L202.887 88.1807Z" fill="url(#paint10_radial_36_2063)"/>
<path d="M209.642 104.621L210.766 107.668L254.534 91.5192L253.41 88.4725L209.642 104.621Z" fill="url(#paint11_radial_36_2063)"/>
<path d="M211.36 108.805L212.485 111.852L256.254 95.7039L255.129 92.6565L211.36 108.805Z" fill="url(#paint12_radial_36_2063)"/>
<path d="M198.537 116.264C199.747 119.21 203.115 120.618 206.061 119.408C209.006 118.198 210.412 114.829 209.202 111.883C207.991 108.936 204.622 107.529 201.678 108.739C198.733 109.949 197.326 113.317 198.537 116.264ZM196.2 110.537L200.335 121.744L211.539 117.61L207.404 106.403L196.2 110.537Z" fill="url(#paint13_radial_36_2063)"/>
<path d="M172.11 112.129L170.186 112.919L178.119 132.228L180.043 131.437L172.11 112.129Z" fill="#FF4163"/>
<path d="M178.554 113.769L176.63 114.559L183.11 130.332L185.034 129.541L178.554 113.769Z" fill="#FF4163"/>
<path d="M183.997 112.976L182.074 113.767L188.055 128.325L189.979 127.535L183.997 112.976Z" fill="#FF4163"/>
<path d="M231.734 107.155L213.666 114.578L214.257 116.015L232.325 108.592L231.734 107.155Z" fill="#FF4163"/>
<path d="M223.261 86.5318L205.193 93.9549L205.784 95.3923L223.852 87.9692L223.261 86.5318Z" fill="#FF4163"/>
<path d="M257.296 201.251L260.912 199.409L259.369 196.381L255.753 198.223L257.296 201.251Z" fill="#FFC0CC"/>
<path d="M234.036 150.465C234.036 150.465 237.162 154.593 240.382 159.414C240.787 160.022 241.16 160.655 241.492 161.306L259.772 197.181L256.19 199.086C256.19 199.086 247.102 188.897 242.147 180.113C241.359 178.717 240.376 177.445 239.367 176.199L228.271 164.45L223.473 155.035L234.036 150.465Z" fill="#22AEFB"/>
<path d="M259.696 198.84L256.753 200.34L257.046 202.277L257.452 203.074C257.676 203.514 258.215 203.689 258.655 203.465L261.721 201.903L264.345 199.021L264.059 198.459C263.591 197.541 262.711 196.903 261.691 196.743L259.369 196.381L260.369 198.343L259.696 198.84Z" fill="#224A85"/>
<path d="M258.091 202.362L261.157 200.8L263.731 197.974C263.85 198.129 263.968 198.286 264.058 198.461L264.343 199.021L261.719 201.904L258.654 203.465C258.214 203.69 257.675 203.515 257.451 203.074L257.045 202.277L257.024 202.143C257.288 202.443 257.719 202.551 258.091 202.362Z" fill="#FF4163"/>
<path d="M220.891 209L224.168 208.597L225.008 210.367L225.117 211.255C225.177 211.745 224.829 212.191 224.339 212.252L220.924 212.671L217.138 211.749L217.061 211.123C216.935 210.1 217.307 209.08 218.063 208.377L219.785 206.777L220.054 208.963L220.891 209Z" fill="#224A85"/>
<path d="M224.19 211.022L220.775 211.441L217.061 210.538C217.049 210.733 217.039 210.929 217.063 211.125L217.139 211.748L220.926 212.671L224.341 212.251C224.831 212.191 225.18 211.745 225.119 211.255L225.01 210.367L224.953 210.243C224.902 210.64 224.604 210.971 224.19 211.022Z" fill="#FF4163"/>
<path d="M223.816 206.283L219.787 206.778L220.202 210.152L224.23 209.657L223.816 206.283Z" fill="#FFC0CC"/>
<path d="M214.961 153.046C214.961 153.046 214.821 159.016 214.847 164.763C214.852 166.009 214.933 167.254 215.085 168.491L219.895 207.668L223.923 207.174C223.923 207.174 225.359 193.143 224.871 183.968C224.742 181.534 224.865 179.096 225.101 176.669L226.992 157.092L226.419 152.43L214.961 153.046Z" fill="#22AEFB"/>
<path d="M224.614 118.324L237.112 116.975C237.582 116.924 238.035 116.76 238.428 116.497L249.253 109.248L249.228 106.587L249.389 106.576C249.954 106.54 250.482 106.868 250.697 107.393L250.974 108.066L251.854 108.104L254.439 107.686L255.196 107.83L257.395 106.927L256.902 107.976C256.828 108.132 256.711 108.263 256.562 108.352L251.6 111.317L249.353 112.749L241.421 120.583C240.897 121.101 240.222 121.437 239.494 121.544L226.079 123.512L224.614 118.324Z" fill="#FFC0CC"/>
<path d="M199.505 128.64L189.667 136.467C189.296 136.762 188.86 136.963 188.396 137.053L175.601 139.508L173.748 137.598L173.626 137.704C173.198 138.075 173.054 138.679 173.27 139.203L173.546 139.876L172.946 140.523L170.815 142.043L170.377 142.678L168.178 143.581L169.267 143.981C169.429 144.04 169.605 144.051 169.774 144.009L175.386 142.63L177.991 142.068L189.14 142.063C189.876 142.062 190.593 141.827 191.186 141.392L202.111 133.359L199.505 128.64Z" fill="#FFC0CC"/>
<path d="M205.545 118.775C205.545 118.775 206.657 116.413 205.638 113.931L211.046 111.71C211.046 111.71 212.554 115.081 214.135 115.245L205.545 118.775Z" fill="#FFC0CC"/>
<path d="M213.988 114.886L218.727 114.466C220.46 114.312 230.763 116.813 230.763 116.813L230.798 123.599L224.956 123.844L237.561 151.464C233.159 150.045 225.268 161.355 214.661 159.612C214.661 159.612 211.171 140.074 205.057 132.616L199.632 136.288L194.448 131.525L197.297 127.548C197.785 126.866 198.255 126.17 198.64 125.426C199.532 123.702 200.771 122.179 202.282 120.952L205.398 118.419L213.989 114.889L213.988 114.886Z" fill="#224A85"/>
<path d="M208.251 105.171C208.065 104.463 207.627 103.783 206.957 103.489L207.861 102.762C207.47 102.775 207.074 102.802 206.696 102.914C206.318 103.026 205.972 103.216 205.618 103.387C205.085 103.643 204.802 103.681 204.53 104.238C204.244 104.825 203.957 105.411 203.671 105.997C203.546 106.255 203.418 106.514 203.333 106.789C203.208 107.191 203.173 107.615 203.138 108.035C203.111 108.384 203.081 108.733 203.053 109.084C203.027 109.396 203.002 109.71 203.032 110.021C203.069 110.415 203.194 110.795 203.315 111.171C203.534 111.841 203.747 112.803 204.335 113.241C204.958 113.707 205.636 114.115 206.44 114.128C206.616 114.13 206.798 114.113 206.944 114.016C207.088 113.92 207.176 113.759 207.25 113.602C208.179 111.684 208.284 109.485 208.376 107.355C208.408 106.622 208.437 105.878 208.251 105.171Z" fill="#FFC0CC"/>
<path d="M214.244 108.552C214.156 107.912 214.332 107.27 214.394 106.627C214.483 105.697 214.338 104.815 213.921 103.973C213.591 103.309 213.203 102.657 212.651 102.163C211.578 101.207 210.045 100.979 208.607 100.981C208.169 100.981 207.721 101 207.316 101.162C206.996 101.29 206.712 101.503 206.382 101.601C206.163 101.667 205.933 101.68 205.71 101.732C205.406 101.801 205.121 101.938 204.849 102.088C204.562 102.243 204.276 102.422 204.086 102.686C203.573 103.395 203.686 104.841 204.002 105.61C204.123 105.903 204.297 106.17 204.413 106.465C204.837 107.538 204.422 108.775 204.702 109.897C204.896 110.672 205.404 111.33 205.685 112.079C205.862 112.551 205.951 113.067 206.232 113.486C206.798 114.336 207.811 114.447 208.719 114.654C209.846 114.913 210.865 115.289 212.043 115.325C214.088 115.386 213.667 113.513 214.319 112.194C214.469 111.893 214.682 111.621 214.782 111.3C215.063 110.391 214.373 109.489 214.244 108.552Z" fill="#224A85"/>
<path d="M117.253 103.564C117.908 99.5376 115.176 95.7415 111.15 95.0864C107.125 94.431 103.331 97.1648 102.676 101.192C102.021 105.219 104.753 109.014 108.779 109.669C112.804 110.324 116.599 107.591 117.253 103.564Z" fill="white"/>
<path d="M108.987 105.366L106.42 102.801L107.887 101.334L108.987 102.435L112.039 99.3799L113.506 100.845L108.987 105.366Z" fill="#FF4163"/>
<path d="M292.503 155.985H273.098C272.667 155.985 272.311 155.633 272.311 155.197V140.953C272.311 140.521 272.662 140.165 273.098 140.165H292.503C292.935 140.165 293.29 140.521 293.29 140.953V155.197C293.286 155.629 292.935 155.985 292.503 155.985Z" fill="#FF4163"/>
<path d="M287.029 148.077L278.569 152.961V143.189L287.029 148.077L278.569 152.961V143.189L287.029 148.077Z" fill="white"/>
<path d="M71.5809 83.2046C71.5809 84.0296 72.2496 84.6986 73.0746 84.6986C73.8993 84.6986 74.5677 84.0296 74.5677 83.2046C74.5677 82.3791 73.8993 81.71 73.0746 81.71C72.2496 81.71 71.5809 82.3791 71.5809 83.2046Z" fill="url(#paint14_radial_36_2063)"/>
<path d="M71.5809 91.9785C71.5809 92.8037 72.2496 93.4725 73.0746 93.4725C73.8993 93.4725 74.5677 92.8037 74.5677 91.9785C74.5677 91.1535 73.8993 90.4845 73.0746 90.4845C72.2496 90.4845 71.5809 91.1535 71.5809 91.9785Z" fill="url(#paint15_radial_36_2063)"/>
<path d="M71.5809 100.755C71.5809 101.58 72.2496 102.249 73.0746 102.249C73.8993 102.249 74.5677 101.58 74.5677 100.755C74.5677 99.9293 73.8993 99.2603 73.0746 99.2603C72.2496 99.2603 71.5809 99.9293 71.5809 100.755Z" fill="url(#paint16_radial_36_2063)"/>
<path d="M71.5809 109.529C71.5809 110.354 72.2496 111.024 73.0746 111.024C73.8993 111.024 74.5677 110.354 74.5677 109.529C74.5677 108.704 73.8993 108.035 73.0746 108.035C72.2496 108.035 71.5809 108.704 71.5809 109.529Z" fill="url(#paint17_radial_36_2063)"/>
<path d="M71.5809 118.305C71.5809 119.131 72.2496 119.799 73.0746 119.799C73.8993 119.799 74.5677 119.131 74.5677 118.305C74.5677 117.48 73.8993 116.811 73.0746 116.811C72.2496 116.811 71.5809 117.48 71.5809 118.305Z" fill="url(#paint18_radial_36_2063)"/>
<path d="M71.29 127.08C71.29 127.905 71.9588 128.574 72.7837 128.574C73.6084 128.574 74.2769 127.905 74.2769 127.08C74.2769 126.254 73.6084 125.585 72.7837 125.585C71.9588 125.585 71.29 126.254 71.29 127.08Z" fill="url(#paint19_radial_36_2063)"/>
<defs>
<radialGradient id="paint0_radial_36_2063" cx="0" cy="0" r="1" gradientUnits="userSpaceOnUse" gradientTransform="translate(280.026 127.39) scale(609.446 244.327)">
<stop offset="0.15" stop-color="#D0E2FF"/>
<stop offset="0.47" stop-color="#DDE9FD"/>
<stop offset="0.78" stop-color="#EAF0FA"/>
</radialGradient>
<linearGradient id="paint1_linear_36_2063" x1="282" y1="126" x2="948.493" y2="126" gradientUnits="userSpaceOnUse">
<stop offset="0.15" stop-color="#D0E2FF"/>
<stop offset="0.47" stop-color="#DDE9FD"/>
<stop offset="0.78" stop-color="#EAF0FA"/>
</linearGradient>
<radialGradient id="paint2_radial_36_2063" cx="0" cy="0" r="1" gradientUnits="userSpaceOnUse" gradientTransform="translate(282 126) scale(3534.72 206.982)">
<stop offset="0.15" stop-color="#D0E2FF"/>
<stop offset="0.47" stop-color="#DDE9FD"/>
<stop offset="0.78" stop-color="#EAF0FA"/>
</radialGradient>
<radialGradient id="paint3_radial_36_2063" cx="0" cy="0" r="1" gradientUnits="userSpaceOnUse" gradientTransform="translate(282.018 126) scale(3535.39 206.982)">
<stop offset="0.15" stop-color="#D0E2FF"/>
<stop offset="0.47" stop-color="#DDE9FD"/>
<stop offset="0.78" stop-color="#EAF0FA"/>
</radialGradient>
<radialGradient id="paint4_radial_36_2063" cx="0" cy="0" r="1" gradientUnits="userSpaceOnUse" gradientTransform="translate(282 126) scale(3533.83 206.982)">
<stop offset="0.15" stop-color="#D0E2FF"/>
<stop offset="0.47" stop-color="#DDE9FD"/>
<stop offset="0.78" stop-color="#EAF0FA"/>
</radialGradient>
<radialGradient id="paint5_radial_36_2063" cx="0" cy="0" r="1" gradientUnits="userSpaceOnUse" gradientTransform="translate(282 126) scale(3534.28 206.982)">
<stop offset="0.15" stop-color="#D0E2FF"/>
<stop offset="0.47" stop-color="#DDE9FD"/>
<stop offset="0.78" stop-color="#EAF0FA"/>
</radialGradient>
<radialGradient id="paint6_radial_36_2063" cx="0" cy="0" r="1" gradientUnits="userSpaceOnUse" gradientTransform="translate(282 126) scale(3533.83 206.982)">
<stop offset="0.15" stop-color="#D0E2FF"/>
<stop offset="0.47" stop-color="#DDE9FD"/>
<stop offset="0.78" stop-color="#EAF0FA"/>
</radialGradient>
<radialGradient id="paint7_radial_36_2063" cx="0" cy="0" r="1" gradientUnits="userSpaceOnUse" gradientTransform="translate(282.018 126) scale(3534.06 206.982)">
<stop offset="0.15" stop-color="#D0E2FF"/>
<stop offset="0.47" stop-color="#DDE9FD"/>
<stop offset="0.78" stop-color="#EAF0FA"/>
</radialGradient>
<radialGradient id="paint8_radial_36_2063" cx="0" cy="0" r="1" gradientUnits="userSpaceOnUse" gradientTransform="translate(282 126) scale(1326.5 592.467)">
<stop offset="0.15" stop-color="#D0E2FF"/>
<stop offset="0.47" stop-color="#DDE9FD"/>
<stop offset="0.78" stop-color="#EAF0FA"/>
</radialGradient>
<radialGradient id="paint9_radial_36_2063" cx="0" cy="0" r="1" gradientUnits="userSpaceOnUse" gradientTransform="translate(282.002 126) scale(351.01 1483.4)">
<stop offset="0.15" stop-color="#D0E2FF"/>
<stop offset="0.47" stop-color="#DDE9FD"/>
<stop offset="0.78" stop-color="#EAF0FA"/>
</radialGradient>
<radialGradient id="paint10_radial_36_2063" cx="0" cy="0" r="1" gradientUnits="userSpaceOnUse" gradientTransform="translate(282.002 126) scale(351.01 1483.23)">
<stop offset="0.15" stop-color="#D0E2FF"/>
<stop offset="0.47" stop-color="#DDE9FD"/>
<stop offset="0.78" stop-color="#EAF0FA"/>
</radialGradient>
<radialGradient id="paint11_radial_36_2063" cx="0" cy="0" r="1" gradientUnits="userSpaceOnUse" gradientTransform="translate(282.002 126) scale(351.01 1483.57)">
<stop offset="0.15" stop-color="#D0E2FF"/>
<stop offset="0.47" stop-color="#DDE9FD"/>
<stop offset="0.78" stop-color="#EAF0FA"/>
</radialGradient>
<radialGradient id="paint12_radial_36_2063" cx="0" cy="0" r="1" gradientUnits="userSpaceOnUse" gradientTransform="translate(282 126) scale(351.008 1483.23)">
<stop offset="0.15" stop-color="#D0E2FF"/>
<stop offset="0.47" stop-color="#DDE9FD"/>
<stop offset="0.78" stop-color="#EAF0FA"/>
</radialGradient>
<radialGradient id="paint13_radial_36_2063" cx="0" cy="0" r="1" gradientUnits="userSpaceOnUse" gradientTransform="translate(282 126) scale(1326.5 592.495)">
<stop offset="0.15" stop-color="#D0E2FF"/>
<stop offset="0.47" stop-color="#DDE9FD"/>
<stop offset="0.78" stop-color="#EAF0FA"/>
</radialGradient>
<radialGradient id="paint14_radial_36_2063" cx="0" cy="0" r="1" gradientUnits="userSpaceOnUse" gradientTransform="translate(72.7835 127.079) scale(29.0889)">
<stop offset="0.15" stop-color="#D0E2FF"/>
<stop offset="0.47" stop-color="#DDE9FD"/>
<stop offset="0.78" stop-color="#EAF0FA"/>
</radialGradient>
<radialGradient id="paint15_radial_36_2063" cx="0" cy="0" r="1" gradientUnits="userSpaceOnUse" gradientTransform="translate(282 126) scale(5492.79 2453.27)">
<stop offset="0.15" stop-color="#D0E2FF"/>
<stop offset="0.47" stop-color="#DDE9FD"/>
<stop offset="0.78" stop-color="#EAF0FA"/>
</radialGradient>
<radialGradient id="paint16_radial_36_2063" cx="0" cy="0" r="1" gradientUnits="userSpaceOnUse" gradientTransform="translate(72.7835 127.079) scale(29.0889)">
<stop offset="0.15" stop-color="#D0E2FF"/>
<stop offset="0.47" stop-color="#DDE9FD"/>
<stop offset="0.78" stop-color="#EAF0FA"/>
</radialGradient>
<radialGradient id="paint17_radial_36_2063" cx="0" cy="0" r="1" gradientUnits="userSpaceOnUse" gradientTransform="translate(72.7835 127.079) scale(29.0889)">
<stop offset="0.15" stop-color="#D0E2FF"/>
<stop offset="0.47" stop-color="#DDE9FD"/>
<stop offset="0.78" stop-color="#EAF0FA"/>
</radialGradient>
<radialGradient id="paint18_radial_36_2063" cx="0" cy="0" r="1" gradientUnits="userSpaceOnUse" gradientTransform="translate(282 126) scale(5492.79 2453.27)">
<stop offset="0.15" stop-color="#D0E2FF"/>
<stop offset="0.47" stop-color="#DDE9FD"/>
<stop offset="0.78" stop-color="#EAF0FA"/>
</radialGradient>
<radialGradient id="paint19_radial_36_2063" cx="0" cy="0" r="1" gradientUnits="userSpaceOnUse" gradientTransform="translate(72.7835 127.079) scale(29.0889)">
<stop offset="0.15" stop-color="#D0E2FF"/>
<stop offset="0.47" stop-color="#DDE9FD"/>
<stop offset="0.78" stop-color="#EAF0FA"/>
</radialGradient>
</defs>
</svg>
