<svg width="477" height="477" viewBox="0 0 477 477" fill="none" xmlns="http://www.w3.org/2000/svg">
<path d="M238.5 6.24475C366.743 6.24475 470.706 110.207 470.706 238.45C470.706 366.694 366.743 470.656 238.5 470.656C110.257 470.656 6.29443 366.694 6.29443 238.45C6.29443 110.207 110.257 6.24475 238.5 6.24475Z" stroke="#8CEFE9" stroke-width="4" stroke-miterlimit="10"/>
<path d="M238.5 29.902C353.678 29.902 447.048 123.275 447.048 238.452C447.048 353.63 353.678 446.999 238.5 446.999C123.322 446.999 29.9517 353.63 29.9517 238.452C29.9517 123.275 123.322 29.902 238.5 29.902Z" fill="#8CEFE9"/>
<path d="M342.914 367.162H136.382C127.976 367.162 121.37 360.26 121.37 352.155V161.227C121.37 152.822 128.277 146.219 136.382 146.219H342.914C351.32 146.219 357.924 153.122 357.924 161.227V351.854C357.924 360.26 351.32 367.162 342.914 367.162ZM183.781 213.892H207.499V237.61H183.781V213.892ZM224.911 213.892H248.629V237.61H224.911V213.892ZM266.335 213.892H290.053V237.61H266.335V213.892ZM307.466 213.892H331.184V237.61H307.466V213.892ZM142.669 253.208H166.368V276.926H142.669V253.208ZM183.781 276.926H207.499V253.208H183.781V276.926ZM224.911 253.208H248.629V276.926H224.911V253.208ZM266.335 253.208H290.053V276.926H266.335V253.208ZM307.466 253.208H331.184V276.926H307.466V253.208ZM142.669 292.543H166.368V316.242H142.669V292.543ZM183.781 292.543H207.499V316.242H183.781V292.543ZM224.911 292.543H248.629V316.242H224.911V292.543ZM266.335 292.543H290.053V316.242H266.335V292.543Z" fill="white"/>
<path d="M183.786 213.887H207.502V237.603H183.786V213.887Z" fill="#BEB8D5"/>
<path d="M224.915 213.887H248.631V237.603H224.915V213.887Z" fill="#BEB8D5"/>
<path d="M266.342 213.887H290.058V237.603H266.342V213.887Z" fill="#BEB8D5"/>
<path d="M307.469 213.887H331.183V237.603H307.469V213.887Z" fill="#BEB8D5"/>
<path d="M142.661 253.212H166.375V276.926H142.661V253.212Z" fill="#BEB8D5"/>
<path d="M183.786 276.926H207.502V253.212H183.786V276.926Z" fill="#FF0000"/>
<path d="M224.915 253.212H248.631V276.926H224.915V253.212Z" fill="#BEB8D5"/>
<path d="M266.342 253.212H290.058V276.926H266.342V253.212Z" fill="#BEB8D5"/>
<path d="M307.469 253.212H331.183V276.926H307.469V253.212Z" fill="#BEB8D5"/>
<path d="M142.661 292.537H166.375V316.251H142.661V292.537Z" fill="#BEB8D5"/>
<path d="M183.786 292.537H207.502V316.251H183.786V292.537Z" fill="#BEB8D5"/>
<path d="M224.915 292.537H248.631V316.251H224.915V292.537Z" fill="#BEB8D5"/>
<path d="M266.342 292.537H290.058V316.251H266.342V292.537Z" fill="#BEB8D5"/>
<path d="M136.382 146.219C127.976 146.219 121.37 152.823 121.37 161.227V192.149H357.926V161.227C357.926 152.823 351.322 146.219 342.914 146.219H136.382Z" fill="#070E21"/>
<path d="M178.673 101.463C167.717 101.463 158.835 110.344 158.835 121.301V152.893C158.835 163.848 167.717 172.731 178.673 172.731C189.628 172.731 198.51 163.848 198.51 152.893V121.301C198.508 110.344 189.628 101.463 178.673 101.463Z" fill="#FF0000"/>
<path d="M307.119 101.463C318.075 101.463 326.957 110.344 326.957 121.301V152.893C326.957 163.848 318.075 172.731 307.119 172.731C296.164 172.731 287.282 163.848 287.282 152.893V121.301C287.282 110.344 296.164 101.463 307.119 101.463Z" fill="#FF0000"/>
</svg>
