<svg width="74" height="74" viewBox="0 0 74 74" fill="none" xmlns="http://www.w3.org/2000/svg">
<path d="M0 20C0 8.95431 8.9543 0 20 0H54C65.0457 0 74 8.9543 74 20V54C74 65.0457 65.0457 74 54 74H20C8.95431 74 0 65.0457 0 54V20Z" fill="#8CEFE9"/>
<path d="M53.8547 48.7785L42.0672 36.9461L53.8816 25.2664C54.3668 24.7812 54.3668 23.9906 53.8816 23.5055L50.5215 20.1273C50.2879 19.8937 49.9734 19.768 49.641 19.768C49.3086 19.768 48.9941 19.9027 48.7605 20.1273L37 31.7711L25.2215 20.1363C24.9879 19.9027 24.6734 19.777 24.341 19.777C24.0086 19.777 23.6941 19.9117 23.4605 20.1363L20.1094 23.5145C19.6242 23.9996 19.6242 24.7902 20.1094 25.2754L31.9238 36.9551L20.1453 48.7785C19.9117 49.0121 19.7769 49.3266 19.7769 49.659C19.7769 49.9914 19.9027 50.3059 20.1453 50.5395L23.5054 53.9176C23.748 54.1602 24.0625 54.2859 24.3859 54.2859C24.7004 54.2859 25.0238 54.1691 25.2664 53.9176L37 42.1301L48.7426 53.9086C48.9851 54.1512 49.2996 54.277 49.623 54.277C49.9375 54.277 50.2609 54.1602 50.5035 53.9086L53.8636 50.5305C54.0972 50.2969 54.232 49.9824 54.232 49.65C54.223 49.3266 54.0883 49.0121 53.8547 48.7785Z" fill="#06171F"/>
</svg>
