<svg width="99" height="76" viewBox="0 0 99 76" fill="none" xmlns="http://www.w3.org/2000/svg">
<g clip-path="url(#clip0_1_3)">
<path d="M83.8626 6.36488C77.3582 3.34861 70.4915 1.20876 63.4381 0C62.4729 1.74769 61.5996 3.54582 60.8218 5.38688C53.3085 4.24012 45.668 4.24012 38.1547 5.38688C37.3765 3.54601 36.5032 1.7479 35.5384 0C28.4804 1.21897 21.6093 3.36389 15.0983 6.38066C2.17241 25.7513 -1.3316 44.6409 0.420407 63.2623C7.99014 68.9273 16.4628 73.2356 25.4702 76C27.4984 73.237 29.2931 70.3058 30.8352 67.2374C27.9061 66.1294 25.079 64.7622 22.3867 63.1519C23.0953 62.6314 23.7883 62.0951 24.4579 61.5745C32.2921 65.3062 40.8427 67.2411 49.4999 67.2411C58.1572 67.2411 66.7078 65.3062 74.5419 61.5745C75.2194 62.1345 75.9124 62.6708 76.6132 63.1519C73.9156 64.7648 71.0833 66.1346 68.149 67.2453C69.6893 70.3122 71.4841 73.241 73.5141 76C82.5291 73.2467 91.0083 68.9404 98.5794 63.2702C100.635 41.6754 95.0676 22.9593 83.8626 6.36488ZM33.0544 51.8103C28.1722 51.8103 24.1387 47.3225 24.1387 41.8016C24.1387 36.2806 28.032 31.7534 33.0389 31.7534C38.0457 31.7534 42.0481 36.2806 41.9624 41.8016C41.8768 47.3225 38.0301 51.8103 33.0544 51.8103ZM65.9454 51.8103C61.0554 51.8103 57.0374 47.3225 57.0374 41.8016C57.0374 36.2806 60.9308 31.7534 65.9454 31.7534C70.96 31.7534 74.9313 36.2806 74.8456 41.8016C74.76 47.3225 70.9211 51.8103 65.9454 51.8103Z" fill="#8CEFE9"/>
</g>
<defs>
<clipPath id="clip0_1_3">
<rect width="99" height="76" fill="white"/>
</clipPath>
</defs>
</svg>
