<svg width="74" height="74" viewBox="0 0 74 74" fill="none" xmlns="http://www.w3.org/2000/svg">
<path d="M0 20C0 8.95431 8.9543 0 20 0H54C65.0457 0 74 8.9543 74 20V54C74 65.0457 65.0457 74 54 74H20C8.95431 74 0 65.0457 0 54V20Z" fill="#8CEFE9"/>
<path d="M15 21C15 19.3431 16.3431 18 18 18H56C57.6569 18 59 19.3431 59 21C59 22.6569 57.6569 24 56 24H18C16.3431 24 15 22.6569 15 21Z" fill="#070E21"/>
<path d="M15 37C15 35.3431 16.3431 34 18 34H56C57.6569 34 59 35.3431 59 37C59 38.6569 57.6569 40 56 40H18C16.3431 40 15 38.6569 15 37Z" fill="#070E21"/>
<path d="M24 53C24 51.3431 25.3431 50 27 50H56C57.6569 50 59 51.3431 59 53C59 54.6569 57.6569 56 56 56H27C25.3431 56 24 54.6569 24 53Z" fill="#070E21"/>
</svg>
