<svg width="797" height="448" viewBox="0 0 797 448" fill="none" xmlns="http://www.w3.org/2000/svg">
<path d="M245.9 395.123L245.831 84.6612C245.831 77.9541 251.272 72.5167 257.984 72.5167H546.344C553.055 72.5167 558.497 77.9541 558.497 84.6612L558.565 396.162" fill="white"/>
<path d="M260.982 394.936L260.675 85.3088C260.675 79.0579 265.539 73.9905 271.539 73.9905" stroke="#E5ECFF" stroke-width="6" stroke-linecap="round" stroke-linejoin="round"/>
<path d="M366.081 73.1319L366.04 357.377" stroke="#E5ECFF" stroke-width="6" stroke-linecap="round" stroke-linejoin="round"/>
<path d="M508.325 172.598H472.345C471.199 172.598 470.27 171.67 470.27 170.524V166.121C470.27 164.976 471.199 164.047 472.345 164.047H508.325C509.471 164.047 510.4 164.976 510.4 166.121V170.524C510.4 171.67 509.471 172.598 508.325 172.598Z" fill="#42ADB6"/>
<path d="M454.456 159.352H381.78C380.634 159.352 379.704 158.424 379.704 157.278V152.875C379.704 151.73 380.634 150.801 381.78 150.801H454.456C455.602 150.801 456.531 151.73 456.531 152.875V157.278C456.531 158.424 455.602 159.352 454.456 159.352Z" fill="#42ADB6"/>
<path d="M512.082 159.378H462.041C460.895 159.378 459.966 158.449 459.966 157.304V152.849C459.966 151.704 460.895 150.775 462.041 150.775H512.082C513.228 150.775 514.158 151.704 514.158 152.849V157.304C514.158 158.449 513.228 159.378 512.082 159.378Z" fill="#42ADB6"/>
<path d="M520.468 159.64H518.23C517.084 159.64 516.154 158.711 516.154 157.566V153.163C516.154 152.017 517.084 151.089 518.23 151.089H520.468C521.614 151.089 522.544 152.017 522.544 153.163V157.566C522.544 158.711 521.614 159.64 520.468 159.64Z" fill="#42ADB6"/>
<path d="M421.556 146.106H381.78C380.633 146.106 379.704 145.177 379.704 144.032V139.629C379.704 138.483 380.633 137.555 381.78 137.555H421.556C422.702 137.555 423.631 138.483 423.631 139.629V144.032C423.631 145.177 422.702 146.106 421.556 146.106Z" fill="#42ADB6"/>
<path d="M477.142 146.106H428.16C427.014 146.106 426.085 145.177 426.085 144.032V139.629C426.085 138.483 427.014 137.555 428.16 137.555H477.142C478.288 137.555 479.217 138.483 479.217 139.629V144.032C479.217 145.177 478.288 146.106 477.142 146.106Z" fill="#42ADB6"/>
<path d="M524.453 146.106H484.677C483.531 146.106 482.602 145.177 482.602 144.032V139.629C482.602 138.483 483.531 137.555 484.677 137.555H524.453C525.599 137.555 526.529 138.483 526.529 139.629V144.032C526.529 145.177 525.599 146.106 524.453 146.106Z" fill="#42ADB6"/>
<path d="M421.556 133.293H381.78C380.633 133.293 379.704 132.364 379.704 131.219V126.816C379.704 125.67 380.633 124.742 381.78 124.742H421.556C422.702 124.742 423.631 125.67 423.631 126.816V131.219C423.631 132.364 422.702 133.293 421.556 133.293Z" fill="#42ADB6"/>
<path d="M430.399 133.293H428.16C427.014 133.293 426.085 132.364 426.085 131.219V126.816C426.085 125.67 427.014 124.742 428.16 124.742H430.399C431.545 124.742 432.474 125.67 432.474 126.816V131.219C432.474 132.364 431.545 133.293 430.399 133.293Z" fill="#42ADB6"/>
<path d="M477.143 133.293H437.367C436.22 133.293 435.291 132.364 435.291 131.219V126.816C435.291 125.67 436.22 124.742 437.367 124.742H477.143C478.289 124.742 479.218 125.67 479.218 126.816V131.219C479.218 132.364 478.289 133.293 477.143 133.293Z" fill="#42ADB6"/>
<path d="M425.532 111.22H381.78C380.633 111.22 379.704 110.292 379.704 109.146V104.743C379.704 103.598 380.633 102.669 381.78 102.669H425.532C426.678 102.669 427.608 103.598 427.608 104.743V109.146C427.608 110.292 426.678 111.22 425.532 111.22Z" fill="#42ADB6"/>
<path d="M464.036 97.9993H393.891C392.745 97.9993 391.815 97.0706 391.815 95.9253V91.5224C391.815 90.3771 392.745 89.4483 393.891 89.4483H464.036C465.183 89.4483 466.112 90.3771 466.112 91.5224V95.9253C466.112 97.0706 465.183 97.9993 464.036 97.9993Z" fill="#42ADB6"/>
<path d="M508.325 98.086H472.345C471.199 98.086 470.27 97.1573 470.27 96.0119V91.6091C470.27 90.4638 471.199 89.535 472.345 89.535H508.325C509.471 89.535 510.4 90.4638 510.4 91.6091V96.0119C510.4 97.1573 509.471 98.086 508.325 98.086Z" fill="#42ADB6"/>
<path d="M454.456 84.7535H381.78C380.634 84.7535 379.704 83.8251 379.704 82.6794V78.2765C379.704 77.1312 380.634 76.2025 381.78 76.2025H454.456C455.602 76.2025 456.531 77.1312 456.531 78.2765V82.6794C456.531 83.8251 455.602 84.7535 454.456 84.7535Z" fill="#42ADB6"/>
<path d="M508.823 84.7792H462.041C460.895 84.7792 459.966 83.8508 459.966 82.7051V78.2508C459.966 77.1051 460.895 76.1767 462.041 76.1767H508.823C509.969 76.1767 510.898 77.1051 510.898 78.2508V82.7051C510.898 83.8508 509.969 84.7792 508.823 84.7792Z" fill="#42ADB6"/>
<path d="M421.556 71.5072H381.78C380.633 71.5072 379.704 70.5784 379.704 69.4331V65.0303C379.704 63.8845 380.633 62.9562 381.78 62.9562H421.556C422.702 62.9562 423.631 63.8845 423.631 65.0303V69.4331C423.631 70.5784 422.702 71.5072 421.556 71.5072Z" fill="#42ADB6"/>
<path d="M430.399 71.5072H428.16C427.014 71.5072 426.085 70.5784 426.085 69.4331V65.0303C426.085 63.8845 427.014 62.9562 428.16 62.9562H430.399C431.545 62.9562 432.474 63.8845 432.474 65.0303V69.4331C432.474 70.5784 431.545 71.5072 430.399 71.5072Z" fill="#42ADB6"/>
<path d="M477.143 71.5072H437.367C436.22 71.5072 435.291 70.5784 435.291 69.4331V65.0303C435.291 63.8845 436.22 62.9562 437.367 62.9562H477.143C478.289 62.9562 479.218 63.8845 479.218 65.0303V69.4331C479.218 70.5784 478.289 71.5072 477.143 71.5072Z" fill="#42ADB6"/>
<path d="M399.333 212.488H392.031C391.912 212.488 391.815 211.559 391.815 210.414V206.011C391.815 204.866 391.912 203.937 392.031 203.937H399.333C399.452 203.937 399.549 204.866 399.549 206.011V210.414C399.549 211.559 399.452 212.488 399.333 212.488Z" fill="#42ADB6"/>
<path d="M454.456 199.242H381.78C380.634 199.242 379.704 198.314 379.704 197.168V192.765C379.704 191.62 380.634 190.691 381.78 190.691H454.456C455.602 190.691 456.531 191.62 456.531 192.765V197.168C456.531 198.314 455.602 199.242 454.456 199.242Z" fill="#42ADB6"/>
<path d="M508.823 199.268H462.041C460.895 199.268 459.966 198.34 459.966 197.194V192.74C459.966 191.594 460.895 190.666 462.041 190.666H508.823C509.969 190.666 510.898 191.594 510.898 192.74V197.194C510.898 198.34 509.969 199.268 508.823 199.268Z" fill="#42ADB6"/>
<path d="M421.556 185.996H381.78C380.633 185.996 379.704 185.067 379.704 183.922V179.519C379.704 178.373 380.633 177.445 381.78 177.445H421.556C422.702 177.445 423.631 178.373 423.631 179.519V183.922C423.631 185.067 422.702 185.996 421.556 185.996Z" fill="#42ADB6"/>
<path d="M430.399 185.996H428.16C427.014 185.996 426.085 185.067 426.085 183.922V179.519C426.085 178.373 427.014 177.445 428.16 177.445H430.399C431.545 177.445 432.474 178.373 432.474 179.519V183.922C432.474 185.067 431.545 185.996 430.399 185.996Z" fill="#42ADB6"/>
<path d="M477.143 185.996H437.367C436.22 185.996 435.291 185.067 435.291 183.922V179.519C435.291 178.373 436.22 177.445 437.367 177.445H477.143C478.289 177.445 479.218 178.373 479.218 179.519V183.922C479.218 185.067 478.289 185.996 477.143 185.996Z" fill="#42ADB6"/>
<path d="M508.325 172.598H472.345C471.199 172.598 470.27 171.67 470.27 170.524V166.121C470.27 164.976 471.199 164.047 472.345 164.047H508.325C509.471 164.047 510.4 164.976 510.4 166.121V170.524C510.4 171.67 509.471 172.598 508.325 172.598Z" fill="#42ADB6"/>
<path d="M454.456 159.352H381.78C380.634 159.352 379.704 158.424 379.704 157.278V152.875C379.704 151.73 380.634 150.801 381.78 150.801H454.456C455.602 150.801 456.531 151.73 456.531 152.875V157.278C456.531 158.424 455.602 159.352 454.456 159.352Z" fill="#42ADB6"/>
<path d="M512.082 159.378H462.041C460.895 159.378 459.966 158.449 459.966 157.304V152.849C459.966 151.704 460.895 150.775 462.041 150.775H512.082C513.228 150.775 514.158 151.704 514.158 152.849V157.304C514.158 158.449 513.228 159.378 512.082 159.378Z" fill="#42ADB6"/>
<path d="M520.468 159.64H518.23C517.084 159.64 516.154 158.711 516.154 157.566V153.163C516.154 152.017 517.084 151.089 518.23 151.089H520.468C521.614 151.089 522.544 152.017 522.544 153.163V157.566C522.544 158.711 521.614 159.64 520.468 159.64Z" fill="#42ADB6"/>
<path d="M421.556 146.106H381.78C380.633 146.106 379.704 145.177 379.704 144.032V139.629C379.704 138.483 380.633 137.555 381.78 137.555H421.556C422.702 137.555 423.631 138.483 423.631 139.629V144.032C423.631 145.177 422.702 146.106 421.556 146.106Z" fill="#42ADB6"/>
<path d="M477.142 146.106H428.16C427.014 146.106 426.085 145.177 426.085 144.032V139.629C426.085 138.483 427.014 137.555 428.16 137.555H477.142C478.288 137.555 479.217 138.483 479.217 139.629V144.032C479.217 145.177 478.288 146.106 477.142 146.106Z" fill="#42ADB6"/>
<path d="M524.453 146.106H484.677C483.531 146.106 482.602 145.177 482.602 144.032V139.629C482.602 138.483 483.531 137.555 484.677 137.555H524.453C525.599 137.555 526.529 138.483 526.529 139.629V144.032C526.529 145.177 525.599 146.106 524.453 146.106Z" fill="#42ADB6"/>
<path d="M421.556 133.293H381.78C380.633 133.293 379.704 132.364 379.704 131.219V126.816C379.704 125.67 380.633 124.742 381.78 124.742H421.556C422.702 124.742 423.631 125.67 423.631 126.816V131.219C423.631 132.364 422.702 133.293 421.556 133.293Z" fill="#1E1E1E"/>
<path d="M430.399 133.293H428.16C427.014 133.293 426.085 132.364 426.085 131.219V126.816C426.085 125.67 427.014 124.742 428.16 124.742H430.399C431.545 124.742 432.474 125.67 432.474 126.816V131.219C432.474 132.364 431.545 133.293 430.399 133.293Z" fill="#42ADB6"/>
<path d="M477.143 133.293H437.367C436.22 133.293 435.291 132.364 435.291 131.219V126.816C435.291 125.67 436.22 124.742 437.367 124.742H477.143C478.289 124.742 479.218 125.67 479.218 126.816V131.219C479.218 132.364 478.289 133.293 477.143 133.293Z" fill="#42ADB6"/>
<path d="M425.532 111.22H381.78C380.633 111.22 379.704 110.292 379.704 109.146V104.743C379.704 103.598 380.633 102.669 381.78 102.669H425.532C426.678 102.669 427.608 103.598 427.608 104.743V109.146C427.608 110.292 426.678 111.22 425.532 111.22Z" fill="#1E1E1E"/>
<path d="M464.036 97.9993H393.891C392.745 97.9993 391.815 97.0706 391.815 95.9253V91.5224C391.815 90.3771 392.745 89.4483 393.891 89.4483H464.036C465.183 89.4483 466.112 90.3771 466.112 91.5224V95.9253C466.112 97.0706 465.183 97.9993 464.036 97.9993Z" fill="#42ADB6"/>
<path d="M508.325 98.086H472.345C471.199 98.086 470.27 97.1573 470.27 96.0119V91.6091C470.27 90.4638 471.199 89.535 472.345 89.535H508.325C509.471 89.535 510.4 90.4638 510.4 91.6091V96.0119C510.4 97.1573 509.471 98.086 508.325 98.086Z" fill="#42ADB6"/>
<path d="M454.456 84.7535H381.78C380.634 84.7535 379.704 83.8251 379.704 82.6794V78.2765C379.704 77.1312 380.634 76.2025 381.78 76.2025H454.456C455.602 76.2025 456.531 77.1312 456.531 78.2765V82.6794C456.531 83.8251 455.602 84.7535 454.456 84.7535Z" fill="#42ADB6"/>
<path d="M508.823 84.7792H462.041C460.895 84.7792 459.966 83.8508 459.966 82.7051V78.2508C459.966 77.1051 460.895 76.1767 462.041 76.1767H508.823C509.969 76.1767 510.898 77.1051 510.898 78.2508V82.7051C510.898 83.8508 509.969 84.7792 508.823 84.7792Z" fill="#42ADB6"/>
<path d="M421.556 71.5072H381.78C380.633 71.5072 379.704 70.5784 379.704 69.4331V65.0303C379.704 63.8845 380.633 62.9562 381.78 62.9562H421.556C422.702 62.9562 423.631 63.8845 423.631 65.0303V69.4331C423.631 70.5784 422.702 71.5072 421.556 71.5072Z" fill="#1E1E1E"/>
<path d="M430.399 71.5072H428.16C427.014 71.5072 426.085 70.5784 426.085 69.4331V65.0303C426.085 63.8845 427.014 62.9562 428.16 62.9562H430.399C431.545 62.9562 432.474 63.8845 432.474 65.0303V69.4331C432.474 70.5784 431.545 71.5072 430.399 71.5072Z" fill="#42ADB6"/>
<path d="M477.143 71.5072H437.367C436.22 71.5072 435.291 70.5784 435.291 69.4331V65.0303C435.291 63.8845 436.22 62.9562 437.367 62.9562H477.143C478.289 62.9562 479.218 63.8845 479.218 65.0303V69.4331C479.218 70.5784 478.289 71.5072 477.143 71.5072Z" fill="#42ADB6"/>
<path d="M399.333 212.488H392.031C391.912 212.488 391.815 211.559 391.815 210.414V206.011C391.815 204.866 391.912 203.937 392.031 203.937H399.333C399.452 203.937 399.549 204.866 399.549 206.011V210.414C399.549 211.559 399.452 212.488 399.333 212.488Z" fill="#42ADB6"/>
<path d="M454.456 199.242H381.78C380.634 199.242 379.704 198.314 379.704 197.168V192.765C379.704 191.62 380.634 190.691 381.78 190.691H454.456C455.602 190.691 456.531 191.62 456.531 192.765V197.168C456.531 198.314 455.602 199.242 454.456 199.242Z" fill="#42ADB6"/>
<path d="M508.823 199.268H462.041C460.895 199.268 459.966 198.34 459.966 197.194V192.74C459.966 191.594 460.895 190.666 462.041 190.666H508.823C509.969 190.666 510.898 191.594 510.898 192.74V197.194C510.898 198.34 509.969 199.268 508.823 199.268Z" fill="#42ADB6"/>
<path d="M421.556 185.996H381.78C380.633 185.996 379.704 185.067 379.704 183.922V179.519C379.704 178.373 380.633 177.445 381.78 177.445H421.556C422.702 177.445 423.631 178.373 423.631 179.519V183.922C423.631 185.067 422.702 185.996 421.556 185.996Z" fill="#1E1E1E"/>
<path d="M430.399 185.996H428.16C427.014 185.996 426.085 185.067 426.085 183.922V179.519C426.085 178.373 427.014 177.445 428.16 177.445H430.399C431.545 177.445 432.474 178.373 432.474 179.519V183.922C432.474 185.067 431.545 185.996 430.399 185.996Z" fill="#42ADB6"/>
<path d="M477.143 185.996H437.367C436.22 185.996 435.291 185.067 435.291 183.922V179.519C435.291 178.373 436.22 177.445 437.367 177.445H477.143C478.289 177.445 479.218 178.373 479.218 179.519V183.922C479.218 185.067 478.289 185.996 477.143 185.996Z" fill="#42ADB6"/>
<path d="M354.258 180.484H349.956C349.032 180.484 348.283 179.872 348.283 179.116V173.326C348.283 172.57 349.032 171.958 349.956 171.958H354.258C355.182 171.958 355.93 172.57 355.93 173.326V179.116C355.93 179.872 355.182 180.484 354.258 180.484Z" fill="#42ADB6"/>
<path d="M343.029 171.974H302.57H289.877H286.315C284.914 171.974 283.779 172.902 283.779 174.048V178.426C283.779 179.572 284.914 180.5 286.315 180.5H287.237H343.029C344.43 180.5 345.565 179.572 345.565 178.426V174.048C345.565 172.902 344.43 171.974 343.029 171.974Z" fill="#42ADB6"/>
<path d="M309.247 168.077H304.846C303.901 168.077 303.135 167.464 303.135 166.709V160.919C303.135 160.163 303.901 159.551 304.846 159.551H309.247C310.192 159.551 310.958 160.163 310.958 160.919V166.709C310.958 167.464 310.192 168.077 309.247 168.077Z" fill="#42ADB6"/>
<path d="M296.743 168.052H286.416C284.982 168.052 283.821 167.123 283.821 165.978V161.6C283.821 160.455 284.982 159.526 286.416 159.526H296.743C298.175 159.526 299.337 160.455 299.337 161.6V165.978C299.337 167.123 298.175 168.052 296.743 168.052Z" fill="#42ADB6"/>
<path d="M329.094 153.566H324.776C323.849 153.566 323.098 152.954 323.098 152.198V146.408C323.098 145.653 323.849 145.04 324.776 145.04H329.094C330.02 145.04 330.772 145.653 330.772 146.408V152.198C330.772 152.954 330.02 153.566 329.094 153.566Z" fill="#42ADB6"/>
<path d="M316.335 153.459H286.37C284.965 153.459 283.825 152.531 283.825 151.385V147.007C283.825 145.862 284.965 144.933 286.37 144.933H316.335C317.741 144.933 318.88 145.862 318.88 147.007V151.385C318.88 152.531 317.741 153.459 316.335 153.459Z" fill="#42ADB6"/>
<path d="M338.266 140.704H334.163C333.283 140.704 332.568 140.091 332.568 139.336V133.545C332.568 132.79 333.283 132.177 334.163 132.177H338.266C339.147 132.177 339.861 132.79 339.861 133.545V139.336C339.861 140.091 339.147 140.704 338.266 140.704Z" fill="#42ADB6"/>
<path d="M325.355 140.689H286.225C284.889 140.689 283.807 139.76 283.807 138.615V134.237C283.807 133.092 284.889 132.163 286.225 132.163H325.355C326.69 132.163 327.773 133.092 327.773 134.237V138.615C327.773 139.76 326.69 140.689 325.355 140.689Z" fill="#42ADB6"/>
<path d="M323.766 127.54H319.923C319.098 127.54 318.43 126.928 318.43 126.173V120.382C318.43 119.626 319.098 119.014 319.923 119.014H323.766C324.591 119.014 325.26 119.626 325.26 120.382V126.173C325.26 126.928 324.591 127.54 323.766 127.54Z" fill="#42ADB6"/>
<path d="M312.762 127.705H286.093C284.842 127.705 283.828 126.777 283.828 125.631V121.253C283.828 120.108 284.842 119.179 286.093 119.179H312.762C314.013 119.179 315.027 120.108 315.027 121.253V125.631C315.027 126.777 314.013 127.705 312.762 127.705Z" fill="#42ADB6"/>
<path d="M311.688 113.97H308.068C307.29 113.97 306.66 113.358 306.66 112.602V106.812C306.66 106.057 307.29 105.444 308.068 105.444H311.688C312.466 105.444 313.096 106.057 313.096 106.812V112.602C313.096 113.358 312.466 113.97 311.688 113.97Z" fill="#42ADB6"/>
<path d="M300.972 113.97H285.968C284.789 113.97 283.834 113.042 283.834 111.896V107.518C283.834 106.373 284.789 105.444 285.968 105.444H300.972C302.15 105.444 303.106 106.373 303.106 107.518V111.896C303.106 113.042 302.15 113.97 300.972 113.97Z" fill="#42ADB6"/>
<path d="M315.809 100.221H285.389C284.243 100.221 283.313 99.2922 283.313 98.1464V93.7685C283.313 92.6232 284.243 91.6944 285.389 91.6944H315.809C316.955 91.6944 317.884 92.6232 317.884 93.7685V98.1464C317.884 99.2922 316.955 100.221 315.809 100.221Z" fill="#42ADB6"/>
<path d="M645.335 376.689C645.335 376.689 665.688 386.778 663.858 397.173L620.938 397.02L621.684 376.787L645.335 376.689Z" fill="#1E1E1E"/>
<path d="M525.084 354.015C536.942 321.625 575.278 221.701 577.241 217.522C581.611 208.218 586.495 204.439 592.921 202.694C599.348 200.949 606.031 196.2 606.031 196.2C625.053 199.302 624.454 207.443 630.88 219.654C637.307 231.866 654.466 376.779 654.466 376.779L604.081 377.479L601.184 271.965L577.759 357.234" fill="#42ADB6"/>
<path d="M631.847 131.702C629.941 126.104 623.191 123.381 616.773 125.622C613.459 126.779 610.884 129.033 609.428 131.713L613.98 142.669L622.127 144.145C621.54 144.973 620.868 145.81 620.129 146.64C621.301 146.551 622.495 146.308 623.677 145.895C630.096 143.655 633.754 137.301 631.847 131.702Z" fill="#1E1E1E"/>
<path d="M642.126 143.952C643.614 148.32 640.76 153.279 635.752 155.027C630.743 156.775 625.477 154.651 623.989 150.282C622.501 145.914 625.355 140.955 630.364 139.207C635.372 137.459 640.639 139.583 642.126 143.952Z" fill="#1E1E1E"/>
<path d="M651.98 153.698C653.308 157.597 650.761 162.023 646.29 163.583C641.82 165.143 637.12 163.247 635.792 159.349C634.464 155.449 637.012 151.024 641.482 149.464C645.952 147.903 650.652 149.8 651.98 153.698Z" fill="#1E1E1E"/>
<path d="M657.816 165.926C658.914 169.149 656.808 172.809 653.112 174.099C649.415 175.39 645.528 173.822 644.43 170.598C643.332 167.374 645.278 163.553 648.974 162.263C652.671 160.973 656.718 162.702 657.816 165.926Z" fill="#1E1E1E"/>
<path d="M664.628 174.645C664.727 178.116 666.465 179.532 668.133 180.088C668.909 180.347 668.958 181.45 668.201 181.751C663.797 183.502 655.883 185.606 653.406 179.444C652.237 176.536 653.651 173.034 656.904 171.47C660.157 169.906 664.539 171.51 664.628 174.645Z" fill="#1E1E1E"/>
<path d="M630.354 139.367L624.045 145.856" stroke="#42ADB6" stroke-width="8" stroke-linecap="round" stroke-linejoin="round"/>
<path d="M641.894 149.431L636.221 154.565" stroke="#42ADB6" stroke-width="8" stroke-linecap="round" stroke-linejoin="round"/>
<path d="M648.885 162.468L646.915 163.808" stroke="#42ADB6" stroke-width="8" stroke-linecap="round" stroke-linejoin="round"/>
<path d="M656.161 171.644L654.264 173.089" stroke="#42ADB6" stroke-width="8" stroke-linecap="round" stroke-linejoin="round"/>
<path d="M667.857 190.355C656.955 172.614 639.925 149.724 631.588 146.949C631.379 146.873 631.164 146.802 630.94 146.74L621.537 144.941C616.254 151.834 605.574 159.005 596.296 156.886C581.608 153.532 587.674 140.454 588.182 139.547L592.861 140.568L592.311 139.352L588.73 138.667C587.112 138.272 585.272 138.106 583.206 138.22C579.925 138.402 577.043 140.503 575.852 143.563C572.579 151.977 570.47 161.704 570.576 166.865C571.168 173.89 574.811 182.053 583.802 191.166C588.379 196.853 606.528 199.244 606.528 199.244C611.874 200.762 622.892 192.223 625.801 187.375C626.744 185.802 627.745 183.998 628.742 182.046C633.711 188.612 640.056 196.676 645.33 203.309C654.439 195.068 662.241 194.168 673.284 201.185C671.969 198.832 669.5 193.029 667.857 190.355Z" fill="#1E1E1E"/>
<path d="M610.403 123.392C610.403 123.392 618.394 127.741 620.974 119.449C622.93 113.159 617.191 111.251 614.161 110.663" fill="white"/>
<path d="M610.403 123.392C610.403 123.392 618.394 127.741 620.974 119.449C622.93 113.159 617.191 111.251 614.161 110.663" stroke="#1E1E1E" stroke-width="6" stroke-linecap="round" stroke-linejoin="round"/>
<path d="M590.002 134.233L592.861 140.569L588.182 139.547C587.674 140.455 581.608 153.533 596.296 156.887C605.933 159.087 617.084 151.267 622.127 144.145L613.98 142.669L607.508 127.059" fill="white"/>
<path d="M590.002 134.233L592.861 140.569L588.182 139.547C587.674 140.455 581.608 153.533 596.296 156.887C605.933 159.087 617.084 151.267 622.127 144.145L613.98 142.669L607.508 127.059" stroke="#1E1E1E" stroke-width="6" stroke-linecap="round" stroke-linejoin="round"/>
<path d="M579.395 106.729C578.273 110.533 575.072 128.585 586.655 133.062C598.238 137.539 609.104 128.552 613.226 117.437C617.349 106.323 614.766 95.4593 607.495 92.4514C600.225 89.4436 587.511 79.1931 579.395 106.729Z" fill="white"/>
<path d="M579.395 106.729C578.273 110.533 575.072 128.585 586.655 133.062C598.238 137.539 609.104 128.552 613.226 117.437C617.349 106.323 614.766 95.4593 607.495 92.4514C600.225 89.4436 587.511 79.1931 579.395 106.729Z" stroke="#1E1E1E" stroke-width="6" stroke-linecap="round" stroke-linejoin="round"/>
<path d="M591.23 121.386C588.88 121.795 587.062 121.148 586.089 120.654C585.644 120.428 585.121 120.705 585.036 121.207C584.794 122.634 584.86 125.119 587.982 125.87C591.244 126.654 591.936 123.793 592.072 122.196C592.113 121.71 591.698 121.305 591.23 121.386Z" fill="#1E1E1E"/>
<path d="M589.222 116.249L585.634 115.309L591.704 101.431" stroke="#1E1E1E" stroke-width="6" stroke-linecap="round" stroke-linejoin="round"/>
<path d="M599.637 105.803C599.637 105.803 597.841 102.388 595.066 103.649" stroke="#1E1E1E" stroke-width="6" stroke-linecap="round" stroke-linejoin="round"/>
<path d="M605.951 111.5C604.91 117.226 600.634 121.211 596.403 120.4C592.171 119.589 589.584 114.289 590.626 108.563C591.668 102.837 595.943 98.8524 600.175 99.6634C604.407 100.475 606.993 105.774 605.951 111.5Z" stroke="#42ADB6" stroke-width="4.5" stroke-linecap="round" stroke-linejoin="round"/>
<path d="M585.724 107.612C584.682 113.339 580.407 117.323 576.175 116.512C571.943 115.701 569.357 110.402 570.399 104.675C571.44 98.9495 575.715 94.9648 579.947 95.7762C584.179 96.5871 586.766 101.886 585.724 107.612Z" stroke="#42ADB6" stroke-width="4.5" stroke-linecap="round" stroke-linejoin="round"/>
<path d="M586.185 104.883L590.976 105.79" stroke="#42ADB6" stroke-width="4.5" stroke-linecap="round" stroke-linejoin="round"/>
<path d="M606.287 107.713L617.128 111.367" stroke="#42ADB6" stroke-width="4.5" stroke-linecap="round" stroke-linejoin="round"/>
<path d="M627.407 104.842C626.555 99.0843 617.982 89.5394 610.137 89.6162C599.992 79.3171 584.837 69.0185 575.998 87.1128C575.065 89.0217 576.135 91.3256 578.159 91.8193L606.98 99.2963C607.781 103.633 609.991 110.539 616.06 113.296C617.813 114.093 618.991 113.989 619.751 113.303C621.111 114.653 621.856 116.611 620.973 119.449C618.556 127.219 611.193 123.788 610.275 123.326C608.762 125.666 608.545 126.414 606.487 128.138C612.751 131.565 617.979 134.549 622.107 129.102C627.486 122.003 628.596 112.881 627.407 104.842Z" fill="#1E1E1E"/>
<path d="M617.917 233.059L618.071 233.148C618.071 233.148 659.451 219.413 671.58 208.17C677.406 202.769 665.275 186.379 641.826 206.143C639.24 208.323 636.69 210.209 634.2 211.84" fill="white"/>
<path d="M617.917 233.059L618.071 233.148C618.071 233.148 659.451 219.413 671.58 208.17C677.406 202.769 665.275 186.379 641.826 206.143C639.24 208.323 636.69 210.209 634.2 211.84" stroke="#1E1E1E" stroke-width="6" stroke-linecap="round" stroke-linejoin="round"/>
<path d="M604.298 205.799L598.902 206.262L591.998 210.821L591.529 213.672L593.342 218.236L598.11 227.417L603.504 231.983L610.819 233.699C610.819 233.699 619.433 232.356 619.589 232.356C619.744 232.356 623.224 227.692 623.224 227.692L617.412 227.896L612.536 225.041L611.918 217.833L606.527 210.881L604.298 205.799Z" fill="white"/>
<path d="M649.997 219.156L640.194 219.423L631.807 180.009C631.62 179.132 630.913 178.52 630.1 178.532L568.092 179.475C566.96 179.492 566.124 180.68 566.384 181.9L574.253 223.938C574.801 226.538 578.089 228.558 580.435 228.519C584.576 228.452 590.97 228.338 598.12 228.207C597.342 227.234 596.651 226.175 596.047 225.047C592.936 219.235 589.3 211.449 591.746 210.252C592.863 210.022 594.079 211.721 595.098 213.717C594.163 210.959 593.577 208.179 594.883 207.893C596.173 207.638 597.434 209.272 598.743 212.203C598.116 210.377 597.619 208.739 597.638 208.187C597.752 204.894 600.018 204.019 602.7 211.146L601.802 208.096C601.226 204.799 604.241 205.257 605.908 208.257C606.962 210.154 609.048 214.709 610.822 218.846C611.714 217.29 613.723 214.346 615.58 215.577C617.483 216.839 614.64 222.256 613.214 224.709C613.369 225.125 613.502 225.497 613.607 225.809L616.648 227.866C630.284 227.611 642.27 227.384 643.172 227.37C651.406 227.245 649.997 219.156 649.997 219.156Z" fill="#E5ECFF"/>
<path d="M622.229 231.638C608.399 237.457 600.218 232.838 596.047 225.046C592.936 219.235 589.3 211.448 591.746 210.252C594.32 209.723 597.417 219.419 597.417 219.419C597.417 219.419 592.22 208.476 594.883 207.893C596.947 207.486 598.937 211.915 601.171 218.758C601.171 218.758 597.587 209.652 597.638 208.187C597.781 204.034 601.349 203.713 604.856 218.462L601.802 208.096C601.226 204.798 604.241 205.257 605.908 208.257C606.936 210.108 608.948 214.491 610.692 218.545" stroke="#1E1E1E" stroke-width="6" stroke-linecap="round" stroke-linejoin="round"/>
<path d="M610.875 218.93C610.875 218.93 613.101 213.933 615.58 215.577C618.059 217.221 612.477 225.928 612.477 225.928" fill="white"/>
<path d="M610.875 218.93C610.875 218.93 613.101 213.933 615.58 215.577C618.059 217.221 612.477 225.928 612.477 225.928" stroke="#1E1E1E" stroke-width="6" stroke-linecap="round" stroke-linejoin="round"/>
<path d="M582.585 155.66C585.422 150.378 592.821 135.446 578.287 139.075C577.115 139.382 575.893 139.763 574.614 140.233C565.832 143.466 550.005 149.376 538.86 153.544C538.947 153.633 539.036 153.723 539.109 153.797C543.219 158 552.195 169.653 545.838 174.862C544.096 176.29 542.434 177.25 540.773 177.663L541.46 178.582C541.46 178.582 546.207 176.019 561.587 170.487C563.889 169.659 566.36 168.846 568.892 168.02C576.378 163.933 580.305 159.904 582.585 155.66Z" fill="#1E1E1E"/>
<path d="M502.452 121.267C499.096 121.356 495.148 121.448 495.148 121.448C495.148 121.448 487.23 123.101 486.007 123.315C484.784 123.53 478.686 126.695 478.949 127.377C479.591 129.047 484.724 127.897 487.342 126.778C489.96 125.658 495.846 126.7 495.846 126.7C495.846 126.7 497.554 131.6 496.471 131.625C495.388 131.651 489.451 131.258 488.584 133.101C487.716 134.945 488.129 136.344 490.414 136.042C492.698 135.739 495.935 137.211 495.935 137.211C495.935 137.211 504.209 135.67 506.235 134.616C508.261 133.563 517.019 153.259 525.348 166.126C533.678 178.993 539.095 180.254 545.749 174.961C552.181 169.843 543.374 158.061 539.325 153.801C536.111 150.417 518.056 132.184 510.457 124.515C508.322 122.361 505.429 121.188 502.452 121.267Z" fill="white"/>
<path d="M502.452 121.267C499.096 121.356 495.148 121.448 495.148 121.448C495.148 121.448 487.23 123.101 486.007 123.315C484.784 123.53 478.686 126.695 478.949 127.377C479.591 129.047 484.724 127.897 487.342 126.778C489.96 125.658 495.846 126.7 495.846 126.7C495.846 126.7 497.554 131.6 496.471 131.625C495.388 131.651 489.451 131.258 488.584 133.101C487.716 134.945 488.129 136.344 490.414 136.042C492.698 135.739 495.935 137.211 495.935 137.211C495.935 137.211 504.209 135.67 506.235 134.616C508.261 133.563 517.019 153.259 525.348 166.126C533.678 178.993 539.095 180.254 545.749 174.961C552.181 169.843 543.374 158.061 539.325 153.801C536.111 150.417 518.056 132.184 510.457 124.515C508.322 122.361 505.429 121.188 502.452 121.267Z" stroke="#1E1E1E" stroke-width="6" stroke-linecap="round" stroke-linejoin="round"/>
<path d="M583.848 107.547C583.623 108.599 582.903 109.33 582.241 109.181C581.578 109.032 581.223 108.059 581.448 107.007C581.673 105.955 582.392 105.224 583.055 105.373C583.717 105.522 584.073 106.495 583.848 107.547Z" fill="#1E1E1E"/>
<path d="M595.678 109.801C595.453 110.853 594.733 111.584 594.071 111.435C593.408 111.286 593.054 110.313 593.279 109.261C593.503 108.209 594.222 107.478 594.885 107.627C595.547 107.776 595.903 108.75 595.678 109.801Z" fill="#1E1E1E"/>
<path d="M590.074 97.8971C590.074 97.8971 587.835 94.7711 585.257 96.4138" stroke="#1E1E1E" stroke-width="6" stroke-linecap="round" stroke-linejoin="round"/>
<path d="M340.38 271.455L338.548 280.476C340.184 287.903 331.731 293.385 325.61 288.867L314.737 280.839L320.232 268.871" fill="white"/>
<path d="M340.38 271.455L338.548 280.476C340.184 287.903 331.731 293.385 325.61 288.867L314.737 280.839L320.232 268.871" stroke="#1E1E1E" stroke-width="6" stroke-linecap="round" stroke-linejoin="round"/>
<path d="M343.124 270.211C340.362 271.809 337.08 272.535 334.462 272.332C329.226 271.926 327.87 271.046 325.337 268.762C322.805 266.479 315.612 256.459 315.612 256.459L315.588 256.433C315.588 256.433 305.609 242.216 319.892 231.905C321.222 230.945 330.449 224.561 336.324 231.925C340.248 236.844 343.422 242.719 345.559 247.44C345.569 247.461 352.553 263.874 343.124 270.211Z" fill="white"/>
<path d="M343.124 270.211C340.362 271.809 337.08 272.535 334.462 272.332C329.226 271.926 327.87 271.046 325.337 268.762C322.805 266.479 315.612 256.459 315.612 256.459L315.588 256.433C315.588 256.433 305.609 242.216 319.892 231.905C321.222 230.945 330.449 224.561 336.324 231.925C340.248 236.844 343.422 242.719 345.559 247.44C345.569 247.461 352.553 263.874 343.124 270.211Z" stroke="#1E1E1E" stroke-width="6" stroke-linecap="round" stroke-linejoin="round"/>
<path d="M337.452 246.618L342.484 252.956L339.779 254.751" stroke="#1E1E1E" stroke-width="6" stroke-linecap="round" stroke-linejoin="round"/>
<path d="M327.089 247.061C327.089 247.061 327.365 244.805 329.746 243.968" stroke="#1E1E1E" stroke-width="6" stroke-linecap="round" stroke-linejoin="round"/>
<path d="M335.766 238.989C335.766 238.989 337.873 236.449 339.862 237.496" stroke="#1E1E1E" stroke-width="6" stroke-linecap="round" stroke-linejoin="round"/>
<path d="M320.001 239.439C320.001 239.439 337.405 258.688 323.635 268.311C323.635 268.311 317.588 272.252 314.099 270.159C314.099 270.159 318.118 266.506 315.56 263.306C315.56 263.306 311.6 274.25 302.712 271.71C302.712 271.71 311.016 264.838 307.269 258.435C303.521 252.032 315.071 235.19 320.001 239.439Z" fill="#1E1E1E"/>
<path d="M338.369 259.164L341.99 258.031Z" fill="white"/>
<path d="M338.369 259.164L341.99 258.031" stroke="#1E1E1E" stroke-width="6" stroke-linecap="round" stroke-linejoin="round"/>
<path d="M356.457 237.065C356.457 237.065 347.414 240.173 344.294 234.38C342.984 231.946 339.03 230.704 334.955 230.504C335.427 230.909 335.886 231.374 336.325 231.924C340.249 236.843 343.424 242.718 345.56 247.439C345.564 247.448 346.011 248.399 346.573 249.9C348.175 248.749 350.006 246.991 350.021 244.964C350.021 244.964 345.397 246.317 344.155 242.904C344.155 242.904 354.275 244.964 356.457 237.065Z" fill="#1E1E1E"/>
<path d="M337.631 231.048C337.631 231.048 324.72 215.219 309.534 229.901C300.793 238.352 302.077 247.1 304.739 253.004L297.534 261.145C295.973 262.91 296.138 265.605 297.904 267.165C298.756 267.919 299.825 268.27 300.879 268.233C302.008 268.194 303.12 267.709 303.927 266.797L337.631 231.048Z" fill="#42ADB6"/>
<path d="M356.243 263.353L347.751 264.344L334.457 269.266L333.264 271.986L336.914 272.85L342.367 270.36L340.447 273.094L341.756 276.389L344.815 278.924L351.563 279.003L357.631 276.086L363.359 282.513L372.846 273.929L359.585 264.43L356.243 263.353Z" fill="white"/>
<path d="M350.786 276.663C353.766 276.588 357.182 277.335 358.708 276.214C358.708 276.214 361.437 280.007 366.493 285.127" stroke="#1E1E1E" stroke-width="6" stroke-linecap="round" stroke-linejoin="round"/>
<path d="M376.706 275.229C372.569 273.03 369.015 270.839 366.786 268.863C364.884 267.325 363.319 266.132 362.033 265.207C358.973 263.004 355.14 262.167 351.441 262.897C348.605 263.456 345.33 264.213 343.832 264.962C340.91 266.422 331.308 271.037 332.08 272.55C332.629 273.624 338.013 272.289 340.761 271.501" stroke="#1E1E1E" stroke-width="6" stroke-linecap="round" stroke-linejoin="round"/>
<path d="M344.319 267.902C344.319 267.902 339.134 271.74 339.927 274.258C340.72 276.776 342.677 275.811 342.677 275.811" stroke="#1E1E1E" stroke-width="6" stroke-linecap="round" stroke-linejoin="round"/>
<path d="M347.099 269.57C347.099 269.57 341.964 274.215 342.942 276.668C343.92 279.12 345.8 278.013 345.8 278.013" stroke="#1E1E1E" stroke-width="6" stroke-linecap="round" stroke-linejoin="round"/>
<path d="M349.397 272.634C349.397 272.634 343.311 278.323 347.44 279.247C351.569 280.172 352.768 279.111 352.768 279.111C352.768 279.111 353.983 276.775 349.773 276.668" stroke="#1E1E1E" stroke-width="6" stroke-linecap="round" stroke-linejoin="round"/>
<path d="M405.619 299.05C404.909 297.804 404.024 296.54 402.946 295.272C397.702 289.539 376.306 267.985 376.306 267.985L361.266 283.238C364.008 286.382 366.943 289.35 370.059 292.123C379.145 300.207 393.442 311.385 401.255 313.182C404.591 313.95 407.918 311.685 408.317 308.287C408.79 304.27 406.554 300.715 405.619 299.05Z" fill="#1E1E1E"/>
<path d="M252.894 395.07H243.569C242.651 395.141 237.853 394.951 241.964 392.361C242.804 392.005 249.684 387.586 252.435 387.087C255.187 386.588 265.658 386.588 265.888 386.588C266.117 386.588 269.748 376.222 269.824 375.651L284.679 376.319C283.886 378.299 279.259 392.935 275.825 394.256C272.391 395.576 252.869 394.882 252.869 394.882C252.869 394.882 253.217 391.976 257.047 391.581C260.878 391.185 262.529 391.185 262.529 391.185" fill="white"/>
<path d="M252.894 395.07H243.569C242.651 395.141 237.853 394.951 241.964 392.361C242.804 392.005 249.684 387.586 252.435 387.087C255.187 386.588 265.658 386.588 265.888 386.588C266.117 386.588 269.748 376.222 269.824 375.651L284.679 376.319C283.886 378.299 279.259 392.935 275.825 394.256C272.391 395.576 252.869 394.882 252.869 394.882C252.869 394.882 253.217 391.976 257.047 391.581C260.878 391.185 262.529 391.185 262.529 391.185" stroke="#1E1E1E" stroke-width="6" stroke-linecap="round" stroke-linejoin="round"/>
<path d="M338.982 279.379L338.517 281.316C338.517 288.763 329.911 292.915 324.076 288.284L314.707 280.85L315.572 279.126C306.128 278.715 297.709 280.559 295.061 287.556C290.099 296.772 267.798 379.031 267.798 379.031L296.51 379.792L299.411 368.395C300.141 375.802 300.985 382.524 301.973 387.774C303.322 394.952 318.053 396.602 325.362 396.51L344.284 396.272L372.503 362.499L358.139 315.305C366.778 316.938 407.672 318.239 407.679 309.39C407.688 298.968 362.329 282.185 338.982 279.379Z" fill="#1E1E1E"/>
<path d="M343.969 367.255C358.521 351.802 397.643 308.549 403.703 301.732C413.61 290.588 431.476 291.841 439.656 300.308L491.483 364.622" fill="#42ADB6"/>
<path d="M343.969 367.255C358.521 351.802 397.643 308.549 403.703 301.732C413.61 290.588 431.476 291.841 439.656 300.308L491.483 364.622" stroke="#1E1E1E" stroke-width="6" stroke-linecap="round" stroke-linejoin="round"/>
<path d="M345.777 363.667L418.599 353.356C421.728 353.077 424.877 353.092 428.004 353.401L497.59 362.021L497.41 395.795L325.35 395.932L345.777 363.667Z" fill="#42ADB6"/>
<path d="M345.777 363.667L418.599 353.356C421.728 353.077 424.877 353.092 428.004 353.401L497.59 362.021L497.41 395.795L325.35 395.932L345.777 363.667Z" stroke="#1E1E1E" stroke-width="6" stroke-linecap="round" stroke-linejoin="round"/>
<path d="M420.895 295.951C419.393 295.644 417.926 296.612 417.618 298.113L407.665 349.076L356.98 355.922L357.132 357.038C357.425 359.206 359.42 360.725 361.589 360.432L409.855 353.913C412.024 353.62 413.544 351.625 413.251 349.458L413.25 349.447L423.059 299.225C423.366 297.723 422.397 296.258 420.895 295.951Z" fill="#E5ECFF"/>
<path d="M335.159 248.623C335.418 249.323 335.261 250.027 334.808 250.194C334.355 250.362 333.777 249.93 333.518 249.23C333.258 248.53 333.415 247.826 333.868 247.659C334.322 247.491 334.899 247.922 335.159 248.623Z" fill="#1E1E1E"/>
<path d="M340.782 243.108C341.167 243.748 341.145 244.469 340.731 244.718C340.317 244.967 339.669 244.651 339.283 244.011C338.897 243.372 338.92 242.651 339.334 242.402C339.747 242.152 340.395 242.469 340.782 243.108Z" fill="#1E1E1E"/>
<path d="M304.374 168.622L300.223 169.244L296.384 172.874L291.611 176.192L286.63 179.407L281.338 187.496L291.404 190.815L297.215 184.385L304.894 181.69L311.95 172.356L309.044 168.518L304.374 168.622Z" fill="white"/>
<path d="M295.242 186.036C295.242 186.036 302.939 183.669 307.201 179.302C309.744 176.697 313.001 173.186 312.903 172.084C312.718 170.02 308.48 173.351 307.79 173.815" fill="white"/>
<path d="M295.242 186.036C295.242 186.036 302.939 183.669 307.201 179.302C309.744 176.697 313.001 173.186 312.903 172.084C312.718 170.02 308.48 173.351 307.79 173.815" stroke="#1E1E1E" stroke-width="6" stroke-linecap="round" stroke-linejoin="round"/>
<path d="M292.658 188.79L293.287 187.081C297.414 185.199 300.185 183.248 301.944 181.554C304.223 179.36 310.521 170.347 310.431 169.414C310.194 166.928 306.166 168.117 304.228 172.718" stroke="#1E1E1E" stroke-width="6" stroke-linecap="round" stroke-linejoin="round"/>
<path d="M299.221 179.028C299.221 179.028 302.79 175.714 304.013 173.022C305.237 170.33 306.023 168.265 305.561 167.923C305.099 167.582 302.752 168.3 301.846 169.902C300.884 172.598 296.698 176.343 296.698 176.343C297.212 176.117 299.761 173.092 300.904 171.226C302.038 169.378 302.009 166.522 298.369 169.826C298.369 169.826 294.532 173.491 293.039 174.597C293.039 174.597 286.208 177.437 284.583 180.443C284.225 181.104 283.065 183.206 281.425 186.091" stroke="#1E1E1E" stroke-width="6" stroke-linecap="round" stroke-linejoin="round"/>
<path d="M268.414 204.545L277.852 185.868L293.854 189.067L278.68 230.066L268.414 204.545Z" fill="#42ADB6"/>
<path d="M198.76 377.23L198.718 288.658C198.718 288.658 166.469 288.805 166.365 288.658C166.341 288.634 166.317 288.609 166.293 288.585H131.34V395.334H226.411V377.23H198.76Z" fill="white"/>
<path d="M198.76 377.23L198.718 288.658C198.718 288.658 166.469 288.805 166.365 288.658C166.341 288.634 166.317 288.609 166.293 288.585H131.34V395.334H226.411V377.23H198.76Z" stroke="#1E1E1E" stroke-width="6" stroke-linecap="round" stroke-linejoin="round"/>
<path d="M253.323 394.897L252.893 395.07H243.568C242.651 395.141 237.852 394.951 241.963 392.361C242.804 392.005 249.683 387.586 252.435 387.087C255.186 386.588 265.658 386.588 265.887 386.588C266.012 386.588 267.143 383.52 268.162 380.63C266.275 380.232 264.072 378.665 262.127 376.947C262.285 377.282 204.492 376.067 204.492 376.067L205.008 396.146H213.557L214.065 378.283C214.065 378.283 217.532 395.757 229.478 396.534C233.252 396.78 247.704 395.901 259.138 395.03C256.437 394.99 254.235 394.926 253.323 394.897Z" fill="#1E1E1E"/>
<path d="M194.844 183.613L185.86 183.661C181.16 183.658 174.762 188.662 174.06 194.086C172.772 204.041 168.913 217.758 166.253 229.21C160.032 248.279 153.732 276.757 166.366 288.658C166.47 288.805 198.718 288.658 198.718 288.658L198.76 377.23H263.072C263.072 377.23 275.794 287.076 272.741 280.08C269.688 273.083 232.412 252.414 232.412 252.414C232.412 252.414 248.99 209.771 239.675 196.747C235.033 190.475 228.773 188.382 223.831 187.391" fill="#42ADB6"/>
<path d="M219.213 186.182L219.261 186.386L224.84 187.612C225.155 188.517 225.496 204.222 211.138 202.268C201.717 200.986 197.652 191.214 195.129 183.508L203.681 184.498L203.704 174.003" fill="white"/>
<path d="M219.213 186.182L219.261 186.386L224.84 187.612C225.155 188.517 225.496 204.222 211.138 202.268C201.717 200.986 197.652 191.214 195.129 183.508L203.681 184.498L203.704 174.003" stroke="#1E1E1E" stroke-width="6" stroke-linecap="round" stroke-linejoin="round"/>
<path d="M227.548 225.199L192.861 225.119L194.792 210.16" stroke="white" stroke-width="6" stroke-linecap="round" stroke-linejoin="round"/>
<path d="M165.874 230.78C164.329 236.846 169.378 244.142 175.64 244.274L225.988 244.249" stroke="white" stroke-width="6" stroke-linecap="round" stroke-linejoin="round"/>
<path d="M193.183 225.173C193.183 225.173 187.979 222.867 184.223 228.443" stroke="white" stroke-width="6" stroke-linecap="round" stroke-linejoin="round"/>
<path d="M193.076 223.403C193.076 223.403 188.247 219.06 182.185 224.046" stroke="white" stroke-width="6" stroke-linecap="round" stroke-linejoin="round"/>
<path d="M185.795 238.489L211.254 238.755L219.642 199.342C219.829 198.464 220.535 197.853 221.349 197.865L283.357 198.808C284.489 198.826 285.325 200.012 285.065 201.233L277.195 243.27C276.647 245.87 273.36 247.89 271.013 247.852C255.778 247.603 194.415 246.73 192.62 246.703C184.385 246.578 185.795 238.489 185.795 238.489Z" fill="#E5ECFF"/>
<path d="M151.79 394.1V246.873H292.789V394.1" stroke="#1E1E1E" stroke-width="6" stroke-linecap="round" stroke-linejoin="round"/>
<path d="M205.685 142.779C211.594 140.577 220.239 122.643 210.646 106.206C200.935 89.5666 186.033 99.4589 182.566 102.197C179.098 104.936 174.513 113.879 183.518 126.15C192.524 138.422 198.934 145.294 205.685 142.779Z" fill="#1E1E1E"/>
<path d="M210.373 153.157L210.014 153.266C207.87 153.917 205.512 152.702 204.749 150.553L202.617 144.551C201.854 142.402 202.974 140.132 205.118 139.481L205.478 139.372C207.622 138.722 209.979 139.936 210.742 142.086L212.874 148.088C213.637 150.237 212.518 152.506 210.373 153.157Z" fill="#42ADB6"/>
<path d="M200.32 180.896C198.145 180.785 196.455 177.898 196.53 174.391C196.571 172.49 197.123 170.792 197.967 169.634" stroke="#42ADB6" stroke-width="6" stroke-linecap="round" stroke-linejoin="round"/>
<path d="M234.051 184.585C232.384 184.499 231.001 182.783 230.48 180.407" stroke="#42ADB6" stroke-width="6" stroke-linecap="round" stroke-linejoin="round"/>
<path d="M203.513 170.178C202.105 170.727 200.415 170.557 199.046 169.581C196.938 168.079 196.388 165.235 197.818 163.23C198.979 161.602 201.09 161.027 202.971 161.673" fill="white"/>
<path d="M203.513 170.178C202.105 170.727 200.415 170.557 199.046 169.581C196.938 168.079 196.388 165.235 197.818 163.23C198.979 161.602 201.09 161.027 202.971 161.673" stroke="#1E1E1E" stroke-width="6" stroke-linecap="round" stroke-linejoin="round"/>
<path d="M232.805 165.556C233.947 165.41 235.167 165.687 236.202 166.425C238.311 167.928 238.861 170.771 237.431 172.776C236.193 174.512 233.877 175.05 231.909 174.189" fill="white"/>
<path d="M232.805 165.556C233.947 165.41 235.167 165.687 236.202 166.425C238.311 167.928 238.861 170.771 237.431 172.776C236.193 174.512 233.877 175.05 231.909 174.189" stroke="#1E1E1E" stroke-width="6" stroke-linecap="round" stroke-linejoin="round"/>
<path d="M232.746 168.647C232.104 179.122 224.972 186.918 216.817 186.06C208.661 185.201 202.569 176.014 203.211 165.538C203.853 155.063 210.985 147.267 219.141 148.125C227.296 148.984 233.387 158.171 232.746 168.647Z" fill="white"/>
<path d="M232.746 168.647C232.104 179.122 224.972 186.918 216.817 186.06C208.661 185.201 202.569 176.014 203.211 165.538C203.853 155.063 210.985 147.267 219.141 148.125C227.296 148.984 233.387 158.171 232.746 168.647Z" stroke="#1E1E1E" stroke-width="6" stroke-linecap="round" stroke-linejoin="round"/>
<path d="M218.515 171.773L221.31 172.17C221.599 172.211 221.85 171.973 221.826 171.683L221.161 163.76" stroke="#1E1E1E" stroke-width="6" stroke-linecap="round" stroke-linejoin="round"/>
<path d="M212.903 158.504C212.903 158.504 215.753 156.732 217.483 158.933" stroke="#1E1E1E" stroke-width="6" stroke-linecap="round" stroke-linejoin="round"/>
<path d="M224.256 159.786C224.256 159.786 227.61 159.162 228.455 161.789" stroke="#1E1E1E" stroke-width="6" stroke-linecap="round" stroke-linejoin="round"/>
<path d="M214.888 165.131C214.672 166.036 214.985 166.904 215.587 167.069C216.189 167.235 216.853 166.635 217.069 165.73C217.285 164.825 216.973 163.958 216.371 163.792C215.768 163.627 215.105 164.226 214.888 165.131Z" fill="#1E1E1E"/>
<path d="M225.17 167.456C225.045 168.381 225.441 169.219 226.053 169.327C226.666 169.435 227.265 168.772 227.39 167.847C227.515 166.921 227.12 166.084 226.507 165.976C225.894 165.868 225.295 166.53 225.17 167.456Z" fill="#1E1E1E"/>
<path d="M218.086 177.347C218.086 177.347 211.05 180.163 212.234 171.566L218.086 177.347Z" stroke="#1E1E1E" stroke-width="6" stroke-linecap="round" stroke-linejoin="round"/>
<path d="M216.732 143.38L216.691 143.417C211.825 143.274 206.139 144.517 202.629 147.168C196.408 151.866 196.679 164.356 201.861 166.117C202.282 166.259 202.722 166.375 203.169 166.476C203.176 166.166 203.188 165.854 203.207 165.54C203.277 164.397 203.429 163.288 203.647 162.215C211.383 160.782 213.291 149.904 213.438 148.992C214.76 150.49 216.408 152.946 215.48 155.153L231.359 158.994C232.435 161.908 232.955 165.208 232.745 168.649C232.742 168.694 232.737 168.737 232.734 168.78C234.617 166.895 235.275 163.559 234.641 159.787L240.008 161.086C240.008 161.086 248.212 143.629 216.732 143.38Z" fill="#1E1E1E"/>
<path d="M200.674 168.053C202.885 168.1 204.615 171.013 204.539 174.561C204.463 178.109 202.609 180.946 200.397 180.9C200.371 180.899 200.345 180.898 200.32 180.897" stroke="#42ADB6" stroke-width="6" stroke-linecap="round" stroke-linejoin="round"/>
<path d="M235.122 171.6C237.334 171.647 238.63 174.823 238.554 178.37C238.477 181.918 236.622 184.756 234.411 184.709C234.386 184.709 234.36 184.708 234.335 184.706" stroke="#42ADB6" stroke-width="6" stroke-linecap="round" stroke-linejoin="round"/>
<path d="M488.23 253.502C471.964 258.205 468.36 264.821 470.35 271.301C463.826 275.237 450.558 284.582 438.614 303.181C422.049 328.976 475.488 369.751 484.905 369.751C494.322 369.751 558.906 343.061 558.906 343.061L562.827 331.183C568.436 314.103 566.133 295.338 552.881 283.246C552.778 283.152 553.068 283.223 552.964 283.13C545.812 276.678 537.714 269.334 531.057 266.166C530.133 261.333 527.53 256.173 520.649 253.294" fill="#42ADB6"/>
<path d="M529.617 265.536C530.342 269.272 530.06 272.821 529.968 274.98C529.581 284.001 526.206 288.873 525.188 292.236C531.739 288.312 537.793 279.281 540.744 273.373C538.86 271.593 532.887 267.141 529.617 265.536Z" fill="#1E1E1E"/>
<path d="M493.807 292.926C490.567 291.428 474.093 280.747 471.314 270.35C467.983 272.143 462.788 275.284 459.562 279.15C463.294 281.422 484.325 293.984 493.621 293.31C493.751 293.3 493.869 293.286 493.994 293.275C493.925 293.137 493.862 293.019 493.807 292.926Z" fill="#1E1E1E"/>
<path d="M519.117 293.021C522.663 282.646 519.97 271.106 517.484 267.715C514.833 278.103 508.829 284.479 508.829 284.479C498.762 272.971 488.248 266.44 488.248 266.44L488.549 266.092C488.101 266.11 487.852 266.121 487.852 266.121L484.088 270.012C484.088 270.012 502.01 283.709 507.842 316.715C511.631 338.159 513.579 358.299 513.579 358.299L524.693 357.702C524.693 357.702 515.26 304.307 519.117 293.021Z" fill="white"/>
<path d="M491.955 259.697L491.803 262.335L488.248 266.44C488.248 266.44 498.761 272.971 508.829 284.479C508.829 284.479 516.683 276.148 518.393 263.009" fill="white"/>
<path d="M491.955 259.697L491.803 262.335L488.248 266.44C488.248 266.44 498.761 272.971 508.829 284.479C508.829 284.479 516.683 276.148 518.393 263.009" stroke="#1E1E1E" stroke-width="5.99998" stroke-linecap="round" stroke-linejoin="round"/>
<path d="M495.812 290.456C495.812 290.456 500.807 302.096 501.601 310.315" stroke="#1E1E1E" stroke-width="5.99998" stroke-linecap="round" stroke-linejoin="round"/>
<path d="M522.635 290.986C522.635 290.986 523.521 301.137 524.394 309.348" stroke="#1E1E1E" stroke-width="5.99998" stroke-linecap="round" stroke-linejoin="round"/>
<path d="M461.412 315.213C461.412 315.213 467.717 310.417 475.235 317.354L484.108 312.006" stroke="#1E1E1E" stroke-width="5.99998" stroke-linecap="round" stroke-linejoin="round"/>
<path d="M492.364 331.942C491.53 331.305 474.62 316.837 474.62 316.837" stroke="#1E1E1E" stroke-width="5.99998" stroke-linecap="round" stroke-linejoin="round"/>
<path d="M542.558 314.248L538.976 305.563" stroke="#1E1E1E" stroke-width="5.99998" stroke-linecap="round" stroke-linejoin="round"/>
<path d="M494.04 360.139C494.04 360.139 474.818 352.111 451.05 335.556C427.281 319.001 412.156 344.635 418.534 355.093C424.177 364.346 455.812 396.11 455.812 396.11L563.528 395.233C563.528 395.233 588.841 363.227 592.813 358.216C606.246 341.265 595.149 332.302 580.384 331.004C566.484 329.782 528.979 357.24 524.369 360.776L494.04 360.139Z" fill="#1E1E1E"/>
<path d="M559.933 313.258H490.707C489.799 313.258 489.01 313.886 488.801 314.774L479.424 354.66H462.027C462.027 354.66 460.451 362.842 469.643 362.842H479.398C479.574 362.894 479.76 362.926 479.956 362.926H549.181C550.089 362.926 550.878 362.298 551.087 361.41L561.838 315.678C562.129 314.443 561.196 313.258 559.933 313.258Z" fill="#E5ECFF"/>
<path d="M483.371 243.221C481.677 243.965 478.491 245.987 480.451 250.175C482.207 253.926 485.67 252.797 487.739 251.664" fill="white"/>
<path d="M483.371 243.221C481.677 243.965 478.491 245.987 480.451 250.175C482.207 253.926 485.67 252.797 487.739 251.664" stroke="#1E1E1E" stroke-width="5.99998" stroke-linecap="round" stroke-linejoin="round"/>
<path d="M498.135 218.432C486.524 220.301 485.072 237.636 485.072 237.636C485.072 237.636 486.316 243.242 488.597 247.705C490.878 252.169 499.172 255.906 499.172 255.906L519.284 255.491C519.284 255.491 521.047 249.782 518.662 238.363C516.278 226.944 512.857 222.065 512.857 222.065C512.857 222.065 509.746 216.564 498.135 218.432Z" fill="white"/>
<path d="M515.281 225.126C518.988 234.657 520.275 245.876 520.408 251.112" stroke="#1E1E1E" stroke-width="5.99998" stroke-linecap="round" stroke-linejoin="round"/>
<path d="M488.026 243.264C489.358 244.085 493.757 249.632 495.173 252.377C495.173 252.377 499.424 251.403 505.043 250.692C508.635 250.238 512.272 250.211 515.856 250.716C518.077 251.029 520.076 251.517 520.168 252.266C520.434 254.428 520.345 257.673 518.576 261.28C515.408 267.742 505.561 268.599 500.324 266.485C495.087 264.372 493.975 263.021 492.1 259.835C490.225 256.649 484.352 244.494 484.352 244.494L488.026 243.264Z" stroke="#A3A3A3" stroke-width="5.99398" stroke-linecap="round" stroke-linejoin="round"/>
<path d="M488.026 243.264C489.358 244.085 493.757 249.632 495.173 252.377C495.173 252.377 499.424 251.403 505.043 250.692C508.635 250.238 512.272 250.211 515.856 250.716C518.077 251.029 520.076 251.517 520.168 252.266C520.434 254.428 520.345 257.673 518.576 261.28C515.408 267.742 505.561 268.599 500.324 266.485C495.087 264.372 493.975 263.021 492.1 259.835C490.225 256.649 484.352 244.494 484.352 244.494L488.026 243.264Z" fill="#A3A3A3"/>
<path d="M485.732 246.181C485.732 246.181 481.539 242.149 479.183 237.481C476.969 233.092 477.967 227.697 481.76 224.585C484.936 221.98 487.922 222.713 487.922 222.713C487.922 222.713 482.569 217.108 486.92 209.983C488.454 207.471 490.971 205.689 493.843 205.09C500.871 203.626 504.432 209.039 504.432 209.039C504.432 209.039 508.636 193.458 525.887 197.955C527.628 198.409 529.911 200.288 531.112 201.634C538.391 209.79 524.346 224.877 515.874 227.832C506.572 231.077 500.616 230.825 496.991 229.216C499.601 230.048 500.43 244.994 485.732 246.181Z" fill="#1E1E1E"/>
<path d="M504.264 244.876C504.208 245.686 503.741 246.313 503.22 246.277C502.699 246.241 502.322 245.555 502.377 244.746C502.433 243.936 502.9 243.309 503.421 243.345C503.942 243.382 504.319 244.067 504.264 244.876Z" fill="#1E1E1E"/>
<path d="M514.991 243.885C514.935 244.695 514.467 245.322 513.947 245.286C513.425 245.25 513.049 244.564 513.104 243.755C513.16 242.945 513.627 242.318 514.148 242.354C514.669 242.39 515.046 243.075 514.991 243.885Z" fill="#1E1E1E"/>
<path d="M500.984 238.193C500.984 238.193 502.677 236.403 505.283 237.213" stroke="#1E1E1E" stroke-width="5.99998" stroke-linecap="round" stroke-linejoin="round"/>
<path d="M511.694 235.958C511.694 235.958 514.681 233.998 516.399 235.724" stroke="#1E1E1E" stroke-width="5.99998" stroke-linecap="round" stroke-linejoin="round"/>
<path d="M509.432 245.829L512.674 254.576L509.316 254.548" stroke="#1E1E1E" stroke-width="5.99998" stroke-linecap="round" stroke-linejoin="round"/>
<path d="M508.768 262.134C505.914 261.36 505.169 259.726 505.169 259.726L510.239 260.261C510.239 260.261 510.699 262.417 508.768 262.134Z" fill="#1E1E1E"/>
<path d="M508.768 262.134C505.914 261.36 505.169 259.726 505.169 259.726L510.239 260.261C510.239 260.261 510.699 262.417 508.768 262.134Z" stroke="#1E1E1E" stroke-width="5.99998" stroke-linecap="round" stroke-linejoin="round"/>
<path d="M75.666 395.955H727.545" stroke="#1E1E1E" stroke-width="6" stroke-linecap="round" stroke-linejoin="round"/>
</svg>
