<svg width="471" height="574" viewBox="0 0 471 574" fill="none" xmlns="http://www.w3.org/2000/svg">
<path d="M452.38 427.728C488.692 380.559 459.956 334.584 454.441 275.313C451.724 246.113 445.549 230.268 443.584 201.009C440.114 149.348 496.345 98.6902 452.988 68.7601C409.632 38.8299 384.497 -11.6026 333.581 3.56862C275.442 20.892 320.433 58.466 282.351 150.221C244.269 241.976 191.664 170.143 154.371 211.019C130.63 237.04 135.937 265.048 111.403 290.322C78.9733 323.729 19.4701 296.861 3.25901 340.506C-16.5121 393.735 94.2725 453.9 94.2725 453.9C119.538 490.458 194.449 611.102 250.721 562.478C283.704 533.978 251.046 488.049 278.819 454.451C322.512 401.594 410.547 482.07 452.38 427.728Z" fill="#E5E5E5" fill-opacity="0.06"/>
</svg>
