<svg width="701" height="701" viewBox="0 0 701 701" fill="none" xmlns="http://www.w3.org/2000/svg">
<g clip-path="url(#clip0_801_272)">
<path d="M316.843 1.7346C45.5194 27.4839 -100.482 350.688 79.2121 571.43C162.226 673.833 300.918 724.499 437.649 689.235C510.918 670.324 574.203 628.459 619.305 573.928C816.291 336.951 630.773 -28.2369 316.843 1.7346Z" fill="url(#paint0_radial_801_272)"/>
<path d="M620.732 349.558C620.732 365.377 619.365 380.897 616.751 395.943C615.324 404.03 613.601 411.999 611.521 419.848C599.993 462.903 578.126 501.675 548.771 533.431C538.134 544.967 526.488 555.553 513.949 565.067C502.421 573.868 490.121 581.778 477.226 588.676C459.756 598.012 441.157 605.446 421.666 610.798C398.907 617.042 374.96 620.312 350.24 620.312C338.89 620.312 327.719 619.599 316.785 618.231C225.155 606.932 147.668 549.725 108.093 470.336C92.6426 439.413 82.9568 405.16 80.4016 368.945C79.9262 362.522 79.6885 356.04 79.6885 349.558C79.6885 308.704 88.7208 269.991 104.884 235.262C119.323 204.22 139.527 176.39 164.009 153.138C186.649 131.611 213.033 113.949 242.091 101.283C275.189 86.8323 311.793 78.8042 350.18 78.8042C466.827 78.8042 566.241 152.662 604.212 256.254C613.66 282.063 619.306 309.656 620.494 338.497C620.672 342.125 620.732 345.812 620.732 349.558Z" fill="url(#paint1_radial_801_272)"/>
<path d="M108.034 470.336C106.192 466.649 104.409 462.843 102.745 459.037C90.4447 431.266 82.7197 401.116 80.4023 369.42C80.4023 369.242 80.4022 369.123 80.3428 368.945C85.8097 368.231 93.2969 370.729 98.7638 386.131C105.835 406.171 138.755 454.994 108.034 470.336Z" fill="#BCBCBC"/>
<path d="M320.53 424.309C320.174 426.509 319.401 428.59 318.272 430.493C309.656 445.955 279.647 453.567 246.193 447.798C217.075 442.744 193.841 428.947 186.354 413.961C184.155 409.561 183.323 405.101 184.096 400.641C187.483 381.136 220.225 376.438 257.899 383.039C295.573 389.52 323.917 404.804 320.53 424.309Z" fill="#BCBCBC"/>
<path d="M240.368 295.384L240.309 295.443C232.821 306.742 209.468 296.395 182.312 278.614C160.148 264.104 144.341 249.653 143.271 238.652C143.034 236.154 143.569 233.776 144.935 231.635C152.423 220.217 182.134 219.444 209.349 237.284C236.565 255.124 247.855 283.966 240.368 295.384Z" fill="#BCBCBC"/>
<path d="M540.096 462.13C518.169 480.446 491.904 485.144 481.505 472.596C480.97 471.942 480.495 471.288 480.079 470.574C472.117 457.551 481.624 434.18 502.422 416.875C523.577 399.214 548.712 394.218 559.824 405.101C560.24 405.517 560.656 405.933 561.013 406.35C571.412 418.897 562.082 443.874 540.096 462.13Z" fill="#BCBCBC"/>
<path d="M381.912 311.975C359.748 329.518 337.226 339.211 324.332 322.917C323.084 321.371 322.074 319.706 321.182 317.922C312.982 301.39 321.063 277.425 341.148 261.547C363.313 244.004 393.559 235.738 414.179 261.844C414.298 262.023 414.476 262.201 414.535 262.38C426.657 278.495 403.899 294.611 381.912 311.975Z" fill="#BCBCBC"/>
<path d="M293.373 556.98C290.164 560.072 283.806 561.797 273.823 561.321C237.218 559.716 197.465 515.115 208.577 500.784C208.755 500.546 208.933 500.367 209.111 500.189C220.639 487.166 249.519 510.596 264.256 518.326C288.56 531.052 301.87 548.833 293.373 556.98Z" fill="#BCBCBC"/>
<path d="M436.938 524.094C436.997 532.539 425.529 541.459 407.464 542.232C374.425 543.659 355.588 537.296 351.131 525.522C350.656 524.273 350.359 522.965 350.181 521.537C348.576 507.206 378.822 509.644 394.748 508.811C424.637 507.206 436.878 515.412 436.938 524.094Z" fill="#BCBCBC"/>
<path d="M537.065 334.097C533.44 339.509 526.428 343.196 517.337 343.196C488.695 343.196 450.486 322.501 455.299 303.353C455.834 301.152 456.666 299.249 457.617 297.703C464.985 285.81 483.585 291.578 501.471 295.384C537.243 302.996 544.909 322.501 537.065 334.097Z" fill="#BCBCBC"/>
<path d="M444.069 193.457C443.712 192.624 443.534 191.673 443.415 190.662C442.702 182.515 450.724 170.622 466.352 166.34C476.513 163.545 490.24 163.902 498.737 169.135C502.481 171.454 505.155 174.665 506.165 179.066C508.542 190.008 449.119 206.123 444.069 193.457Z" fill="#BCBCBC"/>
<path d="M280.775 168.124C278.755 169.313 276.378 168.957 273.823 166.399C256.293 148.857 254.748 120.193 264.256 115.436C268 113.533 271.268 112.939 274.061 113.236C293.076 115.377 290.996 161.939 280.775 168.124Z" fill="#BCBCBC"/>
<path d="M580.918 268.326C579.671 268.921 578.185 269.04 576.58 268.624C569.925 266.899 561.249 256.671 558.635 241.269C557.149 232.23 561.665 223.547 567.548 220.812C574.085 217.72 582.344 222.001 585.672 241.269C587.633 252.211 587.336 265.115 580.918 268.326Z" fill="#BCBCBC"/>
<path d="M548.772 533.431C528.271 555.612 504.086 574.344 477.227 588.616C474.196 587.13 471.463 584.929 470.393 581.778C469.442 578.983 469.858 575.415 472.77 570.895C483.882 553.352 495.053 526.295 520.486 524.689C527.914 524.213 533.797 525.105 538.491 526.771C543.008 528.436 546.335 530.814 548.772 533.431Z" fill="#BCBCBC"/>
<path d="M421.608 610.738C398.849 616.982 374.901 620.253 350.181 620.253C338.832 620.253 327.66 619.54 316.727 618.172C316.727 614.961 317.321 611.511 319.282 608.598C321.183 605.803 324.333 603.543 329.502 602.71C348.577 599.499 358.144 586.773 385.181 588.379C399.205 589.211 409.01 596.05 415.131 602.413C418.161 605.624 420.241 608.598 421.608 610.738Z" fill="#BCBCBC"/>
<path d="M387.023 117.399C385.656 124.178 374.188 126.616 368.661 124.059C367.473 123.524 366.582 122.751 366.106 121.799C362.897 115.436 383.874 103.543 386.785 113.831C387.142 115.139 387.201 116.328 387.023 117.399Z" fill="#BCBCBC"/>
<path d="M304.068 475.331C296.937 471.763 291.351 468.968 292.956 483.3C294.56 497.632 305.672 500.843 315.239 500.843C324.747 500.843 310.426 478.543 304.068 475.331Z" fill="#9B9B9B"/>
<path d="M171.972 465.817C165.614 464.211 165.614 475.391 160.86 486.511C156.106 497.632 162.464 505.6 171.972 505.6C181.539 505.6 184.688 468.968 171.972 465.817Z" fill="#9B9B9B"/>
<path d="M143.33 322.441C137.209 319.646 130.613 316.078 129.009 322.441C127.405 328.804 141.725 346.347 149.688 346.347C157.651 346.347 160.8 330.41 143.33 322.441Z" fill="#9B9B9B"/>
<path d="M620.731 349.558C620.731 365.376 619.365 380.897 616.75 395.943C614.432 395.051 612.056 393.445 609.56 390.947C593.635 375.01 605.697 352.413 609.56 344.741C613.838 336.178 618.117 336.951 620.494 338.438C620.672 342.125 620.731 345.812 620.731 349.558Z" fill="#9B9B9B"/>
<path d="M456.844 367.041C447.633 365.912 442.523 373.404 456.844 379.767C471.165 386.19 469.56 368.647 456.844 367.041Z" fill="#9B9B9B"/>
<path d="M114.688 295.384C110.41 297.525 109.935 306.504 121.047 304.958C132.159 303.352 124.196 290.626 114.688 295.384Z" fill="#9B9B9B"/>
<path d="M340.673 183.942C335.919 185.548 329.561 190.305 340.673 191.911C351.785 193.457 345.427 182.337 340.673 183.942Z" fill="#9B9B9B"/>
<path d="M367.711 183.942C361.887 180.553 361.352 196.668 366.106 203.031C370.86 209.394 386.785 195.063 367.711 183.942Z" fill="#9B9B9B"/>
<path d="M418.635 561.38C415.189 562.153 413.881 567.743 423.389 570.955C432.956 574.106 432.956 558.169 418.635 561.38Z" fill="#9B9B9B"/>
<path d="M280.18 588.438C275.427 590.043 270.613 593.195 280.18 596.406C289.747 599.558 284.934 586.832 280.18 588.438Z" fill="#9B9B9B"/>
<path d="M288.143 354.315C280.062 354.732 297.71 365.436 302.464 367.041C307.218 368.647 321.539 352.71 288.143 354.315Z" fill="#9B9B9B"/>
<path d="M549.128 312.926C545.146 316.019 552.337 333.621 558.695 332.015C565.053 330.41 563.448 301.747 549.128 312.926Z" fill="#9B9B9B"/>
<path d="M421.132 424.547C420.419 427.282 419.527 429.958 418.636 432.337C414.001 444.765 386.607 449.642 379.358 443.933C379.179 443.814 379.001 443.636 378.823 443.457C372.465 437.094 378.645 421.098 382.032 413.188C386.786 402.068 410.673 394.099 418.636 397.251C425.054 399.927 424.222 412.951 421.132 424.547Z" fill="#BCBCBC"/>
<path d="M143.271 238.712C143.034 236.214 143.569 233.835 144.935 231.694C152.423 220.277 182.134 219.504 209.349 237.344C236.565 255.184 247.855 284.026 240.368 295.443L240.309 295.503C240.725 288.545 237.813 278.792 227.652 265.175C201.149 229.792 152.838 217.601 143.271 238.712Z" fill="#9B9B9B"/>
<path d="M320.53 424.309C320.174 426.509 319.401 428.59 318.272 430.493C317.619 427.758 311.736 406.29 284.936 397.311C257.126 388.034 219.69 379.768 197.406 397.311C190.276 402.9 187.245 408.669 186.354 413.902C184.155 409.501 183.323 405.041 184.096 400.581C187.483 381.076 220.225 376.378 257.899 382.979C295.573 389.52 323.917 404.803 320.53 424.309Z" fill="#9B9B9B"/>
<path d="M364.501 257.147C334.909 267.375 322.43 296.395 321.182 317.922C312.982 301.39 321.063 277.425 341.148 261.547C363.313 244.004 393.559 235.738 414.179 261.844C414.298 262.023 414.476 262.201 414.535 262.38C405.622 255.481 389.399 248.583 364.501 257.147Z" fill="#9B9B9B"/>
<path d="M421.132 424.547C420.835 413.01 417.982 399.987 405.92 403.674C393.56 407.48 379.536 429.899 379.417 443.933C379.239 443.814 379.061 443.636 378.882 443.457C372.524 437.094 378.704 421.098 382.091 413.188C386.845 402.068 410.733 394.099 418.696 397.251C425.054 399.927 424.222 412.951 421.132 424.547Z" fill="#9B9B9B"/>
<path d="M537.065 334.097C540.69 313.105 507.057 306.326 490.24 300.201C473.602 294.135 462.193 296.276 457.558 297.703C464.926 285.81 483.525 291.578 501.412 295.384C537.243 302.996 544.909 322.501 537.065 334.097Z" fill="#9B9B9B"/>
<path d="M444.07 193.457C443.713 192.625 443.535 191.673 443.416 190.662C453.458 197.323 479.188 191.911 493.39 185.489C503.552 180.85 501.888 174.071 498.738 169.195C502.482 171.514 505.156 174.725 506.166 179.126C508.543 190.008 449.121 206.124 444.07 193.457Z" fill="#9B9B9B"/>
<path d="M280.775 168.124C278.755 169.313 276.378 168.957 273.823 166.399C256.293 148.857 254.748 120.193 264.256 115.436C268 113.533 271.268 112.939 274.061 113.236C270.198 113.949 264.256 117.339 264.256 131.373C264.256 147.548 272.04 160.81 280.775 168.124Z" fill="#9B9B9B"/>
<path d="M387.023 117.399C386.488 114.663 384.349 112.046 377.278 113.831C371.514 115.258 369.315 119.658 368.661 124.059C367.473 123.524 366.582 122.751 366.106 121.799C362.897 115.436 383.874 103.543 386.785 113.831C387.142 115.139 387.201 116.328 387.023 117.399Z" fill="#9B9B9B"/>
<path d="M293.373 556.98C292.006 548.417 284.162 540.091 270.614 532.658C253.084 523.084 240.368 513.569 229.256 505.6C223.432 501.438 215.41 500.308 209.111 500.189C220.639 487.166 249.519 510.596 264.256 518.326C288.559 531.052 301.87 548.833 293.373 556.98Z" fill="#9B9B9B"/>
<path d="M436.938 524.095C434.382 517.732 426.658 515.115 413.822 515.115H369.255C352.201 515.115 351.131 524.987 351.131 525.462C350.656 524.213 350.359 522.905 350.181 521.478C348.576 507.146 378.822 509.585 394.748 508.752C424.637 507.206 436.878 515.412 436.938 524.095Z" fill="#9B9B9B"/>
<path d="M415.131 602.472C418.161 605.564 420.241 608.597 421.608 610.738C398.849 616.982 374.901 620.253 350.181 620.253C338.832 620.253 327.66 619.539 316.727 618.171C316.727 614.96 317.321 611.511 319.282 608.597C372.168 621.085 402.652 609.489 415.131 602.472Z" fill="#9B9B9B"/>
<path d="M548.771 533.431C528.27 555.612 504.085 574.345 477.226 588.617C474.196 587.13 471.462 584.93 470.393 581.778C514.781 565.127 533.975 534.977 538.491 526.83C543.007 528.436 546.335 530.815 548.771 533.431Z" fill="#9B9B9B"/>
<path d="M559.824 405.101C556.259 403.852 530.885 396.775 501.352 430.731C486.437 447.917 481.268 461.238 480.079 470.574C472.117 457.551 481.624 434.18 502.422 416.875C523.577 399.273 548.712 394.218 559.824 405.101Z" fill="#9B9B9B"/>
<path d="M576.58 268.564C569.925 266.84 561.249 256.611 558.635 241.209C557.149 232.17 561.665 223.488 567.548 220.752C564.993 224.142 562.616 229.316 563.389 236.452C564.755 247.988 569.093 259.525 576.58 268.564Z" fill="#9B9B9B"/>
<path d="M108.034 470.336C106.192 466.649 104.409 462.843 102.745 459.037C110.351 452.139 117.839 439.532 108.331 419.611C96.5652 394.932 90.8606 373.702 80.4023 369.42C80.4023 369.242 80.4022 369.123 80.3428 368.945C85.8097 368.231 93.2969 370.729 98.7638 386.131C105.835 406.171 138.755 454.994 108.034 470.336Z" fill="#9B9B9B"/>
<path opacity="0.45" d="M513.949 565.067C502.421 573.868 490.121 581.778 477.226 588.676C459.756 598.012 441.157 605.446 421.666 610.798C398.907 617.042 374.96 620.312 350.24 620.312C338.89 620.312 327.719 619.599 316.785 618.231C225.155 606.932 147.668 549.725 108.092 470.336C92.6426 439.413 82.9568 405.16 80.4016 368.945C79.9262 362.522 79.6885 356.04 79.6885 349.558C79.6885 308.704 88.7208 269.991 104.884 235.262C119.323 204.22 139.527 176.39 164.009 153.138C88.5425 513.331 366.106 563.224 513.949 565.067Z" fill="url(#paint2_linear_801_272)"/>
<path d="M620.732 349.558C620.732 365.377 619.365 380.897 616.751 395.943C615.324 404.03 613.601 411.999 611.521 419.849C602.133 202.08 454.764 78.269 242.091 101.283C275.189 86.8323 311.794 78.8042 350.181 78.8042C466.827 78.8042 566.241 152.662 604.212 256.254C613.661 282.063 619.306 309.656 620.494 338.497C620.673 342.125 620.732 345.812 620.732 349.558Z" fill="url(#paint3_linear_801_272)"/>
</g>
<defs>
<radialGradient id="paint0_radial_801_272" cx="0" cy="0" r="1" gradientUnits="userSpaceOnUse" gradientTransform="translate(350.207 350.183) scale(324.046 324.289)">
<stop stop-color="#F8F8F8"/>
<stop offset="1" stop-color="white" stop-opacity="0"/>
</radialGradient>
<radialGradient id="paint1_radial_801_272" cx="0" cy="0" r="1" gradientUnits="userSpaceOnUse" gradientTransform="translate(338.262 206.217) scale(413.111 413.42)">
<stop stop-color="#E8E8E8"/>
<stop offset="1" stop-color="#DFDFDF"/>
</radialGradient>
<linearGradient id="paint2_linear_801_272" x1="297.922" y1="741.151" x2="295.278" y2="70.172" gradientUnits="userSpaceOnUse">
<stop/>
<stop offset="1" stop-opacity="0.2"/>
</linearGradient>
<linearGradient id="paint3_linear_801_272" x1="590.837" y1="78.6847" x2="426.106" y2="261.066" gradientUnits="userSpaceOnUse">
<stop stop-color="#B7B7B7"/>
<stop offset="0.557292" stop-color="#AEAEAE" stop-opacity="0.2"/>
</linearGradient>
<clipPath id="clip0_801_272">
<rect width="700.404" height="700.404" fill="white"/>
</clipPath>
</defs>
</svg>
