<svg width="516" height="468" viewBox="0 0 516 468" fill="none" xmlns="http://www.w3.org/2000/svg">
<path d="M388.496 234.386C389.126 229.899 388.301 225.481 386.333 221.482C384.398 217.559 387.595 213.071 391.94 213.682L440.662 220.53C443.632 220.947 446.381 218.875 446.799 215.905L453.637 167.248C454.246 162.916 459.448 161.081 462.7 164.018C466.003 167.012 470.021 169.022 474.515 169.654C488.473 171.616 501.695 159.58 504.056 142.78C506.418 125.972 497.025 110.765 483.067 108.804C478.573 108.172 474.157 108.99 470.158 110.958C466.221 112.891 461.726 109.693 462.335 105.355L469.174 56.6971C469.59 53.734 467.519 50.9851 464.549 50.5676L305.128 28.1625C302.15 27.7441 299.402 29.8155 298.985 32.7787L292.147 81.4364C291.537 85.7748 286.335 87.6099 283.09 84.6672C279.781 81.672 275.762 79.6686 271.267 79.0369C257.316 77.0763 244.089 89.1039 241.727 105.912C239.365 122.712 248.764 137.927 262.715 139.887C267.21 140.519 271.627 139.694 275.633 137.727C279.562 135.8 284.057 138.998 283.448 143.329L276.61 191.987C276.192 194.957 278.264 197.706 281.241 198.124L329.963 204.972C334.301 205.581 336.144 210.778 333.203 214.015C330.201 217.316 328.191 221.335 327.56 225.822C325.602 239.751 337.653 252.968 354.482 255.333C371.311 257.698 386.538 248.315 388.496 234.386Z" fill="#8CEFE9"/>
<g opacity="0.22">
<path d="M68.5246 220.953C68.5246 225.148 65.1172 228.548 60.9151 228.548C56.7131 228.548 53.3057 225.148 53.3057 220.953C53.3057 216.751 56.7131 213.351 60.9151 213.351C65.1172 213.351 68.5246 216.751 68.5246 220.953Z" fill="#E2E6ED"/>
</g>
<g opacity="0.8">
<path d="M92.3591 280.119C92.3591 282.667 90.2903 284.729 87.7419 284.729C85.1935 284.729 83.1318 282.667 83.1318 280.119C83.1318 277.577 85.1935 275.516 87.7419 275.516C90.2903 275.516 92.3591 277.577 92.3591 280.119Z" fill="#E5E5E5"/>
</g>
<g opacity="0.22">
<path d="M504.911 175.463C500.323 175.463 496.607 171.755 496.607 167.173C496.607 162.599 500.323 158.884 504.911 158.884C509.493 158.884 513.208 162.599 513.208 167.173C513.208 171.755 509.493 175.463 504.911 175.463Z" fill="#E2E6ED"/>
</g>
<g opacity="0.49">
<path d="M482.313 295.554C477.724 295.554 474.009 291.846 474.009 287.265C474.009 282.69 477.724 278.975 482.313 278.975C486.894 278.975 490.609 282.69 490.609 287.265C490.609 291.846 486.894 295.554 482.313 295.554Z" fill="#E5E5E5"/>
</g>
<g opacity="0.67">
<path d="M309.355 242.819C307.444 242.819 305.897 241.272 305.897 239.368C305.897 237.457 307.444 235.911 309.355 235.911C311.266 235.911 312.813 237.457 312.813 239.368C312.813 241.272 311.266 242.819 309.355 242.819Z" fill="#E5E5E5"/>
</g>
<path d="M500.065 48.2216C498.154 48.2216 496.607 46.6753 496.607 44.7712C496.607 42.8598 498.154 41.3136 500.065 41.3136C501.976 41.3136 503.523 42.8598 503.523 44.7712C503.523 46.6753 501.976 48.2216 500.065 48.2216Z" fill="#E5E5E5"/>
<path d="M281.73 176.681H277.384C276.647 176.681 276.046 176.08 276.046 175.342V154.153C276.046 153.423 276.647 152.822 277.384 152.822H281.73C282.467 152.822 283.068 153.423 283.068 154.153V175.342C283.068 176.08 282.467 176.681 281.73 176.681ZM272.424 176.68H268.078C267.333 176.68 266.74 176.079 266.74 175.341V159.858C266.74 159.12 267.333 158.519 268.078 158.519H272.424C273.161 158.519 273.762 159.12 273.762 159.858V175.341C273.762 176.079 273.161 176.68 272.424 176.68ZM263.115 176.676H258.77C258.026 176.676 257.432 176.082 257.432 175.344V164.836C257.432 164.105 258.026 163.504 258.77 163.504H263.115C263.853 163.504 264.454 164.105 264.454 164.836V175.344C264.454 176.082 263.853 176.676 263.115 176.676ZM253.808 176.68H249.463C248.725 176.68 248.124 176.079 248.124 175.341V170.896C248.124 170.159 248.725 169.557 249.463 169.557H253.808C254.545 169.557 255.147 170.159 255.147 170.896V175.341C255.147 176.079 254.545 176.68 253.808 176.68Z" fill="url(#paint0_radial_174_40)"/>
<path d="M288.509 11.0734C288.533 9.63474 288.951 8.22048 290.035 7.20844C293.159 4.27991 297.071 9.16243 296.495 11.5671C295.919 13.9647 292.116 17.8878 290.708 17.1106C290.153 16.8078 289.432 15.6353 288.972 14.1473L285.702 18.9398L282.039 15.5568L288.509 11.0734Z" fill="#BA7B56"/>
<path d="M289.981 12.0344C288.757 12.4535 287.54 12.5058 286.916 11.9283C285.725 10.8306 286.284 8.51753 287.802 6.87159C287.852 6.81259 287.909 6.75441 287.966 6.70335C285.937 6.3653 283.45 7.11241 281.785 5.57007C279.514 3.47407 282.662 -1.75084 285.838 1.17169C287.998 3.16114 288.778 4.44151 289.283 5.73296C289.912 5.41005 290.564 5.25566 291.167 5.2757C291.327 5.26554 291.532 5.29675 291.762 5.36684C291.909 5.40562 292.047 5.45779 292.183 5.52418C292.911 5.83269 293.836 6.43086 294.758 7.2306C294.929 7.37308 295.099 7.52267 295.255 7.6706C296.004 6.87168 297.29 6.84186 298.129 7.61741C298.975 8.40091 299.048 9.68516 298.305 10.492C297.586 11.28 296.355 11.3307 295.507 10.6263C294.921 10.3415 294.238 9.89412 293.547 9.33048C293.398 9.62292 293.19 9.91582 292.918 10.2084C292.679 10.4687 292.391 10.716 292.083 10.9467C292.088 10.6519 291.991 10.3738 291.803 10.1933C291.263 9.69772 290.49 9.77316 290.076 10.2293C289.541 10.801 289.505 11.5391 289.981 12.0344Z" fill="#232323"/>
<path d="M270.786 38.0597C273.09 51.1988 273.856 58.4345 273.904 59.6487C273.944 60.8639 274.367 68.9908 271.744 83.6749L275.412 83.1808C279.581 68.8736 280.584 60.5547 281.033 58.6884C281.476 56.823 282.534 49.3418 283.79 36.3081L270.786 38.0597Z" fill="#A56D4B"/>
<path d="M271.255 41.0529C273.108 53.2227 273.334 65.6464 271.522 80.8374L277.027 80.0958C281.23 65.9863 283.778 52.4608 284.579 36.2021L273.868 37.6447C273.868 37.6447 271.103 40.0548 271.255 41.0529Z" fill="#2E3852"/>
<path d="M271.573 86.3604C271.573 86.3604 270.652 83.812 271.345 83.1119C273.187 83.3838 275.036 82.2029 275.746 82.1074C279.053 83.8144 283.823 83.8942 283.823 83.8942L283.601 85.3543L276.315 86.3357L272.058 86.909L271.573 86.3604Z" fill="#191846"/>
<path d="M269.092 38.0806C268.226 51.392 267.259 58.6035 267.019 59.7947C266.771 60.9852 265.261 68.9817 259.242 82.6297L262.922 83.0166C270.355 70.1001 273.296 62.254 274.173 60.5467C275.044 58.8387 277.84 51.8196 282.142 39.4521L269.092 38.0806Z" fill="#BA7B56"/>
<path d="M269.069 38.0787C268.189 51.3887 265.484 64.3126 259.694 79.8202L265.219 80.4009C272.637 67.6845 278.31 55.1445 282.931 39.5355L269.069 38.0787Z" fill="#314370"/>
<path d="M258.442 85.1987C258.442 85.1987 258.149 82.5047 258.988 81.9883C260.714 82.6879 262.79 81.9776 263.502 82.0524C266.312 84.4927 270.929 85.6977 270.929 85.6977L270.367 87.064L263.056 86.2955L258.784 85.8465L258.442 85.1987Z" fill="#191846"/>
<path d="M299.201 30.5547L302.655 29.8253C302.655 29.8253 303.985 27.653 304.86 27.9001C305.368 27.8278 303.997 29.5845 304.892 29.6656C305.787 29.7467 308.307 28.8423 308.571 29.2576C308.955 29.8731 308.07 31.1325 307.305 31.6657C305.886 32.6607 304.902 32.8519 302.616 32.8024C300.818 32.7651 298.488 33.5617 298.488 33.5617L299.201 30.5547Z" fill="#BA7B56"/>
<path d="M299.455 21.6698L306.798 24.9572C308.607 25.0486 310.163 25.3217 311.469 25.7623C311.797 25.9496 312.235 26.3857 311.088 26.5401C309.942 26.6945 308.75 26.9041 308.68 27.3237C308.61 27.7432 309.391 28.0519 309.192 28.6375C309.066 29.0329 307.886 28.376 305.65 26.6738L299.349 24.7249L299.455 21.6698Z" fill="#BA7B56"/>
<path d="M285.674 23.3687C288.145 23.2614 300.069 24.5956 303.711 26.6044C305.649 26.4369 306.277 24.6721 304.913 23.4793C302.345 21.2318 290.226 18.461 287.251 18.7126C284.908 18.9117 283.874 21.7945 285.674 23.3687Z" fill="#DF5E21"/>
<path d="M288.259 28.1522C290.592 29.5276 295.027 30.0604 301.572 29.7443C302.142 33.1912 302.177 35.5448 301.685 36.7918C295.818 37.9007 291.112 37.7759 287.503 36.7774C286.986 38.9224 286.126 40.8472 284.702 42.4249C281.787 45.659 272.357 39.0287 268.63 38.6652C268.55 30.9009 273.682 29.2953 275.042 24.748C276.539 19.7769 282.857 13.3226 283.449 13.4999L288.86 15.1197C288.023 19.0075 288.266 23.6486 288.259 28.1522Z" fill="#F06623"/>
<path d="M267.905 202.758C253.817 202.758 242.392 189.006 242.392 172.041C242.392 155.068 253.817 141.309 267.905 141.309C272.444 141.309 276.703 142.741 280.39 145.239C284.012 147.702 288.908 145.161 288.908 140.78V91.6507C288.908 88.6513 286.474 86.2246 283.475 86.2246H233.773C229.385 86.2246 226.844 81.3282 229.314 77.706C231.833 74.0122 233.265 69.7529 233.265 65.2072C233.265 51.1336 219.492 39.7301 202.505 39.7301C185.511 39.7301 171.738 51.1336 171.738 65.2072C171.738 69.7529 173.177 74.0122 175.689 77.706C178.159 81.3282 175.618 86.2246 171.23 86.2246H122.487C119.481 86.2246 117.047 88.6513 117.047 91.6507V141.467C117.047 145.948 122.144 148.461 125.752 145.798C129.61 142.956 134.141 141.309 139.002 141.309C153.097 141.309 164.515 155.068 164.515 172.041C164.515 189.006 153.097 202.758 139.002 202.758C134.141 202.758 129.61 201.119 125.752 198.277C122.144 195.614 117.047 198.126 117.047 202.607V252.402C117.047 255.401 119.481 257.828 122.487 257.828H171.666C176.047 257.828 178.596 252.946 176.133 249.324C173.635 245.644 172.21 241.399 172.21 236.875C172.21 222.809 185.99 211.398 202.978 211.398C219.972 211.398 233.745 222.809 233.745 236.875C233.745 241.399 232.32 245.644 229.822 249.324C227.367 252.946 229.908 257.828 234.289 257.828H283.475C286.474 257.828 288.908 255.401 288.908 252.402V203.295C288.908 198.914 284.012 196.372 280.39 198.835C276.703 201.333 272.444 202.758 267.905 202.758Z" fill="white"/>
<path d="M303.185 183.769L305.143 182.288C305.143 182.288 306.432 178.322 307.065 178.687C307.691 179.058 306.389 184.783 305.983 185.05C305.577 185.317 304.443 185.674 304.443 185.674L303.185 183.769Z" fill="#A26C4D"/>
<path d="M236.793 188.471C236.793 188.471 235.869 184.556 235.297 184.556C234.717 184.556 234.831 186.395 234.831 186.395C234.831 186.395 233.221 184.097 232.297 184.441C231.374 184.785 231.725 187.319 233.221 188.586C234.717 189.853 235.64 189.967 235.64 189.967L236.793 188.471Z" fill="#A26C4D"/>
<path d="M274.88 201.689C274.88 201.689 269.324 203.632 268.028 198.663C266.737 193.703 274.215 190.879 281.924 190.398C286.548 189.71 291.104 188.782 291.104 188.782L303.772 182.602L305.47 186.199C305.47 186.199 292.794 194.782 289.901 196.289C287.002 197.794 274.88 201.689 274.88 201.689Z" fill="#11574B"/>
<path d="M296.645 270.57L303.553 272.832H291.913L290.009 266.919L294.748 267.04L296.645 270.57Z" fill="#2C2134"/>
<path d="M256.832 268.614L256.374 270.568L260.92 272.83H251.643L252.101 268.492L256.832 268.614Z" fill="#2C2134"/>
<path d="M266.629 184.178C265.24 182.481 264.296 180.398 264.453 178.057C264.904 171.328 273.924 172.81 275.678 176.203C277.431 179.604 277.224 188.222 274.955 188.824C274.053 189.067 272.127 188.473 270.165 187.249L271.397 196.29H264.131L266.629 184.178Z" fill="#BA7B56"/>
<path d="M269.769 179.691C269.697 179.677 269.626 179.677 269.554 179.677C268.552 179.677 267.736 180.522 267.736 181.56C267.736 182.089 267.944 182.569 268.287 182.913C267.865 183.528 267.392 184.173 266.855 184.838C264.822 183.571 262.532 179.87 264.515 176.32C265.066 174.58 267.092 173.65 268.559 173.213C269.747 172.698 270.979 172.64 272.017 172.948C274.057 173.134 275.875 173.778 276.391 174.165C276.391 176.169 276.018 176.764 272.826 176.706C272.038 177.143 271.437 177.88 270.807 178.854C271.086 182.877 271.823 184.888 273.012 184.888C274.801 184.888 276.319 183.707 277.106 183.707C277.679 183.707 277.55 184.452 277.171 185.01C276.863 185.461 275.338 185.898 275.338 186.606C275.338 187.315 276.541 186.764 276.541 187.186C276.541 187.881 276.748 189.184 275.596 189.184C274.422 189.184 271.065 188.74 270.492 186.929C270.12 185.769 269.876 183.349 269.769 179.691Z" fill="#232323"/>
<path d="M259.046 194.94C259.225 191.941 262.088 189.843 265.009 190.566L274.15 192.85L275.997 197.453L283.242 225.199L262.16 223.445L259.046 194.94Z" fill="#11574B"/>
<path d="M269.849 220.69L282.033 220.611C285.791 233.769 291.454 251.973 295.906 269.625H289.929C284.882 258.158 277.495 245.63 272.949 232.358C268.79 245.63 262.261 258.158 257.215 269.625H251.237C255.69 251.973 262.326 235.365 261.775 220.69H269.849Z" fill="white"/>
<path d="M260.49 191.054C260.49 191.054 266.811 190.703 266.654 196.981C266.496 203.266 248.807 207.196 247.097 206.481C245.378 205.758 234.118 189.737 234.118 189.737L236.924 187.632L248.199 198.084L260.49 191.054Z" fill="#11574B"/>
<path d="M217.255 436.616C214.592 440.217 217.105 445.306 221.586 445.306H271.474C274.473 445.306 276.907 442.873 276.907 439.873V390.744C276.907 386.363 281.81 383.822 285.433 386.285C289.126 388.783 293.386 390.215 297.924 390.215C312.012 390.215 323.43 376.456 323.43 359.49C323.43 342.525 312.012 328.766 297.924 328.766C293.386 328.766 289.126 330.198 285.433 332.703C281.81 335.159 276.907 332.617 276.907 328.236V279.107C276.907 276.108 274.473 273.674 271.474 273.674H222.295C217.914 273.674 215.365 268.792 217.821 265.17C220.319 261.49 221.743 257.245 221.743 252.721C221.743 238.655 207.971 227.244 190.976 227.244C173.989 227.244 160.216 238.655 160.216 252.721C160.216 257.245 161.641 261.49 164.139 265.17C166.594 268.792 164.046 273.674 159.665 273.674H110.486C107.48 273.674 105.046 276.108 105.046 279.107V329.267C105.046 333.791 99.8629 336.297 96.2764 333.548C92.325 330.52 87.6361 328.766 82.6037 328.766C68.5158 328.766 57.0908 342.525 57.0908 359.49C57.0908 376.456 68.5158 390.215 82.6037 390.215C87.6361 390.215 92.325 388.461 96.2764 385.433C99.8629 382.684 105.046 385.189 105.046 389.713V439.873C105.046 442.873 107.48 445.306 110.486 445.306H160.367C164.855 445.306 167.368 440.217 164.705 436.616C161.855 432.765 160.216 428.233 160.216 423.38C160.216 409.306 173.989 397.903 190.976 397.903C207.971 397.903 221.743 409.306 221.743 423.38C221.743 428.233 220.104 432.765 217.255 436.616Z" fill="#8CEFE9"/>
<path d="M29.9693 363.407C28.5252 362.415 27.3542 361.032 27.0043 359.228C25.9966 354.029 33.4068 353.251 35.472 355.455C37.5441 357.657 39.1359 364.234 37.4692 365.177C36.8052 365.547 35.1704 365.504 33.3715 364.985L36.1843 371.583L30.4591 373.117L29.9693 363.407Z" fill="#915B3B"/>
<path d="M36.3252 356.465C36.1809 356.148 35.9426 355.812 35.7467 355.523C35.494 355.161 35.1727 354.847 34.845 354.564C34.2145 354.037 33.5177 353.594 32.7864 353.271C31.4549 352.671 29.9261 352.525 28.6015 353.058C27.9341 353.333 27.3338 353.776 26.8766 354.365C26.4705 354.896 26.1302 355.618 25.4706 355.839C24.7557 356.075 23.9214 355.616 23.2331 355.371C22.4577 355.105 21.6722 354.967 20.8644 355.05C19.5209 355.18 18.4345 355.938 17.8241 357.228C17.1857 358.607 16.9421 360.436 17.9559 361.758C18.1475 362.003 18.3557 362.199 18.622 362.335C18.8637 362.463 19.2111 362.57 19.37 362.832C19.5327 363.107 19.3894 363.567 19.3648 363.863C19.3234 364.289 19.322 364.727 19.4765 365.137C19.7259 365.819 20.3463 366.364 20.9249 366.698C21.5193 367.036 22.1705 367.143 22.8192 367.102C23.2494 367.076 23.6842 367.011 24.0967 366.864C24.3005 366.794 24.4654 366.691 24.6599 366.587C24.8424 366.494 24.966 366.512 25.1616 366.579C26.0625 366.871 26.9441 366.842 27.8157 366.527C28.5527 366.263 29.367 365.845 29.8453 365.168C30.3761 364.411 30.151 363.626 29.7591 362.827C29.9541 362.864 30.4392 362.793 30.0649 362.53C29.919 362.428 29.6968 362.429 29.5312 362.391C29.3412 362.346 29.1437 362.273 28.9716 362.156C28.2936 361.7 28.4912 360.336 29.0944 359.959C29.9827 359.402 30.5727 360.719 31.3605 360.893C31.8153 360.986 32.1561 360.599 32.3825 360.227C32.6816 359.739 32.816 359.162 32.9122 358.58C32.9928 358.107 33.0646 357.628 33.1433 357.147C33.1883 356.928 33.3563 356.283 33.1379 356.104C33.7923 355.78 34.6515 355.861 35.3481 356.082C35.6377 356.168 35.8777 356.289 36.0832 356.53C36.1275 356.585 36.2379 356.748 36.3158 356.735C36.4647 356.71 36.3612 356.545 36.3252 356.465Z" fill="black"/>
<path d="M24.1562 417.112C24.1562 417.112 33.0399 419.596 39.4826 419.596C45.9324 419.596 51.4588 415.766 51.4588 415.766C51.4588 415.766 42.7684 413.218 37.1418 413.218C31.5152 413.218 24.1562 417.112 24.1562 417.112Z" fill="#B5BAC4"/>
<path d="M44.6097 421.978C44.5525 421.892 44.5095 421.799 44.4666 421.698C43.6791 419.608 30.9943 397.03 29.7344 392.9H44.0084C44.9677 396.035 49.2914 415.735 49.8999 419.665C51.8183 425.865 55.7698 445.937 56.2781 447.333C56.8078 448.793 53.8227 450.318 53.0281 448.521C51.7611 445.658 48.7402 437.741 47.4016 432.901C46.1417 428.37 45.118 424.29 44.6097 421.978Z" fill="#774831"/>
<path d="M32.9323 424.74C27.1339 426.2 5.93044 428.849 4.47726 429.264C2.98114 429.694 1.66397 426.608 3.51802 425.943C6.46017 424.876 14.5707 422.421 19.4886 421.419C23.4473 420.61 27.0552 419.951 29.4819 419.564C29.2743 412.764 28.3365 396.428 28.9522 392.899H41.5798C40.9928 396.285 36.0033 420.968 35.0799 423.437C34.7864 424.318 33.9059 424.711 32.9323 424.74Z" fill="#915B3B"/>
<path d="M4.11001 425.712C4.15096 425.443 3.96416 425.202 3.69313 425.174C3.69313 425.174 2.60979 424.88 1.95108 424.996C1.29481 425.112 -0.0627238 424.79 0.0718842 425.553C0.206492 426.316 2.40395 438.779 2.40395 438.779C2.45127 439.047 2.68511 439.161 2.92581 439.034C2.92581 439.034 4.35108 439.488 4.28886 438.311C4.22706 437.136 4.22593 436.849 4.22593 436.849C4.21421 436.577 4.25831 436.141 4.32436 435.877L5.86423 429.712C5.93027 429.448 5.76787 429.186 5.50182 429.127L5.15175 429.05C4.8857 428.991 4.57275 428.745 4.45336 428.5C4.45336 428.5 3.98606 427.966 3.8686 427.3C3.75114 426.634 4.11001 425.712 4.11001 425.712Z" fill="#E3E3E3"/>
<path d="M52.7868 447.939C52.5286 447.852 52.2587 447.994 52.1844 448.256C52.1844 448.256 51.7068 449.272 51.7068 449.941C51.7068 450.607 51.1538 451.888 51.929 451.888C52.7041 451.888 65.3588 451.888 65.3588 451.888C65.6313 451.888 65.7844 451.678 65.7005 451.419C65.7005 451.419 66.3956 450.094 65.2255 449.951C64.0578 449.808 63.7745 449.759 63.7745 449.759C63.5044 449.723 63.083 449.604 62.8341 449.493L57.031 446.906C56.7821 446.795 56.4956 446.91 56.3917 447.161L56.2549 447.493C56.1509 447.745 55.8538 448.01 55.5919 448.085C55.5919 448.085 54.9852 448.453 54.3088 448.453C53.6324 448.453 52.7868 447.939 52.7868 447.939Z" fill="#E3E3E3"/>
<path d="M28.9956 392.901C34.5578 391.305 39.8264 391.305 44.7944 392.901C46.5196 400.782 50.7217 403.911 51.459 415.994C43.0621 420.168 32.6966 413.023 24.0562 417.09C21.5866 411.399 25.0441 397.704 28.9956 392.901Z" fill="#D6DBE4"/>
<path d="M56.0681 378.217L59.417 375.525C59.417 375.525 59.6692 372.421 60.7524 372.215C61.2633 371.856 60.7388 374.529 61.7506 374.125C62.7696 373.72 64.9988 371.357 65.5113 371.667C66.2676 372.122 65.9945 373.995 65.4648 374.99C64.4643 376.86 63.498 377.604 60.9907 378.802C59.0271 379.745 56.9359 381.902 56.9359 381.902L56.0681 378.217Z" fill="#915B3B"/>
<path d="M50.8413 366.521L59.9217 362.907C61.5392 361.398 63.0879 360.266 64.5782 359.503C65.0231 359.382 65.7631 359.367 64.9286 360.498C64.0989 361.634 63.2661 362.861 63.5706 363.282C63.875 363.702 64.8116 363.279 65.1477 363.954C65.3802 364.403 63.8087 364.88 60.4436 365.376L53.5723 370.278L50.8413 366.521Z" fill="#905B3B"/>
<path d="M33.755 370.036C36.7393 370.368 53.8625 365.17 58.4279 362.997C60.7611 363.352 61.3829 365.558 59.6397 366.915C56.3549 369.451 39.7032 379.111 36.1171 378.57C33.2942 378.139 31.4538 371.822 33.755 370.036Z" fill="#498647"/>
<path d="M42.8915 381.549C46.1666 381.778 51.2699 379.926 58.1944 375.994C60.6891 379.465 62.0182 382.015 62.1618 383.654C56.4071 388.078 51.2399 390.515 46.7794 391.396C47.3891 394.029 47.5098 396.61 46.8306 399.107C45.4395 404.244 31.5948 402.157 27.3557 403.798C23.0314 395.351 27.7067 390.783 26.7056 385.065C25.6088 378.803 28.936 368.28 29.6763 368.149L36.4229 366.96C37.6322 371.675 40.4373 376.617 42.8915 381.549Z" fill="#549E50"/>
<path d="M55.6418 314.173L54.033 314.664C53.2624 313.343 52.291 312.172 51.1677 311.191L51.9569 309.707C52.2945 309.073 52.0518 308.278 51.4152 307.934L48.1192 306.187C47.4757 305.844 46.6815 306.087 46.3392 306.73L45.55 308.214C44.1082 307.831 42.5948 307.68 41.0615 307.782L40.5699 306.173C40.3586 305.481 39.6257 305.091 38.9343 305.303L35.3538 306.397C34.6623 306.608 34.2725 307.341 34.4838 308.032L34.9753 309.641C33.647 310.414 32.4767 311.385 31.495 312.509L30.0114 311.719C29.3678 311.377 28.5737 311.62 28.2314 312.263L26.475 315.554C26.1395 316.196 26.3821 316.99 27.0167 317.328L28.5004 318.117C28.1244 319.556 27.9662 321.072 28.0727 322.596L26.457 323.09C25.7656 323.301 25.3757 324.034 25.5891 324.732L26.6789 328.299C26.8902 328.991 27.6231 329.381 28.3145 329.169L29.9302 328.676C30.696 330.006 31.6742 331.174 32.7886 332.151L31.9993 333.635C31.6639 334.276 31.9065 335.07 32.5411 335.408L35.8392 337.162C36.4827 337.505 37.2769 337.262 37.6192 336.618L38.4084 335.135C39.8502 335.518 41.3636 335.669 42.8969 335.567L43.3885 337.176C43.5997 337.868 44.3326 338.257 45.0241 338.046L48.6046 336.952C49.296 336.741 49.6859 336.008 49.4746 335.316L48.9831 333.708C50.3114 332.935 51.4817 331.964 52.4633 330.84L53.947 331.63C54.5905 331.972 55.3847 331.729 55.727 331.086L57.4813 327.788C57.8189 327.153 57.5762 326.359 56.9396 326.014L55.4559 325.225C55.8408 323.79 55.9922 322.277 55.8905 320.744L57.4993 320.252C58.1907 320.041 58.5806 319.308 58.3693 318.616L57.2795 315.05C57.0661 314.351 56.3332 313.961 55.6418 314.173ZM43.9221 328.041C40.4032 329.116 36.6782 327.14 35.603 323.621C34.5279 320.102 36.5125 316.382 40.0314 315.307C43.5571 314.23 47.2821 316.205 48.3573 319.724C49.4324 323.243 47.4478 326.963 43.9221 328.041Z" fill="#E2E6ED"/>
<path d="M426.875 327.353C431.736 327.353 436.274 328.992 440.132 331.841C443.74 334.497 448.83 331.984 448.83 327.51V277.694C448.83 274.695 446.396 272.261 443.397 272.261H394.182C389.794 272.261 387.253 277.157 389.715 280.772C392.228 284.466 393.667 288.725 393.667 293.264C393.667 307.338 379.894 318.741 362.899 318.741C345.905 318.741 332.132 307.338 332.132 293.264C332.132 288.725 333.571 284.466 336.084 280.772C338.553 277.157 336.005 272.261 331.624 272.261H282.409C279.403 272.261 276.969 274.695 276.969 277.694V326.823C276.969 331.197 281.865 333.738 285.487 331.283C289.181 328.777 293.433 327.353 297.972 327.353C312.06 327.353 323.485 341.104 323.485 358.077C323.485 375.043 312.06 388.801 297.972 388.801C293.433 388.801 289.181 387.37 285.487 384.871C281.865 382.416 276.969 384.957 276.969 389.331V438.46C276.969 441.459 279.403 443.893 282.409 443.893H443.397C446.396 443.893 448.83 441.459 448.83 438.46V388.644C448.83 384.163 443.74 381.657 440.132 384.313C436.274 387.155 431.736 388.801 426.875 388.801C412.787 388.801 401.362 375.043 401.362 358.077C401.362 341.104 412.787 327.353 426.875 327.353Z" fill="white"/>
<g opacity="0.67">
<path d="M289.215 459.455C289.215 460.801 276.86 461.896 261.619 461.896C246.379 461.896 234.023 460.801 234.023 459.455C234.023 458.102 246.379 457.007 261.619 457.007C276.86 457.007 289.215 458.102 289.215 459.455Z" fill="#DDE2E8"/>
</g>
<path d="M281.029 441.064C280.206 436.554 271.616 426.417 271.616 426.417L271.122 427.04C271.401 426.632 271.609 426.403 271.609 426.403H251.629C251.629 426.403 251.83 426.632 252.116 427.04L251.615 426.417C251.615 426.417 243.032 436.554 242.209 441.064C241.722 443.741 247.678 445.588 252.603 446.654C252.438 449.174 252.324 451 252.324 451H261.551H261.687H270.907C270.907 451 270.8 449.174 270.635 446.654C275.56 445.588 281.516 443.741 281.029 441.064ZM248.893 440.021L253.739 433.006C253.732 433.042 253.732 433.078 253.725 433.113C253.495 434.667 253.216 437.974 252.973 441.324L248.893 440.021ZM270.266 441.324C270.022 437.974 269.743 434.667 269.514 433.113C269.507 433.078 269.507 433.042 269.5 433.006L274.346 440.021L270.266 441.324Z" fill="#F06623"/>
<path d="M249.537 402.694C254.004 402.229 258.005 405.472 258.478 409.939C258.943 414.406 255.7 418.407 251.233 418.88C246.767 419.345 242.765 416.109 242.292 411.635C241.827 407.168 245.07 403.167 249.537 402.694Z" fill="#E0E6EC"/>
<path d="M249.692 404.233C253.314 403.853 256.557 406.48 256.937 410.103C257.316 413.718 254.689 416.961 251.074 417.34C247.452 417.719 244.209 415.092 243.829 411.477C243.45 407.855 246.077 404.612 249.692 404.233Z" fill="#EFF3F9"/>
<path d="M250.246 409.477C250.969 409.398 251.621 409.928 251.692 410.651C251.771 411.374 251.241 412.025 250.518 412.097C249.795 412.176 249.151 411.646 249.072 410.923C248.993 410.2 249.523 409.556 250.246 409.477Z" fill="white"/>
<path d="M257.948 409.182C257.948 409.182 257.912 406.841 261.827 406.418C265.736 406.003 268.256 409.074 268.95 415.503C269.652 421.931 272.587 422.912 272.587 422.912C272.587 422.912 268.392 426.262 262.107 426.262C255.821 426.262 250.789 423.191 250.789 423.191C250.789 423.191 253.581 421.516 253.445 418.581C253.302 415.646 253.509 407.464 257.948 409.182Z" fill="black"/>
<path d="M261.686 420.674H261.55H259.452L258.615 425.427L251.628 426.4C255.422 430.202 260.934 430.073 261.621 430.037C262.301 430.073 267.813 430.202 271.607 426.4L264.621 425.427L263.783 420.674H261.686Z" fill="#BA7B56"/>
<g opacity="0.33">
<path d="M258.545 421.375C258.545 421.375 259.382 425.427 265.532 424.725C270.12 424.203 265.109 420.395 265.109 420.395L258.545 421.375Z" fill="#A86E4B"/>
</g>
<path d="M255.89 413.265C255.89 414.246 256.312 417.739 257.15 420.395C257.629 421.927 259.039 422.85 260.149 423.366C261.08 423.788 262.153 423.788 263.084 423.366C264.194 422.85 265.604 421.927 266.091 420.395C266.928 417.739 267.343 414.246 267.343 413.265C267.343 410.473 264.272 408.097 261.616 408.097C258.961 408.097 255.89 410.473 255.89 413.265Z" fill="#BA7B56"/>
<path d="M265.994 419.472C266.589 419.673 268.314 419.479 268.686 417.79C269.058 416.101 266.932 416.022 266.402 417.575C265.808 419.329 265.994 419.472 265.994 419.472Z" fill="#B37752"/>
<path d="M257.25 419.472C256.649 419.673 254.924 419.479 254.551 417.79C254.179 416.101 256.305 416.022 256.835 417.575C257.429 419.329 257.25 419.472 257.25 419.472Z" fill="#B37752"/>
<path d="M257.916 409.17C257.916 409.17 260.665 416.35 266.964 415.907C270.63 415.642 265.461 407.817 265.461 407.817L259.176 407.538L257.916 409.17Z" fill="black"/>
<path d="M258.478 409.215C258.478 409.215 258.821 411.134 256.13 415.901C253.445 420.676 255.543 410.611 255.543 410.611L257.218 409.215H258.478Z" fill="black"/>
<path d="M249.323 452.157H273.913V435.951H249.323V452.157Z" fill="#EFF2F9"/>
<path d="M263.365 444.056C263.365 445.022 262.585 445.802 261.619 445.802C260.652 445.802 259.872 445.022 259.872 444.056C259.872 443.089 260.652 442.309 261.619 442.309C262.585 442.309 263.365 443.089 263.365 444.056Z" fill="#C9D4E4"/>
<path d="M250.293 456.011C250.336 455.975 248.633 456.991 246.786 455.91C246.721 455.875 246.657 455.846 246.585 455.825C246.149 456.175 245.619 456.555 245.032 456.934C245.118 457.006 245.182 457.063 245.189 457.056C245.096 457.034 244.989 457.034 244.867 457.041C243.185 458.115 241.088 459.203 239.319 459.883C239.148 460.105 239.205 460.241 239.57 460.22C241.388 460.12 245.698 460.041 250.902 458.144C250.336 457.543 250.2 456.798 250.293 456.011Z" fill="#2D395B"/>
<path d="M239.315 459.888C241.084 459.201 243.188 458.113 244.863 457.039C243.346 457.118 239.917 459.086 239.315 459.888Z" fill="#F06623"/>
<path d="M286.361 449.227C287.413 450.501 286.046 455.777 273.769 458.168C261.492 460.559 250.053 458.476 250.053 458.476L249.573 456.242C249.573 456.242 253.725 454.116 261.872 451.754C269.603 449.52 281.343 443.2 286.361 449.227Z" fill="#232D46"/>
<path d="M278.276 456.808C278.154 456.808 278.047 456.815 277.954 456.83C277.961 456.837 278.026 456.787 278.104 456.708C277.517 456.336 276.988 455.963 276.537 455.62C276.472 455.641 276.408 455.67 276.343 455.706C274.511 456.815 272.793 455.82 272.836 455.856C272.943 456.636 272.814 457.381 272.256 457.996C277.489 459.822 281.791 459.843 283.609 459.922C283.981 459.944 284.032 459.808 283.86 459.586C282.084 458.927 279.973 457.868 278.276 456.808Z" fill="#2D395B"/>
<path d="M278.275 456.812C279.972 457.864 282.084 458.931 283.859 459.589C283.251 458.795 279.8 456.876 278.275 456.812Z" fill="#F06623"/>
<path d="M278.529 456.295C277.985 455.937 277.19 455.407 276.539 455.622C276.983 455.966 277.52 456.338 278.107 456.71C278.271 456.553 278.515 456.316 278.529 456.295Z" fill="#F06623"/>
<path d="M236.687 449.526C235.649 450.807 237.088 456.069 249.393 458.302C261.699 460.529 273.109 458.302 273.109 458.302L273.56 456.069C273.56 456.069 269.387 453.993 261.205 451.738C255.886 450.271 248.649 446.906 243.037 446.906C240.467 446.906 238.24 447.608 236.687 449.526Z" fill="#232D46"/>
<path d="M260.646 416.461H260.782C260.804 416.483 260.818 416.497 260.84 416.511C259.587 416.511 258.341 416.511 257.089 416.511C257.11 416.49 257.124 416.476 257.139 416.461H257.282C257.268 417.478 257.153 418.816 258.52 418.902C258.764 418.924 258.764 419.303 258.52 419.289C257.719 419.232 257.038 418.709 256.917 417.893C256.852 417.428 256.888 416.934 256.902 416.461H256.172C255.922 416.461 255.922 416.082 256.172 416.082H267.068C267.311 416.082 267.311 416.461 267.068 416.461H266.337C266.352 417.163 266.459 417.986 266.051 418.58C265.521 419.361 264.655 419.289 263.832 419.289C263.581 419.282 263.581 418.902 263.832 418.902C264.648 418.91 265.664 418.981 265.922 417.972C266.037 417.499 265.972 416.948 265.958 416.461H266.094C266.115 416.483 266.13 416.497 266.144 416.511C264.898 416.511 263.646 416.511 262.4 416.511C262.414 416.49 262.429 416.476 262.45 416.461H262.586C262.572 417.478 262.457 418.816 263.832 418.902C264.075 418.924 264.075 419.303 263.832 419.289C263.03 419.232 262.35 418.709 262.228 417.893C262.157 417.428 262.2 416.934 262.207 416.461H261.033C261.04 417.163 261.147 417.986 260.747 418.58C260.217 419.361 259.344 419.289 258.52 419.289C258.277 419.282 258.277 418.902 258.52 418.902C259.336 418.91 260.353 418.981 260.611 417.972C260.725 417.499 260.661 416.948 260.646 416.461Z" fill="white"/>
<path d="M456.554 442.45L456.939 447.734L459.733 448.372L462.006 440.309L456.554 442.45Z" fill="#BA7B56"/>
<path d="M456.626 445.947L456.763 447.825L459.845 448.529L460.589 445.881L456.626 445.947Z" fill="#E0E6EC"/>
<path d="M461.084 449.112C460.27 448.267 460.224 447.341 460.168 446.829C460.168 446.829 460.158 446.829 460.148 446.829C459.313 447.918 457.693 447.523 457.693 447.523L457.658 447.174C457.642 446.976 457.47 446.835 457.283 446.85C457.005 446.865 456.817 446.89 456.812 446.926C456.772 447.503 455.891 448.475 455.375 448.94C454.727 449.527 453.264 450.98 452.495 451.061C451.725 451.142 448.759 451.405 449.144 453.076C449.528 454.736 461.479 452.281 462.001 451.81C462.517 451.345 461.899 449.958 461.084 449.112Z" fill="#2D395B"/>
<path d="M449.009 453.094C449.399 454.79 461.593 452.284 462.124 451.803C462.311 451.636 462.352 451.353 462.291 451.019C460.889 451.419 452.775 453.661 448.984 452.947C448.989 452.993 448.999 453.044 449.009 453.094Z" fill="white"/>
<path d="M459.847 450.062C459.629 450.553 459.057 450.78 458.566 450.563C458.07 450.35 457.848 449.773 458.055 449.282C458.273 448.791 458.845 448.563 459.341 448.776C459.832 448.994 460.06 449.566 459.847 450.062Z" fill="white"/>
<path d="M455.577 448.462C455.901 448.594 456.241 449.034 456.372 449.429C456.428 449.596 456.701 449.525 456.645 449.358C456.478 448.867 456.144 448.391 455.648 448.189C455.481 448.123 455.41 448.396 455.577 448.462Z" fill="#8CEFE9"/>
<path d="M454.72 449.272C455.039 449.459 455.251 449.742 455.363 450.087C455.424 450.259 455.697 450.188 455.636 450.016C455.494 449.601 455.241 449.256 454.857 449.034C454.705 448.943 454.563 449.186 454.72 449.272Z" fill="#8CEFE9"/>
<path d="M453.825 450.137C453.83 450.132 453.845 450.147 453.82 450.132C453.825 450.137 453.84 450.142 453.85 450.152C453.88 450.183 453.921 450.213 453.956 450.248C454.053 450.345 454.123 450.446 454.174 450.567C454.25 450.734 454.488 450.598 454.422 450.431C454.326 450.213 454.154 450.031 453.961 449.889C453.815 449.783 453.678 450.031 453.825 450.137Z" fill="#8CEFE9"/>
<path d="M469.424 403.161C466.208 405.368 457.102 413.848 455.987 417.36C453.485 425.241 455.39 441.725 456.126 443.287C456.126 443.287 458.247 442.964 461.703 443.033C461.703 443.033 465.242 427.256 464.93 420.734C464.905 420.162 474.389 416.298 480.143 406.857C482.748 402.595 469.424 403.161 469.424 403.161Z" fill="#334060"/>
<path d="M474.251 446.113L476.419 450.948L479.263 450.591L478.641 442.237L474.251 446.113Z" fill="#BA7B56"/>
<path d="M475.514 449.376L476.284 451.094L479.422 450.7L479.216 447.958L475.514 449.376Z" fill="#E0E6EC"/>
<path d="M480.786 450.825C479.731 450.309 479.372 449.454 479.144 448.993C479.144 448.993 479.135 448.997 479.125 449C478.713 450.308 477.056 450.491 477.056 450.491L476.903 450.175C476.821 449.995 476.611 449.921 476.44 449.999C476.184 450.108 476.016 450.196 476.024 450.231C476.183 450.787 475.688 452.002 475.362 452.616C474.954 453.389 474.076 455.255 473.381 455.594C472.685 455.933 469.988 457.195 470.921 458.633C471.85 460.062 482.241 453.668 482.57 453.047C482.896 452.433 481.841 451.341 480.786 450.825Z" fill="#2D395B"/>
<path d="M470.803 458.696C471.749 460.157 482.351 453.631 482.686 452.998C482.805 452.777 482.746 452.497 482.575 452.203C481.394 453.059 474.536 457.941 470.729 458.567C470.749 458.608 470.776 458.652 470.803 458.696Z" fill="white"/>
<path d="M479.949 452.14C479.912 452.676 479.453 453.086 478.917 453.049C478.378 453.019 477.971 452.553 477.999 452.02C478.035 451.485 478.495 451.075 479.034 451.105C479.569 451.142 479.979 451.601 479.949 452.14Z" fill="white"/>
<path d="M475.387 452.098C475.736 452.11 476.206 452.408 476.464 452.734C476.574 452.872 476.806 452.712 476.697 452.574C476.372 452.17 475.895 451.837 475.36 451.817C475.181 451.812 475.207 452.093 475.387 452.098Z" fill="#8CEFE9"/>
<path d="M474.86 453.151C475.224 453.218 475.52 453.412 475.743 453.697C475.859 453.838 476.091 453.678 475.975 453.537C475.7 453.196 475.345 452.959 474.907 452.881C474.733 452.847 474.683 453.124 474.86 453.151Z" fill="#8CEFE9"/>
<path d="M474.313 454.271C474.316 454.265 474.335 454.274 474.306 454.268C474.313 454.271 474.329 454.271 474.342 454.277C474.381 454.295 474.429 454.31 474.475 454.331C474.598 454.388 474.699 454.459 474.788 454.556C474.917 454.687 475.094 454.477 474.975 454.343C474.81 454.171 474.586 454.059 474.357 453.991C474.182 453.942 474.139 454.221 474.313 454.271Z" fill="#8CEFE9"/>
<path d="M472.906 404.793C470.638 407.967 464.982 419.049 465.135 422.731C465.48 430.992 472.908 445.831 474.133 447.047C474.133 447.047 476.016 446.018 479.287 444.9C479.287 444.9 477.216 428.865 474.693 422.842C474.474 422.313 482.065 415.439 484.243 404.6C485.232 399.704 472.906 404.793 472.906 404.793Z" fill="#374569"/>
<path d="M460.158 395.271L448.835 396.262L448.814 399.857C448.814 399.857 461.224 401.677 462.969 401.299C465.374 400.781 471.832 387.956 471.832 387.956L466.644 380.819C466.435 380.537 466.004 380.548 465.822 380.84C464.387 383.106 460.76 390.645 460.158 395.271Z" fill="#ECEE84"/>
<path d="M448.832 397.508C448.832 397.508 448.206 397.158 447.728 397.152C447.255 397.154 444.519 397.408 444.519 397.408C444.519 397.408 447.382 398.206 448.098 398.208C448.813 398.209 448.832 397.508 448.832 397.508ZM448.298 399.965C449.227 400.303 449.536 399.829 449.877 398.894C450.214 397.966 449.738 396.993 448.81 396.655C448.366 396.493 447.378 395.357 447.378 395.357C447.378 395.357 448.401 397.214 447.944 397.673C447.082 398.555 447.37 399.627 448.298 399.965Z" fill="#BA7B56"/>
<path d="M466.777 375.195L468.059 379.356L466.916 380.486L466.986 383.308L467.004 384.053L472.837 382.406C472.837 382.406 476.179 377.954 473.723 376.519C471.266 375.084 471.139 370.368 471.139 370.368L466.777 375.195Z" fill="#BA7B56"/>
<path d="M466.34 379.943C467.315 379.734 470.693 379.097 470.557 373.966C470.43 368.831 462.614 378.312 462.614 378.312L466.34 379.943Z" fill="#A86E4C"/>
<path d="M473.712 376.496C473.382 379.225 471.369 382.682 468.907 382.624C466.893 382.569 467.595 380.577 468.054 379.358C467.553 379.625 467.243 379.786 467.243 379.786C465.876 380.401 463.858 382.409 464.886 386.638C465.921 390.869 466.208 401.905 465.532 402.612C464.863 403.32 473.802 410.406 484.576 403.974C484.576 403.974 482.999 385.201 480.729 380.764C478.465 376.329 475.203 375.789 473.712 376.496Z" fill="#FBFF89"/>
<path d="M463.034 364.801C461.519 365.804 460.876 367.383 461.555 371.439C462.25 375.577 464.922 378.743 465.867 378.638C468.654 378.327 471.93 374.788 471.26 372.381C470.317 369.029 469.75 365.394 468.318 364.538C466.887 363.674 465.163 363.389 463.034 364.801Z" fill="#BA7B56"/>
<path d="M461.15 367.578C461.071 369.408 464.818 369.766 467.56 367.13C467.56 367.13 467.528 371.613 469.919 371.387C470.502 371.332 470.161 373.463 471.612 373.245C471.612 373.245 471.556 372.561 472.105 371.451C473.018 369.612 473.657 367.582 471.884 364.69C469.046 360.076 461.402 361.697 461.15 367.578Z" fill="#232323"/>
<path d="M469.163 372.545C469.774 372.646 471.426 372.188 471.523 370.479C471.61 368.774 469.509 368.915 469.126 370.49C468.735 372.069 469.163 372.545 469.163 372.545Z" fill="#A86E4C"/>
<path d="M443.511 384.783C442.961 385.207 442.688 385.483 442.829 385.673C442.978 385.885 443.523 385.698 445.18 384.99C445.74 384.754 446.31 384.509 446.437 384.505C446.81 384.482 448.52 385.094 449.149 385.332L449.253 385.366L450.152 383.108L447.634 382.435C447.471 382.385 447.356 382.36 447.272 382.338C447.241 380.887 447.082 380.151 446.814 380.143C446.495 380.13 446.232 381.098 446.061 381.952C445.693 381.859 444.897 381.723 444.857 381.72C444.21 381.617 443.331 381.505 442.842 381.579C442.759 381.592 442.517 381.627 442.501 381.808C442.486 382.102 443.268 382.455 443.932 382.701C442.413 382.583 441.538 382.598 441.271 382.747C441.233 382.77 441.211 382.788 441.194 382.812C441.138 382.878 441.147 382.945 441.154 382.976C441.23 383.277 442.438 383.581 443.217 383.731C441.491 384.123 441.299 384.406 441.336 384.618C441.399 384.939 442.035 384.938 443.511 384.783Z" fill="#BA7B56"/>
<path d="M480.709 380.797C481.611 382.34 481.128 384.315 479.639 385.302C475.627 387.949 467.179 392.459 462.996 392.708C459.323 392.93 447.782 385.345 447.398 385.078C447.164 384.91 447.558 383.776 447.873 382.96C448.063 382.474 448.576 382.193 449.09 382.294C451.594 382.772 458.891 384.219 462.275 385.612C462.706 385.792 463.205 385.673 463.505 385.318C464.794 383.826 469.004 380.546 474.101 378.558C477.858 377.088 479.521 378.757 480.709 380.797Z" fill="#FBFF89"/>
<g opacity="0.3">
<path d="M304.606 448.897C304.606 450.1 302.244 451.059 299.338 451.059C296.438 451.059 294.076 450.1 294.076 448.897C294.076 447.694 296.431 446.721 299.338 446.721C302.244 446.721 304.606 447.694 304.606 448.897Z" fill="#1B5A46"/>
</g>
<path d="M301.332 435.141L294.116 437.546V446.58C294.116 448.412 296.564 449.887 299.6 449.887C302.642 449.887 305.09 448.412 305.09 446.58V437.546L301.332 435.141Z" fill="#FFF9FF"/>
<path d="M299.584 440.855C302.598 440.855 305.039 439.373 305.039 437.548C305.039 435.723 302.598 434.241 299.584 434.241C296.563 434.241 294.122 435.723 294.122 437.548C294.122 439.373 296.563 440.855 299.584 440.855Z" fill="#D3BAE6"/>
<path d="M294.93 439.284C295.897 440.229 297.615 440.859 299.583 440.859C301.545 440.859 303.27 440.229 304.229 439.284C304.294 439.091 304.329 438.898 304.329 438.697C304.329 437.101 302.203 435.812 299.583 435.812C296.956 435.812 294.83 437.101 294.83 438.697C294.83 438.898 294.866 439.091 294.93 439.284Z" fill="#752838"/>
<path d="M299.579 434.24C296.565 434.24 294.096 435.722 294.096 437.548C294.096 439.373 296.544 440.862 299.579 440.862C302.621 440.862 305.07 439.373 305.07 437.548C305.07 435.722 302.629 434.24 299.579 434.24ZM299.584 434.622C302.326 434.622 304.66 435.961 304.66 437.55C304.66 439.139 302.333 440.478 299.584 440.478C296.828 440.478 294.502 439.139 294.502 437.55C294.502 435.961 296.828 434.622 299.584 434.622Z" fill="#BCBACD"/>
<path d="M304.215 422.304C303.828 423.306 303.671 424.38 303.75 425.447C303.75 426.642 303.75 427.845 303.75 429.047C303.821 430.407 303.692 431.782 303.384 433.113C303.062 434.459 302.189 435.612 300.972 436.292C300.378 436.642 299.641 436.657 299.025 436.349C298.774 436.177 298.56 435.955 298.409 435.698C297.028 433.514 298.302 430.629 299.304 428.561C300.457 426.141 302.132 424.008 304.215 422.304Z" fill="#1A6759"/>
<path d="M293.851 432.17C293.514 427.689 293.743 423.122 292.634 418.762C295.669 422.463 297.101 427.209 296.614 431.962C297.623 428.863 298.625 425.699 298.604 422.449C298.597 420.888 299.556 417.223 299.556 417.223C299.556 417.223 300.107 420.731 300.651 422.442C300.966 423.623 301.131 424.833 301.145 426.049C301.253 427.825 301.36 429.6 301.453 431.368C302.935 426.908 306.908 420.766 306.908 420.766C306.908 420.766 305.44 432.506 304.66 435.162C303.78 438.205 300.923 440.273 297.645 439.529C294.667 438.899 294.037 434.632 293.851 432.17Z" fill="#3F9582"/>
<path d="M296.176 436.585C295.554 434.881 296.133 433.012 296.527 431.237C297.05 429.133 297.107 426.942 296.699 424.809C298.267 428.102 299.648 431.481 300.829 434.931C301.137 435.826 301.431 436.792 301.137 437.666C300.851 438.532 299.326 440.006 298.317 439.756C297.515 439.598 296.455 437.336 296.176 436.585Z" fill="#4DAF9C"/>
<path d="M394.229 293.648H410.751L412.705 284.485H396.183L394.229 293.648ZM391.654 305.754H408.176L410.13 296.584H393.608L391.654 305.754ZM389.078 317.852H405.6L407.554 308.682H391.032L389.078 317.852ZM386.503 329.952H403.024L404.979 320.782H388.457L386.503 329.952ZM383.928 342.052H400.45L402.404 332.882H385.882L383.928 342.052ZM381.352 354.152H397.874L399.828 344.982H383.306L381.352 354.152ZM378.777 366.244H395.299L397.253 357.081H380.731L378.777 366.244ZM376.202 378.35H392.723L394.678 369.18H378.156L376.202 378.35ZM373.627 390.45H390.148L392.103 381.28H375.581L373.627 390.45ZM371.051 402.549H387.573L389.527 393.379H373.005L371.051 402.549ZM368.476 414.649H384.998L386.952 405.479H370.43L368.476 414.649ZM365.9 426.749H382.422L384.377 417.579H367.855L365.9 426.749ZM362.701 441.777L361.426 447.783H358.119L395.451 272.385H398.758L396.804 281.555H413.325L415.28 272.385H418.58L381.248 447.783H377.948L379.222 441.777H362.701ZM363.326 438.842H379.847L381.802 429.679H365.28L363.326 438.842Z" fill="black"/>
<path d="M474.907 322.943C478.458 315.469 487.413 312.284 494.894 315.834C502.382 319.378 505.567 328.319 502.017 335.792C498.795 342.564 491.15 345.814 484.178 343.731L480.047 346.573L479.639 341.49C473.905 337.338 471.758 329.571 474.907 322.943Z" fill="#F06623"/>
<path d="M487.69 336.039L481.855 331.779L483.867 329.031L487.038 331.343L493.338 323.318L496.022 325.423L487.69 336.039Z" fill="#FFFEFE"/>
<defs>
<radialGradient id="paint0_radial_174_40" cx="0" cy="0" r="1" gradientUnits="userSpaceOnUse" gradientTransform="translate(251.476 144.612) scale(27.4218 27.4218)">
<stop stop-color="#C8C8C8"/>
<stop offset="0.12" stop-color="#DADADA"/>
<stop offset="0.25" stop-color="#ECECEC"/>
<stop offset="0.62" stop-color="#F6F6F6" stop-opacity="0.769"/>
<stop offset="1" stop-color="white" stop-opacity="0.537"/>
</radialGradient>
</defs>
</svg>
