<svg width="237" height="267" viewBox="0 0 237 267" fill="none" xmlns="http://www.w3.org/2000/svg">
<path d="M221.914 266.162H15.3817C6.97593 266.162 0.370117 259.26 0.370117 251.155V60.2274C0.370117 51.8216 7.27653 45.2195 15.3817 45.2195H221.914C230.32 45.2195 236.924 52.1222 236.924 60.2274V250.854C236.924 259.26 230.32 266.162 221.914 266.162ZM62.7808 112.892H86.4987V136.61H62.7808V112.892ZM103.911 112.892H127.629V136.61H103.911V112.892ZM145.335 112.892H169.053V136.61H145.335V112.892ZM186.466 112.892H210.184V136.61H186.466V112.892ZM21.6686 152.208H45.3681V175.926H21.6686V152.208ZM62.7808 175.926H86.4987V152.208H62.7808V175.926ZM103.911 152.208H127.629V175.926H103.911V152.208ZM145.335 152.208H169.053V175.926H145.335V152.208ZM186.466 152.208H210.184V175.926H186.466V152.208ZM21.6686 191.543H45.3681V215.242H21.6686V191.543ZM62.7808 191.543H86.4987V215.242H62.7808V191.543ZM103.911 191.543H127.629V215.242H103.911V191.543ZM145.335 191.543H169.053V215.242H145.335V191.543Z" fill="white"/>
<path d="M62.7861 112.887H86.5022V136.603H62.7861V112.887Z" fill="#BEB8D5"/>
<path d="M103.915 112.887H127.631V136.603H103.915V112.887Z" fill="#BEB8D5"/>
<path d="M145.342 112.887H169.058V136.603H145.342V112.887Z" fill="#BEB8D5"/>
<path d="M186.469 112.887H210.183V136.603H186.469V112.887Z" fill="#BEB8D5"/>
<path d="M21.6611 152.212H45.3754V175.926H21.6611V152.212Z" fill="#BEB8D5"/>
<path d="M62.7861 175.926H86.5022V152.212H62.7861V175.926Z" fill="#FF0000"/>
<path d="M103.915 152.212H127.631V175.926H103.915V152.212Z" fill="#BEB8D5"/>
<path d="M145.342 152.212H169.058V175.926H145.342V152.212Z" fill="#BEB8D5"/>
<path d="M186.469 152.212H210.183V175.926H186.469V152.212Z" fill="#BEB8D5"/>
<path d="M21.6611 191.537H45.3754V215.251H21.6611V191.537Z" fill="#BEB8D5"/>
<path d="M62.7861 191.537H86.5022V215.251H62.7861V191.537Z" fill="#BEB8D5"/>
<path d="M103.915 191.537H127.631V215.251H103.915V191.537Z" fill="#BEB8D5"/>
<path d="M145.342 191.537H169.058V215.251H145.342V191.537Z" fill="#BEB8D5"/>
<path d="M15.3817 45.2195C6.97593 45.2195 0.370117 51.8235 0.370117 60.2274V91.1486H236.926V60.2274C236.926 51.8235 230.322 45.2195 221.914 45.2195H15.3817Z" fill="#070E21"/>
<path d="M57.6726 0.463379C46.7173 0.463379 37.835 9.34384 37.835 20.301V51.8931C37.835 62.8484 46.7173 71.7307 57.6726 71.7307C68.6279 71.7307 77.5102 62.8484 77.5102 51.8931V20.301C77.5083 9.34384 68.6279 0.463379 57.6726 0.463379Z" fill="#FF0000"/>
<path d="M186.119 0.463379C197.075 0.463379 205.957 9.34384 205.957 20.301V51.8931C205.957 62.8484 197.075 71.7307 186.119 71.7307C175.164 71.7307 166.282 62.8484 166.282 51.8931V20.301C166.282 9.34384 175.164 0.463379 186.119 0.463379Z" fill="#FF0000"/>
</svg>
