<svg width="547" height="547" viewBox="0 0 547 547" fill="none" xmlns="http://www.w3.org/2000/svg">
<g clip-path="url(#clip0_127_7581)">
<path d="M195.976 432.482C189.771 434.342 262.38 368.792 300.9 253.296C319.052 198.871 330.803 128.855 367.128 107.156C397.361 89.0959 485.184 118.258 513.795 128.549C517.371 129.835 517.838 134.699 514.568 136.633C498.443 146.166 463.517 169.168 450.937 196.107C434.356 231.615 395.021 249.417 362.264 250.562C329.507 251.707 310.844 254.998 286.985 303.116C263.126 351.233 213.609 427.196 195.976 432.482Z" fill="#412A8E"/>
<path d="M469.657 137.586C450.505 135.377 430.95 137.046 412.345 142.44C403.038 145.113 394.046 148.99 385.674 153.952C377.348 158.979 369.621 165.113 363.107 172.386L360.678 175.123C359.875 176.041 359.159 177.031 358.395 177.981C357.657 178.946 356.874 179.903 356.175 180.875L354.071 183.789C351.257 187.669 348.462 191.561 345.706 195.483C340.183 203.316 334.784 211.238 329.506 219.239C318.945 235.24 308.866 251.557 299.784 268.476C299.582 268.853 299.724 269.322 300.101 269.525C300.465 269.72 300.916 269.594 301.128 269.244L301.141 269.224C306.068 261.059 311.175 252.966 316.424 244.984C321.64 236.977 326.955 229.035 332.358 221.155L340.502 209.361L348.781 197.661C351.539 193.76 354.336 189.887 357.153 186.028L359.259 183.129C359.96 182.161 360.699 181.269 361.416 180.336C362.147 179.418 362.829 178.461 363.597 177.575L365.92 174.933C372.135 167.891 379.573 162.011 387.533 157.023C391.569 154.615 395.701 152.333 400.031 150.462L401.641 149.731L403.279 149.062C404.373 148.622 405.456 148.152 406.56 147.734C408.779 146.928 410.99 146.094 413.253 145.407C422.255 142.493 431.609 140.677 441.035 139.557C450.459 138.453 460.043 138.138 469.501 138.82L469.541 138.823C469.883 138.848 470.181 138.59 470.206 138.248C470.23 137.915 469.985 137.625 469.657 137.586Z" fill="#6D3ABF"/>
<path d="M324.632 239.791C324.632 239.791 314.222 192.511 289.486 185.24C264.75 177.969 221.657 180.199 203.56 113.082C192.966 73.7886 187.751 56.752 185.248 49.3793C184.272 46.5035 186.301 43.4909 189.334 43.326C210.786 42.1599 281.296 41.7229 306.411 83.7625C336.186 133.601 324.632 239.791 324.632 239.791Z" fill="#6D3ABF"/>
<path d="M209.693 58.4033C224.932 66.8878 238.878 77.3886 252.102 88.7062C255.352 91.6003 258.636 94.4632 261.751 97.5062L264.116 99.7588L265.299 100.885L266.448 102.046L271.037 106.697L272.179 107.866L273.284 109.069L275.495 111.476L277.706 113.883L278.811 115.087L279.878 116.324C282.695 119.654 285.606 122.881 288.273 126.382C288.966 127.233 289.598 128.129 290.251 129.01C290.897 129.896 291.556 130.772 292.19 131.666L294.047 134.379L294.974 135.737L295.858 137.122L297.625 139.893L299.309 142.714C299.876 143.652 300.428 144.597 300.947 145.561L302.534 148.437C306.636 156.171 310.23 164.171 313.166 172.403C316.147 180.617 318.579 189.019 320.501 197.53C321.44 201.791 322.247 206.079 322.916 210.389C323.59 214.708 324.118 219.013 324.38 223.427C324.418 224.073 323.926 224.627 323.28 224.666C322.649 224.703 322.105 224.234 322.046 223.609L322.042 223.575C321.844 221.481 321.552 219.33 321.233 217.212C320.916 215.088 320.572 212.965 320.178 210.851C319.402 206.622 318.491 202.416 317.45 198.245C315.391 189.898 312.903 181.655 309.845 173.631C306.809 165.601 303.269 157.771 299.214 150.224C295.091 142.72 290.545 135.435 285.292 128.684C282.703 125.296 279.852 122.047 277.1 118.745L276.057 117.513L274.975 116.315L272.812 113.919L270.648 111.523L269.567 110.325L268.448 109.161C262.566 102.869 256.362 96.8878 250.032 91.0387C243.641 85.2553 237.037 79.6996 230.197 74.4428C223.395 69.1471 216.345 64.111 209.045 59.5638L209.019 59.547C208.707 59.3532 208.612 58.9436 208.806 58.6323C208.994 58.3308 209.385 58.233 209.693 58.4033Z" fill="#DFE8FF"/>
<path d="M327.133 176.787C327.133 176.787 335.016 147.801 350.565 144.044C366.115 140.286 392.755 142.972 406.001 101.924C413.755 77.8931 417.503 67.4925 419.277 62.9991C419.969 61.2464 418.802 59.318 416.928 59.1241C403.669 57.7522 359.984 55.348 343.147 80.6417C323.186 110.628 327.133 176.787 327.133 176.787Z" fill="#6D3ABF"/>
<path d="M403.855 67.852C394.153 72.6491 385.192 78.7348 376.655 85.3487C374.553 87.044 372.432 88.7187 370.408 90.5105L368.875 91.835L368.108 92.4974L367.36 93.1816L364.375 95.9257L363.633 96.6153L362.911 97.3275L361.468 98.7522L360.025 100.177L359.304 100.89L358.605 101.625C356.758 103.603 354.857 105.515 353.098 107.604C352.643 108.11 352.224 108.646 351.793 109.172C351.366 109.702 350.93 110.225 350.511 110.76L349.278 112.385L348.662 113.198L348.073 114.03L346.893 115.694L345.764 117.391C345.385 117.955 345.014 118.524 344.663 119.106L343.593 120.84C340.817 125.51 338.347 130.359 336.278 135.372C334.182 140.372 332.421 145.506 330.973 150.722C330.262 153.334 329.632 155.967 329.087 158.618C328.538 161.274 328.081 163.926 327.785 166.654C327.741 167.053 328.03 167.412 328.429 167.455C328.819 167.497 329.17 167.223 329.226 166.838L329.229 166.817C329.415 165.524 329.661 164.2 329.923 162.898C330.184 161.591 330.461 160.286 330.769 158.987C331.378 156.39 332.07 153.811 332.841 151.257C334.37 146.146 336.161 141.113 338.299 136.233C340.424 131.349 342.855 126.603 345.596 122.048C348.379 117.522 351.416 113.146 354.876 109.121C356.583 107.099 358.448 105.172 360.254 103.208L360.937 102.477L361.644 101.767L363.057 100.348L364.471 98.9282L365.177 98.2183L365.905 97.5306C369.741 93.8096 373.767 90.2903 377.867 86.8568C382.003 83.466 386.264 80.2229 390.662 77.1719C395.038 74.0958 399.559 71.188 404.221 68.5907L404.238 68.5812C404.437 68.4706 404.508 68.2195 404.397 68.0207C404.29 67.8282 404.05 67.7558 403.855 67.852Z" fill="#DFE8FF"/>
<path d="M323.027 96.8866C325.827 110.018 317.453 122.933 304.321 125.733C291.19 128.534 278.275 120.159 275.475 107.028C272.675 93.8967 281.049 80.9816 294.18 78.1812C307.311 75.3808 320.226 83.7555 323.027 96.8866Z" fill="url(#paint0_linear_127_7581)"/>
<path d="M322.236 97.0551C324.944 109.75 316.847 122.235 304.153 124.942C291.458 127.65 278.973 119.554 276.266 106.859C273.558 94.1649 281.654 81.6793 294.349 78.9719C307.043 76.2646 319.529 84.3608 322.236 97.0551Z" fill="url(#paint1_linear_127_7581)"/>
<g opacity="0.78">
<path opacity="0.78" d="M278.352 96.8805C278.287 96.8944 278.218 96.8938 278.15 96.8756C277.915 96.8139 277.775 96.5739 277.837 96.3398C279.978 88.2053 286.414 82.0633 294.634 80.3102C295.946 80.0305 297.285 79.8683 298.614 79.8289C298.856 79.8215 299.059 80.012 299.066 80.2544C299.073 80.4966 298.885 80.6998 298.64 80.7058C297.364 80.7442 296.077 80.8996 294.817 81.1684C286.923 82.852 280.742 88.7509 278.686 96.5629C278.642 96.7286 278.509 96.847 278.352 96.8805Z" fill="white"/>
</g>
<g opacity="0.78">
<path opacity="0.78" d="M319.313 98.2024C321.604 108.947 314.752 119.514 304.008 121.805C293.263 124.097 282.696 117.244 280.404 106.5C278.113 95.7558 284.965 85.1883 295.71 82.8969C306.454 80.6055 317.021 87.458 319.313 98.2024Z" fill="white"/>
</g>
<path d="M301.034 117.221L300.582 115.104C298.357 115.487 296.064 115.431 294.369 115.083C293.764 114.959 293.349 114.398 293.384 113.781L293.501 111.695C293.544 110.93 294.251 110.388 295.004 110.53C296.679 110.847 298.686 110.952 300.734 110.516C302.859 110.062 304.29 109.004 303.975 107.527C303.691 106.194 302.297 105.663 299.175 105.501C294.715 105.247 291.297 104.055 290.506 100.345C289.791 96.995 291.695 93.9152 295.8 92.3244L295.348 90.2078C295.203 89.5267 295.637 88.8568 296.318 88.7115L297.562 88.4463C298.243 88.301 298.913 88.7354 299.058 89.4165L299.463 91.317C301.523 90.9633 303.083 90.9955 304.351 91.1585C305.001 91.2419 305.47 91.8223 305.434 92.4763L305.328 94.405C305.287 95.1487 304.618 95.6941 303.882 95.5818C302.708 95.4028 301.082 95.3027 299.086 95.7282C296.565 96.266 296.067 97.464 296.267 98.4006C296.513 99.5532 298.195 100.023 301.688 100.333C306.67 100.739 309.029 102.269 309.775 105.763C310.458 108.969 308.696 112.357 304.239 114.061L304.744 116.43C304.889 117.111 304.455 117.78 303.774 117.926L302.53 118.191C301.849 118.336 301.179 117.902 301.034 117.221Z" fill="url(#paint2_linear_127_7581)"/>
<path d="M347.217 51.7445C341.274 58.3932 331.06 58.9591 324.403 53.0085C317.745 47.0579 317.166 36.8444 323.109 30.1956C329.052 23.547 339.267 22.981 345.924 28.9316C352.581 34.8822 353.16 45.0958 347.217 51.7445Z" fill="url(#paint3_linear_127_7581)"/>
<path d="M346.816 51.3862C341.071 57.8138 331.196 58.3609 324.76 52.6082C318.325 46.8555 317.765 36.9814 323.51 30.5538C329.255 24.1261 339.13 23.5792 345.566 29.3319C352.002 35.0845 352.562 44.9585 346.816 51.3862Z" fill="url(#paint4_linear_127_7581)"/>
<g opacity="0.78">
<path opacity="0.78" d="M329.681 27.7635C329.648 27.7341 329.621 27.6967 329.604 27.6528C329.545 27.5027 329.619 27.3337 329.769 27.2751C334.972 25.2364 340.793 26.2842 344.96 30.0094C345.625 30.6038 346.238 31.259 346.781 31.957C346.88 32.0842 346.857 32.2672 346.73 32.3661C346.603 32.4648 346.42 32.4433 346.321 32.3146C345.799 31.6444 345.211 31.0149 344.572 30.4439C340.57 26.8664 334.979 25.8602 329.982 27.8179C329.876 27.8595 329.761 27.8346 329.681 27.7635Z" fill="white"/>
</g>
<g opacity="0.78">
<path opacity="0.78" d="M345.053 50.2667C340.191 55.7069 331.833 56.1699 326.386 51.3009C320.939 46.4319 320.465 38.0748 325.328 32.6346C330.19 27.1944 338.548 26.7315 343.995 31.6004C349.442 36.4694 349.916 44.8265 345.053 50.2667Z" fill="white"/>
</g>
<path d="M327.677 47.9083L328.635 46.8367C327.556 45.7921 326.685 44.5393 326.207 43.4933C326.036 43.1199 326.174 42.6775 326.518 42.4544L327.683 41.6999C328.11 41.4231 328.679 41.59 328.898 42.05C329.386 43.0732 330.117 44.1918 331.155 45.1195C332.233 46.0825 333.362 46.4361 334.031 45.6883C334.634 45.0136 334.371 44.0573 333.233 42.3177C331.618 39.8243 330.915 37.5229 332.594 35.6444C334.111 33.9481 336.51 33.7632 338.974 35.3429L339.932 34.2711C340.24 33.9262 340.77 33.8969 341.116 34.2056L341.746 34.7691C342.091 35.0778 342.121 35.6075 341.813 35.9524L340.953 36.9146C341.951 37.8812 342.546 38.7315 342.957 39.4758C343.167 39.8571 343.04 40.3363 342.675 40.5734L341.599 41.2726C341.184 41.5422 340.629 41.3966 340.4 40.9574C340.036 40.2574 339.451 39.3452 338.439 38.4409C337.161 37.2982 336.323 37.5007 335.899 37.9749C335.377 38.5585 335.786 39.6451 336.991 41.6412C338.729 44.4745 338.835 46.3408 337.254 48.1098C335.803 49.733 333.293 50.1148 330.63 48.3903L329.558 49.5895C329.25 49.9344 328.72 49.9639 328.375 49.6552L327.744 49.0915C327.399 48.783 327.369 48.2532 327.677 47.9083Z" fill="url(#paint5_linear_127_7581)"/>
<path d="M242.86 389.941L234.902 461.319H327.237L315.21 389.941H242.86Z" fill="url(#paint6_linear_127_7581)"/>
<path d="M71.228 215.718V393.85C71.228 408.504 82.9053 420.487 97.5542 420.865C162.617 422.543 390.174 426.611 452.109 425.698C462.754 425.541 471.378 417.022 471.685 406.381C472.879 364.998 474.819 265.487 467.641 219.288C466.129 209.559 457.917 202.284 448.076 201.969C393.562 200.225 152.336 194.687 90.4301 196.078C79.7534 196.317 71.228 205.039 71.228 215.718Z" fill="url(#paint7_linear_127_7581)"/>
<path d="M461.265 410.918C461.262 410.918 461.259 410.918 461.257 410.918L82.3977 404.463C82.1489 404.459 81.9505 404.254 81.9547 404.005C81.9588 403.756 82.1539 403.574 82.4131 403.562L461.272 410.017C461.521 410.021 461.719 410.226 461.715 410.475C461.711 410.722 461.51 410.918 461.265 410.918Z" fill="#412A8E"/>
<path d="M82.4053 214.851V384.089C82.4053 392.645 89.2733 399.616 97.8279 399.744L443.199 404.011C451.681 404.137 458.633 397.314 458.664 388.832L459.242 221.106C459.265 215.041 454.433 210.071 448.369 209.924L94.7734 202.78C87.9919 202.615 82.4053 208.068 82.4053 214.851Z" fill="url(#paint8_linear_127_7581)"/>
<path d="M275.572 418.802C273.15 418.802 271.18 416.832 271.18 414.41C271.18 411.987 273.15 410.017 275.572 410.017C277.995 410.017 279.965 411.987 279.965 414.41C279.965 416.832 277.995 418.802 275.572 418.802ZM275.572 410.918C273.647 410.918 272.081 412.485 272.081 414.41C272.081 416.335 273.647 417.901 275.572 417.901C277.497 417.901 279.063 416.335 279.063 414.41C279.063 412.485 277.497 410.918 275.572 410.918Z" fill="#412A8E"/>
<path d="M347.126 475.922H211.988C208.316 475.922 205.559 473.309 206.269 470.501L208.003 463.643C208.525 461.581 210.793 460.067 213.488 459.983L343.767 455.917C346.582 455.83 349.075 457.324 349.688 459.468L352.814 470.391C353.627 473.228 350.856 475.922 347.126 475.922Z" fill="url(#paint9_linear_127_7581)"/>
<path d="M284.735 461.851C284.489 461.851 284.288 461.653 284.284 461.407C284.281 461.158 284.479 460.953 284.728 460.949L290.311 460.868C290.553 460.861 290.765 461.063 290.768 461.312C290.772 461.561 290.573 461.766 290.324 461.769L284.741 461.851C284.739 461.851 284.737 461.851 284.735 461.851Z" fill="#412A8E"/>
<path d="M211.272 472.152C211.248 472.152 211.224 472.15 211.2 472.146C210.955 472.107 210.787 471.876 210.827 471.63L211.623 466.642C212.052 463.957 214.337 461.979 217.055 461.939L276.267 461.073C276.521 461.091 276.721 461.268 276.725 461.517C276.728 461.766 276.529 461.971 276.28 461.975L217.069 462.84C214.788 462.874 212.873 464.532 212.513 466.784L211.717 471.772C211.681 471.994 211.49 472.152 211.272 472.152Z" fill="#412A8E"/>
<path d="M109.67 479.472H208.217C211.359 479.472 213.907 476.925 213.907 473.782V326.182C213.907 323.045 211.369 320.5 208.232 320.492L108.897 320.225C105.737 320.217 103.175 322.785 103.192 325.946L103.98 473.812C103.997 476.943 106.539 479.472 109.67 479.472Z" fill="#412A8E"/>
<path d="M114.499 327.508L202.616 328.051C205.801 328.07 208.368 330.666 208.354 333.851L207.739 466.327C207.724 469.464 205.207 472.016 202.071 472.073L116.454 473.635C113.257 473.694 110.621 471.141 110.576 467.944L108.691 333.362C108.645 330.129 111.265 327.488 114.499 327.508Z" fill="#6D3ABF"/>
<g opacity="0.6">
<path opacity="0.6" d="M118.082 334.93V335.538C118.082 336.492 118.855 337.265 119.809 337.265H187.702C188.656 337.265 189.429 336.492 189.429 335.538V334.93C189.429 333.976 188.656 333.203 187.702 333.203H119.809C118.855 333.203 118.082 333.976 118.082 334.93Z" fill="white"/>
</g>
<g opacity="0.6">
<path opacity="0.6" d="M125.657 342.571C125.706 343.475 126.445 344.188 127.35 344.205L186.726 345.287C187.692 345.304 188.485 344.526 188.485 343.56V343.419C188.485 342.476 187.728 341.707 186.785 341.692L127.409 340.751C126.408 340.735 125.603 341.571 125.657 342.571Z" fill="white"/>
</g>
<g opacity="0.61">
<path opacity="0.61" d="M119.596 469.192C116.88 469.192 114.642 467 114.594 464.278L112.667 355.927C112.618 353.174 114.819 350.89 117.573 350.836L197.742 349.275C199.083 349.262 200.346 349.745 201.309 350.673C202.273 351.6 202.817 352.846 202.843 354.183L204.909 463.129C204.934 464.473 204.433 465.743 203.498 466.708C202.564 467.672 201.309 468.211 199.966 468.228L119.657 469.192C119.637 469.192 119.616 469.192 119.596 469.192ZM197.841 351.077C197.82 351.077 197.799 351.078 197.778 351.078L117.608 352.639C115.846 352.672 114.438 354.134 114.47 355.896L116.396 464.245C116.428 465.999 117.888 467.407 119.635 467.389L199.945 466.425C200.804 466.415 201.606 466.069 202.204 465.453C202.802 464.836 203.123 464.023 203.107 463.164L201.04 354.217C201.024 353.362 200.675 352.565 200.059 351.972C199.458 351.394 198.673 351.077 197.841 351.077Z" fill="white"/>
</g>
<g opacity="0.61">
<path opacity="0.61" d="M202.071 361.979H114.608C114.111 361.979 113.707 361.575 113.707 361.078C113.707 360.58 114.111 360.176 114.608 360.176H202.071C202.569 360.176 202.973 360.58 202.973 361.078C202.973 361.575 202.569 361.979 202.071 361.979Z" fill="white"/>
</g>
<path d="M114.464 297.284H213.011C216.153 297.284 218.701 294.737 218.701 291.594V143.994C218.701 140.858 216.162 138.313 213.026 138.304L113.691 138.038C110.531 138.029 107.969 140.598 107.986 143.758L108.774 291.625C108.791 294.755 111.333 297.284 114.464 297.284Z" fill="#412A8E"/>
<path d="M119.293 145.321L207.41 145.863C210.595 145.883 213.162 148.478 213.147 151.663L212.533 284.14C212.518 287.277 210.001 289.828 206.865 289.885L121.248 291.447C118.051 291.506 115.415 288.954 115.37 285.756L113.484 151.175C113.439 147.941 116.059 145.301 119.293 145.321Z" fill="#6D3ABF"/>
<g opacity="0.6">
<path opacity="0.6" d="M122.875 152.743V153.35C122.875 154.304 123.649 155.077 124.603 155.077H192.496C193.45 155.077 194.223 154.304 194.223 153.35V152.743C194.223 151.789 193.45 151.015 192.496 151.015H124.603C123.649 151.015 122.875 151.789 122.875 152.743Z" fill="white"/>
</g>
<g opacity="0.6">
<path opacity="0.6" d="M130.451 160.384C130.5 161.288 131.239 162.001 132.144 162.017L191.52 163.099C192.486 163.117 193.279 162.339 193.279 161.372V161.231C193.279 160.288 192.522 159.519 191.579 159.504L132.203 158.563C131.201 158.547 130.397 159.384 130.451 160.384Z" fill="white"/>
</g>
<g opacity="0.61">
<path opacity="0.61" d="M124.391 287.004C121.674 287.004 119.436 284.812 119.388 282.089L117.461 173.74C117.412 170.986 119.613 168.702 122.367 168.648L202.536 167.088C203.879 167.071 205.14 167.558 206.103 168.485C207.067 169.412 207.611 170.659 207.636 171.995L209.703 280.942C209.728 282.285 209.227 283.555 208.292 284.52C207.358 285.484 206.103 286.024 204.76 286.04L124.451 287.004C124.431 287.004 124.41 287.004 124.391 287.004ZM202.635 168.889C202.614 168.889 202.593 168.89 202.571 168.89L122.402 170.451C120.64 170.485 119.232 171.946 119.264 173.708L121.19 282.058C121.221 283.799 122.653 285.201 124.391 285.201C124.404 285.201 124.416 285.201 124.429 285.201L204.739 284.237C205.598 284.227 206.4 283.882 206.998 283.265C207.596 282.648 207.917 281.835 207.9 280.976L205.834 172.03C205.818 171.175 205.469 170.377 204.853 169.784C204.252 169.206 203.467 168.889 202.635 168.889Z" fill="white"/>
</g>
<g opacity="0.61">
<path opacity="0.61" d="M206.866 179.791H119.402C118.905 179.791 118.501 179.387 118.501 178.89C118.501 178.392 118.905 177.988 119.402 177.988H206.866C207.363 177.988 207.767 178.392 207.767 178.89C207.767 179.387 207.363 179.791 206.866 179.791Z" fill="white"/>
</g>
<g opacity="0.73">
<path opacity="0.73" d="M165.592 201.957C149.212 201.957 135.886 215.283 135.886 231.664C135.886 248.044 149.212 261.37 165.592 261.37C181.973 261.37 195.299 248.044 195.299 231.664C195.299 215.283 181.973 201.957 165.592 201.957Z" stroke="white" stroke-width="22.41"/>
</g>
<g opacity="0.73">
<path opacity="0.73" d="M165.592 201.957C149.212 201.957 135.886 215.283 135.886 231.664C135.886 248.044 149.212 261.37 165.592 261.37C181.973 261.37 195.299 248.044 195.299 231.664C195.299 215.283 181.973 201.957 165.592 201.957Z" stroke="#91B3FA" stroke-width="22.41" stroke-dasharray="190.63 270"/>
</g>
<g opacity="0.73">
<path opacity="0.73" d="M165.592 201.957C149.212 201.957 135.886 215.283 135.886 231.664C135.886 248.044 149.212 261.37 165.592 261.37C181.973 261.37 195.299 248.044 195.299 231.664C195.299 215.283 181.973 201.957 165.592 201.957Z" stroke="#7D97F4" stroke-width="22.41" stroke-dasharray="74.9 270"/>
</g>
<path d="M432.742 221.116L250.404 220.239C248.206 220.219 246.421 222.65 246.438 225.641L246.842 297.782C246.859 300.79 248.69 303.19 250.9 303.1L432.199 299.217C434.308 299.131 435.992 296.798 436.019 293.927L436.655 226.545C436.683 223.572 434.927 221.136 432.742 221.116Z" fill="#412A8E"/>
<path d="M250.784 298.473C250.447 298.473 250.185 298.154 250.182 297.746L249.778 225.605C249.777 225.416 249.828 225.25 249.929 225.111C250.076 224.911 250.255 224.869 250.38 224.869L432.72 225.746C432.844 225.747 433.021 225.79 433.166 225.991C433.267 226.131 433.317 226.297 433.315 226.485L432.68 293.867C432.676 294.266 432.427 294.576 432.101 294.589H432.097L250.784 298.473ZM250.378 225.336C250.367 225.336 250.344 225.336 250.307 225.387C250.266 225.444 250.245 225.514 250.246 225.603L250.65 297.744C250.65 297.904 250.735 298.005 250.779 298.005L432.087 294.122C432.135 294.118 432.211 294.014 432.212 293.862L432.848 226.481C432.848 226.393 432.828 226.323 432.787 226.265C432.75 226.214 432.726 226.213 432.716 226.213L250.378 225.336Z" fill="#BDD0FB"/>
<path d="M262.173 292.304V258.394M425.179 292.304V258.394V292.304ZM410.41 292.304L410.433 281.368L410.41 292.304ZM395.641 292.304L395.664 247.318L395.641 292.304ZM380.872 292.304L380.895 237.608L380.872 292.304ZM366.103 292.304L366.126 231.044L366.103 292.304ZM351.334 292.304L351.357 264.138L351.334 292.304ZM336.565 292.304L336.588 256.343L336.565 292.304ZM321.249 292.304L321.272 247.318L321.249 292.304ZM307.027 292.304L307.05 280.274L307.027 292.304ZM291.711 292.304L291.734 241.164L291.711 292.304ZM276.942 292.304L276.965 270.155L276.942 292.304Z" stroke="#789CE6" stroke-width="16.74"/>
<path d="M262.173 292.304V258.394M425.179 292.304V258.394V292.304ZM410.41 292.304L410.433 281.368L410.41 292.304ZM395.641 292.304L395.664 247.318L395.641 292.304ZM380.878 278.015C380.885 261.81 380.895 237.608 380.895 237.608L380.878 278.015ZM321.249 292.304C321.249 292.304 321.25 289.652 321.252 285.635L321.249 292.304ZM307.027 292.304L307.05 280.274L307.027 292.304ZM291.711 292.304L291.734 241.164L291.711 292.304ZM276.942 292.304L276.965 270.155L276.942 292.304Z" stroke="white" stroke-width="16.74"/>
<path d="M443.054 311.213L256.163 310.315C253.91 310.294 252.081 312.785 252.098 315.851L252.512 389.794C252.53 392.876 254.407 395.336 256.671 395.244L442.497 391.264C444.659 391.175 446.386 388.785 446.413 385.843L447.064 316.778C447.093 313.73 445.294 311.234 443.054 311.213Z" fill="#412A8E"/>
<path d="M256.553 390.501C256.207 390.501 255.938 390.174 255.936 389.757L255.522 315.815C255.521 315.62 255.573 315.45 255.677 315.308C255.827 315.103 256.011 315.06 256.138 315.06L443.031 315.958C443.158 315.959 443.34 316.004 443.489 316.21C443.592 316.353 443.643 316.522 443.642 316.716L442.99 385.781C442.987 386.19 442.731 386.508 442.397 386.521H442.393L256.553 390.501ZM256.137 315.539C256.125 315.539 256.102 315.539 256.064 315.591C256.022 315.648 256.001 315.723 256.001 315.812L256.415 389.754C256.416 389.918 256.503 390.022 256.548 390.022L442.382 386.042C442.432 386.038 442.51 385.932 442.511 385.776L443.162 316.711C443.163 316.623 443.142 316.549 443.101 316.491C443.062 316.438 443.037 316.437 443.028 316.437L256.137 315.539Z" fill="#BDD0FB"/>
<path d="M355.837 325.706H397.541M355.837 375.893C355.837 375.893 371.081 375.949 379.14 375.979L355.837 375.893ZM355.837 370.696L420.925 370.8L355.837 370.696ZM355.837 365.91L371.422 365.878L355.837 365.91ZM355.837 360.85H413.267H355.837ZM355.837 355.791L402.601 355.758L355.837 355.791ZM355.837 350.868L391.661 350.835L355.837 350.868ZM355.837 345.808L433.78 345.912L355.837 345.808ZM355.837 340.748L425.575 340.715L355.837 340.748ZM355.837 335.825H413.267H355.837ZM355.837 330.902H369.507H355.837Z" stroke="white" stroke-width="6.21"/>
<path d="M345.832 325.706L319.444 325.673M345.832 350.868C345.832 350.868 325.801 350.828 311.084 350.799L345.832 350.868ZM345.832 345.808L267.889 345.912L345.832 345.808ZM345.832 340.748L325.598 340.65L345.832 340.748ZM345.832 335.825H288.402H345.832ZM345.832 330.902L300.709 330.869L345.832 330.902Z" stroke="white" stroke-width="6.21"/>
<path d="M221.413 474.561L207.884 595.902H364.853L344.408 474.561H221.413Z" fill="url(#paint10_linear_127_7581)"/>
<path d="M-70.3623 178.381V481.206C-70.3623 506.118 -50.511 526.489 -25.6078 527.131C84.9987 529.984 471.846 536.899 577.136 535.347C595.233 535.08 609.893 520.599 610.415 502.508C612.445 432.158 615.742 262.989 603.54 184.45C600.97 167.911 587.009 155.543 570.28 155.008C477.606 152.043 67.5217 142.629 -37.7188 144.993C-55.8691 145.4 -70.3623 160.226 -70.3623 178.381Z" fill="url(#paint11_linear_127_7581)"/>
<path d="M592.7 510.222C592.695 510.222 592.691 510.222 592.686 510.222L-51.3741 499.249C-51.7972 499.241 -52.1344 498.892 -52.1273 498.47C-52.1203 498.046 -51.7886 497.736 -51.348 497.716L592.712 508.689C593.135 508.697 593.472 509.046 593.465 509.469C593.458 509.888 593.117 510.222 592.7 510.222Z" fill="#412A8E"/>
<path d="M-51.3608 176.907V464.612C-51.3608 479.156 -39.6852 491.008 -25.1423 491.225L561.989 498.479C576.407 498.694 588.226 487.094 588.279 472.674L589.262 187.541C589.3 177.23 581.086 168.782 570.778 168.531L-30.335 156.387C-41.8635 156.107 -51.3608 165.375 -51.3608 176.907Z" fill="url(#paint12_linear_127_7581)"/>
<path d="M277.023 523.625C272.905 523.625 269.555 520.275 269.555 516.157C269.555 512.039 272.905 508.689 277.023 508.689C281.14 508.689 284.49 512.039 284.49 516.157C284.49 520.275 281.14 523.625 277.023 523.625ZM277.023 510.222C273.75 510.222 271.087 512.885 271.087 516.157C271.087 519.43 273.75 522.092 277.023 522.092C280.295 522.092 282.958 519.43 282.958 516.157C282.958 512.885 280.295 510.222 277.023 510.222Z" fill="#412A8E"/>
<path d="M-5.01099 626.764H162.519C167.861 626.764 172.192 622.433 172.192 617.091V366.17C172.192 360.838 167.877 356.512 162.545 356.497L-6.32459 356.044C-11.6971 356.03 -16.0519 360.396 -16.0233 365.769L-14.6836 617.142C-14.6552 622.464 -10.333 626.764 -5.01099 626.764Z" fill="#412A8E"/>
<path d="M3.19867 368.425L152.997 369.348C158.412 369.381 162.777 373.793 162.752 379.208L161.706 604.418C161.681 609.751 157.403 614.088 152.07 614.186L6.52263 616.841C1.08665 616.94 -3.39399 612.602 -3.4703 607.165L-6.67577 378.378C-6.75285 372.88 -2.29931 368.391 3.19867 368.425Z" fill="#6D3ABF"/>
<g opacity="0.6">
<path opacity="0.6" d="M9.28906 381.042V382.075C9.28906 383.697 10.6037 385.011 12.2253 385.011H127.644C129.266 385.011 130.58 383.697 130.58 382.075V381.042C130.58 379.421 129.266 378.106 127.644 378.106H12.2253C10.6037 378.106 9.28906 379.421 9.28906 381.042Z" fill="white"/>
</g>
<g opacity="0.6">
<path opacity="0.6" d="M22.167 394.032C22.2504 395.569 23.5065 396.781 25.0455 396.809L125.985 398.649C127.627 398.679 128.975 397.356 128.975 395.713V395.474C128.975 393.87 127.688 392.563 126.085 392.538L25.1455 390.938C23.4432 390.911 22.0749 392.332 22.167 394.032Z" fill="white"/>
</g>
<g opacity="0.61">
<path opacity="0.61" d="M11.8627 609.287C7.24624 609.287 3.44199 605.561 3.35963 600.933L0.0843745 416.738C0.00101037 412.057 3.742 408.174 8.42351 408.082L144.712 405.429C146.99 405.406 149.138 406.228 150.776 407.805C152.413 409.381 153.339 411.5 153.382 413.772L156.895 598.981C156.938 601.264 156.087 603.425 154.497 605.064C152.908 606.703 150.776 607.621 148.493 607.648L11.9664 609.287C11.932 609.287 11.8971 609.287 11.8627 609.287ZM144.88 408.492C144.844 408.492 144.808 408.493 144.772 408.494L8.48352 411.147C5.48848 411.204 3.09498 413.689 3.14822 416.684L6.42348 600.878C6.47696 603.86 8.96032 606.253 11.9292 606.222L148.456 604.583C149.916 604.566 151.28 603.979 152.297 602.931C153.314 601.882 153.859 600.5 153.831 599.039L150.318 413.831C150.291 412.377 149.698 411.021 148.651 410.013C147.629 409.03 146.294 408.492 144.88 408.492Z" fill="white"/>
</g>
<g opacity="0.61">
<path opacity="0.61" d="M152.072 427.025H3.38484C2.53873 427.025 1.85254 426.339 1.85254 425.493C1.85254 424.647 2.53873 423.96 3.38484 423.96H152.072C152.918 423.96 153.605 424.647 153.605 425.493C153.605 426.339 152.918 427.025 152.072 427.025Z" fill="white"/>
</g>
<path d="M3.13842 317.044H170.668C176.01 317.044 180.341 312.714 180.341 307.372V56.451C180.341 51.119 176.026 46.7925 170.694 46.7782L1.82458 46.325C-3.5479 46.3107 -7.90251 50.6768 -7.87388 56.0493L-6.53442 307.423C-6.50604 312.745 -2.18355 317.044 3.13842 317.044Z" fill="#412A8E"/>
<path d="M11.3478 58.7061L161.147 59.6283C166.561 59.6617 170.926 64.0738 170.901 69.4884L169.856 294.698C169.831 300.031 165.552 304.369 160.22 304.466L14.672 307.122C9.23606 307.221 4.75518 302.882 4.67884 297.446L1.47364 68.6582C1.39656 63.1607 5.84986 58.6722 11.3478 58.7061Z" fill="#6D3ABF"/>
<g opacity="0.6">
<path opacity="0.6" d="M17.4385 71.3234V72.356C17.4385 73.9777 18.7531 75.2923 20.3748 75.2923H135.794C137.415 75.2923 138.73 73.9777 138.73 72.356V71.3234C138.73 69.7017 137.415 68.3871 135.794 68.3871H20.3748C18.7531 68.3871 17.4385 69.7017 17.4385 71.3234Z" fill="white"/>
</g>
<g opacity="0.6">
<path opacity="0.6" d="M30.3164 84.3134C30.3998 85.8504 31.6556 87.0619 33.1947 87.09L134.134 88.9296C135.777 88.9595 137.124 87.6366 137.124 85.9941V85.7543C137.124 84.1509 135.838 82.8438 134.234 82.8185L33.2946 81.2184C31.5924 81.1915 30.2243 82.6133 30.3164 84.3134Z" fill="white"/>
</g>
<g opacity="0.61">
<path opacity="0.61" d="M20.0136 299.568C15.3959 299.568 11.5909 295.842 11.509 291.213L8.23379 107.019C8.15042 102.338 11.8914 98.4545 16.5729 98.3631L152.861 95.7101C155.144 95.6817 157.287 96.509 158.925 98.0855C160.563 99.6619 161.489 101.781 161.531 104.053L165.044 289.262C165.088 291.545 164.236 293.705 162.647 295.345C161.057 296.984 158.925 297.901 156.642 297.929L20.1158 299.568C20.0822 299.568 20.0473 299.568 20.0136 299.568ZM153.03 98.7731C152.993 98.7731 152.957 98.7739 152.921 98.7747L16.6327 101.428C13.6376 101.485 11.2444 103.97 11.2976 106.965L14.5729 291.159C14.6256 294.119 17.06 296.504 20.0139 296.504C20.0357 296.504 20.0576 296.504 20.0792 296.503L156.605 294.864C158.066 294.847 159.43 294.26 160.447 293.212C161.463 292.163 162.008 290.781 161.98 289.32L158.468 104.112C158.44 102.658 157.848 101.302 156.8 100.294C155.779 99.3112 154.443 98.7731 153.03 98.7731Z" fill="white"/>
</g>
<g opacity="0.61">
<path opacity="0.61" d="M160.222 117.306H11.5345C10.6884 117.306 10.002 116.62 10.002 115.773C10.002 114.927 10.6884 114.241 11.5345 114.241H160.222C161.068 114.241 161.754 114.927 161.754 115.773C161.754 116.62 161.068 117.306 160.222 117.306Z" fill="white"/>
</g>
<g opacity="0.73">
<path opacity="0.73" d="M90.057 154.988C62.2107 154.988 39.5557 177.642 39.5557 205.489C39.5557 233.336 62.2107 255.991 90.057 255.991C117.904 255.991 140.558 233.335 140.558 205.489C140.558 177.642 117.904 154.988 90.057 154.988Z" stroke="white" stroke-width="38.097"/>
</g>
<g opacity="0.73">
<path opacity="0.73" d="M90.057 154.988C62.2107 154.988 39.5557 177.642 39.5557 205.489C39.5557 233.336 62.2107 255.991 90.057 255.991C117.904 255.991 140.558 233.335 140.558 205.489C140.558 177.642 117.904 154.988 90.057 154.988Z" stroke="#91B3FA" stroke-width="38.097" stroke-dasharray="324.08 459"/>
</g>
<g opacity="0.73">
<path opacity="0.73" d="M90.057 154.988C62.2107 154.988 39.5557 177.642 39.5557 205.489C39.5557 233.336 62.2107 255.991 90.057 255.991C117.904 255.991 140.558 233.335 140.558 205.489C140.558 177.642 117.904 154.988 90.057 154.988Z" stroke="#7D97F4" stroke-width="38.097" stroke-dasharray="127.34 459"/>
</g>
<path d="M544.212 187.558L234.236 186.068C230.5 186.034 227.466 190.166 227.495 195.25L228.182 317.891C228.21 323.004 231.324 327.084 235.079 326.93L543.289 320.33C546.874 320.183 549.737 316.218 549.783 311.338L550.863 196.788C550.911 191.734 547.927 187.592 544.212 187.558Z" fill="#412A8E"/>
<path d="M234.883 319.065C234.309 319.065 233.864 318.522 233.86 317.83L233.173 195.19C233.172 194.868 233.258 194.586 233.43 194.35C233.679 194.009 233.984 193.938 234.195 193.938L544.173 195.429C544.385 195.43 544.686 195.505 544.932 195.846C545.103 196.084 545.188 196.365 545.186 196.685L544.106 311.235C544.099 311.913 543.676 312.44 543.122 312.463H543.115L234.883 319.065ZM234.193 194.732C234.174 194.732 234.135 194.732 234.072 194.819C234.002 194.915 233.967 195.036 233.968 195.186L234.654 317.825C234.656 318.097 234.8 318.27 234.874 318.27L543.098 311.668C543.179 311.662 543.309 311.485 543.311 311.227L544.391 196.678C544.392 196.529 544.358 196.41 544.288 196.311C544.225 196.224 544.185 196.223 544.168 196.223L234.193 194.732Z" fill="#BDD0FB"/>
<path d="M254.244 308.577V250.931M531.354 308.577V250.931V308.577ZM506.247 308.577L506.287 289.987L506.247 308.577ZM481.14 308.577L481.18 232.101L481.14 308.577ZM456.033 308.577L456.072 215.595L456.033 308.577ZM430.925 308.577L430.965 204.437L430.925 308.577ZM405.818 308.577L405.858 260.695L405.818 308.577ZM380.711 308.577L380.751 247.444L380.711 308.577ZM354.673 308.577L354.713 232.101L354.673 308.577ZM330.496 308.577L330.536 288.127L330.496 308.577ZM304.459 308.577L304.499 221.64L304.459 308.577ZM279.351 308.577L279.391 270.924L279.351 308.577Z" stroke="#789CE6" stroke-width="28.458"/>
<path d="M254.244 308.577V250.932M531.354 308.577V250.932V308.577ZM506.247 308.577L506.287 289.987L506.247 308.577ZM481.14 308.577L481.18 232.101L481.14 308.577ZM456.043 284.287C456.055 256.737 456.072 215.595 456.072 215.595L456.043 284.287ZM354.673 308.577C354.673 308.577 354.676 304.069 354.679 297.241L354.673 308.577ZM330.496 308.577L330.536 288.128L330.496 308.577ZM304.459 308.577L304.499 221.64L304.459 308.577ZM279.351 308.577L279.391 270.924L279.351 308.577Z" stroke="white" stroke-width="28.458"/>
<path d="M561.742 340.723L244.026 339.196C240.197 339.161 237.088 343.396 237.117 348.607L237.821 474.311C237.85 479.551 241.041 483.733 244.89 483.575L560.795 476.81C564.47 476.659 567.405 472.596 567.452 467.594L568.559 350.183C568.608 345.003 565.549 340.758 561.742 340.723Z" fill="#412A8E"/>
<path d="M244.689 475.513C244.102 475.513 243.645 474.957 243.641 474.247L242.937 348.545C242.936 348.215 243.024 347.926 243.2 347.684C243.456 347.336 243.768 347.262 243.985 347.262L561.702 348.789C561.918 348.791 562.227 348.868 562.48 349.218C562.655 349.46 562.743 349.749 562.74 350.077L561.633 467.488C561.627 468.183 561.193 468.724 560.625 468.747H560.617L244.689 475.513ZM243.982 348.077C243.963 348.077 243.922 348.077 243.858 348.165C243.786 348.262 243.751 348.39 243.752 348.541L244.455 474.242C244.457 474.521 244.604 474.698 244.681 474.698L560.6 467.932C560.683 467.926 560.816 467.745 560.818 467.48L561.926 350.07C561.927 349.92 561.891 349.794 561.82 349.696C561.754 349.605 561.712 349.604 561.697 349.604L243.982 348.077Z" fill="#BDD0FB"/>
<path d="M413.473 365.361H484.37M413.473 450.679C413.473 450.679 439.387 450.775 453.087 450.825L413.473 450.679ZM413.473 441.845L524.123 442.022L413.473 441.845ZM413.473 433.708L439.967 433.653L413.473 433.708ZM413.473 425.107H511.104H413.473ZM413.473 416.505L492.971 416.449L413.473 416.505ZM413.473 408.136L474.373 408.08L413.473 408.136ZM413.473 399.535L545.976 399.711L413.473 399.535ZM413.473 390.933L532.027 390.877L413.473 390.933ZM413.473 382.564H511.104H413.473ZM413.473 374.195H436.712H413.473Z" stroke="white" stroke-width="10.557"/>
<path d="M396.464 365.361L351.605 365.305M396.464 408.136C396.464 408.136 362.411 408.069 337.393 408.02L396.464 408.136ZM396.464 399.535L263.961 399.711L396.464 399.535ZM396.464 390.933L362.066 390.766L396.464 390.933ZM396.464 382.564H298.833H396.464ZM396.464 374.195L319.756 374.139L396.464 374.195Z" stroke="white" stroke-width="10.557"/>
<path d="M422.156 498.872C427.085 499.298 435.64 499.99 442.385 500.287C446.439 500.465 448.773 500.068 450.117 499.53C450.115 499.682 450.111 499.825 450.105 499.958C450.073 500.668 449.496 501.235 448.779 501.275C436.035 501.987 425.9 501.522 422.292 501.302C421.546 501.257 421.101 500.446 421.483 499.81C421.674 499.492 421.905 499.18 422.156 498.872Z" fill="url(#paint13_linear_127_7581)"/>
<path d="M442.385 500.287C435.64 499.99 427.085 499.298 422.156 498.872C427.002 492.926 442.385 488.918 442.385 488.918H446.729C449.717 493.226 450.15 497.326 450.117 499.53C448.773 500.068 446.439 500.465 442.385 500.287Z" fill="url(#paint14_linear_127_7581)"/>
<path d="M447.461 481.826L447.054 489.871C447.01 490.742 446.358 491.474 445.485 491.599C444.617 491.723 443.455 491.739 442.222 491.329C441.463 491.076 440.9 490.437 440.76 489.657L439.355 481.826H447.461Z" fill="url(#paint15_linear_127_7581)"/>
<path d="M503.891 500.227C506.028 499.929 506.996 498.818 507.401 497.631C507.404 497.642 507.407 497.652 507.409 497.663C507.724 498.915 506.995 500.213 505.537 500.83C503.775 501.576 501.849 501.704 500.353 501.642C498.749 501.576 497.276 500.912 496.467 499.849L496.455 499.833C498.065 500.63 500.326 500.724 503.891 500.227Z" fill="url(#paint16_linear_127_7581)"/>
<path d="M493.812 481.774H497.395C502.852 481.663 506.279 493.173 507.401 497.631C506.995 498.818 506.028 499.929 503.891 500.227C500.326 500.724 498.065 500.63 496.454 499.833C493.506 495.953 492.044 490.271 491.342 486.955C490.542 483.183 493.812 481.774 493.812 481.774Z" fill="url(#paint17_linear_127_7581)"/>
<path d="M496.934 474.307L498.924 482.22C499.168 483.19 498.703 484.193 497.806 484.654C496.693 485.225 495.126 485.825 493.686 485.651C493.009 485.57 492.446 485.093 492.223 484.455L489.302 476.13L496.934 474.307Z" fill="url(#paint18_linear_127_7581)"/>
<path d="M499.308 476.594C496.832 478.79 488.781 479.079 488.781 479.079C459.78 409.473 447.916 399.585 447.916 399.585C452.104 425.857 448.591 484.021 448.591 484.021C443.805 486.133 437.635 484.021 437.635 484.021C437.247 441.01 430.636 403.499 422.826 373.927C442.427 373.486 452.851 366.779 456.255 364.087C472.594 390.429 499.308 476.594 499.308 476.594Z" fill="url(#paint19_linear_127_7581)"/>
<path d="M445.937 397.937C446.102 397.937 446.268 397.892 446.419 397.801C446.857 397.533 446.996 396.962 446.73 396.525C446.574 396.269 442.822 390.205 435.231 386.542C434.769 386.321 434.214 386.512 433.99 386.975C433.768 387.437 433.961 387.993 434.423 388.215C441.501 391.63 445.107 397.433 445.143 397.491C445.318 397.778 445.624 397.937 445.937 397.937Z" fill="url(#paint20_linear_127_7581)"/>
<path d="M467.516 287.805C467.534 306.679 459.75 338.902 455.938 353.547C454.867 357.663 456.622 364.016 458.186 368.424C458.431 369.115 458.046 369.86 457.341 370.062C453.003 371.299 438.426 374.906 422.824 372.605C421.784 372.451 421.004 371.566 420.936 370.517C418.013 325.45 410.159 295.458 410.159 295.458C429.532 274.926 467.516 287.805 467.516 287.805Z" fill="url(#paint21_linear_127_7581)"/>
<path d="M479.948 344.444C477.092 352.665 471.8 361.198 462.938 369.616L460.739 366.951C460.739 366.951 466.224 355.257 467.285 340.956C471.712 340.975 476.573 342.836 479.948 344.444Z" fill="url(#paint22_linear_127_7581)"/>
<path d="M458.985 309.387L467.517 287.805C467.517 287.805 490.529 313.977 479.948 344.444C476.573 342.836 471.712 340.975 467.285 340.956C468.05 330.654 466.519 319 458.985 309.387Z" fill="url(#paint23_linear_127_7581)"/>
<path d="M410.159 295.458L416.137 320.121C411.723 333.41 403.227 337.842 394.883 338.528C395.63 332.219 395.06 326.888 394.295 323.126C406.458 314.725 410.159 295.458 410.159 295.458Z" fill="url(#paint24_linear_127_7581)"/>
<path d="M394.295 323.126C395.06 326.888 395.629 332.219 394.883 338.528C372.193 342.497 369.783 325.54 369.783 325.54L373.812 325.629C382.416 328.309 389.121 326.7 394.295 323.126Z" fill="url(#paint25_linear_127_7581)"/>
<path d="M425.374 269.517L426.724 289.127C426.875 291.33 428.911 292.903 431.083 292.5C433.426 292.066 436.415 291.431 439.04 290.624C441.842 289.763 443.283 286.667 442.158 283.959L434.767 266.175L425.374 269.517Z" fill="url(#paint26_linear_127_7581)"/>
<path d="M362.614 311.167L482.855 384.221C487.898 387.285 489.262 393.996 485.816 398.785L485.25 399.572C482.201 403.81 476.284 404.755 472.066 401.678L357.791 318.324L362.614 311.167Z" fill="url(#paint27_linear_127_7581)"/>
<g opacity="0.25">
<path opacity="0.25" d="M244.678 258.124C237.753 292.835 260.795 326.69 296.144 333.742C331.492 340.793 365.761 318.371 372.686 283.661C379.61 248.95 356.568 215.095 321.22 208.043C285.871 200.991 251.602 223.413 244.678 258.124Z" fill="url(#paint28_radial_127_7581)"/>
</g>
<g style="mix-blend-mode:screen" opacity="0.68">
<g style="mix-blend-mode:screen" opacity="0.68">
<path d="M285.468 219.216C256.03 234.562 243.954 269.613 258.494 297.506C273.034 325.399 308.686 335.57 338.123 320.224C315.497 324.267 285.571 313.485 273.933 292.661C258.99 265.924 269.643 233.964 285.468 219.216Z" fill="white" fill-opacity="0.3"/>
</g>
</g>
<path d="M237.463 256.684C229.758 295.308 255.397 332.98 294.731 340.827C334.064 348.673 372.196 323.724 379.901 285.1C387.606 246.476 361.966 208.805 322.633 200.958C283.3 193.111 245.168 218.061 237.463 256.684ZM247.925 258.772C254.498 225.822 287.028 204.537 320.584 211.231C354.139 217.925 376.013 250.063 369.439 283.013C362.866 315.963 330.335 337.248 296.78 330.553C263.225 323.859 241.351 291.722 247.925 258.772Z" fill="url(#paint29_linear_127_7581)"/>
<path d="M372.698 292.667C372.442 292.581 372.305 292.306 372.391 292.05C372.927 290.449 373.406 288.816 373.812 287.196C373.877 286.935 374.094 286.761 374.405 286.842C374.665 286.907 374.824 287.172 374.759 287.434C374.345 289.078 373.861 290.736 373.316 292.36C373.237 292.595 372.996 292.731 372.758 292.683C372.739 292.679 372.718 292.674 372.698 292.667ZM375.778 272.542C375.868 267.952 375.464 263.341 374.577 258.835C374.577 258.835 374.577 258.835 374.576 258.833C369.355 232.268 348.552 211.625 321.578 206.244C309 203.735 296.075 204.79 284.201 209.295C283.948 209.39 283.665 209.264 283.572 209.011C283.477 208.759 283.602 208.478 283.854 208.382C295.9 203.812 309.01 202.742 321.769 205.287C349.131 210.746 370.236 231.69 375.534 258.644L375.535 258.645C376.434 263.219 376.844 267.901 376.753 272.562C376.748 272.831 376.525 273.045 376.257 273.04C376.227 273.039 376.198 273.036 376.17 273.031C375.943 272.985 375.774 272.782 375.778 272.542Z" fill="#412A8E"/>
<path d="M417.124 253.176C417.014 253.487 417.109 275.245 417.109 275.245L429.532 274.926L432.505 254.291C432.505 254.291 418.962 247.983 417.124 253.176Z" fill="url(#paint30_linear_127_7581)"/>
<path d="M428.924 258.307L428.21 269.292C428.201 269.433 428.173 269.569 428.126 269.702C427.839 270.517 426.645 273.248 423.925 271.856C421.457 270.594 419.186 269.478 417.428 269.654C416.639 269.733 416.04 270.397 416.043 271.19C416.053 273.167 416.156 277.621 416.836 281.478C416.974 282.26 417.693 282.8 418.484 282.731C420.87 282.524 425.888 281.945 429.817 280.534C430.349 280.343 430.735 279.883 430.822 279.324C431.247 276.599 432.57 268.324 433.295 266.074C433.976 263.963 436.886 263.198 438.131 262.964C438.539 262.887 438.894 262.648 439.121 262.3C439.921 261.069 441.274 258.122 437.628 256.076C436.864 255.648 436.61 254.683 437.061 253.933C437.959 252.44 438.692 250.035 435.945 248.082C433.154 246.096 430.538 247.274 429.037 248.355C428.43 248.793 427.611 248.715 427.069 248.199C426.76 247.905 426.32 247.741 425.702 247.974C424.87 248.288 423.951 247.778 423.726 246.917C423.292 245.264 422.118 243.351 419.014 243.266C413.506 243.116 411.725 248.897 412.44 252.636C413.155 256.375 419.136 256.199 422.353 255.027C424.798 254.137 427.35 256.091 428.433 257.078C428.776 257.391 428.954 257.843 428.924 258.307Z" fill="url(#paint31_linear_127_7581)"/>
<path d="M432.995 270.072C432.995 270.072 432.028 263.503 434.577 262.45C437.127 261.398 440.303 262.842 438.683 267.137C436.669 272.48 432.995 270.072 432.995 270.072Z" fill="url(#paint32_linear_127_7581)"/>
<path d="M461.896 366.794L449.839 363.35L443.554 367.184C443.554 367.184 444.464 369.171 448.589 368.956C452.714 368.742 458.141 369.57 458.141 369.57C458.141 369.57 463.074 373.095 464.052 368.536L461.896 366.794Z" fill="url(#paint33_linear_127_7581)"/>
<path d="M370.766 328.75C369.541 329.367 366.254 326.913 364.27 325.275C363.303 324.476 363.031 323.105 363.637 322.007C364.508 320.427 365.833 318.428 366.986 318.373C368.899 318.281 375.815 326.209 370.766 328.75Z" fill="url(#paint34_linear_127_7581)"/>
<path d="M476.896 400.756C476.948 400.766 477.003 400.769 477.058 400.761C482.472 400.02 484.247 397.263 484.783 395.08C485.564 391.89 484.137 388.5 481.235 386.645L466.878 377.468C466.655 377.324 466.351 377.389 466.205 377.617C466.059 377.844 466.125 378.146 466.353 378.291L480.71 387.467C483.26 389.098 484.516 392.063 483.834 394.848C483.161 397.595 480.837 399.259 476.925 399.794C476.659 399.831 476.471 400.076 476.509 400.344C476.538 400.555 476.698 400.716 476.896 400.756Z" fill="#412A8E"/>
<path d="M462.098 375.531C462.289 375.569 462.493 375.489 462.604 375.315C462.749 375.088 462.683 374.786 462.455 374.641L460.594 373.452C460.371 373.307 460.066 373.373 459.921 373.6C459.775 373.828 459.841 374.129 460.069 374.275L461.931 375.464C461.983 375.497 462.039 375.519 462.098 375.531Z" fill="#412A8E"/>
<path d="M63.6885 359.371C63.6885 359.371 43.7005 370.443 42.0468 389.183C40.3931 407.923 41.9093 485.703 81.9901 504.847C122.071 523.991 175.125 519.579 195.433 517.486C215.74 515.393 227 501.592 229.515 492.089C232.031 482.586 236.094 447.188 214.73 435.769C193.367 424.351 170.929 406.857 148.508 389.823C126.087 372.79 87.6626 344.983 63.6885 359.371Z" fill="url(#paint35_linear_127_7581)"/>
<path d="M208.43 442.229C208.43 442.229 203.036 442.515 202.374 453.614C202.374 453.614 214.883 464.828 231.781 467.497C233.049 467.697 230.008 458.837 229.55 457.637C227.374 451.926 220.521 448.249 208.43 442.229Z" fill="url(#paint36_linear_127_7581)"/>
<path d="M147.675 429.179H159.059C159.059 429.179 194 390.591 216.917 386.697C216.917 386.697 232.869 407.06 216.067 445.108C214.715 448.168 210.935 449.528 208.115 447.727C207.272 447.188 206.666 446.467 206.299 445.561L207.65 413.075C207.65 413.075 177.845 439.143 172.664 444.173C167.484 449.204 141.151 446.137 147.675 429.179Z" fill="url(#paint37_linear_127_7581)"/>
<path d="M257.735 510.199C252.965 506.019 245.364 501.328 234.391 499.983L230.68 502.253C230.68 502.253 233.046 505.744 237.369 509.43C241.342 511.738 247.477 514.864 252.563 515.541C257.509 516.2 258.238 513.212 257.735 510.199Z" fill="url(#paint38_linear_127_7581)"/>
<path d="M229.55 457.637C226.611 458.588 225.319 462.752 217.861 459.999C210.646 457.335 205.282 453.899 202.523 451.918C202.461 452.455 202.41 453.016 202.374 453.614C202.374 453.614 215.564 466.159 232.461 468.829C233.73 469.029 234.735 467.763 234.278 466.563C233.458 464.409 231.978 461.143 229.55 457.637Z" fill="#412A8E"/>
<path d="M261.329 513.769C260.388 512.7 259.188 511.472 257.735 510.199C258.237 513.212 257.508 516.2 252.563 515.541C247.477 514.864 241.342 511.738 237.369 509.43C242.348 513.677 249.925 518.185 259.488 517.92C261.612 517.862 262.732 515.364 261.329 513.769Z" fill="#412A8E"/>
<path d="M148.091 437.417L201.403 437.994C201.403 437.994 231.847 463.182 237.369 501.59C237.369 501.59 238.286 504.415 232.783 504.898C232.783 504.898 214.376 492.877 202.374 471.622C187.658 445.561 158.504 457.293 158.504 457.293C148.925 450.386 135.388 448.98 125.191 446.679L148.091 437.417Z" fill="url(#paint39_linear_127_7581)"/>
<path d="M149.35 394.472C149.35 394.472 155.089 423.233 183.209 434.611L193.211 433.433L195.571 437.196L172.109 437.944C172.109 437.944 152.053 430 141.427 408.355C141.076 407.64 135.225 395.558 149.35 394.472Z" fill="url(#paint40_linear_127_7581)"/>
<path d="M152.426 436.946C152.426 436.946 145.9 419.206 144.497 401.969C144.497 401.969 149.272 397.865 152.256 396.095C153.222 395.522 153.587 394.309 153.099 393.297C150.904 388.752 137.636 370.905 136.642 370.657C131.24 369.309 109.084 358.775 93.4802 380.119C86.7835 389.279 94.8093 417.477 125.191 446.679L131.459 447.878L152.426 436.946Z" fill="#412A8E"/>
<path d="M127.278 405.856C127.278 405.856 145.41 427.325 168.592 430.464C168.592 430.464 174.583 425.002 179.038 426.952C183.493 428.902 189.602 437.509 189.602 437.509H187.172H180.779H159.836C159.836 437.509 131.692 436.518 117.628 419.451C118.76 413.479 122.149 409.912 127.278 405.856Z" fill="url(#paint41_linear_127_7581)"/>
<path d="M116.701 355.599L112.733 368.831C112.551 369.437 112.776 370.094 113.298 370.451C115.208 371.76 120.2 374.361 127.049 371.833C127.832 371.544 128.369 370.812 128.436 369.98L129.377 358.453L116.701 355.599Z" fill="url(#paint42_linear_127_7581)"/>
<path d="M134.413 339.496C134.413 339.496 137.471 353.009 134.048 358.826C130.624 364.643 119.9 365.327 112.981 356.897L113.146 337.916L134.413 339.496Z" fill="url(#paint43_linear_127_7581)"/>
<path d="M116.49 348.885C116.91 348.863 117.211 348.474 117.122 348.062C116.849 346.811 116.401 344.3 116.692 342.363C116.692 342.363 115.582 340.861 121.269 341.604C126.957 342.348 135.467 343.38 138.795 339.569C142.04 335.853 142.011 323.379 132.025 329.494C131.645 329.727 131.144 329.544 131.017 329.117C130.466 327.274 128.719 323.219 124.04 323.485C119.661 323.734 122.523 324.943 122.047 326.343C121.907 326.755 121.968 325.152 116.723 328.073C114.924 329.075 110.554 324.948 106.66 328.792C103.452 331.958 103.757 334.56 104.384 336.015C104.587 336.487 104.224 336.997 103.712 336.962C102.324 336.868 100.318 337.308 99.3669 340.28C98.0519 344.387 102.685 345.751 104.036 346.057C104.257 346.107 104.441 346.26 104.523 346.472C105.157 348.106 108.133 355.156 113.25 357.823C113.693 358.054 114.227 357.734 114.244 357.234L114.5 349.613C114.512 349.259 114.793 348.973 115.146 348.955L116.49 348.885Z" fill="url(#paint44_linear_127_7581)"/>
<path d="M117.056 350.197C117.056 350.197 112.761 343.978 111.05 347.18C109.34 350.381 114.431 354.054 117.718 353.873L117.056 350.197Z" fill="url(#paint45_linear_127_7581)"/>
<path d="M188.103 439.175L201.468 394.606C202.013 392.787 203.628 391.498 205.522 391.368L223.566 390.133C225.4 390.008 226.764 391.8 226.155 393.534L211.215 436.098C210.734 437.469 209.503 438.438 208.057 438.584L190.288 440.557L188.103 439.175Z" fill="url(#paint46_linear_127_7581)"/>
<path d="M212.751 409.711C211.753 411.726 210.03 412.905 208.902 412.347C207.775 411.788 207.669 409.702 208.667 407.688C209.665 405.674 211.388 404.494 212.516 405.053C213.643 405.612 213.749 407.697 212.751 409.711Z" fill="url(#paint47_linear_127_7581)"/>
<path d="M190.288 440.557C190.26 440.557 190.231 440.556 190.201 440.555L152.34 438.641C151.404 438.594 150.684 437.797 150.731 436.861C150.778 435.925 151.579 435.189 152.512 435.252L190.373 437.166C191.309 437.213 192.029 438.01 191.982 438.946C191.936 439.853 191.186 440.557 190.288 440.557Z" fill="url(#paint48_linear_127_7581)"/>
<path d="M144.497 402.269C144.332 402.269 144.196 402.134 144.197 401.967C144.223 394.058 141.17 383.557 141.139 383.452C141.092 383.293 141.183 383.126 141.342 383.079C141.504 383.034 141.669 383.123 141.716 383.283C141.747 383.389 144.824 393.972 144.797 401.97C144.797 402.135 144.662 402.269 144.497 402.269Z" fill="url(#paint49_linear_127_7581)"/>
<path d="M127.279 406.156C127.191 406.156 127.102 406.117 127.043 406.042C126.96 405.937 118.679 395.41 115.832 388.196C115.77 388.041 115.847 387.867 116.001 387.806C116.155 387.745 116.33 387.82 116.39 387.975C119.206 395.107 127.431 405.565 127.515 405.67C127.618 405.8 127.595 405.989 127.465 406.091C127.41 406.135 127.344 406.156 127.279 406.156Z" fill="url(#paint50_linear_127_7581)"/>
<path d="M115.626 422.251L115.402 422.155C103.422 417.026 96.0226 402.723 95.9494 402.579C95.8738 402.431 95.9331 402.25 96.0808 402.175C96.2251 402.101 96.4065 402.157 96.4845 402.306C96.5565 402.447 103.768 416.383 115.416 421.506L116.651 419.762C116.748 419.625 116.936 419.595 117.069 419.69C117.206 419.786 117.237 419.973 117.142 420.109L115.626 422.251Z" fill="url(#paint51_linear_127_7581)"/>
</g>
<defs>
<linearGradient id="paint0_linear_127_7581" x1="431.505" y1="81.1874" x2="455.563" y2="37.4005" gradientUnits="userSpaceOnUse">
<stop stop-color="#E1473D"/>
<stop offset="0.5" stop-color="#E5534B"/>
<stop offset="1" stop-color="#E9605A"/>
</linearGradient>
<linearGradient id="paint1_linear_127_7581" x1="467.832" y1="6.54473" x2="403.686" y2="169.041" gradientUnits="userSpaceOnUse">
<stop stop-color="#FF928E"/>
<stop offset="0.5" stop-color="#FE8178"/>
<stop offset="1" stop-color="#FE7062"/>
</linearGradient>
<linearGradient id="paint2_linear_127_7581" x1="286.425" y1="54.3596" x2="302.4" y2="113.19" gradientUnits="userSpaceOnUse">
<stop stop-color="#FF928E"/>
<stop offset="0.5" stop-color="#FE8178"/>
<stop offset="1" stop-color="#FE7062"/>
</linearGradient>
<linearGradient id="paint3_linear_127_7581" x1="408.662" y1="98.6551" x2="447.663" y2="129.879" gradientUnits="userSpaceOnUse">
<stop stop-color="#E1473D"/>
<stop offset="0.5" stop-color="#E5534B"/>
<stop offset="1" stop-color="#E9605A"/>
</linearGradient>
<linearGradient id="paint4_linear_127_7581" x1="463.024" y1="88.8304" x2="313.966" y2="-2.28344" gradientUnits="userSpaceOnUse">
<stop stop-color="#FF928E"/>
<stop offset="0.5" stop-color="#FE8178"/>
<stop offset="1" stop-color="#FE7062"/>
</linearGradient>
<linearGradient id="paint5_linear_127_7581" x1="366.245" y1="12.0155" x2="305.37" y2="15.2547" gradientUnits="userSpaceOnUse">
<stop stop-color="#FF928E"/>
<stop offset="0.5" stop-color="#FE8178"/>
<stop offset="1" stop-color="#FE7062"/>
</linearGradient>
<linearGradient id="paint6_linear_127_7581" x1="276.771" y1="367.136" x2="286.062" y2="571.528" gradientUnits="userSpaceOnUse">
<stop stop-color="#09005D"/>
<stop offset="0.5" stop-color="#120777"/>
<stop offset="1" stop-color="#1A0F91"/>
</linearGradient>
<linearGradient id="paint7_linear_127_7581" x1="271.897" y1="66.4387" x2="271.897" y2="402.964" gradientUnits="userSpaceOnUse">
<stop stop-color="#09005D"/>
<stop offset="0.5" stop-color="#120777"/>
<stop offset="1" stop-color="#1A0F91"/>
</linearGradient>
<linearGradient id="paint8_linear_127_7581" x1="294.642" y1="148.259" x2="235.967" y2="520.717" gradientUnits="userSpaceOnUse">
<stop stop-color="#EDFA99"/>
<stop offset="0.5" stop-color="#05E5AB"/>
<stop offset="1" stop-color="#05E5AB"/>
</linearGradient>
<linearGradient id="paint9_linear_127_7581" x1="279.429" y1="301.856" x2="279.429" y2="461.861" gradientUnits="userSpaceOnUse">
<stop stop-color="#09005D"/>
<stop offset="0.5" stop-color="#120777"/>
<stop offset="1" stop-color="#1A0F91"/>
</linearGradient>
<linearGradient id="paint10_linear_127_7581" x1="279.061" y1="435.791" x2="294.855" y2="783.259" gradientUnits="userSpaceOnUse">
<stop stop-color="#09005D"/>
<stop offset="0.5" stop-color="#120777"/>
<stop offset="1" stop-color="#1A0F91"/>
</linearGradient>
<linearGradient id="paint11_linear_127_7581" x1="270.775" y1="-75.3934" x2="270.775" y2="496.699" gradientUnits="userSpaceOnUse">
<stop stop-color="#09005D"/>
<stop offset="0.5" stop-color="#120777"/>
<stop offset="1" stop-color="#1A0F91"/>
</linearGradient>
<linearGradient id="paint12_linear_127_7581" x1="309.441" y1="63.701" x2="209.693" y2="696.88" gradientUnits="userSpaceOnUse">
<stop stop-color="#EDFA99"/>
<stop offset="0.5" stop-color="#05E5AB"/>
<stop offset="1" stop-color="#05E5AB"/>
</linearGradient>
<linearGradient id="paint13_linear_127_7581" x1="670.432" y1="500.204" x2="641.658" y2="500.204" gradientUnits="userSpaceOnUse">
<stop stop-color="#4F52FF"/>
<stop offset="0.5" stop-color="#474AF0"/>
<stop offset="1" stop-color="#4042E2"/>
</linearGradient>
<linearGradient id="paint14_linear_127_7581" x1="671.246" y1="494.592" x2="643.283" y2="494.592" gradientUnits="userSpaceOnUse">
<stop stop-color="#09005D"/>
<stop offset="0.5" stop-color="#120777"/>
<stop offset="1" stop-color="#1A0F91"/>
</linearGradient>
<linearGradient id="paint15_linear_127_7581" x1="683.13" y1="486.617" x2="675.025" y2="486.617" gradientUnits="userSpaceOnUse">
<stop stop-color="#FEBBBA"/>
<stop offset="0.5" stop-color="#FEA7A4"/>
<stop offset="1" stop-color="#FF928E"/>
</linearGradient>
<linearGradient id="paint16_linear_127_7581" x1="860.359" y1="499.614" x2="849.333" y2="499.614" gradientUnits="userSpaceOnUse">
<stop stop-color="#4F52FF"/>
<stop offset="0.5" stop-color="#474AF0"/>
<stop offset="1" stop-color="#4042E2"/>
</linearGradient>
<linearGradient id="paint17_linear_127_7581" x1="854.895" y1="491.048" x2="838.709" y2="491.048" gradientUnits="userSpaceOnUse">
<stop stop-color="#09005D"/>
<stop offset="0.5" stop-color="#120777"/>
<stop offset="1" stop-color="#1A0F91"/>
</linearGradient>
<linearGradient id="paint18_linear_127_7581" x1="836.149" y1="479.971" x2="826.462" y2="479.971" gradientUnits="userSpaceOnUse">
<stop stop-color="#FEBBBA"/>
<stop offset="0.5" stop-color="#FEA7A4"/>
<stop offset="1" stop-color="#FF928E"/>
</linearGradient>
<linearGradient id="paint19_linear_127_7581" x1="766.446" y1="197.587" x2="838.712" y2="61.417" gradientUnits="userSpaceOnUse">
<stop stop-color="#4F52FF"/>
<stop offset="0.5" stop-color="#474AF0"/>
<stop offset="1" stop-color="#4042E2"/>
</linearGradient>
<linearGradient id="paint20_linear_127_7581" x1="695.98" y1="444.082" x2="691.339" y2="453.365" gradientUnits="userSpaceOnUse">
<stop stop-color="#53D8FF"/>
<stop offset="0.5" stop-color="#468CFB"/>
<stop offset="1" stop-color="#3840F7"/>
</linearGradient>
<linearGradient id="paint21_linear_127_7581" x1="746.277" y1="592.604" x2="788.112" y2="553.854" gradientUnits="userSpaceOnUse">
<stop stop-color="#4F52FF"/>
<stop offset="0.5" stop-color="#474AF0"/>
<stop offset="1" stop-color="#4042E2"/>
</linearGradient>
<linearGradient id="paint22_linear_127_7581" x1="738.198" y1="397.622" x2="777.988" y2="374.424" gradientUnits="userSpaceOnUse">
<stop stop-color="#FEBBBA"/>
<stop offset="0.5" stop-color="#FEA7A4"/>
<stop offset="1" stop-color="#FF928E"/>
</linearGradient>
<linearGradient id="paint23_linear_127_7581" x1="838.357" y1="594.106" x2="880.192" y2="555.356" gradientUnits="userSpaceOnUse">
<stop stop-color="#4F52FF"/>
<stop offset="0.5" stop-color="#474AF0"/>
<stop offset="1" stop-color="#4042E2"/>
</linearGradient>
<linearGradient id="paint24_linear_127_7581" x1="656.735" y1="594.47" x2="698.57" y2="555.719" gradientUnits="userSpaceOnUse">
<stop stop-color="#4F52FF"/>
<stop offset="0.5" stop-color="#474AF0"/>
<stop offset="1" stop-color="#4042E2"/>
</linearGradient>
<linearGradient id="paint25_linear_127_7581" x1="495.847" y1="352.137" x2="469.216" y2="346.824" gradientUnits="userSpaceOnUse">
<stop stop-color="#FEBBBA"/>
<stop offset="0.5" stop-color="#FEA7A4"/>
<stop offset="1" stop-color="#FF928E"/>
</linearGradient>
<linearGradient id="paint26_linear_127_7581" x1="434.379" y1="287.683" x2="433.022" y2="270.841" gradientUnits="userSpaceOnUse">
<stop stop-color="#FEBBBA"/>
<stop offset="0.5" stop-color="#FEA7A4"/>
<stop offset="1" stop-color="#FF928E"/>
</linearGradient>
<linearGradient id="paint27_linear_127_7581" x1="381.787" y1="325.45" x2="481.33" y2="385.747" gradientUnits="userSpaceOnUse">
<stop stop-color="#09005D"/>
<stop offset="0.5" stop-color="#120777"/>
<stop offset="1" stop-color="#1A0F91"/>
</linearGradient>
<radialGradient id="paint28_radial_127_7581" cx="0" cy="0" r="1" gradientUnits="userSpaceOnUse" gradientTransform="translate(307.257 270.442) rotate(11.282) scale(63.8119 63.8119)">
<stop stop-color="white"/>
<stop offset="0.7" stop-color="#9681B5"/>
<stop offset="1" stop-color="#2E036A"/>
</radialGradient>
<linearGradient id="paint29_linear_127_7581" x1="314.537" y1="271.991" x2="172.099" y2="243.576" gradientUnits="userSpaceOnUse">
<stop stop-color="#09005D"/>
<stop offset="0.5" stop-color="#120777"/>
<stop offset="1" stop-color="#1A0F91"/>
</linearGradient>
<linearGradient id="paint30_linear_127_7581" x1="419.828" y1="266.467" x2="424.744" y2="252.824" gradientUnits="userSpaceOnUse">
<stop stop-color="#FEBBBA"/>
<stop offset="0.5" stop-color="#FEA7A4"/>
<stop offset="1" stop-color="#FF928E"/>
</linearGradient>
<linearGradient id="paint31_linear_127_7581" x1="425.519" y1="249.018" x2="425.971" y2="275.871" gradientUnits="userSpaceOnUse">
<stop stop-color="#09005D"/>
<stop offset="0.5" stop-color="#120777"/>
<stop offset="1" stop-color="#1A0F91"/>
</linearGradient>
<linearGradient id="paint32_linear_127_7581" x1="433.639" y1="269.592" x2="441.85" y2="264.496" gradientUnits="userSpaceOnUse">
<stop stop-color="#FEBBBA"/>
<stop offset="0.5" stop-color="#FEA7A4"/>
<stop offset="1" stop-color="#FF928E"/>
</linearGradient>
<linearGradient id="paint33_linear_127_7581" x1="460.065" y1="368.118" x2="446.682" y2="364.014" gradientUnits="userSpaceOnUse">
<stop stop-color="#FEBBBA"/>
<stop offset="0.5" stop-color="#FEA7A4"/>
<stop offset="1" stop-color="#FF928E"/>
</linearGradient>
<linearGradient id="paint34_linear_127_7581" x1="369.611" y1="320.444" x2="366.971" y2="327.308" gradientUnits="userSpaceOnUse">
<stop stop-color="#FEBBBA"/>
<stop offset="0.5" stop-color="#FEA7A4"/>
<stop offset="1" stop-color="#FF928E"/>
</linearGradient>
<linearGradient id="paint35_linear_127_7581" x1="163.581" y1="454.098" x2="90.398" y2="493.957" gradientUnits="userSpaceOnUse">
<stop stop-color="#09005D"/>
<stop offset="0.5" stop-color="#120777"/>
<stop offset="1" stop-color="#1A0F91"/>
</linearGradient>
<linearGradient id="paint36_linear_127_7581" x1="205.251" y1="452.648" x2="229.731" y2="467.057" gradientUnits="userSpaceOnUse">
<stop stop-color="#09005D"/>
<stop offset="0.5" stop-color="#120777"/>
<stop offset="1" stop-color="#1A0F91"/>
</linearGradient>
<linearGradient id="paint37_linear_127_7581" x1="214.23" y1="409.287" x2="186.596" y2="426.214" gradientUnits="userSpaceOnUse">
<stop stop-color="#4F52FF"/>
<stop offset="0.5" stop-color="#474AF0"/>
<stop offset="1" stop-color="#4042E2"/>
</linearGradient>
<linearGradient id="paint38_linear_127_7581" x1="237.261" y1="505.685" x2="250.733" y2="512.597" gradientUnits="userSpaceOnUse">
<stop stop-color="#09005D"/>
<stop offset="0.5" stop-color="#120777"/>
<stop offset="1" stop-color="#1A0F91"/>
</linearGradient>
<linearGradient id="paint39_linear_127_7581" x1="224.559" y1="479.014" x2="159.657" y2="447.313" gradientUnits="userSpaceOnUse">
<stop stop-color="#4F52FF"/>
<stop offset="0.5" stop-color="#474AF0"/>
<stop offset="1" stop-color="#4042E2"/>
</linearGradient>
<linearGradient id="paint40_linear_127_7581" x1="47.2609" y1="403.615" x2="22.1466" y2="433.48" gradientUnits="userSpaceOnUse">
<stop stop-color="#FEBBBA"/>
<stop offset="0.5" stop-color="#FEA7A4"/>
<stop offset="1" stop-color="#FF928E"/>
</linearGradient>
<linearGradient id="paint41_linear_127_7581" x1="120.718" y1="413.97" x2="175.703" y2="430.489" gradientUnits="userSpaceOnUse">
<stop stop-color="#FEBBBA"/>
<stop offset="0.5" stop-color="#FEA7A4"/>
<stop offset="1" stop-color="#FF928E"/>
</linearGradient>
<linearGradient id="paint42_linear_127_7581" x1="120.914" y1="370.374" x2="117.294" y2="358.382" gradientUnits="userSpaceOnUse">
<stop stop-color="#FEBBBA"/>
<stop offset="0.5" stop-color="#FEA7A4"/>
<stop offset="1" stop-color="#FF928E"/>
</linearGradient>
<linearGradient id="paint43_linear_127_7581" x1="124.461" y1="356.672" x2="129.246" y2="342.182" gradientUnits="userSpaceOnUse">
<stop stop-color="#FEBBBA"/>
<stop offset="0.5" stop-color="#FEA7A4"/>
<stop offset="1" stop-color="#FF928E"/>
</linearGradient>
<linearGradient id="paint44_linear_127_7581" x1="114.641" y1="345.099" x2="114.952" y2="332.738" gradientUnits="userSpaceOnUse">
<stop stop-color="#09005D"/>
<stop offset="0.5" stop-color="#120777"/>
<stop offset="1" stop-color="#1A0F91"/>
</linearGradient>
<linearGradient id="paint45_linear_127_7581" x1="116.818" y1="352.183" x2="113.775" y2="347.113" gradientUnits="userSpaceOnUse">
<stop stop-color="#FEBBBA"/>
<stop offset="0.5" stop-color="#FEA7A4"/>
<stop offset="1" stop-color="#FF928E"/>
</linearGradient>
<linearGradient id="paint46_linear_127_7581" x1="204.168" y1="432.513" x2="217.205" y2="398.873" gradientUnits="userSpaceOnUse">
<stop stop-color="#09005D"/>
<stop offset="0.5" stop-color="#120777"/>
<stop offset="1" stop-color="#1A0F91"/>
</linearGradient>
<linearGradient id="paint47_linear_127_7581" x1="148.634" y1="408.636" x2="143.181" y2="408.636" gradientUnits="userSpaceOnUse">
<stop stop-color="#4F52FF"/>
<stop offset="0.5" stop-color="#474AF0"/>
<stop offset="1" stop-color="#4042E2"/>
</linearGradient>
<linearGradient id="paint48_linear_127_7581" x1="15.951" y1="444.082" x2="-14.5934" y2="452.453" gradientUnits="userSpaceOnUse">
<stop stop-color="#09005D"/>
<stop offset="0.5" stop-color="#120777"/>
<stop offset="1" stop-color="#1A0F91"/>
</linearGradient>
<linearGradient id="paint49_linear_127_7581" x1="-1.77639" y1="318.545" x2="-100.503" y2="187.045" gradientUnits="userSpaceOnUse">
<stop stop-color="#4F52FF"/>
<stop offset="0.5" stop-color="#474AF0"/>
<stop offset="1" stop-color="#4042E2"/>
</linearGradient>
<linearGradient id="paint50_linear_127_7581" x1="-55.8304" y1="309.832" x2="-154.557" y2="178.331" gradientUnits="userSpaceOnUse">
<stop stop-color="#4F52FF"/>
<stop offset="0.5" stop-color="#474AF0"/>
<stop offset="1" stop-color="#4042E2"/>
</linearGradient>
<linearGradient id="paint51_linear_127_7581" x1="112.383" y1="422.634" x2="91.6042" y2="404.09" gradientUnits="userSpaceOnUse">
<stop stop-color="#4F52FF"/>
<stop offset="0.5" stop-color="#474AF0"/>
<stop offset="1" stop-color="#4042E2"/>
</linearGradient>
<clipPath id="clip0_127_7581">
<rect width="547" height="547" fill="white"/>
</clipPath>
</defs>
</svg>
