<svg width="392" height="420" viewBox="0 0 392 420" fill="none" xmlns="http://www.w3.org/2000/svg">
<path d="M195.485 119.555V44.1794" stroke="#8CEFE9" stroke-width="3.14342" stroke-miterlimit="10"/>
<path d="M175.573 22.5538C175.573 11.2021 184.775 2 196.126 2C207.478 2 216.681 11.2021 216.681 22.5538C216.681 33.9056 207.478 43.1077 196.126 43.1077C184.775 43.1077 175.573 33.9056 175.573 22.5538Z" stroke="#8CEFE9" stroke-width="3.14342" stroke-miterlimit="10"/>
<path d="M90.6534 143.522L45.8799 92.9286" stroke="#8CEFE9" stroke-width="3.14342" stroke-miterlimit="10"/>
<path d="M21.5411 62.4064C30.2202 55.0892 43.1874 56.1938 50.5038 64.873C57.821 73.5521 56.7172 86.5177 48.038 93.8349C39.3597 101.152 26.3918 100.048 19.0753 91.3691C11.7589 82.69 12.862 69.7229 21.5411 62.4064Z" stroke="#8CEFE9" stroke-width="3.14342" stroke-miterlimit="10"/>
<path d="M300.321 143.522L345.095 92.9287" stroke="#8CEFE9" stroke-width="3.14342" stroke-miterlimit="10"/>
<path d="M344.759 62.4064C353.438 55.0892 366.405 56.1938 373.722 64.873C381.038 73.5521 379.934 86.5177 371.256 93.8349C362.577 101.152 349.61 100.048 342.293 91.3691C334.976 82.69 336.08 69.7229 344.759 62.4064Z" stroke="#8CEFE9" stroke-width="3.14342" stroke-miterlimit="10"/>
<path d="M300.917 276.176L345.69 326.77" stroke="#8CEFE9" stroke-width="3.14342" stroke-miterlimit="10"/>
<path d="M370.667 357.735C361.988 365.051 349.021 363.947 341.705 355.269C334.387 346.589 335.491 333.623 344.17 326.306C352.849 318.988 365.816 320.092 373.132 328.772C380.45 337.45 379.346 350.418 370.667 357.735Z" stroke="#8CEFE9" stroke-width="3.14342" stroke-miterlimit="10"/>
<path d="M196.082 300.143V375.519" stroke="#8CEFE9" stroke-width="3.14342" stroke-miterlimit="10"/>
<path d="M216.634 397.588C216.634 408.939 207.432 418.142 196.08 418.142C184.729 418.142 175.526 408.939 175.526 397.588C175.526 386.236 184.729 377.034 196.08 377.034C207.432 377.034 216.634 386.236 216.634 397.588Z" stroke="#8CEFE9" stroke-width="3.14342" stroke-miterlimit="10"/>
<path d="M91.2452 276.176L46.4717 326.77" stroke="#8CEFE9" stroke-width="3.14342" stroke-miterlimit="10"/>
<path d="M47.4499 357.735C38.7708 365.051 25.8029 363.948 18.4864 355.269C11.1692 346.589 12.2739 333.623 20.953 326.306C29.6313 318.988 42.5993 320.092 49.9157 328.772C57.2329 337.451 56.129 350.418 47.4499 357.735Z" stroke="#8CEFE9" stroke-width="3.14342" stroke-miterlimit="10"/>
<path d="M391.999 207.017V207.071C348.403 267.994 276.912 307.777 196.079 307.777C115.247 307.777 43.757 267.994 0.204102 207.071V207.017C43.757 146.04 115.247 106.257 196.079 106.257C276.912 106.257 348.403 146.04 391.999 207.017Z" fill="#6682FF"/>
<path d="M382.617 194.755C338.844 254.037 268.348 294.852 188.805 294.852C113.532 294.852 44.2596 260.961 0.205972 207.018C-0.502472 207.98 0.900671 206.045 0.205972 207.018V207.07C43.7588 267.994 115.248 307.778 196.081 307.778C276.913 307.778 348.403 267.994 391.999 207.07V207.018C389.003 202.827 385.871 198.739 382.617 194.755Z" fill="#4A6CE1"/>
<path d="M277.668 207.017C277.668 252.063 241.151 288.58 196.105 288.58C151.06 288.58 114.543 252.063 114.543 207.017C114.543 161.972 151.06 125.456 196.105 125.456C241.151 125.456 277.668 161.972 277.668 207.017Z" fill="#A2D7F7"/>
</svg>
