<svg width="222" height="257" viewBox="0 0 222 257" fill="none" xmlns="http://www.w3.org/2000/svg">
<rect width="134.905" height="126.639" rx="15" transform="matrix(-0.981183 -0.19308 -0.193036 0.981192 186.76 61.1345)" fill="#686767"/>
<rect width="134.905" height="2.75302" transform="matrix(-0.981183 -0.19308 -0.193037 0.981192 180.118 94.9001)" fill="#595959"/>
<rect width="134.905" height="2.75302" transform="matrix(-0.981183 -0.19308 -0.193037 0.981192 177.461 108.406)" fill="#595959"/>
<ellipse cx="2.75318" cy="2.75304" rx="2.75318" ry="2.75304" transform="matrix(-0.981183 -0.19308 -0.193037 0.981192 178.457 81.947)" fill="#7D7D7D"/>
<ellipse cx="2.75313" cy="2.75301" rx="2.75313" ry="2.75301" transform="matrix(-0.981184 -0.193077 -0.19304 0.981191 62.2988 59.0886)" fill="#7D7D7D"/>
<ellipse cx="2.75315" cy="2.75301" rx="2.75315" ry="2.75301" transform="matrix(-0.981183 -0.19308 -0.193037 0.981192 172.345 113.011)" fill="#7D7D7D"/>
<ellipse cx="2.75318" cy="2.75304" rx="2.75318" ry="2.75304" transform="matrix(-0.981183 -0.19308 -0.193037 0.981192 56.1875 90.1538)" fill="#7D7D7D"/>
<rect width="26.155" height="70.202" rx="10" transform="matrix(-0.687744 -0.725953 -0.725923 0.687776 88.6201 106.301)" fill="#D6D6D6"/>
<ellipse cx="8.94777" cy="8.94732" rx="8.94777" ry="8.94732" transform="matrix(-0.687744 -0.725953 -0.725923 0.687776 42.0244 137.176)" fill="url(#paint0_radial_801_226)"/>
<rect width="26.155" height="70.202" rx="10" transform="matrix(0.879197 -0.476458 0.476419 0.879218 136.862 117.391)" fill="#D6D6D6"/>
<ellipse cx="8.94778" cy="8.94732" rx="8.94778" ry="8.94732" transform="matrix(0.879197 -0.476458 0.476419 0.879218 170.856 160.782)" fill="url(#paint1_radial_801_226)"/>
<path d="M65.5461 164.252L134.431 177.808L123.075 235.527C122.009 240.946 116.752 244.474 111.333 243.408L104.618 242.087C99.1995 241.02 95.6709 235.763 96.737 230.344L101.948 203.858C102.773 199.662 100.041 195.591 95.8448 194.766C91.6488 193.94 87.5781 196.672 86.7526 200.868L81.5419 227.354C80.4757 232.773 75.2186 236.301 69.7996 235.235L62.0721 233.714C56.6532 232.648 53.1245 227.39 54.1906 221.971L65.5461 164.252Z" fill="#D6D6D6"/>
<rect width="89.4777" height="86.7202" transform="matrix(-0.981183 -0.19308 -0.193037 0.981192 160.095 97.2808)" fill="#E1E1E1"/>
<rect width="83.9714" height="24.7772" transform="matrix(-0.981183 -0.19308 -0.193037 0.981192 143.311 168.333)" fill="#E1E1E1"/>
<rect width="6.8829" height="86.7202" transform="matrix(-0.981183 -0.193079 -0.193037 0.981191 146.588 94.623)" fill="url(#paint2_linear_801_226)"/>
<rect width="6.88291" height="86.7202" transform="matrix(-0.981183 -0.19308 -0.193036 0.981192 95.2617 84.5225)" fill="url(#paint3_linear_801_226)"/>
<rect width="89.4777" height="2.75302" transform="matrix(-0.981183 -0.19308 -0.193037 0.981192 143.886 179.669)" fill="#9A9A9A"/>
<rect width="9.63609" height="22.0242" rx="4.81805" transform="matrix(-0.981183 -0.193081 -0.193035 0.981192 78.9434 46.239)" fill="#D6D6D6"/>
<rect width="9.63606" height="22.0242" rx="4.81803" transform="matrix(-0.981183 -0.193079 -0.193037 0.981191 176.192 65.3757)" fill="#D6D6D6"/>
<path d="M73.0108 56.295C67.7544 83.0128 85.1533 108.934 111.872 114.192C138.591 119.45 164.513 102.053 169.769 75.3353C175.025 48.6174 157.626 22.6959 130.907 17.4381C104.188 12.1803 78.2672 29.5771 73.0108 56.295Z" fill="#D6D6D6" stroke="#E1E1E1" stroke-width="0.5"/>
<path fill-rule="evenodd" clip-rule="evenodd" d="M72.5725 57.6147C68.9404 83.4861 86.1424 107.98 112.089 113.086C138.038 118.192 163.239 102.039 169.675 76.7159C169.548 77.6209 169.395 78.5276 169.217 79.4352C163.934 106.289 137.881 123.774 111.027 118.489C84.1721 113.205 66.685 87.1517 71.9681 60.2983C72.1462 59.393 72.3479 58.4982 72.5725 57.6147Z" fill="#DDDDDD"/>
<path fill-rule="evenodd" clip-rule="evenodd" d="M71.5094 63.0182C67.878 88.8892 85.0799 113.383 111.026 118.489C136.976 123.595 162.177 107.441 168.612 82.117C168.485 83.0224 168.333 83.9295 168.154 84.8374C162.871 111.691 136.818 129.176 109.964 123.891C83.1094 118.607 65.6223 92.5539 70.9053 65.7006C71.0834 64.7956 71.285 63.9013 71.5094 63.0182Z" fill="#D6D6D6"/>
<path d="M81.0277 41.0373C99.4944 32.7464 145.008 40.2997 166.375 52.9221C169.685 75.3185 162.108 96.6452 141.166 106.182C129.537 111.477 120.932 111.152 108.506 108.173C99.3126 105.968 93.7159 103.957 86.7399 97.5763C70.3635 82.598 73.9088 52.2626 81.0277 41.0373Z" fill="black"/>
<rect width="2.75316" height="1.37652" rx="0.688259" transform="matrix(-0.855985 -0.517001 -0.517001 0.855985 93.7852 114.216)" fill="#C4C4C4"/>
<rect width="1.37663" height="1.37646" rx="0.68823" transform="matrix(-0.855984 -0.517002 -0.517 0.855985 88.9141 110.451)" fill="#C4C4C4"/>
<mask id="mask0_801_226" style="mask-type:alpha" maskUnits="userSpaceOnUse" x="75" y="37" width="93" height="74">
<path d="M81.0277 41.0385C99.4944 32.7477 145.008 40.3009 166.375 52.9233C169.685 75.3197 162.108 96.6465 141.166 106.183C129.537 111.479 120.932 111.154 108.506 108.174C99.3126 105.969 93.7159 103.958 86.7399 97.5776C70.3635 82.5992 73.9088 52.2638 81.0277 41.0385Z" fill="black"/>
</mask>
<g mask="url(#mask0_801_226)">
<rect width="13.7653" height="76.274" transform="matrix(-0.914488 0.404613 0.40467 0.914463 136.794 30.3274)" fill="#484848"/>
<rect width="7.76722" height="80.4082" transform="matrix(-0.914488 0.404614 0.40467 0.914463 113.544 33.7058)" fill="#484848"/>
</g>
<ellipse cx="8.94776" cy="8.94732" rx="8.94776" ry="8.94732" transform="matrix(-0.981183 -0.193079 -0.193037 0.981191 161.048 56.7847)" fill="#828282" fill-opacity="0.5"/>
<ellipse cx="4.81805" cy="4.81778" rx="4.81805" ry="4.81778" transform="matrix(-0.981183 -0.193082 -0.193034 0.981192 147.54 54.126)" fill="#828282" fill-opacity="0.5"/>
<ellipse cx="3.44144" cy="3.44128" rx="3.44144" ry="3.44128" transform="matrix(-0.981183 -0.193078 -0.193039 0.981191 158.39 70.2896)" fill="#828282" fill-opacity="0.5"/>
<ellipse cx="3.44145" cy="3.44128" rx="3.44145" ry="3.44128" transform="matrix(-0.981183 -0.193079 -0.193037 0.981191 156.93 34.9302)" fill="#BC0D0D"/>
<ellipse cx="3.44147" cy="3.44128" rx="3.44147" ry="3.44128" transform="matrix(-0.981183 -0.193081 -0.193035 0.981192 143.135 26.604)" fill="#BC0D0D"/>
<rect width="37.1677" height="19.2712" rx="5" transform="matrix(-0.981183 -0.193079 -0.193037 0.981191 127.28 135.716)" fill="#8CEFE9"/>
<path d="M103.786 133.899L109.57 141.174L104.334 139.267L111.935 149.531" stroke="#D2CB15"/>
<defs>
<radialGradient id="paint0_radial_801_226" cx="0" cy="0" r="1" gradientUnits="userSpaceOnUse" gradientTransform="translate(11.0126 11.0121) rotate(-156.802) scale(5.24182 5.24164)">
<stop stop-color="white"/>
<stop offset="1" stop-color="#DDDDDD"/>
</radialGradient>
<radialGradient id="paint1_radial_801_226" cx="0" cy="0" r="1" gradientUnits="userSpaceOnUse" gradientTransform="translate(11.0126 11.0121) rotate(-156.802) scale(5.24182 5.24164)">
<stop stop-color="white"/>
<stop offset="1" stop-color="#DDDDDD"/>
</radialGradient>
<linearGradient id="paint2_linear_801_226" x1="3.44145" y1="0" x2="3.44145" y2="86.7202" gradientUnits="userSpaceOnUse">
<stop stop-color="#3BB094"/>
<stop offset="1" stop-color="#232030"/>
</linearGradient>
<linearGradient id="paint3_linear_801_226" x1="3.44146" y1="0" x2="3.44146" y2="86.7202" gradientUnits="userSpaceOnUse">
<stop stop-color="#3BB094"/>
<stop offset="1" stop-color="#232030"/>
</linearGradient>
</defs>
</svg>
