<svg width="182" height="182" viewBox="0 0 182 182" fill="none" xmlns="http://www.w3.org/2000/svg">
<g clip-path="url(#clip0_801_202)">
<path d="M139.724 49.6041C172.06 87.8875 149.895 148.859 98.0653 154.518C74.0644 157.184 49.3748 145.937 35.9291 123.744C28.7287 111.852 25.7744 98.2319 26.8267 85.3098C31.2601 29.0443 102.335 5.28631 139.724 49.6041Z" fill="url(#paint0_radial_801_202)"/>
<path d="M58.3982 123.9C70.9236 136.179 88.5988 139.979 104.235 135.33C138.717 125.088 148.257 80.9699 122.379 57.1671C106.1 41.8391 81.1478 40.317 63.3253 53.3508C40.2675 70.1173 37.8694 103.774 58.3982 123.9Z" fill="url(#paint1_radial_801_202)"/>
<g opacity="0.75">
<path d="M72.3441 83.2989C74.0545 84.3078 72.7649 86.3832 71.61 86.0038C70.449 85.6307 67.3519 84.8776 67.7244 83.7126C68.0909 82.5539 70.3983 82.1564 72.3441 83.2989Z" fill="#8CEFE9"/>
<path d="M72.7573 55.5293C73.7927 57.1394 74.7315 59.3714 72.4144 59.0064C70.091 58.6353 68.3309 56.1446 69.2729 54.7851C70.2273 53.4254 70.7868 52.4559 72.7573 55.5293Z" fill="#8CEFE9"/>
<path d="M68.8687 113.021C73.4093 114.121 78.1832 117.586 76.8636 119.717C75.544 121.848 70.1446 121.886 67.2073 118.242C64.2578 114.597 65.7716 112.268 68.8687 113.021Z" fill="#8CEFE9"/>
<path d="M50.2859 113.287C52.124 116.582 54.3903 119.703 57.0961 122.562C60.4189 117.889 55.3005 115.373 52.6863 113.903C51.9182 113.478 51.0919 113.312 50.2859 113.287Z" fill="#8CEFE9"/>
<path d="M87.2186 130.635C85.4139 129.946 87.1643 126.392 91.2034 125.785C95.2425 125.179 98.8866 123.031 101.606 124.556C104.326 126.08 98.0718 134.802 87.2186 130.635Z" fill="#8CEFE9"/>
<path d="M105.145 129.543C105.715 130.345 104.599 132.056 102.847 130.715C101.09 129.381 103.372 127.053 105.145 129.543Z" fill="#8CEFE9"/>
<path d="M95.5626 104.544C97.0605 105.769 97.7262 107.806 96.0093 109.171C94.2924 110.536 93.6674 106.875 92.6895 105.917C91.7117 104.958 93.2256 102.629 95.5626 104.544Z" fill="#8CEFE9"/>
<path d="M99.7865 73.2726C101.516 73.8754 99.2505 76.5604 97.8962 75.9857C96.5359 75.4171 94.9491 71.5662 99.7865 73.2726Z" fill="#8CEFE9"/>
</g>
<path d="M99.9147 98.1479C105.413 105.821 106.202 106.972 107.303 117.96C108.035 125.224 113.271 128.244 116.73 129.45C119.285 127.728 121.714 125.725 123.96 123.433C133.163 114.046 137.532 101.703 137.093 89.4923C135.038 88.984 132.673 88.7054 130.267 89.0667C123.533 90.0795 122.594 92.2078 109.622 88.2461C96.656 84.2906 94.4165 90.4746 99.9147 98.1479Z" fill="url(#paint2_linear_801_202)"/>
<path d="M74.6204 47.3248C81.9997 52.0575 79.4221 63.047 84.0868 66.6365C89.5406 70.8416 95.2126 62.315 106.742 58.7655C112.513 56.9907 115.23 54.5055 116.502 52.4733C103.988 44.019 88.3328 42.3209 74.6204 47.3248Z" fill="url(#paint3_linear_801_202)"/>
<path d="M57.5593 58.3359C44.9986 71.1482 41.4505 89.4444 46.8091 105.433C53.0269 103.987 51.8581 97.2431 50.0508 89.6299C47.8082 80.1933 54.8005 84.0002 59.7298 77.0285C64.6529 70.0508 68.7475 73.2999 71.9389 66.5311C74.2203 61.6997 64.3418 58.7187 58.5008 57.4129C58.1848 57.7103 57.8689 58.0201 57.5593 58.3359Z" fill="url(#paint4_linear_801_202)"/>
<path d="M78.9027 98.8737C81.3783 103.45 87.4188 101.126 90.9564 106.501C94.4939 111.876 90.4049 123.472 84.5391 117.345C78.6733 111.218 77.8749 108.905 70.3366 107.611C62.7983 106.317 59.6173 99.0092 62.8136 92.6216C66.0161 86.2401 70.6122 83.5081 78.9027 98.8737Z" fill="url(#paint5_linear_801_202)"/>
<path d="M85.7639 77.0363C87.0496 79.4626 86.582 80.8866 84.8552 81.4768C83.1284 82.067 80.9747 79.5791 78.0917 80.1774C75.2088 80.7758 70.1808 80.0362 73.2087 75.3903C76.2304 70.7382 82.8019 71.4607 85.7639 77.0363Z" fill="url(#paint6_linear_801_202)"/>
<path opacity="0.5" d="M102.497 73.6348C100.308 76.5652 105.232 76.3154 109.896 79.3699C114.56 82.4243 118.412 81.6224 118.179 78.3462C117.947 75.0699 116.746 71.6098 113.068 70.664C109.391 69.7304 104.965 70.3457 102.497 73.6348Z" fill="#8CEFE9"/>
<path d="M121.64 62.32C126.523 67.1072 126.2 72.1216 129.167 78.0784C130.94 81.6267 134.108 82.6315 136.381 82.8677C134.726 73.6914 130.302 64.9097 123.121 57.8694C122.872 57.6251 122.629 57.387 122.374 57.1612C120.659 58.2249 119.217 59.9447 121.64 62.32Z" fill="url(#paint7_linear_801_202)"/>
<path opacity="0.45" d="M49.2393 69.9868C43.7226 81.0338 42.9272 93.8434 46.8088 105.433C47.7167 108.133 48.8758 110.763 50.2797 113.293C52.1178 116.589 54.3841 119.709 57.09 122.568C57.514 123.021 57.9501 123.46 58.3985 123.9C70.9239 136.179 88.5991 139.979 104.235 135.33C108.61 134.033 112.828 132.072 116.731 129.449C119.286 127.728 121.714 125.725 123.96 123.433C127.87 119.445 130.905 114.928 133.07 110.116C118.381 117.587 95.6767 123.552 73.5216 107.066C69.1999 103.849 65.5705 100.425 62.5238 96.8791C55.0627 88.168 51.129 78.7494 49.2393 69.9868Z" fill="url(#paint8_linear_801_202)"/>
<path opacity="0.45" d="M57.5588 58.3359C54.1045 61.8594 51.3319 65.7964 49.2391 69.9868C43.7224 81.0338 42.927 93.8435 46.8086 105.433C47.7165 108.133 48.8756 110.763 50.2795 113.293C52.1176 116.589 54.3839 119.709 57.0898 122.568C57.5138 123.021 57.9499 123.46 58.3983 123.9C70.9237 136.179 88.5989 139.979 104.235 135.33C96.1912 132.048 87.7801 126.947 79.3611 119.312C71.191 111.91 65.8475 104.303 62.5296 96.873C55.3878 80.9089 57.5795 65.7156 61.2061 54.9893C60.281 55.7461 59.3749 56.5581 58.5001 57.4006C58.1842 57.7104 57.8684 58.0201 57.5588 58.3359Z" fill="url(#paint9_linear_801_202)"/>
<path d="M63.3009 53.3631C63.3009 53.3631 84.9054 40.7825 112.198 56.4267C128.56 65.801 134.599 77.7324 136.811 85.7794C133.451 56.3021 103.098 36.9402 74.6199 47.3243C68.0146 49.7261 64.0759 52.8841 63.3009 53.3631Z" fill="url(#paint10_linear_801_202)"/>
</g>
<defs>
<radialGradient id="paint0_radial_801_202" cx="0" cy="0" r="1" gradientUnits="userSpaceOnUse" gradientTransform="translate(90.7765 90.774) rotate(-135.568) scale(55.5593 55.239)">
<stop stop-color="#90DD6F"/>
<stop offset="1" stop-color="#B8FFA9" stop-opacity="0"/>
</radialGradient>
<radialGradient id="paint1_radial_801_202" cx="0" cy="0" r="1" gradientUnits="userSpaceOnUse" gradientTransform="translate(101.779 76.3529) rotate(-135.568) scale(56.4281 56.1028)">
<stop stop-color="#00B3DC"/>
<stop offset="1" stop-color="#056DB0"/>
</radialGradient>
<linearGradient id="paint2_linear_801_202" x1="162.473" y1="61.3793" x2="61.8529" y2="148.952" gradientUnits="userSpaceOnUse">
<stop stop-color="#F2F236"/>
<stop offset="1" stop-color="#F2F236" stop-opacity="0"/>
</linearGradient>
<linearGradient id="paint3_linear_801_202" x1="128.113" y1="21.8997" x2="27.4927" y2="109.473" gradientUnits="userSpaceOnUse">
<stop stop-color="#F2F236"/>
<stop offset="1" stop-color="#F2F236" stop-opacity="0"/>
</linearGradient>
<linearGradient id="paint4_linear_801_202" x1="125.385" y1="18.7648" x2="24.7647" y2="106.338" gradientUnits="userSpaceOnUse">
<stop stop-color="#F2F236"/>
<stop offset="1" stop-color="#F2F236" stop-opacity="0"/>
</linearGradient>
<linearGradient id="paint5_linear_801_202" x1="146.84" y1="43.4175" x2="46.22" y2="130.991" gradientUnits="userSpaceOnUse">
<stop stop-color="#F2F236"/>
<stop offset="1" stop-color="#F2F236" stop-opacity="0"/>
</linearGradient>
<linearGradient id="paint6_linear_801_202" x1="134.984" y1="29.7941" x2="34.3637" y2="117.367" gradientUnits="userSpaceOnUse">
<stop stop-color="#F2F236"/>
<stop offset="1" stop-color="#F2F236" stop-opacity="0"/>
</linearGradient>
<linearGradient id="paint7_linear_801_202" x1="152.474" y1="49.8903" x2="51.8539" y2="137.463" gradientUnits="userSpaceOnUse">
<stop stop-color="#F2F236"/>
<stop offset="1" stop-color="#F2F236" stop-opacity="0"/>
</linearGradient>
<linearGradient id="paint8_linear_801_202" x1="53.9122" y1="138.572" x2="93.2526" y2="88.5946" gradientUnits="userSpaceOnUse">
<stop stop-color="#00ACD8"/>
<stop offset="1" stop-color="#0983BD"/>
</linearGradient>
<linearGradient id="paint9_linear_801_202" x1="52.4664" y1="133.348" x2="93.2273" y2="80.7636" gradientUnits="userSpaceOnUse">
<stop stop-color="#056EB1"/>
<stop offset="1" stop-color="#00A9D7" stop-opacity="0.3"/>
</linearGradient>
<linearGradient id="paint10_linear_801_202" x1="116.837" y1="16.0542" x2="97.2815" y2="77.4216" gradientUnits="userSpaceOnUse">
<stop stop-color="#E2FFB5"/>
<stop offset="1" stop-color="#FFFFB3" stop-opacity="0"/>
</linearGradient>
<clipPath id="clip0_801_202">
<rect width="128.8" height="127.958" fill="white" transform="matrix(-0.714082 -0.700062 -0.700062 0.714082 181.553 90.1682)"/>
</clipPath>
</defs>
</svg>
